<?xml version="1.0" encoding="utf-8"?>
<!-- Generator: Adobe Illustrator 16.0.4, SVG Export Plug-In . SVG Version: 6.00 Build 0)  -->
<!DOCTYPE svg PUBLIC "-//W3C//DTD SVG 1.1//EN" "http://www.w3.org/Graphics/SVG/1.1/DTD/svg11.dtd">
<svg version="1.1" id="Capa_1" xmlns="http://www.w3.org/2000/svg" xmlns:xlink="http://www.w3.org/1999/xlink" x="0px" y="0px"
	 width="212px" height="576px" viewBox="705.726 29.645 212 576" enable-background="new 705.726 29.645 212 576"
	 xml:space="preserve">
<g>
	<g>
		<g>
			<path fill="#FFFFFF" d="M813.085,268.078c-28.291,0-51.441-11.339-66.951-32.792c-14.104-19.509-21.558-46.499-21.558-78.053
				c0-31.547,7.454-58.533,21.558-78.04c15.51-21.452,38.66-32.791,66.951-32.791c28.294,0,51.448,11.339,66.957,32.791
				c14.104,19.506,21.559,46.492,21.559,78.04c0,31.554-7.454,58.544-21.558,78.053C864.533,256.738,841.38,268.078,813.085,268.078
				z M813.085,49.057c-27.402,0-49.811,10.958-64.8,31.69c-13.773,19.052-21.055,45.5-21.055,76.484
				c0,30.991,7.281,57.443,21.055,76.497c14.988,20.733,37.396,31.692,64.8,31.692c27.407,0,49.816-10.959,64.807-31.692
				c13.773-19.054,21.055-45.506,21.055-76.497c0-30.986-7.28-57.435-21.055-76.484C862.901,60.015,840.492,49.057,813.085,49.057z
				 M813.085,225.544c-25.705,0-38.737-22.984-38.737-68.312c0-45.318,13.032-68.297,38.737-68.297s38.738,22.979,38.738,68.297
				C851.823,202.561,838.79,225.544,813.085,225.544z M813.085,91.59c-23.942,0-36.084,22.085-36.084,65.643
				c0,43.566,12.142,65.657,36.084,65.657c23.943,0,36.084-22.09,36.084-65.657C849.169,113.675,837.028,91.59,813.085,91.59z"/>
		</g>
		<g>
			<path fill="#FFFFFF" d="M841.286,559.244h-32.884c-7.083,0-9.475-2.393-9.475-9.475V409.615h-26.123
				c-7.084,0-9.475-2.391-9.475-9.473V385.35c0-3.813,0.344-6.752,4.797-9.842l35.43-22.01c4.839-3.223,12.149-8.092,17.819-8.092
				h19.909c7.083,0,9.474,2.39,9.474,9.471v194.892C850.76,556.851,848.369,559.244,841.286,559.244z M821.377,348.061
				c-4.866,0-12.054,4.787-16.349,7.647l-0.412,0.274l-35.031,21.743c-3.43,2.382-3.6,4.351-3.6,7.623v14.792
				c0,5.606,1.211,6.817,6.819,6.817h28.777v142.811c0,5.607,1.211,6.818,6.819,6.818h32.884c5.608,0,6.819-1.211,6.819-6.818
				V354.877c0-5.605-1.211-6.816-6.819-6.816H821.377z"/>
		</g>
	</g>
</g>
</svg>
