<svg xmlns="http://www.w3.org/2000/svg" xmlns:xlink="http://www.w3.org/1999/xlink" width="758" height="1183.6" viewBox="25.7 0 758 1183.6"><style><![CDATA[.B{fill:#f3fa20}.C{fill:none}.D{stroke:#fff}.E{stroke-miterlimit:10}.F{fill:#fff}.G{stroke-width:.6}.H{fill:#f4fa34}.I{fill:#f5fb49}.J{fill:#f6fb5d}.K{fill:#f7fc71}.L{fill:#f8fc85}.M{fill:#fafd9a}.N{fill:#fbfdae}.O{fill:#fcfec2}.P{fill:#fdfed6}.Q{fill:#feffeb}.R{fill:#f5ee20}.S{fill:#f6e220}.T{fill:#f8d620}.U{fill:#f9cb21}.V{fill:#fbbf21}.W{fill:#fcb321}.X{fill:#fea721}.Y{stroke-width:1.3}]]></style><image overflow="visible" width="385" height="444" xlink:href="C28DB43349DBC3EF.png" transform="translate(150 248.3)"/><path d="M635.4 506.3c-10.6-2.5-17-13-14.6-23.7 2.5-10.6 13-17 23.7-14.6 10.6 2.5 17 13 14.6 23.7-2.5 10.6-13 17-23.7 14.6z" class="B"/><path fill="#f4fa31" d="M580.6 505c-10-1.7-17-11.3-15.2-21.3 1.7-10 11.2-17 21.3-15.2 10 1.7 17 11.3 15.2 21.3-1.7 10-11.2 17-21.3 15.2z"/><path fill="#f5fb42" d="M551.6 507.6c-9.6-.1-17.2-8-17.2-17.5.1-9.6 8-17.2 17.5-17.2 9.6.1 17.2 8 17.2 17.5s-8 17.2-17.5 17.2z"/><path fill="#f6fb53" d="M518 514.4c-9 .1-16.3-7-16.4-16-.2-9 7-16.3 16-16.4 9-.1 16.3 7 16.4 16 .2 9-7 16.3-16 16.4z"/><path fill="#f7fc65" d="M455.8 525.5a15 15 0 0 1-13.8-16.1 15 15 0 0 1 16.1-13.8 15 15 0 0 1 13.8 16.1 15 15 0 0 1-16.1 13.8z"/><path fill="#f8fc76" d="M395.2 516.2c-6.5-4-8.5-12.5-4.4-19 4-6.5 12.5-8.5 19-4.5 6.5 4 8.5 12.5 4.4 19s-12.5 8.5-19 4.4z"/><path fill="#f9fc87" d="M342.3 485.7c-4.6-5.2-4-13.2 1.2-17.8 5.2-4.6 13.2-4 17.8 1 4.6 5.2 4 13.2-1.2 17.8s-13.2 4-17.8-1.2z"/><path fill="#f9fd98" d="M298 445.6c-3.3-5.4-1.5-12.4 4-15.7 5.4-3.3 12.4-1.6 15.7 3.8 3.3 5.4 1.5 12.4-4 15.7-5.4 3.3-12.4 1.5-15.7-3.8z"/><path fill="#fafda9" d="M264.5 405.8c-2.4-5.2-.1-11.3 5-13.6 5.2-2.4 11.3-.1 13.6 5 2.4 5 .1 11.2-5 13.6-5 2.4-11.2.1-13.6-5z"/><path fill="#fbfdba" d="M244 376.6c-1.7-4.7.7-10 5.4-11.7 4.7-1.7 10 .7 11.7 5.4 1.7 4.7-.7 10-5.4 11.7-4.7 1.7-10-.7-11.7-5.4z"/><path fill="#fcfecc" d="M250.5 357.8c4 1.4 6.3 6 5 10-1.4 4-6 6.3-10 5-4-1.4-6.3-6-5-10 1.4-4 6-6.3 10-5z"/><path fill="#fdfedd" d="M275.6 362c3.4 1.6 4.7 5.7 3 9-1.6 3.4-5.7 4.7-9 3-3.3-1.6-4.7-5.7-3-9 1.6-3.3 5.7-4.7 9-3z"/><path fill="#feffee" d="M326.6 375c2.5 1.8 3 5.3 1.3 7.8-1.8 2.5-5.3 3-7.8 1.3-2.5-1.8-3-5.3-1.3-7.8 1.8-2.5 5.3-3 7.8-1.3z"/><path d="M385.4 402.6c2-1.6 4.7-1.4 6.2.5 1.6 2 1.4 4.7-.5 6.3-2 1.6-4.7 1.4-6.3-.5-1.6-2-1.4-4.7.5-6.3z" class="F"/><path fill="#feffee" d="M408.4 414.6c-1 1.5-3 2-4.6 1-1.5-1-2-3-.8-4.6 1-1.5 3-2 4.6-.8 1.5 1 2 3 1 4.6z"/><path fill="#fdfedd" d="M426 416.5c-.4 1.2-1.6 1.8-2.8 1.4s-1.8-1.6-1.4-2.8c.4-1.2 1.6-1.8 2.8-1.4 1.2.4 1.8 1.7 1.4 2.8z"/><path fill="#fcfecc" d="M443.6 415.6c.1.6-.4 1.2-1 1.2-.6 0-1.2-.4-1.2-1-.1-.6.4-1.2 1-1.2.6-.1 1.2.4 1.2 1z"/><path fill="#fbfdba" d="M461.2 412.5c.3 0 .6.3.5.6s-.3.5-.6.5-.6-.3-.5-.6.3-.6.6-.5z"/><path fill="#fafda9" d="M478.4 407.5c.4-.6 1.3-.8 2-.3s.8 1.3.3 2c-.5.6-1.3.8-2 .3-.6-.4-.8-1.3-.3-2z"/><path fill="#f9fd98" d="M495 401.2c.5-1.3 2-2 3.2-1.4s2 2 1.4 3.2c-.5 1.3-2 2-3.2 1.4-1.3-.5-2-2-1.4-3.2z"/><path fill="#f9fc87" d="M510.3 394c.4-2 2.4-3 4.3-2.7s3 2.4 2.7 4.3-2.4 3-4.3 2.7-3-2.4-2.7-4.3z"/><path fill="#f8fc76" d="M524.2 386.7c.4-2.6 2.7-4.4 5.3-4 2.6.4 4.4 2.7 4 5.3s-2.7 4.4-5.3 4c-2.6-.4-4.4-2.7-4-5.3z"/><path fill="#f7fc65" d="M536.3 379.5c.2-3.2 3-5.6 6.2-5.4 3.2.2 5.6 3 5.4 6.2s-3 5.6-6.2 5.4c-3.2-.2-5.6-3-5.4-6.2z"/><path fill="#f6fb53" d="M546 373c.1-3.8 3.2-7 7-6.8 3.8.1 7 3.2 6.8 7s-3.3 7-7 6.8-7-3.2-6.8-7z"/><path fill="#f5fb42" d="M553.3 368c-.1-4.5 3.4-8.2 8-8.3 4.5-.1 8.2 3.4 8.3 8s-3.4 8.2-8 8.3c-4.5.1-8.2-3.4-8.3-8z"/><path fill="#f4fa31" d="M557.4 364.5c-.3-5 3.6-9.4 8.7-9.7 5-.3 9.4 3.6 9.7 8.7.3 5-3.6 9.4-8.7 9.7-5 .3-9.4-3.6-9.7-8.7z"/><g class="B"><path d="M569.4 373c-5.7.5-10.7-3.7-11.2-9.4s3.7-10.7 9.4-11.2 10.7 3.7 11.2 9.4-3.7 10.7-9.4 11.2zm-366 488c-2.5-6.2.4-13.2 6.6-15.8a12 12 0 0 1 15.8 6.6c2.6 6.2-.4 13.2-6.6 15.8-6.2 2.5-13.2-.4-15.8-6.6z"/><path d="M210 848c-2.7-5.8-.2-12.7 5.6-15.4s12.7-.2 15.4 5.6.2 12.7-5.6 15.4-12.7.2-15.4-5.6zm14.3-36.6c-3-5.4-1-12 4.5-15 5.4-3 12-1 15 4.5 3 5.4 1 12-4.5 15-5.4 3-12 1-15-4.5zm17.5-55.7c-3-5-1.7-11.4 3.2-14.6 5-3 11.4-1.7 14.6 3.2 3 5 1.7 11.4-3.2 14.6-5 3-11.4 1.7-14.6-3.2zm15.4-70a10 10 0 1 1 15.8-12.3 10 10 0 1 1-15.8 12.3zm8.6-80.4c-3.7-3.7-3.7-9.7 0-13.5 3.7-3.7 9.7-3.7 13.5 0 3.7 3.7 3.7 9.7 0 13.5-3.7 3.7-9.7 3.7-13.5 0zm-.8-85a9 9 0 0 1 11.5-13.8 9 9 0 0 1-11.5 13.8zm-6.7-69.2c-3.8-2.7-4.7-8-2-11.8s8-4.7 11.8-2 4.7 8 2 11.8-8 4.7-11.8 2zm-8.3-49.5a8 8 0 0 1-2.5-11 8 8 0 0 1 11-2.5 8 8 0 0 1 2.5 11 8 8 0 0 1-11 2.5zm-5.7-26.3c-3.6-2-5-6.5-3-10 2-3.6 6.5-5 10-3 3.6 2 5 6.5 3 10-2 3.6-6.5 5-10 3z"/><path d="M250.8 362.4c3.8.8 6.2 4.4 5.5 8-.7 3.8-4.4 6.2-8.2 5.5s-6.2-4.4-5.5-8c.7-3.8 4.4-6.2 8-5.5zM267 388c3.4 1 5.5 4.4 4.6 7.8-1 3.4-4.4 5.5-7.8 4.6-3.4-1-5.5-4.4-4.6-7.8s4.4-5.5 7.8-4.6zm24.8 45a6 6 0 0 1 3.7 7.5 6 6 0 0 1-7.5 3.7 6 6 0 0 1-3.7-7.5c1-3 4.4-4.8 7.5-3.7zm27.2 59c2.7 1.2 4 4.4 2.7 7-1.2 2.7-4.4 4-7 2.7-2.7-1.2-4-4.4-2.7-7s4.4-4 7-2.7zm23 68.2c2.3 1.5 3 4.5 1.5 6.7-1.5 2.3-4.5 3-6.7 1.5-2.3-1.5-3-4.5-1.5-6.7 1.4-2.3 4.5-3 6.7-1.5zm8.6 99.8c1.4-2.2 4.4-2.8 6.5-1.3 2.2 1.5 2.8 4.4 1.3 6.5-1.4 2.2-4.4 2.8-6.5 1.3s-2.7-4.4-1.3-6.5zm7.4 29c1.2-2.5 4.2-3.7 6.7-2.5 2.6 1.2 3.6 4.2 2.5 6.7-1.2 2.5-4.2 3.6-6.7 2.5-2.5-1.2-3.6-4.2-2.5-6.7zm11 29.6c1-3 4-4.4 6.8-3.5 3 1 4.4 4 3.5 6.8-1 2.8-4 4.4-6.8 3.5s-4.4-4-3.5-6.8zm14 30c.7-3 3.8-5 7-4.4 3 .7 5 3.8 4.4 7-.7 3-3.8 5-7 4.4s-5-3.8-4.4-7zm16.2 30c.5-3.4 3.6-5.7 7-5.3 3.4.5 5.7 3.6 5.3 7-.5 3.4-3.6 5.7-7 5.3-3.4-.5-5.7-3.6-5.3-7zm18 29.4c.3-3.6 3.4-6.3 7-6s6.3 3.4 6 7-3.4 6.3-7 6-6.3-3.4-6-7zm18.8 28.2c.1-3.8 3.2-7 7-6.8s6.8 3.2 6.8 7c-.1 3.8-3.2 7-7 6.8a7 7 0 0 1-6.8-7zm19.2 26.8c-.1-4 3-7.4 7-7.5s7.4 3 7.5 7-3 7.4-7 7.5-7.4-3-7.5-7zm18.8 24.7c-.3-4.2 3-8 7-8.2 4.2-.3 8 3 8.2 7 .3 4.2-3 8-7 8.2-4.2.3-8-3-8.2-7zm17.6 22.3c-.5-4.4 2.7-8.4 7-9a8 8 0 1 1 1.7 16 8 8 0 0 1-8.8-7.1zm16 19.4c-.6-4.6 2.6-9 7.2-9.5 4.6-.6 8.8 2.6 9.5 7.2.6 4.6-2.6 8.8-7.2 9.5-4.6.6-9-2.6-9.5-7.2zm13.5 16c-.8-4.8 2.5-9.3 7.2-10 4.8-.8 9.3 2.5 10 7.3.8 4.8-2.4 9.3-7.2 10-4.8.8-9.3-2.4-10-7.2z"/><path d="M531.3 957.3c-1-5 2.3-9.8 7.3-10.8 5-1 9.8 2.3 10.7 7.3 1 5-2.3 9.8-7.3 10.7-5 1-9.8-2.3-10.8-7.3z"/><path d="M537.8 965c-1-5.2 2.2-10.3 7.4-11.4 5-1 10.2 2.2 11.3 7.4s-2.2 10.2-7.3 11.3c-5.2 1-10.3-2.2-11.4-7.3z"/><path d="M552 975.2c-5.4 1.3-10.7-2-12-7.4a10 10 0 0 1 7.4-12 10 10 0 0 1 11.9 7.4c1.3 5.3-2 10.7-7.4 12zm171.2-208c-9.4-1.7-15.5-10.8-13.8-20 1.7-9.4 10.8-15.5 20-13.8 9.4 1.8 15.5 10.8 13.8 20-1.7 9.4-10.8 15.5-20 13.8z"/><path d="M690.8 756.8c-9-2-14.5-10.6-12.6-19.4 2-9 10.6-14.5 19.4-12.6 9 2 14.5 10.6 12.6 19.4-2 9-10.6 14.5-19.4 12.6zm-36.3-12.5c-8.4-2-13.5-10.4-11.5-18.7s10.4-13.5 18.7-11.5 13.5 10.4 11.5 18.7c-2 8.4-10.4 13.5-18.7 11.5zm-40-15c-7.8-2-12.5-10-10.4-18 2-7.8 10-12.5 18-10.4 7.8 2 12.5 10 10.4 18-2 7.8-10 12.5-18 10.4zM571.4 712c-7.3-2.2-11.5-10-9.3-17.2 2.2-7.3 10-11.5 17.2-9.3 7.3 2.2 11.5 10 9.3 17.2-2.2 7.3-10 11.5-17.2 9.3zM525 692a13 13 0 0 1-8.3-16.3 13 13 0 0 1 16.3-8.3 13 13 0 0 1 8.3 16.3A13 13 0 0 1 525 692zm-53.5-26c-6-2.6-9-9.8-6.3-16 2.6-6 9.8-9 16-6.3 6 2.7 9 9.8 6.3 16s-9.8 9-16 6.3zm-53.8-36c-5.2-3.3-6.8-10.3-3.5-15.5s10.3-6.8 15.5-3.5 6.8 10.3 3.5 15.5-10.3 6.8-15.5 3.5zm-45.5-41c-4.4-3.7-5-10.2-1.3-14.6s10.2-5 14.6-1.3 5 10.2 1.3 14.6-10.2 5-14.6 1.3zm-37.8-43.7c-3.6-3.8-3.5-9.8.3-13.5 3.8-3.6 9.8-3.5 13.5.3s3.5 9.8-.3 13.4-9.8 3.5-13.5-.3zM304 501.5c-3-3.7-2.3-9.2 1.4-12.2s9.2-2.3 12.2 1.5 2.3 9.2-1.4 12-9.2 2.3-12.2-1.4zM280.2 460c-2.4-3.6-1.4-8.4 2.2-10.8s8.4-1.4 10.8 2.2 1.4 8.4-2 10.8-8.4 1.4-10.8-2.2zm-17.5-36.5c-2-3.3-.8-7.6 2.5-9.5a7 7 0 0 1 9.5 2.5 7 7 0 0 1-2.5 9.5 7 7 0 0 1-9.5-2.5zM251 394c-1.5-3-.3-6.6 2.7-8.2 3-1.5 6.7-.3 8.2 2.7s.3 6.6-2.7 8.2c-3 1.5-6.7.3-8.2-2.7zm-6.5-19.5c-1.2-2.6 0-5.7 2.6-7 2.6-1.2 5.7 0 7 2.6 1.2 2.6 0 5.7-2.6 7-2.6 1.2-5.7 0-7-2.6z"/></g><g class="C D E Y"><path d="M568.4 362.5S461 444 388.3 406C315.5 368 247 365.5 247 365.5s110.6 164 213.6 144.5c72.3-13.6 126-27 179.3-22.8"/><path d="M247 365.5s65.4 216.8 255 302.2l224.4 82.6"/><path d="M548.4 965.2s-191-198.3-197.7-329.7-103.8-270-103.8-270 29.7 97.4 25.5 236.3-58.3 256.5-58.3 256.5"/></g><path d="M160.2 413.7c-5 2.6-11 .7-13.7-4.3-2.6-5-.7-11 4.3-13.7 5-2.6 11-.7 13.7 4.3 2.6 5 .7 11-4.3 13.7z" class="B"/><path fill="#f5fb4d" d="M157 384.5a9 9 0 0 1 10.9 6.6 9 9 0 0 1-6.6 10.9 9 9 0 0 1-10.9-6.6 9 9 0 0 1 6.6-10.9z"/><path fill="#f8fc79" d="M176 363c4.2 1 7 5 6 9.3-1 4.2-5 7-9.3 6-4.2-1-7-5-6-9.3 1-4.2 5-7 9.3-6z"/><path fill="#fafda6" d="M213.2 351.4c2.5 2.7 2.4 7-.3 9.4-2.7 2.5-7 2.4-9.4-.3s-2.4-7 .3-9.4 7-2.4 9.4.3z"/><path fill="#fdfed2" d="M242 358.3c.7 3-1 6-4 6.6-3 .7-6-1-6.6-4s1-6 4-6.6c3-.7 6 1 6.7 4z"/><path d="M251.3 366c-.2 2.4-2.3 4.2-4.7 4-2.4-.2-4.2-2.3-4-4.7s2.3-4.2 4.7-4c2.4.2 4.2 2.3 4 4.7z" class="F"/><path d="M80.5 323.3c-1.6.7-3.5.1-4.2-1.5-.7-1.6-.1-3.5 1.5-4.2s3.5-.1 4.2 1.5c.7 1.6.1 3.5-1.5 4.2z" class="B"/><path d="M86 316.6c.6 1.7-.3 3.6-2 4.2-1.7.6-3.6-.3-4.2-2-.6-1.7.3-3.6 2-4.2 1.7-.6 3.6.3 4.2 2z" class="H"/><path d="M96.8 310.7c.4 1.8-.8 3.6-2.7 4-1.8.4-3.6-.8-4-2.7-.4-1.8.8-3.6 2.7-4s3.6.8 4 2.7z" class="I"/><path d="M114.6 304.2c.1 2-1.5 3.5-3.4 3.6-2 .1-3.5-1.5-3.6-3.4-.1-2 1.5-3.5 3.4-3.6 2-.1 3.5 1.5 3.6 3.4z" class="J"/><path d="M138.7 300c-.3 2-2.2 3.3-4 3-2-.3-3.3-2.2-3-4 .3-2 2.2-3.3 4-3s3.3 2.2 3 4z" class="K"/><path d="M168.8 300.7c-.7 2-3 2.8-4.8 2-2-.8-2.8-3-2-4.8.8-2 3-3 4.8-2s2.8 3 2 4.8z" class="L"/><path d="M194 308.6c-1.3 1.6-3.8 1.8-5.4.5-1.6-1.4-1.8-3.8-.5-5.4 1.4-1.6 3.8-1.8 5.4-.5 1.6 1.3 1.8 3.8.5 5.4z" class="M"/><path d="M214 322.2c-1.8 1.3-4.2.8-5.5-1s-.8-4.2 1-5.5c1.8-1.3 4.2-.8 5.5 1s.8 4.2-1 5.5z" class="N"/><path d="M229 338.2c-2 1-4.4 0-5.3-2s0-4.4 2-5.3 4.4 0 5.3 2 0 4.4-2 5.3z" class="O"/><path d="M239.6 353.6c-2.2.7-4.5-.6-5-2.8s.6-4.5 2.8-5.2c2.2-.6 4.5.6 5.2 2.8s-.6 4.5-2.8 5.2z" class="P"/><path d="M245.7 365.2c-2.3.4-4.5-1-5-3.4s1-4.5 3.4-5 4.5 1 5 3.4-1 4.5-3.4 5z" class="Q"/><path d="M251.3 365c.3 2.4-1.4 4.6-3.8 4.8-2.4.3-4.6-1.4-4.8-3.8-.3-2.4 1.4-4.6 3.8-4.8s4.6 1.4 4.8 3.8z" class="F"/><path d="M354.4 183.7c-2-.6-3.3-2.7-2.7-4.8s2.7-3.3 4.8-2.7c2 .6 3.3 2.7 2.7 4.8-.6 2-2.7 3.3-4.8 2.7z" class="B"/><path d="M355 181.6c2 1 2.8 3.3 2 5.2-1 2-3.3 2.8-5.2 2-2-1-2.8-3.3-2-5.2s3.3-2.8 5.2-2z" class="H"/><path d="M348 195a4 4 0 0 1 .7 5.6c-1.3 1.7-4 2-5.6.7a4 4 0 0 1-.7-5.6 4 4 0 0 1 5.6-.7z" class="I"/><path d="M331.7 212.5c1.4 1.8 1 4.3-.7 5.6s-4.3 1-5.6-.7-1-4.3.7-5.6 4.3-1 5.6.7z" class="J"/><path d="M303.7 230.3c1 2 0 4.4-2 5.3-2 1-4.5 0-5.4-2-1-2 0-4.4 2-5.3s4.4 0 5.3 2z" class="K"/><path d="M266.7 243.3c1 2 .1 4.5-2 5.5s-4.5.1-5.5-2c-1-2-.1-4.5 2-5.5s4.5-.1 5.5 2z" class="L"/><path d="M244.8 259.8c2 1.2 2.5 3.8 1.3 5.7-1.2 2-3.8 2.5-5.7 1.3-2-1.2-2.5-3.8-1.3-5.7s3.8-2.5 5.7-1.3z" class="M"/><path d="M234.8 284c2.3.3 4 2.4 3.6 4.7-.3 2.3-2.4 4-4.7 3.6s-4-2.4-3.6-4.7 2.4-4 4.7-3.6z" class="N"/><path d="M233.8 311c2.3-.2 4.4 1.4 4.6 3.8.2 2.3-1.4 4.4-3.8 4.7s-4.4-1.5-4.6-3.8 1.5-4.4 3.8-4.6z" class="O"/><path d="M237.8 336c2.3-.6 4.6.8 5.2 3 .6 2.3-.8 4.6-3 5.2-2.3.6-4.6-.8-5.2-3s.8-4.6 3-5.2z" class="P"/><path d="M243 354.4c2.3-.8 4.7.4 5.5 2.7.8 2.3-.4 4.7-2.7 5.5-2.3.8-4.7-.4-5.5-2.7s.4-4.7 2.7-5.5z" class="Q"/><g class="F"><path d="M245.3 361.5c2.2-1 4.8.1 5.7 2.4 1 2.2-.1 4.8-2.4 5.7-2.2 1-4.8-.1-5.7-2.4s.2-4.8 2.4-5.7z"/><path d="M248 361.3c2.3.6 3.8 3 3.2 5.3-.6 2.3-3 3.7-5.3 3.2-2.3-.6-3.7-3-3.2-5.3.6-2.3 3-3.8 5.3-3.2z"/></g><path d="M246.5 367.8c2.5.7 4 3.3 3.3 6-.7 2.5-3.3 4-6 3.3-2.5-.7-4-3.3-3.3-6 .7-2.5 3.3-4 6-3.3z" class="Q"/><path d="M241.4 386c2.7 1 4.2 3.8 3.4 6.5-1 2.7-3.8 4.2-6.5 3.3-2.7-.8-4.2-3.7-3.4-6.5 1-2.7 3.8-4.2 6.5-3.4z" class="P"/><path d="M233 413c3 1 4.4 4.2 3.3 7-1 3-4.2 4.4-7 3.3-3-1-4.4-4.2-3.3-7 1-3 4.2-4.4 7-3.3z" class="O"/><path d="M221 445.5c3 1.3 4.4 4.8 3.2 7.8-1.3 3-4.8 4.4-7.8 3-3-1.3-4.4-4.8-3-7.8s4.8-4.4 7.8-3z" class="N"/><path d="M205.5 480.7c3 1.6 4.3 5.4 2.7 8.5-1.6 3-5.4 4.3-8.5 2.7-3-1.6-4.3-5.4-2.7-8.5 1.6-3 5.4-4.3 8.5-2.7z" class="M"/><path d="M186.2 516.4c3 2 4 6.2 2 9.3-2 3-6.2 4-9.3 2-3-2-4-6.2-2-9.3s6.2-4 9.3-2z" class="L"/><path d="M162.6 549.8c3 2.6 3.3 7 .8 10-2.6 3-7 3.3-10 .8s-3.3-7-.8-10 7-3.3 10-.8z" class="K"/><path d="M138.7 577c3 3 2.8 7.7-.2 10.6-3 3-7.7 2.8-10.6-.2s-2.8-7.7.2-10.6c3-3 7.7-2.8 10.6.2z" class="J"/><path d="M117.8 597c2.8 3.4 2.3 8.3-1 11-3.4 2.8-8.3 2.3-11-1s-2.3-8.3 1-11c3.4-2.8 8.3-2.3 11 1z" class="I"/><path d="M103 609.4c2.7 3.7 2 9-1.7 11.6-3.7 2.7-9 2-11.6-1.8-2.7-3.7-2-9 1.8-11.6 3.7-2.7 9-2 11.6 1.7z" class="H"/><path d="M97.8 613.8c2.7 4 1.6 9.4-2.4 12s-9.4 1.6-12-2.4c-2.7-4-1.6-9.4 2.4-12 4-2.7 9.4-1.6 12 2.4zM445 259c-.3-3.4 2.3-6.5 5.8-6.7 3.5-.3 6.5 2.3 6.7 5.8s-2.3 6.5-5.8 6.7c-3.4.3-6.5-2.3-6.7-5.8z" class="B"/><path d="M450.3 255.3c.5 3.3-1.8 6.4-5 7-3.3.5-6.4-1.8-7-5-.5-3.3 1.8-6.4 5-7 3.3-.5 6.4 1.8 7 5z" class="H"/><path d="M432 250.4c1 3.2-1 6.4-4.2 7.3s-6.4-1-7.3-4.2c-1-3.2 1-6.4 4.2-7.3 3.2-1 6.4 1 7.3 4.2z" class="I"/><path d="M406.7 247.2c1.4 3 .1 6.3-2.7 7.7-3 1.4-6.3.1-7.7-2.7-1.4-3-.1-6.3 2.7-7.7 3-1.4 6.3-.1 7.7 2.7z" class="J"/><path d="M378.6 249.6c2 2.3 2 5.8-.4 8s-5.8 2-8-.4c-2-2.3-2-5.8.4-8 2.3-2 5.8-2 8 .4z" class="K"/><path d="M351.4 262c2.7 1.2 4 4.4 2.8 7s-4.4 4-7 2.8c-2.7-1.2-4-4.4-2.8-7 1.2-2.7 4.4-4 7-2.8z" class="L"/><path d="M330 289.3c3 .2 5 2.7 4.8 5.6s-2.7 5-5.6 4.8c-3-.2-5-2.7-4.8-5.6.2-3 2.7-5 5.6-4.8z" class="M"/><path d="M310.2 318.5c2.7.8 4.2 3.6 3.4 6.3s-3.6 4.2-6.3 3.4-4.2-3.6-3.4-6.3c.8-2.7 3.6-4.2 6.3-3.4z" class="N"/><path d="M289 339.3c2.4 1.2 3.3 4.2 2 6.6s-4.2 3.3-6.6 2-3.3-4.2-2-6.6c1.2-2.4 4.2-3.3 6.6-2z" class="O"/><path d="M269.6 352.8c2 1.5 2.6 4.4 1 6.6s-4.5 2.6-6.6 1c-2-1.5-2.6-4.5-1-6.6 1.5-2 4.5-2.6 6.6-1z" class="P"/><path d="M255.6 360c1.8 1.7 2 4.5.3 6.4s-4.6 2-6.4.3-2-4.6-.3-6.4c1.7-1.8 4.6-2 6.4-.3z" class="Q"/><path d="M250.2 362.6c1.6 1.8 1.5 4.5-.3 6-1.8 1.6-4.5 1.5-6.2-.3s-1.5-4.5.3-6.2c1.8-1.6 4.5-1.5 6 .3z" class="F"/><path d="M121.7 213.2c-3.8 1-7.7-1-9-4.8s1-7.7 4.8-9c3.8-1 7.7 1 9 4.8s-1 7.7-4.8 9z" class="B"/><path fill="#f5fb40" d="M131 202c3.7-.3 7 2.5 7.2 6.2s-2.5 7-6.2 7.2c-3.7.3-7-2.5-7.2-6.2s2.5-7 6.2-7.2z"/><path fill="#f6fb60" d="M159.5 216c3.4 1 5.3 4.4 4.4 7.8s-4.4 5.3-7.8 4.4c-3.4-1-5.3-4.4-4.4-7.8s4.4-5.3 7.8-4.4z"/><path fill="#f8fc80" d="M189.3 250.2c2.4 2.2 2.7 6 .5 8.4s-6 2.7-8.4.5-2.7-6-.5-8.4 6-2.7 8.4-.5z"/><path fill="#fafd9f" d="M209 295.3c2.2 2 2.4 5.6.3 7.8s-5.6 2.4-7.8.3-2.4-5.6-.3-7.8c2-2.2 5.6-2.4 7.8-.3z"/><path fill="#fcfebf" d="M228 330.2c2.3 1.7 2.7 5 1 7.2s-5 2.7-7.2 1c-2.3-1.7-2.7-5-1-7.2 1.7-2.3 5-2.7 7.2-1z"/><path fill="#fdfedf" d="M243 353.3c2.2 1.4 3 4.4 1.4 6.6s-4.4 2.8-6.6 1.4c-2.2-1.4-3-4.4-1.4-6.6s4.4-3 6.6-1.4z"/><path d="M249 361.7c2 1.2 2.8 3.8 1.7 6s-3.8 2.8-6 1.7c-2-1.2-2.8-3.8-1.7-6 1.2-2 3.8-2.8 6-1.7z" class="F"/><path d="M211.7 150.5c-.6-1-.4-2 .5-2.7 1-.6 2-.4 2.7.5s.4 2-.5 2.7c-1 .6-2 .4-2.7-.5z" class="B"/><path fill="#f5fb40" d="M212.4 160c.8 1 .7 2.4-.3 3.2-1 .8-2.4.7-3.2-.3-.8-1-.7-2.4.3-3.2 1-.8 2.4-.7 3.2.3z"/><path fill="#f6fb60" d="M209 191.5c1 1 1.2 2.6.2 3.7-1 1-2.6 1.2-3.7.2s-1.2-2.6-.2-3.7c1-1 2.6-1.2 3.7-.2z"/><path fill="#f8fc80" d="M212 236.3c1.4.8 2 2.6 1 4-.8 1.4-2.6 2-4 1s-2-2.6-1-4 2.6-2 4-1z"/><path fill="#fafd9f" d="M222.8 282c1.7.8 2.4 2.7 1.7 4.4s-2.7 2.4-4.4 1.7-2.4-2.7-1.7-4.4 2.7-2.4 4.4-1.7z"/><path fill="#fcfebf" d="M234.7 321.7c2 .8 2.8 3 2 4.8s-3 2.8-4.8 2c-2-.8-2.8-3-2-4.8s3-2.8 4.8-2z"/><path fill="#fdfedf" d="M244.4 350.5c2 .8 3 3 2.4 5.2s-3 3-5.2 2.4a4 4 0 0 1 2.8-7.5z"/><path d="M248.4 361.4c2.3.8 3.4 3.3 2.7 5.6-.8 2.3-3.3 3.4-5.6 2.7-2.3-.8-3.5-3.3-2.7-5.6.8-2.3 3.3-3.5 5.6-2.7z" class="F"/><g class="C D E Y"><path d="M247 365.5s55-16.5 86.7-78.3c31.6-61.8 117.7-28.6 117.7-28.6M247 365.5s-44-105 26.6-124.3c70.7-19.4 81.8-61.2 81.8-61.2"/><path d="M247 365.5l-34-114c-13-56 .4-102 .4-102"/><path d="M247 365.5s-34-40.6-56-98.2c-22-57.6-71.4-61-71.4-61"/><path d="M247 365.5s-24.7-60-80.7-66-87.2 21-87.2 21m168 45s-20.5-17.7-53.5-6-38 45.2-38 45.2"/></g><path d="M570.3 365c-1.4 1-3.4.8-4.5-.6-1-1.4-.8-3.4.6-4.5 1.4-1 3.4-.8 4.5.6 1 1.4.8 3.5-.6 4.5z" class="B"/><path d="M562 359.7c-1.5.8-3.4.3-4.3-1.3-.8-1.5-.3-3.4 1.3-4.2 1.5-.8 3.4-.3 4.3 1.3.8 1.5.3 3.4-1.3 4.3z" class="R"/><path d="M545.3 343.7c-1.6.4-3.3-.6-3.7-2.2-.4-1.6.6-3.3 2.2-3.7 1.6-.4 3.3.6 3.7 2.2.4 1.6-.6 3.3-2.2 3.7z" class="S"/><path d="M532 317.4c-1.6-.3-2.6-2-2.3-3.5.3-1.6 2-2.6 3.5-2.3 1.6.3 2.6 2 2.3 3.5-.3 1.6-2 2.6-3.5 2.3z" class="T"/><path d="M533.5 283.7c-1-1-1-3 0-4 1-1 3-1 4 0 1 1 1 3 0 4-1 1-3 1-4 0z" class="U"/><path d="M549.4 259c-.5-1.4.2-3 1.6-3.5s3 .2 3.5 1.6c.5 1.4-.2 3-1.6 3.5-1.4.5-3-.2-3.5-1.6z" class="V"/><path d="M568 245.3c-.1-1.5 1-2.7 2.4-3s2.7 1 3 2.4c.1 1.4-1 2.7-2.4 3-1.4.1-2.7-1-3-2.4z" class="W"/><path d="M576.8 241c.1-1.4 1.3-2.5 2.7-2.4s2.5 1.3 2.4 2.7-1.3 2.5-2.7 2.4-2.5-1.3-2.4-2.7zm82.5 188.8a7 7 0 0 1 9.1-3.7 7 7 0 0 1 3.7 9.1c-1.5 3.5-5.6 5.2-9 3.7-3.6-1.5-5.2-5.6-3.7-9z" class="X"/><path d="M660 423.6c.7-3.5 4-5.7 7.6-5 3.5.7 5.7 4 5 7.6-.7 3.5-4 5.7-7.6 5-3.5-.7-5.7-4-5-7.6z" class="W"/><path d="M657.4 406.7c-.3-3.2 2-6 5.4-6.4 3.2-.3 6 2 6.4 5.4.3 3.3-2.2 6-5.4 6.4-3.3.3-6-2-6.4-5.4z" class="V"/><path d="M645.6 384.8c-1.4-2.6-.3-6 2.3-7.2 2.6-1.4 6-.3 7.2 2.3 1.3 2.6.3 6-2.3 7.2-2.6 1.4-6 .3-7.2-2.3z" class="U"/><path d="M620 364.6c-2-1.6-2.5-4.6-1-6.8 1.6-2 4.6-2.5 6.8-1 2 1.6 2.5 4.7 1 6.8s-4.6 2.5-6.8 1z" class="T"/><path d="M594.8 359.3c-2.3-.4-4-2.7-3.4-5 .4-2.3 2.7-4 5-3.4 2.3.4 4 2.7 3.5 5s-2.7 4-5 3.4z" class="S"/><path d="M576.5 362.7c-2 .3-4-1-4.3-3.2-.3-2 1-4 3.2-4.3s4 1 4.3 3.2-1 4-3.2 4.3z" class="R"/><path d="M569.5 365.6c-1.7.6-3.5-.3-4-2-.6-1.7.3-3.5 2-4s3.5.3 4 2c.6 1.7-.3 3.5-2 4z" class="B"/><path d="M460.7 323.4c.2-1.8 2-3 3.7-2.8s3 2 2.8 3.7c-.2 1.8-2 3-3.6 2.8-1.8-.2-3-2-2.8-3.7z" class="X"/><path d="M462.3 332.2c-.1-1.8 1.2-3.3 3-3.5s3.3 1.2 3.5 3-1.2 3.3-3 3.5c-1.8.1-3.4-1.2-3.5-3z" class="W"/><path d="M470.8 350c-.8-1.6-.2-3.6 1.5-4.4s3.5-.1 4.3 1.5.2 3.5-1.4 4.3c-1.6.8-3.6.2-4.4-1.4z" class="V"/><path d="M492.5 365.2c-1.6-.8-2.2-2.8-1.4-4.4s2.8-2.2 4.4-1.3 2.2 2.8 1.4 4.4c-.8 1.6-2.8 2.2-4.4 1.4z" class="U"/><path d="M520.2 369c-1.7-.4-2.8-2.2-2.4-4s2.2-2.8 4-2.4c1.7.4 2.8 2.2 2.4 4-.4 1.7-2.2 2.8-4 2.4z" class="T"/><path d="M544.3 368.6c-1.8-.2-3-2-2.8-3.6s2-3 3.6-2.8c1.8.2 3 2 2.8 3.6-.2 1.8-1.8 3-3.6 2.8z" class="S"/><path d="M561.6 366.8c-1.8-.1-3.2-1.6-3-3.4s1.6-3 3.4-3c1.8.1 3 1.6 3 3.4-.1 1.8-1.6 3-3.4 3z" class="R"/><path d="M568.4 365.7c-1.8 0-3.2-1.5-3.2-3.2 0-1.8 1.5-3.2 3.2-3.2 1.8 0 3.2 1.5 3.2 3.2 0 1.8-1.5 3.2-3.2 3.2z" class="B"/><path d="M562 441.2c.5-2.7 3-4.6 6-4 2.8.5 4.6 3 4 6-.5 2.8-3 4.6-6 4-2.8-.5-4.6-3-4-6z" class="X"/><path d="M566 439.5c-.1-2.6 2-5 4.7-5 2.7-.1 5 2 5 4.7.1 2.7-2 5-4.7 5-2.7.1-5-2-5-4.7z" class="W"/><path d="M574.8 432c-.8-2.4.5-5 3-5.7 2.4-.8 5 .5 5.8 3 .8 2.4-.5 5-3 5.7-2.4.8-5-.5-5.8-3z" class="V"/><path d="M583 417c-1.5-1.8-1.3-4.5.5-6 1.8-1.5 4.5-1.3 6 .5 1.5 1.8 1.3 4.5-.5 6-1.8 1.5-4.5 1.3-6-.5z" class="U"/><path d="M585.2 397c-2-1-3-3.4-2-5.4a4 4 0 0 1 7.3 3.5c-1 2-3.4 3-5.4 2z" class="T"/><path d="M580 381c-2-.2-3.6-2-3.3-4s2-3.6 4-3.3c2 .2 3.6 2 3.3 4-.2 2-2 3.6-4 3.3z" class="S"/><path d="M572.7 370c-2 .2-3.6-1.2-3.8-3.2-.2-2 1.2-3.6 3.2-3.8 2-.2 3.6 1.2 3.8 3.2s-1.3 3.6-3.2 3.8z" class="R"/><path d="M569 365.7c-1.8.4-3.5-.7-3.8-2.5s.7-3.5 2.5-3.8c1.8-.4 3.5.7 3.8 2.5s-.7 3.5-2.5 3.8z" class="B"/><path d="M611.5 302.6c-1.3 1.7-3.6 2-5.3.7-1.7-1.3-2-3.7-.7-5.3 1.3-1.7 3.6-2 5.3-.7s2 3.7.7 5.3z" class="X"/><path fill="#fbbc21" d="M614.6 316.8c-1.6 1.2-4 1-5-.8-1.2-1.6-.8-4 .8-5s4-.8 5 .8c1.2 1.6.8 4-.8 5z"/><path fill="#f9d121" d="M607.4 344.6c-2-.2-3.4-2-3.2-3.8.2-2 2-3.4 3.8-3.2s3.4 2 3.2 3.8c-.2 2-2 3.4-3.8 3.2z"/><path fill="#f6e520" d="M580.2 362.4c-1.3-1.3-1.4-3.4-.1-4.8 1.3-1.3 3.5-1.4 4.8-.1s1.3 3.4 0 4.8c-1.3 1.3-3.4 1.4-4.8.1z"/><path d="M565.5 364c-.8-1.6-.1-3.6 1.5-4.3 1.6-.8 3.5-.1 4.3 1.5.8 1.6.1 3.5-1.5 4.3-1.6.8-3.5.1-4.3-1.5z" class="B"/><g class="C D E G"><path d="M568.4 362.5s20.2.5 35.7-16.6c17-19 4.3-45.6 4.3-45.6"/><path d="M568.4 362.5s32-20 66.7 5.5c37.5 27.6 30.6 64.5 30.6 64.5m-97.3-70s20 17.5 19.3 40.4c-1 29-20.7 39-20.7 39m1.4-79.4s-35 6.8-68.6 1.2C466.2 358 464 324 464 324m115.4-83s-44.2 15.7-47.7 57 36.7 64.4 36.7 64.4"/></g><g class="B"><path d="M413.5 135c-1-2-.3-4.6 1.8-5.7 2-1 4.6-.2 5.7 1.8 1 2 .3 4.6-1.8 5.7-2 1-4.6.3-5.7-1.8zM387 145.3c-1.6-1.3-1.8-3.7-.5-5.3s3.7-1.8 5.3-.5 1.8 3.7.5 5.3-3.7 1.8-5.3.5zM368.6 161c-1.7-.7-2.5-2.6-1.8-4.3s2.6-2.5 4.3-1.8 2.5 2.6 1.8 4.3-2.6 2.5-4.3 1.8zM358 175.3c-1.5-.3-2.5-1.8-2.2-3.4s1.8-2.5 3.4-2.2c1.5.3 2.5 1.8 2.2 3.4s-1.8 2.5-3.4 2.2zm-3.3 6c-1.3-.1-2.3-1.3-2.2-2.6s1.3-2.3 2.6-2.2 2.3 1.3 2.2 2.6-1.2 2.3-2.6 2.2zm-55-42.6c-1.2.7-2.8.2-3.4-1-.7-1.2-.2-2.8 1-3.4s2.8-.2 3.4 1c.7 1.2.2 2.8-1 3.4zm23.3 5c-1.4-.2-2.4-1.4-2.2-2.8s1.4-2.3 2.8-2.2 2.4 1.4 2.2 2.8-1.4 2.4-2.8 2.2zm16.7 14.5c-1.2-.7-1.6-2.2-1-3.3.7-1.2 2-1.6 3.3-1s1.6 2 1 3.3-2.2 1.6-3.3 1z"/><path d="M349.8 173.5c-1-1-1-2.4-.3-3.4 1-1 2.4-1 3.4-.3 1 1 1 2.4.3 3.4-1 1-2.4 1-3.4.3zm3.2 7c-1-1-.8-2.5.1-3.4 1-1 2.5-.8 3.4.1 1 1 .8 2.5-.1 3.4-1 1-2.5.8-3.4-.1zm37-144c-1-.1-1.5-.8-1.5-1.7s.8-1.5 1.7-1.5c1 .1 1.5.8 1.5 1.7-.1 1-.8 1.5-1.7 1.5zm2 48.3c-1-.5-1-1.6-.7-2.4s1.6-1.2 2.4-.7 1 1.6.7 2.4-1.6 1.2-2.4.7z"/><path d="M378.5 131.4c-.8-.7-.8-2-.1-2.8a2 2 0 0 1 2.8-.1 2 2 0 0 1 .1 2.8c-.7.8-2 .8-2.8.1zm-17 35c-.8-1-.6-2.3.3-3s2.3-.6 3 .3.6 2.3-.3 3-2.3.6-3-.3zm-8.4 13.8c-.8-1-.5-2.6.6-3.3s2.6-.5 3.3.6c.8 1 .5 2.6-.6 3.3-1 .8-2.6.5-3.3-.6zM310.8 52.7c-.8-3.6 1.4-7 5-8s7 1.4 8 5c.8 3.6-1.4 7.2-5 8s-7-1.4-8-5z"/><path d="M311.7 99.6c-2-2.4-1.6-6 .8-8s6-1.6 8 .8 1.6 6-.8 8-6 1.6-8-.8zM327 141c-2-1.5-2.5-4.3-1-6.3s4.3-2.5 6.3-1 2.5 4.3 1 6.3-4.3 2.5-6.3 1zm18 29.3c-1.7-1-2.3-3-1.5-4.7s3-2.3 4.7-1.5 2.3 3 1.5 4.7c-1 1.7-3 2.3-4.7 1.5zm9 11c-1.2-.5-1.8-2-1.3-3s2-1.8 3-1.3c1.2.5 1.8 2 1.3 3-.5 1.2-2 1.8-3 1.3z"/></g><g class="C D E G"><path d="M355 179s55-82.7 35.4-143.8"/><path d="M355 179s19.3-41 62.4-45.8M355 179s-54.6-68.8-37.5-127.7"/><path d="M355 179s-18.5-47-56.4-42.4"/></g><g class="B"><path d="M60.5 461c-2-5.4.5-11.4 5.8-13.6 5.4-2.2 11.5.5 13.6 5.8 2 5.4-.5 11.4-5.8 13.6-5.4 2-11.4-.5-13.6-5.8zm54-18.6c3.7 3.5 3.8 9.2.4 13-3.5 3.7-9.2 3.8-13 .4-3.7-3.5-3.8-9.2-.4-13 3.5-3.7 9.2-3.8 13-.4zM138 424c4 1.8 5.6 6.4 3.8 10.3-1.8 4-6.4 5.6-10.3 3.8-4-1.8-5.6-6.4-3.8-10.3 1.8-4 6.4-5.6 10.3-3.8zm14-17.3c3.5.8 5.6 4.2 5 7.7-.8 3.5-4.2 5.6-7.7 5-3.5-.8-5.6-4.2-5-7.7.8-3.5 4.2-5.6 7.7-5z"/><path d="M156 399.7c-2.8-.2-5.3 1.8-5.5 4.6s1.8 5.3 4.7 5.5c2.8.2 5.3-1.8 5.5-4.7.2-2.8-1.8-5.3-4.6-5.5zm-79.4-19.3c-2 0-3.5-1.5-3.5-3.4 0-2 1.5-3.5 3.5-3.5S80 375 80 377s-1.5 3.5-3.5 3.5zm34.2-10.4c1.8 1 2.4 3.5 1.3 5.3-1 1.8-3.5 2.4-5.3 1.3s-2.4-3.5-1.3-5.3 3.5-2.4 5.3-1.3zm26.4 11.4c1.4 2 1 4.6-1 6s-4.6 1-6-1-1-4.6 1-6 4.6-1 6 1z"/><path d="M154.2 396c1 2.4-.2 5-2.6 6-2.4 1-5-.2-6-2.6s.2-5 2.6-6c2.4-1 5 .2 6 2.6z"/><path d="M160.5 403.5c-.7-2.7-3.4-4.4-6.2-3.8-2.7.7-4.4 3.4-3.8 6.2.7 2.7 3.4 4.4 6.2 3.8 2.7-.7 4.4-3.4 3.8-6.2zM158 484c-2.2.5-4.4-1-5-3.2s1-4.4 3.2-5c2.2-.5 4.4 1 5 3.2.5 2.2-1 4.4-3.2 5zm-17.7-33.7c1-2 3.5-3 5.7-2 2 1 3 3.5 2 5.7-1 2-3.5 3-5.7 2-2-1-3-3.5-2-5.7zm2.2-26c2-1.4 4.8-.8 6.2 1.3 1.4 2 .8 4.8-1.3 6.2-2 1.4-4.8.8-6.2-1.3s-.8-4.8 1.3-6.2z"/><path d="M150.6 406.4c2.6-.5 5 1.2 5.6 3.7.5 2.6-1.2 5-3.7 5.6-2.6.5-5-1.2-5.6-3.7s1.2-5 3.7-5.6z"/><path d="M157.7 400c-2.6-1.2-5.6-.1-6.8 2.5s-.1 5.6 2.5 6.8 5.6.1 6.8-2.5c1.2-2.6.1-5.6-2.5-6.8z"/><path d="M162.8 408c-2 1.3-4.8.6-6-1.5-1.3-2-.6-4.8 1.5-6 2-1.3 4.8-.6 6 1.5 1.3 2 .6 4.8-1.5 6zm10.2 1.3c-2 .3-4-1-4.3-3s1-4 3-4.3 4 1 4.3 3-1 4-3 4.3zm12 6.2c-1.5-.7-2.2-2.5-1.5-4s2.5-2.2 4-1.5 2.2 2.5 1.6 4c-.7 1.6-2.5 2.2-4 1.5zm10 15c-.6-1.3 0-2.8 1.3-3.3 1.3-.6 2.8 0 3.3 1.3.6 1.3 0 2.8-1.3 3.3-1.3.6-2.8 0-3.3-1.3z"/></g><g class="C D E G"><path d="M155.6 404.7s-32-46.3-79-27.8m79 27.8s-27 52.6-85.4 52.4"/><path d="M197.4 429.5c-11-30.7-41.8-24.8-41.8-24.8s-29 37 1.7 75.4"/></g><g class="B"><path d="M545.2 894.7c-1 2-3 2.7-5 1.8-2-1-2.7-3-2-5 1-2 3-2.7 5-1.8 2 1 2.7 3 1.8 5zm7.4 27.3c-1.5-.8-2-2.6-1.4-4 .8-1.5 2.6-2 4-1.4 1.5.8 2 2.6 1.4 4s-2.6 2-4 1.4zm2 23.5c-1.6-.5-2.5-2-2-3.7s2-2.5 3.7-2 2.5 2 2 3.7a3 3 0 0 1-3.7 2zM552 963c-2-.1-3.5-2-3.3-3.8.1-2 2-3.5 3.8-3.3 2 .1 3.5 2 3.3 3.8s-2 3.5-4 3.3z"/><path d="M550 970.7c-2.5.2-4.7-1.8-5-4.3-.1-2.6 1.8-4.7 4.4-5 2.6-.2 4.7 1.8 5 4.4s-1.8 4.7-4.4 5zM740.3 932c-5-2.4-7.2-8.5-4.8-13.5s8.4-7.2 13.5-4.8c5 2.4 7.2 8.5 4.8 13.5s-8.4 7.2-13.5 4.8zm-72.6-18.4c-4.8.5-9-3-9.6-8-.4-4.8 3-9 8-9.5 4.8-.4 9 3 9.5 8 .5 4.8-3 9-8 9.5zM609 928.8c-3.6 2-8 .8-10-2.7s-.8-8 2.7-10 8-.8 10 2.7.8 8-2.7 10z"/><path d="M568.7 955.3a6 6 0 1 1-8.4-8.5 6 6 0 0 1 8.4 8.5zm-15 13.5c-1.5 2-4.4 2.5-6.5 1-2-1.5-2.5-4.4-1-6.5 1.5-2 4.4-2.5 6.5-1 2 1.5 2.5 4.4 1 6.5zm48.6 196.6c-10.2-.1-18.3-8.4-18.2-18.5.1-10.2 8.4-18.3 18.5-18.2 10 .1 18.3 8.4 18.2 18.5-.1 10.2-8.4 18.3-18.5 18.2zm14.5-76a15 15 0 0 1-20.2-6.2 15 15 0 0 1 6.2-20.2 15 15 0 0 1 20.2 6.2 15 15 0 0 1-6.2 20.2z"/><path d="M598.5 1026.4c-4.2 4.7-11.5 5-16.2 1s-5-11.5-1-16.2c4.2-4.7 11.5-5 16.2-1 4.7 4.2 5 11.5 1 16.2zM570.3 984c-2.2 4-7 5.2-11 3s-5.2-7-3-11 7-5.2 11-3 5.2 7 3 11zm-16-16.2c-1 2.4-3.7 3.5-6 2.5-2.4-1-3.5-3.7-2.5-6 1-2.4 3.7-3.5 6-2.5 2.4 1 3.5 3.7 2.5 6zM428 1010.3c-5.2-.7-9-5.5-8.2-10.7s5.5-9 10.7-8.2c5.2.7 9 5.5 8.2 10.7-.7 5.2-5.5 9-10.7 8.2z"/><path d="M483 1016c-4.3 1.7-9-.5-10.7-4.7s.4-9 4.7-10.7 9 .4 10.7 4.7-.4 9-4.7 10.7zm40-16.2a7 7 0 0 1-10 0c-2.8-2.8-2.8-7.2-.1-10a7 7 0 0 1 10 0c2.8 2.7 2.8 7.2.1 10zm23.8-21c-1.6 2.8-5.2 3.8-8 2.2s-3.8-5.2-2.2-8 5.2-3.8 8-2.2 3.8 5.2 2.2 8zm7.4-11c-1 2.4-3.5 3.6-6 2.7-2.4-1-3.6-3.6-2.7-6 1-2.4 3.6-3.6 6-2.7 2.4 1 3.6 3.6 2.7 6z"/></g><g class="C D E"><g class="G"><path d="M550 966s82.5-102 194.8-43"/><path d="M550 966s18-38.3-8.2-73m8.2 73s89.3 80 52.4 181M550 966s-48.3 63.3-120.6 34.8"/></g><path d="M90.6 618.6s58.7-40 98-106.2 58.5-147 58.5-147" class="Y"/></g><g class="B"><use xlink:href="#B"/><use xlink:href="#C"/><use xlink:href="#D"/><use xlink:href="#E"/><use xlink:href="#F"/><use xlink:href="#G"/><use xlink:href="#H"/><use xlink:href="#I"/><use xlink:href="#J"/><use xlink:href="#K"/><use xlink:href="#L"/><use xlink:href="#M"/><use xlink:href="#N"/><use xlink:href="#O"/><use xlink:href="#P"/><path d="M591.6 560.4c3.3 1.6 4.7 5.6 3 9-1.6 3.3-5.6 4.7-9 3-3.3-1.6-4.7-5.6-3-9 1.6-3.3 5.6-4.7 9-3zm-44 18.6c3-.1 5.6 2.4 5.7 5.5.1 3-2.4 5.6-5.5 5.7-3 .1-5.6-2.4-5.7-5.5 0-3 2.4-5.6 5.5-5.7zm-32.3 31.5c2.4-.7 5 .7 5.6 3.2.7 2.4-.7 5-3 5.6-2.4.7-5-.7-5.6-3-.7-2.4.7-5 3-5.6zm-20 29.5c1.7-.8 3.8 0 4.5 1.8.8 1.7 0 3.8-1.8 4.5s-3.8 0-4.6-1.8 0-3.8 1.8-4.6zm-6.7 13.5c1.2-.6 2.6-.2 3.2 1 .7 1 .2 2.6-1 3.2s-2.6.2-3.3-1c-.6-1.2-.2-2.6 1-3.3z"/></g><g class="C D E G"><path d="M490 655.6s98.3 13.5 145-30.5"/><path d="M490 655.6s45.2-.4 68.3 36.4M490 655.6s38.2-79 98.8-89.3"/></g><g class="B"><use xlink:href="#B"/><use xlink:href="#C"/><use xlink:href="#D"/><use xlink:href="#E"/><use xlink:href="#F"/><use xlink:href="#G"/><use xlink:href="#H"/><use xlink:href="#I"/><use xlink:href="#J"/><use xlink:href="#K"/><use xlink:href="#L"/><use xlink:href="#M"/><use xlink:href="#N"/><use xlink:href="#O"/><use xlink:href="#P"/><path d="M582.3 564.4c1-3.5 4.8-5.5 8.3-4.4 3.5 1 5.5 4.8 4.4 8.3-1 3.5-4.8 5.5-8.3 4.4s-5.5-4.8-4.4-8.3zm-40 21c-.5-3 1.5-6 4.6-6.4 3-.5 6 1.6 6.4 4.6.5 3-1.5 6-4.6 6.4-3 .5-6-1.6-6.4-4.6zm-29.7 31.2c-1-2.3 0-5 2.3-6s5 0 6 2.3 0 5-2.3 6-5 0-6-2.3zM494 645c-1-1.6-.6-3.8 1-4.8s3.8-.5 4.8 1 .6 3.7-1 4.8c-1.6 1-3.7.5-4.8-1zm-6 12c-.8-1-.6-2.5.4-3.4 1-.8 2.6-.6 3.4.4s.6 2.5-.5 3.4c-1 .8-2.5.6-3.3-.5z"/></g><g class="C D E G"><path d="M490 655.6s98.3 13.5 145-30.5"/><path d="M490 655.6s45.2-.4 68.3 36.4M490 655.6s38.2-79 98.8-89.3"/></g><defs ><path id="B" d="M559 688c2.3.5 3.8 2.7 3.3 5-.5 2.3-2.7 3.8-5 3.3-2.3-.4-3.8-2.7-3.3-5 .4-2.3 2.7-3.8 5-3.3z"/><path id="C" d="M537 667c2-.4 4 1 4.5 3 .4 2-1 4-3 4.5-2 .4-4-1-4.5-3s1-4 3-4.5z"/><path id="D" d="M513.8 657c1.6-1 3.6-.3 4.5 1.3 1 1.6.3 3.6-1.3 4.5-1.6 1-3.6.3-4.5-1.3s-.3-3.6 1.3-4.5z"/><path id="E" d="M495.5 654c1.2-1 3-.8 4 .4 1 1.2.8 3-.4 4s-3 1-4-.4c-1-1.2-.8-3 .4-4z"/><path id="F" d="M488.2 654c1-1 2.4-1 3.4-.1 1 1 1 2.4.1 3.4-1 1-2.4 1-3.4.1-1-1-1-2.4-.1-3.4z"/><path id="G" d="M501.2 586c.2-1.4 1.6-2.3 3-2 1.4.2 2.3 1.6 2 3-.2 1.4-1.6 2.3-3 2-1.4-.3-2.3-1.6-2-3z"/><path id="H" d="M508.4 609c1-1 2.6-1 3.5 0 1 1 1 2.6 0 3.5-1 1-2.6 1-3.5 0-1-1-1-2.6 0-3.5z"/><path id="I" d="M503.6 630.8c1.3-.5 2.7.1 3.2 1.3.5 1.2-.1 2.7-1.3 3.2-1.3.5-2.7-.1-3.2-1.3s.1-2.7 1.3-3.2z"/><path id="J" d="M494.5 647c1.3-.3 2.6.6 3 2 .3 1.3-.6 2.6-2 2.8-1.3.3-2.6-.6-3-2s.6-2.6 2-3z"/><path id="K" d="M489.7 653.3c1.3-.1 2.5 1 2.6 2.2.1 1.3-1 2.4-2.2 2.5-1.3.1-2.5-1-2.6-2.2-.1-1.3 1-2.5 2.2-2.6z"/><path id="L" d="M633.6 624c.6-.6 1.6-.7 2.2-.1.7.6.7 1.6.1 2.2-.6.6-1.6.7-2.2.1-.7-.6-.7-1.6-.1-2.2z"/><path id="M" d="M592 646.8c1-.4 2 .1 2.3 1s-.1 2-1 2.3c-1 .4-2-.1-2.3-1-.4-1 .1-2 1-2.3z"/><path id="N" d="M544.6 655c1-.2 2 .6 2.2 1.7s-.6 2-1.7 2.3a2 2 0 0 1-2.3-1.7c-.2-1 .6-2 1.7-2.3z"/><path id="O" d="M506 655c1.2 0 2.2 1 2.2 2 0 1.2-1 2.2-2.2 2.2-1.2 0-2.2-1-2.2-2 0-1.2 1-2.2 2.2-2.2z"/><path id="P" d="M490 653.3c1.3.1 2.3 1.2 2.2 2.5-.1 1.3-1.2 2.3-2.5 2.2-1.3-.1-2.3-1.2-2.2-2.5.1-1.3 1.2-2.3 2.5-2.2z"/></defs></svg>