<?xml version="1.0" encoding="utf-8"?>
<!-- Generator: Adobe Illustrator 16.0.4, SVG Export Plug-In . SVG Version: 6.00 Build 0)  -->
<!DOCTYPE svg PUBLIC "-//W3C//DTD SVG 1.1//EN" "http://www.w3.org/Graphics/SVG/1.1/DTD/svg11.dtd">
<svg version="1.1" id="Capa_1" xmlns="http://www.w3.org/2000/svg" xmlns:xlink="http://www.w3.org/1999/xlink" x="0px" y="0px"
	 width="758px" height="1183.645px" viewBox="25.726 0 758 1183.645" enable-background="new 25.726 0 758 1183.645"
	 xml:space="preserve">
<g>
	<g>
		<g>
			<g>
				
					<image overflow="visible" enable-background="new    " width="385" height="444" xlink:href="C28DB43349DBC3EF.png"  transform="matrix(1 0 0 1 150 248.2896)">
				</image>
			</g>
			<g>
				<g>
					<path fill="#F3FA20" d="M635.4,506.342c-10.578-2.521-17.107-13.122-14.61-23.685c2.508-10.573,13.109-17.117,23.686-14.623
						c10.562,2.51,17.106,13.125,14.606,23.688C656.578,502.294,645.974,508.839,635.4,506.342z"/>
					<path fill="#F4FA31" d="M580.592,504.938c-10.079-1.713-16.859-11.253-15.171-21.315c1.698-10.074,11.239-16.869,21.315-15.183
						c10.062,1.7,16.857,11.253,15.167,21.317C600.209,499.831,590.665,506.625,580.592,504.938z"/>
					<path fill="#F5FB42" d="M551.646,507.602c-9.571-0.104-17.241-7.935-17.153-17.487c0.092-9.565,7.921-17.249,17.484-17.167
						c9.558,0.099,17.241,7.936,17.152,17.494C569.042,500.003,561.21,507.686,551.646,507.602z"/>
					<path fill="#F6FB53" d="M518.089,514.407c-8.923,0.145-16.266-6.958-16.425-15.86c-0.155-8.915,6.943-16.271,15.857-16.437
						c8.905-0.149,16.264,6.959,16.422,15.867C534.104,506.89,526.999,514.244,518.089,514.407z"/>
					<path fill="#F7FC65" d="M455.801,525.489c-8.25-0.636-14.416-7.826-13.794-16.057c0.625-8.242,7.813-14.421,16.054-13.806
						c8.235,0.63,14.414,7.825,13.792,16.064C471.232,519.931,464.041,526.106,455.801,525.489z"/>
					<path fill="#F8FC76" d="M395.212,516.208c-6.473-4.027-8.455-12.528-4.447-18.989c4.017-6.472,12.521-8.465,18.995-4.458
						c6.463,4.021,8.452,12.527,4.44,18.998C410.189,518.23,401.684,520.216,395.212,516.208z"/>
					<path fill="#F9FC87" d="M342.298,485.711c-4.595-5.248-4.067-13.216,1.157-17.804c5.238-4.596,13.21-4.078,17.811,1.149
						c4.587,5.237,4.066,13.211-1.168,17.811C354.868,491.463,346.896,490.939,342.298,485.711z"/>
					<path fill="#F9FD98" d="M298.087,445.55c-3.274-5.413-1.542-12.444,3.85-15.714c5.403-3.276,12.441-1.554,15.721,3.843
						c3.268,5.403,1.542,12.441-3.862,15.72C308.401,452.677,301.365,450.945,298.087,445.55z"/>
					<path fill="#FAFDA9" d="M264.483,405.831c-2.369-5.16-0.105-11.255,5.032-13.618c5.151-2.37,11.252-0.117,13.626,5.027
						c2.362,5.149,0.107,11.249-5.047,13.623C272.952,413.236,266.856,410.974,264.483,405.831z"/>
					<path fill="#FBFDBA" d="M244.108,376.621c-1.718-4.729,0.723-9.944,5.429-11.657c4.72-1.72,9.942,0.712,11.666,5.425
						c1.711,4.721-0.721,9.938-5.444,11.662C251.046,383.773,245.831,381.332,244.108,376.621z"/>
					<path fill="#FCFECC" d="M250.46,357.821c4.144,1.433,6.332,5.95,4.908,10.071c-1.428,4.139-5.94,6.336-10.073,4.916
						c-4.133-1.434-6.329-5.942-4.9-10.088C241.813,358.588,246.329,356.401,250.46,357.821z"/>
					<path fill="#FDFEDD" d="M275.625,362.036c3.359,1.642,4.741,5.694,3.107,9.031c-1.637,3.354-5.686,4.746-9.035,3.114
						c-3.348-1.644-4.738-5.686-3.098-9.048C268.227,361.786,272.277,360.406,275.625,362.036z"/>
					<path fill="#FEFFEE" d="M326.649,375.107c2.514,1.807,3.077,5.309,1.279,7.802c-1.803,2.509-5.301,3.083-7.805,1.286
						c-2.504-1.811-3.075-5.301-1.268-7.819C320.647,373.871,324.146,373.312,326.649,375.107z"/>
					<path fill="#FFFFFF" d="M385.43,402.58c1.851-1.592,4.653-1.358,6.243,0.495c1.6,1.867,1.371,4.675-0.484,6.254
						c-1.863,1.595-4.669,1.377-6.259-0.479C383.341,406.98,383.559,404.185,385.43,402.58z"/>
					<path fill="#FEFFEE" d="M408.365,414.602c-1.037,1.512-3.108,1.9-4.612,0.865c-1.511-1.04-1.89-3.103-0.849-4.625
						c1.024-1.508,3.095-1.879,4.601-0.85C409.022,411.032,409.398,413.104,408.365,414.602z"/>
					<path fill="#FDFEDD" d="M425.896,416.503c-0.391,1.156-1.648,1.782-2.8,1.392c-1.156-0.393-1.769-1.644-1.381-2.812
						c0.383-1.151,1.641-1.763,2.791-1.377C425.67,414.098,426.285,415.358,425.896,416.503z"/>
					<path fill="#FCFECC" d="M443.582,415.627c0.052,0.632-0.421,1.199-1.051,1.245c-0.637,0.046-1.18-0.42-1.238-1.062
						c-0.057-0.629,0.417-1.179,1.045-1.231C442.979,414.522,443.53,415.002,443.582,415.627z"/>
					<path fill="#FBFDBA" d="M461.188,412.473c0.318,0.021,0.557,0.308,0.53,0.624c-0.024,0.316-0.297,0.548-0.62,0.521
						c-0.326-0.027-0.562-0.294-0.535-0.614C460.59,412.684,460.871,412.452,461.188,412.473z"/>
					<path fill="#FAFDA9" d="M478.404,407.511c0.449-0.621,1.312-0.754,1.932-0.305c0.616,0.447,0.762,1.312,0.307,1.925
						c-0.458,0.622-1.315,0.766-1.936,0.312C478.093,408.995,477.956,408.132,478.404,407.511z"/>
					<path fill="#F9FD98" d="M494.896,401.226c0.479-1.274,1.899-1.909,3.172-1.431c1.269,0.482,1.921,1.9,1.432,3.168
						c-0.491,1.275-1.904,1.918-3.177,1.437C495.056,403.915,494.415,402.498,494.896,401.226z"/>
					<path fill="#F9FC87" d="M510.296,394.118c0.441-1.927,2.359-3.121,4.281-2.681c1.92,0.445,3.132,2.358,2.682,4.281
						c-0.453,1.928-2.365,3.127-4.288,2.685C511.052,397.956,509.852,396.041,510.296,394.118z"/>
					<path fill="#F8FC76" d="M524.222,386.7c0.354-2.575,2.722-4.363,5.289-4.013c2.564,0.358,4.375,2.722,4.014,5.291
						c-0.365,2.572-2.729,4.368-5.298,4.015C525.662,391.634,523.865,389.266,524.222,386.7z"/>
					<path fill="#F7FC65" d="M536.287,379.496c0.227-3.214,3.012-5.622,6.216-5.397c3.204,0.234,5.634,3.011,5.397,6.222
						c-0.239,3.21-3.02,5.624-6.225,5.396C538.473,385.482,536.057,382.698,536.287,379.496z"/>
					<path fill="#F6FB53" d="M546.106,373.038c0.07-3.846,3.242-6.889,7.076-6.819c3.835,0.082,6.901,3.243,6.819,7.085
						c-0.085,3.841-3.254,6.89-7.088,6.815C549.08,380.041,546.027,376.869,546.106,373.038z"/>
					<path fill="#F5FB42" d="M553.288,367.862c-0.104-4.47,3.433-8.16,7.889-8.266c4.458-0.091,8.173,3.434,8.266,7.901
						c0.089,4.464-3.443,8.158-7.9,8.26C557.081,375.852,553.383,372.315,553.288,367.862z"/>
					<path fill="#F4FA31" d="M557.442,364.51c-0.296-5.086,3.587-9.433,8.658-9.729c5.075-0.28,9.445,3.587,9.729,8.674
						c0.278,5.081-3.602,9.429-8.675,9.721C562.079,373.462,557.725,369.579,557.442,364.51z"/>
					<path fill="#F3FA20" d="M569.368,372.929c-5.689,0.489-10.705-3.727-11.189-9.404c-0.499-5.699,3.715-10.705,9.397-11.205
						c5.688-0.482,10.719,3.714,11.205,9.416C579.263,367.426,575.052,372.434,569.368,372.929z"/>
				</g>
				<g>
					<path fill="#F3FA20" d="M203.53,861.018c-2.54-6.17,0.392-13.248,6.571-15.801c6.189-2.555,13.257,0.391,15.799,6.572
						c2.568,6.17-0.385,13.248-6.571,15.799C213.164,870.125,206.081,867.215,203.53,861.018z"/>
					<path fill="#F3FA20" d="M209.89,847.979c-2.696-5.795-0.202-12.688,5.596-15.396c5.807-2.713,12.694-0.205,15.395,5.596
						c2.723,5.787,0.207,12.686-5.597,15.395C219.5,856.264,212.599,853.792,209.89,847.979z"/>
					<path fill="#F3FA20" d="M224.304,811.35c-2.887-5.383-0.882-12.09,4.501-14.99c5.39-2.902,12.095-0.885,14.988,4.5
						c2.911,5.373,0.886,12.086-4.5,14.988C233.92,818.733,227.204,816.747,224.304,811.35z"/>
					<path fill="#F3FA20" d="M241.754,755.694c-3.117-4.92-1.676-11.436,3.241-14.564c4.923-3.131,11.438-1.678,14.562,3.242
						c3.139,4.906,1.678,11.428-3.241,14.561C251.406,762.045,244.883,760.624,241.754,755.694z"/>
					<path fill="#F3FA20" d="M257.243,685.555c-3.393-4.381-2.611-10.676,1.763-14.08c4.381-3.404,10.68-2.613,14.078,1.764
						c3.411,4.365,2.611,10.67-1.764,14.076C266.951,690.706,260.648,689.942,257.243,685.555z"/>
					<path fill="#F3FA20" d="M265.799,605.164c-3.703-3.733-3.699-9.746,0.022-13.458c3.728-3.713,9.749-3.702,13.458,0.022
						c3.717,3.713,3.697,9.738-0.023,13.454C275.537,608.881,269.515,608.896,265.799,605.164z"/>
					<path fill="#F3FA20" d="M264.988,520.173c-3.81-3.199-4.323-8.86-1.138-12.676c3.19-3.818,8.861-4.326,12.676-1.138
						c3.818,3.176,4.317,8.851,1.136,12.672C274.478,522.834,268.808,523.366,264.988,520.173z"/>
					<path fill="#F3FA20" d="M258.349,451.04c-3.81-2.739-4.693-8.021-1.972-11.835c2.728-3.813,8.021-4.694,11.835-1.97
						c3.813,2.715,4.685,8.011,1.968,11.829C267.458,452.866,262.166,453.768,258.349,451.04z"/>
					<path fill="#F3FA20" d="M250.054,401.472c-3.732-2.348-4.868-7.243-2.541-10.977c2.334-3.733,7.243-4.869,10.978-2.541
						c3.732,2.323,4.858,7.235,2.537,10.972C258.698,402.65,253.79,403.805,250.054,401.472z"/>
					<path fill="#F3FA20" d="M244.282,375.163c-3.604-2.011-4.894-6.532-2.9-10.13c2-3.599,6.531-4.896,10.131-2.9
						c3.596,1.99,4.882,6.523,2.896,10.125C252.412,375.848,247.878,377.168,244.282,375.163z"/>
					<path fill="#F3FA20" d="M250.823,362.367c3.77,0.755,6.199,4.392,5.458,8.148c-0.748,3.757-4.391,6.198-8.15,5.458
						c-3.752-0.739-6.183-4.389-5.452-8.145C243.425,364.077,247.065,361.614,250.823,362.367z"/>
					<path fill="#F3FA20" d="M266.865,387.977c3.449,0.896,5.501,4.382,4.623,7.814c-0.887,3.431-4.38,5.499-7.816,4.622
						c-3.429-0.879-5.491-4.379-4.615-7.811S263.435,387.085,266.865,387.977z"/>
					<path fill="#F3FA20" d="M291.835,432.926c3.105,1.059,4.749,4.394,3.709,7.481c-1.046,3.085-4.39,4.746-7.482,3.709
						c-3.084-1.041-4.737-4.391-3.703-7.477C285.394,433.552,288.75,431.876,291.835,432.926z"/>
					<path fill="#F3FA20" d="M319.091,492.06c2.727,1.249,3.908,4.428,2.68,7.138c-1.236,2.703-4.424,3.902-7.138,2.678
						c-2.703-1.231-3.894-4.423-2.673-7.13C313.184,492.034,316.388,490.821,319.091,492.06z"/>
					<path fill="#F3FA20" d="M341.992,560.242c2.282,1.478,2.921,4.473,1.468,6.738c-1.459,2.257-4.473,2.922-6.74,1.467
						c-2.26-1.451-2.905-4.469-1.461-6.729C336.708,559.448,339.737,558.781,341.992,560.242z"/>
					<path fill="none" d="M347.698,632.388c1.708-1.7,4.471-1.7,6.167,0c1.705,1.743,1.694,4.471-0.008,6.171
						c-1.708,1.69-4.465,1.69-6.173-0.011C345.994,636.842,346.013,634.094,347.698,632.388z"/>
					<path fill="#F3FA20" d="M350.566,659.961c1.432-2.174,4.37-2.773,6.526-1.332c2.182,1.459,2.756,4.363,1.321,6.529
						c-1.439,2.158-4.361,2.758-6.529,1.322C349.721,665.045,349.14,662.125,350.566,659.961z"/>
					<path fill="#F3FA20" d="M357.873,688.858c1.163-2.547,4.183-3.668,6.713-2.496c2.555,1.184,3.65,4.178,2.483,6.719
						c-1.169,2.531-4.171,3.65-6.714,2.484C357.819,694.397,356.715,691.397,357.873,688.858z"/>
					<path fill="#F3FA20" d="M368.892,718.581c0.909-2.859,3.973-4.439,6.817-3.521c2.864,0.926,4.419,3.973,3.505,6.824
						c-0.915,2.844-3.963,4.42-6.816,3.506C369.548,724.473,367.986,721.428,368.892,718.581z"/>
					<path fill="#F3FA20" d="M382.912,748.647c0.674-3.131,3.765-5.121,6.883-4.439c3.132,0.686,5.1,3.766,4.421,6.889
						c-0.678,3.115-3.755,5.104-6.878,4.424C384.213,754.838,382.241,751.764,382.912,748.647z"/>
					<path fill="#F3FA20" d="M399.238,778.586c0.455-3.375,3.566-5.74,6.931-5.279c3.374,0.465,5.721,3.57,5.259,6.938
						c-0.459,3.361-3.557,5.727-6.924,5.264C401.132,785.045,398.784,781.952,399.238,778.586z"/>
					<path fill="#F3FA20" d="M417.181,807.934c0.259-3.602,3.382-6.316,6.974-6.061c3.596,0.256,6.297,3.385,6.039,6.979
						c-0.252,3.588-3.37,6.307-6.963,6.043C419.629,814.639,416.938,811.526,417.181,807.934z"/>
					<path fill="#F3FA20" d="M436.064,836.221c0.064-3.818,3.204-6.863,7.013-6.801c3.808,0.061,6.843,3.209,6.776,7.02
						c-0.059,3.805-3.191,6.852-7,6.781C439.035,843.159,436.013,840.03,436.064,836.221z"/>
					<path fill="#F3FA20" d="M455.208,862.975c-0.119-4.025,3.04-7.385,7.054-7.508c4.01-0.125,7.365,3.043,7.482,7.061
						c0.127,4.01-3.025,7.377-7.04,7.486C458.678,870.137,455.339,866.989,455.208,862.975z"/>
					<path fill="#F3FA20" d="M473.938,887.729c-0.295-4.227,2.883-7.889,7.099-8.191c4.205-0.303,7.87,2.889,8.162,7.105
						c0.305,4.211-2.866,7.883-7.081,8.166C477.888,895.112,474.244,891.944,473.938,887.729z"/>
					<path fill="#F3FA20" d="M491.58,910.012c-0.466-4.424,2.732-8.379,7.145-8.854c4.396-0.475,8.361,2.74,8.822,7.152
						c0.477,4.406-2.716,8.367-7.124,8.828C495.994,917.6,492.056,914.422,491.58,910.012z"/>
					<path fill="#F3FA20" d="M507.461,929.35c-0.631-4.615,2.59-8.857,7.193-9.502c4.585-0.639,8.843,2.6,9.468,7.203
						c0.644,4.598-2.571,8.848-7.171,9.473C512.328,937.151,508.101,933.956,507.461,929.35z"/>
					<path fill="#F3FA20" d="M520.91,945.274c-0.792-4.809,2.451-9.332,7.244-10.139c4.771-0.801,9.306,2.463,10.103,7.256
						c0.795,4.787-2.433,9.32-7.222,10.105C526.22,953.286,521.709,950.069,520.91,945.274z"/>
					<path fill="#F3FA20" d="M531.252,957.311c-0.949-4.996,2.318-9.797,7.3-10.764c4.952-0.959,9.771,2.332,10.725,7.312
						c0.952,4.975-2.3,9.785-7.273,10.727C536.998,965.532,532.207,962.292,531.252,957.311z"/>
					<path fill="#F3FA20" d="M537.818,964.989c-1.105-5.184,2.188-10.256,7.354-11.379c5.134-1.115,10.229,2.203,11.338,7.367
						c1.107,5.162-2.167,10.246-7.327,11.342C543.991,973.418,538.926,970.157,537.818,964.989z"/>
					<path fill="#F3FA20" d="M551.903,975.215c-5.375,1.27-10.716-2.035-11.976-7.387c-1.257-5.367,2.067-10.691,7.413-11.988
						c5.318-1.25,10.698,2.076,11.944,7.428C560.561,968.61,557.25,973.987,551.903,975.215z"/>
				</g>
				<g>
					<path fill="#F3FA20" d="M723.173,767.233c-9.373-1.742-15.545-10.762-13.803-20.131c1.743-9.359,10.758-15.525,20.131-13.787
						c9.36,1.758,15.541,10.76,13.788,20.131C741.543,762.821,732.53,768.991,723.173,767.233z"/>
					<path fill="#F3FA20" d="M690.779,756.815c-8.863-1.871-14.518-10.58-12.646-19.439c1.872-8.852,10.577-14.5,19.44-12.631
						c8.852,1.885,14.513,10.58,12.633,19.438C708.331,753.049,699.627,758.702,690.779,756.815z"/>
					<path fill="#F3FA20" d="M654.493,744.25c-8.35-1.984-13.497-10.371-11.513-18.717c1.986-8.34,10.367-13.482,18.72-11.5
						c8.339,2,13.494,10.371,11.499,18.717C671.211,741.104,662.83,746.25,654.493,744.25z"/>
					<path fill="#F3FA20" d="M614.597,729.368c-7.834-2.082-12.485-10.129-10.402-17.963c2.084-7.824,10.126-12.473,17.962-10.391
						c7.826,2.096,12.484,10.127,10.395,17.959C630.463,726.811,622.421,731.463,614.597,729.368z"/>
					<path fill="#F3FA20" d="M571.367,711.985c-7.317-2.16-11.488-9.854-9.326-17.172c2.164-7.311,9.854-11.477,17.172-9.314
						c7.312,2.174,11.486,9.852,9.318,17.168C586.364,709.989,578.676,714.159,571.367,711.985z"/>
					<path fill="#F3FA20" d="M525.077,691.924c-6.801-2.221-10.505-9.543-8.282-16.346c2.225-6.795,9.543-10.494,16.347-8.271
						c6.796,2.232,10.503,9.543,8.275,16.344C539.19,690.454,531.87,694.159,525.077,691.924z"/>
					<path fill="#F3FA20" d="M471.47,665.989c-6.132-2.645-8.95-9.77-6.305-15.904c2.65-6.127,9.768-8.943,15.903-6.294
						c6.129,2.655,8.953,9.767,6.301,15.9C484.717,665.825,477.596,668.645,471.47,665.989z"/>
					<path fill="#F3FA20" d="M417.669,630.117c-5.246-3.311-6.806-10.257-3.491-15.502c3.316-5.241,10.254-6.798,15.501-3.482
						c5.242,3.321,6.806,10.254,3.488,15.497C429.85,631.876,422.908,633.438,417.669,630.117z"/>
					<path fill="#F3FA20" d="M372.172,589.043c-4.393-3.675-4.962-10.226-1.283-14.618c3.682-4.387,10.223-4.957,14.616-1.273
						c4.388,3.685,4.964,10.224,1.282,14.611C383.104,592.156,376.557,592.729,372.172,589.043z"/>
					<path fill="#F3FA20" d="M334.447,545.343c-3.623-3.8-3.468-9.83,0.337-13.453c3.81-3.618,9.828-3.465,13.452,0.346
						c3.62,3.811,3.471,9.827-0.335,13.446C344.091,549.305,338.065,549.154,334.447,545.343z"/>
					<path fill="#F3FA20" d="M303.963,501.531c-2.958-3.749-2.305-9.198,1.45-12.155c3.758-2.954,9.197-2.303,12.153,1.456
						s2.309,9.195-1.446,12.149C312.362,505.938,306.916,505.29,303.963,501.531z"/>
					<path fill="#F3FA20" d="M280.206,460.081c-2.394-3.57-1.426-8.419,2.152-10.812c3.583-2.389,8.42-1.424,10.811,2.159
						s1.43,8.417-2.147,10.808C287.44,464.627,282.594,463.665,280.206,460.081z"/>
					<path fill="#F3FA20" d="M262.686,423.458c-1.918-3.307-0.779-7.557,2.536-9.474c3.32-1.913,7.559-0.777,9.473,2.542
						c1.917,3.318,0.784,7.556-2.529,9.471C268.848,427.913,264.6,426.778,262.686,423.458z"/>
					<path fill="#F3FA20" d="M250.938,394.119c-1.52-2.982-0.32-6.646,2.671-8.165c2.998-1.513,6.651-0.318,8.165,2.678
						c1.52,2.995,0.326,6.646-2.663,8.162C256.116,398.311,252.453,397.116,250.938,394.119z"/>
					<path fill="#F3FA20" d="M244.506,374.521c-1.184-2.616-0.009-5.712,2.616-6.895c2.632-1.177,5.718-0.009,6.895,2.622
						c1.186,2.63,0.015,5.711-2.605,6.893C248.784,378.322,245.688,377.152,244.506,374.521z"/>
					<path fill="none" d="M242.951,367.127c-0.902-2.219,0.182-4.765,2.411-5.665c2.237-0.895,4.773,0.182,5.667,2.417
						c0.904,2.235-0.175,4.766-2.399,5.665C246.397,370.441,243.851,369.363,242.951,367.127z"/>
				</g>
				<path fill="none" stroke="#FFFFFF" stroke-width="1.2674" stroke-miterlimit="10" d="M568.388,362.521
					c0,0-107.393,81.609-180.128,43.562c-72.733-38.059-141.27-40.58-141.27-40.58S357.572,529.45,460.611,510.002
					c72.288-13.648,126.136-26.887,179.333-22.814"/>
				<path fill="none" stroke="#FFFFFF" stroke-width="1.2674" stroke-miterlimit="10" d="M246.99,365.505
					c0,0,65.418,216.784,255.101,302.207c96.114,43.289,172.436,68.396,224.353,82.631"/>
				<path fill="none" stroke="#FFFFFF" stroke-width="1.2674" stroke-miterlimit="10" d="M548.413,965.153
					c0,0-190.896-198.346-197.654-329.665C344.006,504.167,246.99,365.505,246.99,365.505s29.678,97.358,25.456,236.271
					c-4.219,138.912-58.28,256.507-58.28,256.507"/>
				<g>
					<path fill="#F3FA20" d="M160.245,413.701c-4.947,2.585-11.07,0.677-13.667-4.272c-2.582-4.96-0.68-11.073,4.274-13.672
						c4.95-2.593,11.072-0.682,13.659,4.275C167.106,404.985,165.199,411.108,160.245,413.701z"/>
					<path fill="#F5FB4D" d="M156.861,384.459c4.806-1.189,9.67,1.744,10.854,6.557c1.193,4.81-1.741,9.678-6.551,10.865
						c-4.801,1.185-9.67-1.748-10.862-6.555C149.123,390.513,152.048,385.65,156.861,384.459z"/>
					<path fill="#F8FC79" d="M176.103,363.129c4.221,0.885,6.929,5.026,6.038,9.252c-0.881,4.228-5.027,6.938-9.251,6.05
						c-4.217-0.887-6.932-5.028-6.047-9.254C167.736,364.952,171.872,362.241,176.103,363.129z"/>
					<path fill="#FAFDA6" d="M213.164,351.405c2.514,2.682,2.379,6.895-0.31,9.411c-2.681,2.521-6.901,2.384-9.417-0.301
						c-2.512-2.681-2.382-6.9,0.304-9.417C206.431,348.583,210.646,348.714,213.164,351.405z"/>
					<path fill="#FDFED2" d="M242.074,358.326c0.714,2.953-1.099,5.925-4.061,6.64c-2.956,0.726-5.935-1.098-6.649-4.055
						c-0.715-2.952,1.099-5.937,4.058-6.648C238.384,353.546,241.362,355.359,242.074,358.326z"/>
					<path fill="#FFFFFF" d="M251.33,365.868c-0.197,2.393-2.294,4.172-4.695,3.975c-2.4-0.187-4.181-2.297-3.984-4.692
						c0.195-2.394,2.296-4.186,4.694-3.983C249.747,361.361,251.534,363.462,251.33,365.868z"/>
				</g>
				<g>
					<path fill="#F3FA20" d="M80.455,323.31c-1.583,0.737-3.464,0.063-4.21-1.512c-0.746-1.589-0.072-3.479,1.511-4.226
						c1.578-0.743,3.462-0.062,4.215,1.514C82.714,320.674,82.049,322.552,80.455,323.31z"/>
					<path fill="#F4FA34" d="M85.854,316.635c0.59,1.714-0.313,3.578-2.039,4.168c-1.708,0.584-3.572-0.328-4.156-2.034
						c-0.588-1.717,0.322-3.583,2.035-4.171C83.4,314.014,85.266,314.926,85.854,316.635z"/>
					<path fill="#F5FB49" d="M96.84,310.724c0.363,1.835-0.826,3.616-2.671,3.979c-1.832,0.358-3.607-0.837-3.969-2.666
						c-0.358-1.839,0.833-3.621,2.667-3.981C94.697,307.696,96.478,308.89,96.84,310.724z"/>
					<path fill="#F6FB5D" d="M114.574,304.212c0.058,1.929-1.455,3.538-3.395,3.593c-1.925,0.055-3.529-1.463-3.587-3.387
						c-0.052-1.933,1.461-3.543,3.391-3.599C112.907,300.766,114.517,302.282,114.574,304.212z"/>
					<path fill="#F7FC71" d="M138.69,299.935c-0.323,1.962-2.173,3.289-4.145,2.964c-1.959-0.329-3.283-2.177-2.961-4.136
						c0.329-1.966,2.178-3.297,4.14-2.972C137.683,296.117,139.013,297.97,138.69,299.935z"/>
					<path fill="#F8FC85" d="M168.825,300.676c-0.748,1.906-2.898,2.844-4.812,2.093c-1.904-0.752-2.84-2.899-2.094-4.804
						c0.754-1.909,2.902-2.851,4.809-2.102C168.631,296.613,169.574,298.764,168.825,300.676z"/>
					<path fill="#FAFD9A" d="M194.104,308.614c-1.346,1.62-3.752,1.84-5.376,0.487c-1.618-1.351-1.837-3.751-0.492-5.372
						c1.354-1.621,3.757-1.846,5.378-0.497C195.23,304.581,195.454,306.987,194.104,308.614z"/>
					<path fill="#FBFDAE" d="M214.02,322.175c-1.765,1.252-4.216,0.832-5.47-0.941c-1.251-1.771-0.832-4.215,0.936-5.469
						c1.774-1.251,4.221-0.838,5.474,0.933C216.209,318.465,215.795,320.916,214.02,322.175z"/>
					<path fill="#FCFEC2" d="M229.11,338.192c-2.023,0.92-4.416,0.019-5.335-2.013c-0.92-2.029-0.021-4.415,2.006-5.336
						c2.032-0.918,4.421-0.025,5.341,2.003C232.04,334.873,231.146,337.266,229.11,338.192z"/>
					<path fill="#FDFED6" d="M239.611,353.572c-2.186,0.653-4.495-0.597-5.147-2.79c-0.654-2.193,0.591-4.495,2.783-5.151
						c2.195-0.65,4.501,0.588,5.155,2.78C243.054,350.602,241.813,352.912,239.611,353.572z"/>
					<path fill="#FEFFEB" d="M245.693,365.181c-2.297,0.448-4.53-1.062-4.973-3.365c-0.448-2.308,1.056-4.531,3.361-4.98
						c2.307-0.444,4.535,1.054,4.982,3.358C249.508,362.496,248.009,364.73,245.693,365.181z"/>
					<path fill="#FFFFFF" d="M251.331,365.005c0.283,2.388-1.418,4.556-3.822,4.849c-2.382,0.28-4.553-1.429-4.833-3.815
						c-0.286-2.394,1.419-4.555,3.811-4.841C248.88,360.916,251.047,362.614,251.331,365.005z"/>
				</g>
				<g>
					<path fill="#F3FA20" d="M354.432,183.719c-2.077-0.575-3.294-2.708-2.731-4.784c0.564-2.074,2.708-3.295,4.782-2.731
						c2.077,0.575,3.296,2.713,2.73,4.782C358.646,183.061,356.505,184.29,354.432,183.719z"/>
					<path fill="#F4FA34" d="M355.112,181.569c1.966,0.938,2.796,3.286,1.865,5.244c-0.933,1.963-3.283,2.804-5.246,1.867
						c-1.963-0.942-2.795-3.281-1.864-5.247C350.8,181.471,353.152,180.634,355.112,181.569z"/>
					<path fill="#F5FB49" d="M347.862,194.917c1.733,1.358,2.042,3.853,0.695,5.582c-1.349,1.734-3.852,2.051-5.585,0.698
						c-1.73-1.358-2.041-3.849-0.693-5.584C343.628,193.879,346.129,193.571,347.862,194.917z"/>
					<path fill="#F6FB5D" d="M331.728,212.452c1.363,1.757,1.048,4.277-0.698,5.64c-1.751,1.366-4.282,1.058-5.646-0.696
						c-1.36-1.759-1.048-4.276,0.702-5.644C327.837,210.388,330.363,210.704,331.728,212.452z"/>
					<path fill="#F7FC71" d="M303.681,230.261c0.897,2.06-0.042,4.449-2.092,5.347c-2.057,0.901-4.457-0.035-5.355-2.093
						c-0.891-2.062,0.042-4.449,2.099-5.35C300.389,227.267,302.782,228.21,303.681,230.261z"/>
					<path fill="#F8FC85" d="M266.721,243.342c0.97,2.052,0.096,4.493-1.947,5.464c-2.048,0.973-4.502,0.104-5.474-1.948
						c-0.963-2.055-0.094-4.494,1.955-5.467C263.304,240.42,265.75,241.298,266.721,243.342z"/>
					<path fill="#FAFD9A" d="M244.809,259.751c1.943,1.217,2.526,3.771,1.318,5.709c-1.214,1.944-3.776,2.539-5.721,1.322
						c-1.938-1.224-2.525-3.774-1.311-5.717C240.312,259.124,242.871,258.541,244.809,259.751z"/>
					<path fill="#FBFDAE" d="M234.838,284.004c2.294,0.319,3.885,2.432,3.572,4.718c-0.316,2.294-2.434,3.905-4.729,3.582
						c-2.292-0.323-3.886-2.437-3.568-4.729C230.435,285.281,232.552,283.687,234.838,284.004z"/>
					<path fill="#FCFEC2" d="M233.815,311.081c2.326-0.241,4.395,1.449,4.639,3.768c0.242,2.327-1.447,4.417-3.777,4.653
						c-2.326,0.235-4.398-1.456-4.638-3.782C229.803,313.392,231.496,311.32,233.815,311.081z"/>
					<path fill="#FDFED6" d="M237.819,336.059c2.292-0.569,4.599,0.828,5.171,3.112c0.571,2.293-0.824,4.622-3.122,5.188
						c-2.292,0.562-4.604-0.834-5.171-3.128C234.133,338.936,235.534,336.625,237.819,336.059z"/>
					<path fill="#FEFFEB" d="M242.931,354.354c2.254-0.778,4.7,0.423,5.479,2.669c0.779,2.256-0.415,4.724-2.677,5.496
						c-2.255,0.771-4.706-0.43-5.48-2.685C239.48,357.575,240.685,355.127,242.931,354.354z"/>
					<path fill="#FFFFFF" d="M245.329,361.476c2.225-0.923,4.762,0.141,5.684,2.356c0.923,2.228-0.135,4.781-2.365,5.704
						c-2.229,0.908-4.769-0.147-5.686-2.375C242.046,364.932,243.112,362.391,245.329,361.476z"/>
				</g>
				<g>
					<path fill="#FFFFFF" d="M248.017,361.279c2.335,0.588,3.754,2.958,3.173,5.299c-0.598,2.318-2.969,3.74-5.308,3.15
						c-2.324-0.574-3.746-2.956-3.154-5.285C243.313,362.104,245.69,360.683,248.017,361.279z"/>
					<path fill="#FEFFEB" d="M246.479,367.781c2.528,0.708,4.016,3.335,3.304,5.866c-0.707,2.515-3.342,3.992-5.873,3.283
						c-2.518-0.695-3.998-3.331-3.286-5.854C241.33,368.545,243.96,367.067,246.479,367.781z"/>
					<path fill="#FDFED6" d="M241.445,385.994c2.71,0.854,4.226,3.751,3.367,6.464c-0.854,2.698-3.757,4.205-6.469,3.348
						c-2.703-0.845-4.209-3.746-3.351-6.453C235.846,386.639,238.743,385.134,241.445,385.994z"/>
					<path fill="#FCFEC2" d="M232.926,412.891c2.877,1.042,4.376,4.225,3.332,7.104c-1.04,2.866-4.228,4.355-7.106,3.312
						c-2.871-1.031-4.361-4.217-3.317-7.091C226.875,413.336,230.058,411.848,232.926,412.891z"/>
					<path fill="#FBFDAE" d="M220.935,445.46c3.017,1.281,4.434,4.771,3.15,7.789c-1.278,3.006-4.773,4.416-7.79,3.133
						c-3.012-1.271-4.42-4.763-3.136-7.778C214.438,445.586,217.927,444.18,220.935,445.46z"/>
					<path fill="#FAFD9A" d="M205.499,480.706c3.108,1.597,4.342,5.42,2.742,8.528c-1.595,3.098-5.42,4.324-8.527,2.727
						c-3.105-1.591-4.33-5.41-2.729-8.518C198.579,480.333,202.397,479.111,205.499,480.706z"/>
					<path fill="#F8FC85" d="M186.207,516.423c3.096,2.048,3.947,6.224,1.901,9.323c-2.05,3.083-6.225,3.938-9.319,1.888
						c-3.093-2.043-3.941-6.216-1.89-9.312C178.945,515.224,183.118,514.379,186.207,516.423z"/>
					<path fill="#F7FC71" d="M162.629,549.827c2.988,2.551,3.341,7.049,0.792,10.04c-2.552,2.977-7.049,3.334-10.034,0.781
						c-2.987-2.549-3.339-7.04-0.784-10.029C155.155,547.629,159.646,547.281,162.629,549.827z"/>
					<path fill="#F6FB5D" d="M138.742,576.861c2.885,2.979,2.807,7.738-0.169,10.625c-2.979,2.875-7.739,2.801-10.619-0.18
						c-2.884-2.978-2.806-7.729,0.178-10.615C131.11,573.807,135.861,573.89,138.742,576.861z"/>
					<path fill="#F5FB49" d="M117.811,596.925c2.794,3.353,2.341,8.342-1.009,11.138c-3.35,2.786-8.34,2.338-11.13-1.015
						c-2.794-3.352-2.34-8.332,1.016-11.129C110.039,593.124,115.018,593.583,117.811,596.925z"/>
					<path fill="#F4FA34" d="M103.087,609.43c2.721,3.686,1.935,8.889-1.75,11.608c-3.684,2.713-8.885,1.933-11.6-1.754
						c-2.721-3.688-1.936-8.877,1.756-11.603C95.179,604.963,100.367,605.754,103.087,609.43z"/>
					<path fill="#F3FA20" d="M97.818,613.791c2.661,3.993,1.577,9.396-2.414,12.056c-3.991,2.656-9.394,1.578-12.048-2.416
						c-2.661-3.998-1.58-9.385,2.42-12.051C89.768,608.72,95.155,609.809,97.818,613.791z"/>
				</g>
				<g>
					<path fill="#F3FA20" d="M445.026,259.039c-0.257-3.448,2.344-6.458,5.8-6.715c3.455-0.267,6.467,2.331,6.724,5.787
						c0.255,3.459-2.344,6.466-5.8,6.723C448.302,265.09,445.293,262.5,445.026,259.039z"/>
					<path fill="#F4FA34" d="M450.349,255.347c0.507,3.334-1.784,6.443-5.114,6.953c-3.324,0.508-6.436-1.776-6.953-5.111
						c-0.508-3.324,1.786-6.437,5.117-6.945C446.726,249.726,449.839,252.017,450.349,255.347z"/>
					<path fill="#F5FB49" d="M432.006,250.429c0.857,3.16-1.011,6.414-4.168,7.273c-3.153,0.859-6.407-1.003-7.274-4.165
						c-0.858-3.151,1.013-6.41,4.171-7.267C427.889,245.404,431.146,247.27,432.006,250.429z"/>
					<path fill="#F6FB5D" d="M406.737,247.22c1.361,2.872,0.136,6.298-2.735,7.661c-2.865,1.362-6.292,0.141-7.665-2.73
						c-1.359-2.864-0.131-6.297,2.739-7.657C401.945,243.125,405.376,244.35,406.737,247.22z"/>
					<path fill="#F7FC71" d="M378.575,249.617c2.055,2.297,1.856,5.819-0.439,7.875c-2.292,2.055-5.814,1.859-7.877-0.434
						c-2.052-2.291-1.852-5.82,0.446-7.874C372.994,247.125,376.521,247.322,378.575,249.617z"/>
					<path fill="#F8FC85" d="M351.419,261.947c2.738,1.192,3.984,4.372,2.794,7.109c-1.188,2.737-4.369,3.986-7.111,2.802
						c-2.732-1.189-3.982-4.378-2.789-7.112C345.5,262.008,348.684,260.755,351.419,261.947z"/>
					<path fill="#FAFD9A" d="M330.108,289.272c2.88,0.228,5.023,2.743,4.797,5.623c-0.223,2.88-2.741,5.025-5.622,4.806
						c-2.875-0.227-5.024-2.75-4.793-5.629C324.712,291.193,327.23,289.043,330.108,289.272z"/>
					<path fill="#FBFDAE" d="M310.246,318.465c2.673,0.808,4.181,3.621,3.376,6.294c-0.803,2.676-3.622,4.186-6.297,3.386
						c-2.67-0.804-4.182-3.63-3.372-6.301C304.755,319.171,307.574,317.658,310.246,318.465z"/>
					<path fill="#FCFEC2" d="M288.972,339.259c2.397,1.235,3.333,4.169,2.1,6.567c-1.232,2.4-4.173,3.338-6.573,2.109
						c-2.395-1.231-3.333-4.181-2.094-6.573C283.636,338.964,286.578,338.023,288.972,339.259z"/>
					<path fill="#FDFED6" d="M269.623,352.765c2.109,1.521,2.584,4.449,1.065,6.561c-1.518,2.117-4.457,2.588-6.569,1.076
						c-2.107-1.52-2.581-4.464-1.058-6.569C264.577,351.722,267.515,351.244,269.623,352.765z"/>
					<path fill="#FEFFEB" d="M255.579,360.141c1.844,1.692,1.965,4.546,0.274,6.394c-1.693,1.853-4.557,1.969-6.404,0.283
						c-1.843-1.691-1.962-4.562-0.267-6.401C250.873,358.571,253.736,358.448,255.579,360.141z"/>
					<path fill="#FFFFFF" d="M250.224,362.587c1.613,1.786,1.473,4.527-0.312,6.142c-1.789,1.624-4.541,1.477-6.156-0.304
						c-1.613-1.786-1.468-4.544,0.322-6.15C245.862,360.661,248.613,360.801,250.224,362.587z"/>
				</g>
				<g>
					<path fill="#F3FA20" d="M121.666,213.224c-3.767,1.133-7.75-0.999-8.881-4.771c-1.136-3.77,0.992-7.739,4.77-8.891
						c3.769-1.132,7.738,1.012,8.881,4.776C127.575,208.103,125.438,212.083,121.666,213.224z"/>
					<path fill="#F5FB40" d="M130.912,202.104c3.708-0.267,6.925,2.527,7.201,6.233c0.274,3.706-2.517,6.932-6.228,7.206
						c-3.707,0.267-6.936-2.519-7.203-6.229C124.413,205.604,127.194,202.384,130.912,202.104z"/>
					<path fill="#F6FB60" d="M159.503,215.869c3.368,0.944,5.328,4.443,4.392,7.814c-0.938,3.37-4.438,5.335-7.811,4.397
						c-3.368-0.945-5.339-4.439-4.396-7.811C152.633,216.898,156.122,214.933,159.503,215.869z"/>
					<path fill="#F8FC80" d="M189.346,250.249c2.445,2.186,2.65,5.941,0.469,8.391c-2.183,2.45-5.94,2.656-8.389,0.473
						c-2.445-2.188-2.659-5.941-0.474-8.39C183.141,248.277,186.89,248.065,189.346,250.249z"/>
					<path fill="#FAFD9F" d="M208.913,295.344c2.243,2.082,2.372,5.59,0.293,7.838c-2.082,2.25-5.59,2.375-7.836,0.296
						c-2.245-2.084-2.378-5.589-0.298-7.837C203.158,293.396,206.661,293.263,208.913,295.344z"/>
					<path fill="#FCFEBF" d="M227.958,330.211c2.269,1.711,2.721,4.94,1.011,7.214c-1.711,2.276-4.939,2.72-7.21,1.015
						c-2.271-1.716-2.724-4.938-1.017-7.214C222.458,328.954,225.682,328.502,227.958,330.211z"/>
					<path fill="#FDFEDF" d="M243.139,353.256c2.208,1.416,2.852,4.356,1.436,6.569c-1.417,2.216-4.358,2.848-6.565,1.437
						c-2.211-1.421-2.856-4.356-1.441-6.567C237.986,352.48,240.928,351.842,243.139,353.256z"/>
					<path fill="#FFFFFF" d="M249.124,361.706c2.096,1.177,2.843,3.835,1.664,5.935c-1.18,2.105-3.837,2.836-5.931,1.664
						c-2.101-1.184-2.84-3.832-1.669-5.935C244.373,361.271,247.027,360.529,249.124,361.706z"/>
				</g>
				<g>
					<path fill="#F3FA20" d="M211.707,150.47c-0.605-0.869-0.371-2.088,0.504-2.688c0.882-0.601,2.086-0.383,2.688,0.498
						c0.607,0.885,0.38,2.086-0.504,2.695C213.522,151.571,212.315,151.352,211.707,150.47z"/>
					<path fill="#F5FB40" d="M212.408,159.976c0.818,0.963,0.702,2.401-0.26,3.221c-0.951,0.811-2.394,0.696-3.214-0.262
						c-0.817-0.95-0.693-2.402,0.26-3.214C210.156,158.907,211.593,159.015,212.408,159.976z"/>
					<path fill="#F6FB60" d="M209.13,191.467c1.089,0.963,1.193,2.622,0.233,3.714c-0.954,1.084-2.615,1.188-3.708,0.231
						c-1.089-0.952-1.188-2.623-0.232-3.708C206.386,190.619,208.044,190.506,209.13,191.467z"/>
					<path fill="#F8FC80" d="M211.871,236.334c1.423,0.825,1.912,2.642,1.092,4.067c-0.815,1.419-2.636,1.904-4.061,1.088
						c-1.424-0.815-1.912-2.646-1.091-4.063C208.633,236.006,210.449,235.511,211.871,236.334z"/>
					<path fill="#FAFD9F" d="M222.76,281.864c1.674,0.752,2.425,2.714,1.68,4.391c-0.744,1.672-2.71,2.417-4.386,1.675
						c-1.675-0.745-2.427-2.716-1.678-4.387C219.126,281.871,221.086,281.113,222.76,281.864z"/>
					<path fill="#FCFEBF" d="M234.749,321.699c1.876,0.762,2.788,2.896,2.035,4.775c-0.751,1.877-2.892,2.779-4.77,2.031
						c-1.882-0.756-2.793-2.896-2.035-4.772C230.737,321.855,232.87,320.939,234.749,321.699z"/>
					<path fill="#FDFEDF" d="M244.431,350.493c2.073,0.782,3.128,3.092,2.357,5.168c-0.772,2.077-3.088,3.12-5.163,2.353
						c-2.081-0.776-3.137-3.09-2.357-5.167C240.046,350.772,242.354,349.712,244.431,350.493z"/>
					<path fill="#FFFFFF" d="M248.442,361.382c2.266,0.812,3.449,3.295,2.66,5.568c-0.808,2.269-3.294,3.449-5.562,2.655
						c-2.276-0.807-3.462-3.293-2.66-5.567C243.689,361.773,246.17,360.575,248.442,361.382z"/>
				</g>
				<path fill="none" stroke="#FFFFFF" stroke-width="1.2674" stroke-miterlimit="10" d="M246.99,365.505
					c0,0,55.016-16.516,86.658-78.304c31.646-61.796,117.654-28.622,117.654-28.622"/>
				<path fill="none" stroke="#FFFFFF" stroke-width="1.2674" stroke-miterlimit="10" d="M246.99,365.505
					c0,0-44.02-104.973,26.641-124.333c70.654-19.357,81.819-61.211,81.819-61.211"/>
				<path fill="none" stroke="#FFFFFF" stroke-width="1.2674" stroke-miterlimit="10" d="M246.99,365.505
					c0,0-21.23-58.158-34.104-114.032c-12.877-55.879,0.416-102.104,0.416-102.104"/>
				<path fill="none" stroke="#FFFFFF" stroke-width="1.2674" stroke-miterlimit="10" d="M246.99,365.505
					c0,0-34.088-40.618-55.949-98.183c-21.858-57.557-71.423-60.922-71.423-60.922"/>
				<path fill="none" stroke="#FFFFFF" stroke-width="1.2674" stroke-miterlimit="10" d="M246.99,365.505
					c0,0-24.739-60.048-80.694-66.092c-55.953-6.041-87.218,21.012-87.218,21.012"/>
				<path fill="none" stroke="#FFFFFF" stroke-width="1.2674" stroke-miterlimit="10" d="M246.99,365.505
					c0,0-20.514-17.727-53.476-5.986c-32.964,11.735-37.96,45.202-37.96,45.202"/>
				<g>
					<path fill="#F3FA20" d="M570.343,365.094c-1.431,1.068-3.448,0.788-4.542-0.633c-1.063-1.419-0.785-3.441,0.639-4.528
						c1.407-1.062,3.442-0.796,4.529,0.625C572.036,361.977,571.766,364.01,570.343,365.094z"/>
					<path fill="#F5EE20" d="M561.977,359.713c-1.521,0.824-3.427,0.26-4.259-1.265c-0.823-1.511-0.257-3.417,1.267-4.247
						c1.503-0.819,3.422-0.268,4.251,1.256C564.058,356.969,563.501,358.888,561.977,359.713z"/>
					<path fill="#F6E220" d="M545.339,343.667c-1.628,0.395-3.271-0.606-3.671-2.238c-0.396-1.619,0.604-3.264,2.235-3.663
						c1.61-0.394,3.269,0.599,3.668,2.23C547.968,341.616,546.97,343.273,545.339,343.667z"/>
					<path fill="#F8D620" d="M532.009,317.354c-1.587-0.331-2.604-1.891-2.274-3.479c0.327-1.582,1.884-2.603,3.473-2.272
						c1.572,0.326,2.605,1.88,2.276,3.474C535.155,316.656,533.595,317.686,532.009,317.354z"/>
					<path fill="#F9CB21" d="M533.515,283.743c-1.114-1.099-1.125-2.896-0.027-4.014c1.095-1.112,2.892-1.131,4.009-0.031
						c1.105,1.088,1.136,2.89,0.032,4.013C536.436,284.823,534.63,284.841,533.515,283.743z"/>
					<path fill="#FBBF21" d="M549.425,259.123c-0.513-1.421,0.229-2.99,1.649-3.501c1.418-0.513,2.986,0.221,3.5,1.645
						c0.509,1.41-0.217,2.987-1.646,3.504C551.514,261.282,549.938,260.542,549.425,259.123z"/>
					<path fill="#FCB321" d="M567.938,245.324c-0.129-1.451,0.949-2.729,2.396-2.856c1.448-0.127,2.729,0.939,2.858,2.391
						c0.127,1.439-0.937,2.729-2.396,2.86C569.35,247.849,568.065,246.771,567.938,245.324z"/>
					<path fill="#FEA721" d="M576.846,240.879c0.088-1.398,1.294-2.465,2.687-2.375c1.397,0.081,2.463,1.282,2.382,2.682
						c-0.091,1.389-1.279,2.457-2.688,2.38C577.83,243.477,576.767,242.274,576.846,240.879z"/>
				</g>
				<g>
					<path fill="#FEA721" d="M659.27,429.822c1.5-3.555,5.581-5.205,9.145-3.72c3.539,1.483,5.208,5.569,3.722,9.126
						c-1.499,3.548-5.596,5.225-9.13,3.713C659.445,437.458,657.781,433.372,659.27,429.822z"/>
					<path fill="#FCB321" d="M659.895,423.649c0.731-3.483,4.14-5.702,7.632-4.983c3.468,0.72,5.702,4.13,4.981,7.615
						c-0.732,3.479-4.146,5.707-7.62,4.976C661.403,430.525,659.172,427.129,659.895,423.649z"/>
					<path fill="#FBBF21" d="M657.396,406.745c-0.27-3.25,2.146-6.093,5.402-6.374c3.236-0.273,6.093,2.14,6.37,5.391
						c0.265,3.25-2.151,6.102-5.396,6.368C660.52,412.397,657.671,409.993,657.396,406.745z"/>
					<path fill="#F9CB21" d="M645.57,384.795c-1.353-2.638-0.306-5.866,2.336-7.229c2.626-1.352,5.865-0.311,7.223,2.327
						c1.348,2.641,0.307,5.881-2.332,7.226C650.157,388.473,646.927,387.432,645.57,384.795z"/>
					<path fill="#F8D620" d="M620.021,364.618c-2.122-1.612-2.529-4.645-0.916-6.779c1.604-2.117,4.644-2.535,6.771-0.92
						c2.121,1.619,2.536,4.653,0.921,6.776C625.178,365.82,622.15,366.232,620.021,364.618z"/>
					<path fill="#F6E220" d="M594.828,359.301c-2.33-0.425-3.873-2.668-3.45-5.011c0.426-2.324,2.67-3.875,5.004-3.447
						c2.333,0.434,3.884,2.673,3.454,5.008C599.407,358.188,597.164,359.729,594.828,359.301z"/>
					<path fill="#F5EE20" d="M576.479,362.717c-2.049,0.305-3.964-1.121-4.271-3.182c-0.302-2.046,1.123-3.967,3.179-4.268
						c2.057-0.297,3.975,1.122,4.277,3.18S578.536,362.414,576.479,362.717z"/>
					<path fill="#F3FA20" d="M569.48,365.561c-1.666,0.606-3.523-0.264-4.135-1.943c-0.604-1.667,0.269-3.529,1.943-4.13
						c1.678-0.604,3.521,0.266,4.143,1.938C572.026,363.108,571.16,364.954,569.48,365.561z"/>
				</g>
				<g>
					<path fill="#FEA721" d="M460.723,323.436c0.236-1.775,1.887-3.023,3.666-2.784c1.779,0.235,3.029,1.882,2.772,3.667
						c-0.235,1.78-1.869,3.019-3.644,2.783C461.725,326.853,460.479,325.217,460.723,323.436z"/>
					<path fill="#FCB321" d="M462.261,332.236c-0.133-1.787,1.222-3.345,3.011-3.478c1.788-0.133,3.338,1.22,3.465,3.015
						c0.127,1.792-1.209,3.34-2.992,3.47C463.942,335.375,462.389,334.027,462.261,332.236z"/>
					<path fill="#FBBF21" d="M470.829,350.148c-0.808-1.602-0.151-3.555,1.452-4.357c1.6-0.805,3.546-0.147,4.349,1.458
						c0.802,1.606,0.155,3.544-1.44,4.346C473.577,352.402,471.629,351.752,470.829,350.148z"/>
					<path fill="#F9CB21" d="M492.515,365.242c-1.584-0.836-2.188-2.8-1.352-4.384c0.835-1.583,2.798-2.179,4.382-1.342
						c1.587,0.839,2.184,2.794,1.352,4.371C496.058,365.478,494.098,366.077,492.515,365.242z"/>
					<path fill="#F8D620" d="M520.238,368.934c-1.741-0.418-2.812-2.167-2.392-3.907c0.416-1.738,2.17-2.8,3.907-2.384
						c1.746,0.418,2.805,2.168,2.388,3.899C523.729,368.287,521.979,369.351,520.238,368.934z"/>
					<path fill="#F6E220" d="M544.271,368.569c-1.777-0.228-3.025-1.852-2.793-3.625c0.229-1.771,1.857-3.013,3.627-2.786
						c1.78,0.228,3.014,1.856,2.785,3.622C547.663,367.554,546.041,368.801,544.271,368.569z"/>
					<path fill="#F5EE20" d="M561.624,366.791c-1.789-0.101-3.151-1.624-3.045-3.409c0.103-1.78,1.635-3.135,3.411-3.038
						c1.793,0.099,3.136,1.637,3.037,3.409C564.929,365.536,563.403,366.892,561.624,366.791z"/>
					<path fill="#F3FA20" d="M568.377,365.727c-1.792-0.004-3.229-1.454-3.214-3.241c0.012-1.781,1.47-3.217,3.244-3.208
						c1.796-0.001,3.221,1.474,3.205,3.248C571.615,364.304,570.155,365.739,568.377,365.727z"/>
				</g>
				<g>
					<path fill="#FEA721" d="M562.003,441.188c0.485-2.748,3.094-4.606,5.858-4.131c2.767,0.489,4.613,3.104,4.139,5.866
						c-0.479,2.771-3.104,4.609-5.856,4.134C563.376,446.578,561.54,443.94,562.003,441.188z"/>
					<path fill="#FCB321" d="M566.116,439.522c-0.079-2.646,2.004-4.866,4.662-4.946c2.663-0.071,4.876,2.011,4.954,4.667
						c0.08,2.664-2.011,4.87-4.658,4.949C568.413,444.271,566.196,442.169,566.116,439.522z"/>
					<path fill="#FBBF21" d="M574.793,431.964c-0.79-2.377,0.494-4.952,2.879-5.745c2.394-0.788,4.962,0.498,5.751,2.882
						c0.796,2.391-0.497,4.955-2.873,5.745C578.162,435.64,575.583,434.338,574.793,431.964z"/>
					<path fill="#F9CB21" d="M582.923,417.001c-1.514-1.815-1.271-4.516,0.547-6.031c1.825-1.514,4.523-1.271,6.034,0.548
						c1.521,1.822,1.271,4.518-0.54,6.029C587.146,419.062,584.434,418.812,582.923,417.001z"/>
					<path fill="#F8D620" d="M585.159,397.11c-2.005-0.956-2.858-3.354-1.902-5.358c0.961-2.008,3.355-2.857,5.358-1.9
						c2.01,0.96,2.857,3.352,1.906,5.352C589.568,397.208,587.157,398.061,585.159,397.11z"/>
					<path fill="#F6E220" d="M580.047,381.136c-2.065-0.226-3.56-2.075-3.335-4.139c0.225-2.067,2.076-3.557,4.138-3.331
						c2.068,0.227,3.56,2.071,3.338,4.128C583.966,379.857,582.104,381.354,580.047,381.136z"/>
					<path fill="#F5EE20" d="M572.68,370.002c-1.93,0.172-3.628-1.246-3.798-3.167c-0.173-1.927,1.247-3.622,3.167-3.79
						c1.93-0.169,3.622,1.239,3.797,3.156C576.02,368.119,574.595,369.828,572.68,370.002z"/>
					<path fill="#F3FA20" d="M569.068,365.684c-1.756,0.374-3.472-0.741-3.841-2.486c-0.374-1.75,0.741-3.472,2.486-3.829
						c1.75-0.375,3.464,0.733,3.837,2.474S570.808,365.312,569.068,365.684z"/>
				</g>
				<g>
					<path fill="#FEA721" d="M611.476,302.611c-1.258,1.688-3.641,2.009-5.317,0.74c-1.677-1.276-1.995-3.654-0.728-5.339
						c1.278-1.669,3.646-1.993,5.32-0.718C612.43,298.566,612.767,300.946,611.476,302.611z"/>
					<path fill="#FBBC21" d="M614.565,316.799c-1.638,1.195-3.916,0.851-5.111-0.779c-1.196-1.641-0.842-3.93,0.795-5.127
						c1.633-1.194,3.914-0.833,5.104,0.8C616.554,313.327,616.2,315.604,614.565,316.799z"/>
					<path fill="#F9D121" d="M607.434,344.618c-1.938-0.17-3.376-1.868-3.205-3.799c0.171-1.946,1.881-3.379,3.818-3.209
						c1.937,0.169,3.36,1.879,3.189,3.81C611.069,343.36,609.369,344.789,607.434,344.618z"/>
					<path fill="#F6E520" d="M580.153,362.412c-1.335-1.305-1.364-3.447-0.063-4.772c1.314-1.339,3.455-1.361,4.787-0.057
						c1.331,1.305,1.347,3.444,0.045,4.769C583.617,363.689,581.479,363.717,580.153,362.412z"/>
					<path fill="#F3FA20" d="M565.473,363.923c-0.768-1.615-0.091-3.551,1.51-4.317c1.628-0.769,3.546-0.083,4.33,1.519
						c0.754,1.618,0.076,3.544-1.524,4.307C568.174,366.207,566.24,365.528,565.473,363.923z"/>
				</g>
				<path fill="none" stroke="#FFFFFF" stroke-width="0.6337" stroke-miterlimit="10" d="M568.388,362.521
					c0,0,20.164,0.549,35.733-16.644c17.118-18.917,4.313-45.56,4.313-45.56"/>
				<path fill="none" stroke="#FFFFFF" stroke-width="0.6337" stroke-miterlimit="10" d="M568.388,362.521
					c0,0,31.97-20.046,66.691,5.49c37.512,27.592,30.636,64.493,30.636,64.493"/>
				<path fill="none" stroke="#FFFFFF" stroke-width="0.6337" stroke-miterlimit="10" d="M568.388,362.521
					c0,0,20.14,17.462,19.307,40.412c-1.048,29.048-20.664,39.123-20.664,39.123"/>
				<path fill="none" stroke="#FFFFFF" stroke-width="0.6337" stroke-miterlimit="10" d="M568.388,362.521
					c0,0-35.018,6.823-68.625,1.172c-33.607-5.64-35.81-39.825-35.81-39.825"/>
				<path fill="none" stroke="#FFFFFF" stroke-width="0.6337" stroke-miterlimit="10" d="M579.387,241.019
					c0,0-44.237,15.723-47.682,57.077c-3.456,41.347,36.683,64.425,36.683,64.425"/>
				<g>
					<path fill="#F3FA20" d="M413.534,135.113c-1.063-2.066-0.256-4.611,1.816-5.685c2.073-1.063,4.608-0.244,5.686,1.817
						c1.062,2.066,0.257,4.613-1.817,5.685C417.145,137.994,414.61,137.187,413.534,135.113z"/>
					<path fill="#F3FA20" d="M386.935,145.309c-1.601-1.315-1.845-3.687-0.522-5.296c1.319-1.604,3.691-1.835,5.295-0.524
						c1.608,1.313,1.843,3.687,0.524,5.296C390.911,146.391,388.55,146.628,386.935,145.309z"/>
					<path fill="#F3FA20" d="M368.621,160.957c-1.68-0.7-2.489-2.632-1.784-4.321c0.704-1.685,2.637-2.485,4.319-1.789
						c1.689,0.7,2.488,2.633,1.788,4.322C372.242,160.856,370.317,161.657,368.621,160.957z"/>
					<path fill="#F3FA20" d="M357.974,175.279c-1.535-0.319-2.535-1.822-2.212-3.366c0.323-1.542,1.826-2.536,3.361-2.22
						c1.549,0.319,2.536,1.823,2.219,3.366C361.023,174.603,359.525,175.596,357.974,175.279z"/>
					<path fill="#F3FA20" d="M354.677,181.335c-1.312-0.106-2.298-1.252-2.193-2.573c0.118-1.318,1.255-2.305,2.567-2.202
						c1.329,0.109,2.305,1.254,2.201,2.574C357.149,180.453,356.005,181.438,354.677,181.335z"/>
				</g>
				<g>
					<path fill="#F3FA20" d="M299.69,138.742c-1.231,0.665-2.777,0.204-3.439-1.031c-0.666-1.228-0.208-2.764,1.023-3.429
						c1.233-0.662,2.771-0.212,3.431,1.022C301.375,136.536,300.915,138.077,299.69,138.742z"/>
					<path fill="#F3FA20" d="M322.971,143.682c-1.369-0.158-2.354-1.406-2.193-2.778c0.161-1.367,1.396-2.349,2.767-2.188
						c1.371,0.163,2.355,1.396,2.193,2.765C325.58,142.854,324.336,143.839,322.971,143.682z"/>
					<path fill="#F3FA20" d="M339.688,158.165c-1.191-0.65-1.634-2.155-0.976-3.349c0.65-1.19,2.144-1.63,3.335-0.975
						c1.195,0.656,1.635,2.146,0.985,3.338C342.378,158.375,340.88,158.815,339.688,158.165z"/>
					<path fill="#F3FA20" d="M349.809,173.519c-1.018-0.865-1.142-2.404-0.27-3.426c0.867-1.016,2.395-1.144,3.413-0.273
						c1.023,0.873,1.149,2.4,0.283,3.419C352.364,174.263,350.83,174.387,349.809,173.519z"/>
					<path fill="#F3FA20" d="M353.117,180.578c-0.889-0.97-0.84-2.486,0.133-3.384c0.963-0.895,2.475-0.842,3.369,0.13
						c0.901,0.973,0.843,2.477-0.117,3.378C355.528,181.599,354.022,181.541,353.117,180.578z"/>
				</g>
				<g>
					<path fill="#F3FA20" d="M390.113,36.747c-0.876-0.06-1.528-0.812-1.477-1.684c0.054-0.871,0.812-1.53,1.688-1.484
						c0.868,0.062,1.529,0.812,1.474,1.682C391.743,36.138,390.991,36.803,390.113,36.747z"/>
					<path fill="#F3FA20" d="M392.039,84.962c-0.858-0.491-1.148-1.581-0.663-2.437c0.486-0.854,1.583-1.155,2.44-0.667
						c0.855,0.487,1.148,1.581,0.662,2.437C393.99,85.154,392.899,85.452,392.039,84.962z"/>
					<path fill="#F3FA20" d="M378.5,131.431c-0.804-0.749-0.839-2.007-0.093-2.808c0.747-0.799,2.009-0.846,2.811-0.097
						c0.803,0.75,0.839,2.008,0.092,2.812C380.561,132.14,379.304,132.179,378.5,131.431z"/>
					<path fill="#F3FA20" d="M361.447,166.486c-0.774-0.929-0.636-2.311,0.294-3.08c0.927-0.769,2.312-0.643,3.081,0.288
						c0.772,0.935,0.635,2.312-0.294,3.087C363.597,167.552,362.219,167.414,361.447,166.486z"/>
					<path fill="#F3FA20" d="M352.912,180.343c-0.765-1.076-0.496-2.572,0.583-3.329c1.075-0.755,2.568-0.5,3.327,0.576
						c0.758,1.088,0.494,2.575-0.584,3.339C355.16,181.688,353.673,181.417,352.912,180.343z"/>
				</g>
				<g>
					<path fill="#F3FA20" d="M310.834,52.676c-0.812-3.587,1.431-7.143,5.013-7.962c3.584-0.821,7.149,1.432,7.966,5.01
						c0.811,3.586-1.427,7.151-5.017,7.965C315.217,58.501,311.649,56.26,310.834,52.676z"/>
					<path fill="#F3FA20" d="M311.661,99.588c-1.958-2.389-1.612-5.902,0.771-7.863c2.384-1.963,5.906-1.615,7.866,0.765
						c1.958,2.39,1.616,5.906-0.77,7.867C317.144,102.314,313.623,101.971,311.661,99.588z"/>
					<path fill="#F3FA20" d="M327.028,140.853c-2.022-1.47-2.472-4.292-1.008-6.314c1.465-2.023,4.291-2.476,6.315-1.015
						c2.023,1.471,2.473,4.292,1.011,6.316C331.88,141.862,329.054,142.314,327.028,140.853z"/>
					<path fill="#F3FA20" d="M344.981,170.343c-1.692-0.887-2.341-2.977-1.453-4.666c0.889-1.689,2.975-2.349,4.667-1.461
						c1.694,0.889,2.337,2.976,1.456,4.666C348.763,170.575,346.673,171.229,344.981,170.343z"/>
					<path fill="#F3FA20" d="M353.935,181.157c-1.218-0.513-1.796-1.908-1.285-3.125c0.513-1.216,1.902-1.799,3.125-1.294
						c1.222,0.514,1.789,1.908,1.29,3.124C356.555,181.085,355.158,181.656,353.935,181.157z"/>
				</g>
				<path fill="none" stroke="#FFFFFF" stroke-width="0.6337" stroke-miterlimit="10" d="M354.87,178.95
					c0,0,54.873-82.682,35.372-143.779"/>
				<path fill="none" stroke="#FFFFFF" stroke-width="0.6337" stroke-miterlimit="10" d="M354.87,178.95
					c0,0,19.252-40.867,62.414-45.771"/>
				<path fill="none" stroke="#FFFFFF" stroke-width="0.6337" stroke-miterlimit="10" d="M354.87,178.95
					c0,0-54.635-68.778-37.546-127.749"/>
				<path fill="none" stroke="#FFFFFF" stroke-width="0.6337" stroke-miterlimit="10" d="M354.87,178.95
					c0,0-18.542-47.051-56.395-42.436"/>
				<g>
					<path fill="#F3FA20" d="M60.479,461.033c-2.147-5.352,0.45-11.446,5.806-13.597c5.37-2.152,11.455,0.46,13.604,5.813
						c2.149,5.361-0.451,11.444-5.813,13.593C68.72,468.983,62.629,466.382,60.479,461.033z"/>
					<path fill="#F3FA20" d="M114.462,442.429c3.661,3.461,3.818,9.229,0.358,12.887c-3.463,3.652-9.233,3.816-12.89,0.365
						c-3.655-3.458-3.821-9.233-0.365-12.892C105.034,439.125,110.807,438.973,114.462,442.429z"/>
					<path fill="#F3FA20" d="M138.065,423.973c3.903,1.803,5.594,6.427,3.792,10.322c-1.809,3.902-6.429,5.602-10.325,3.804
						c-3.899-1.805-5.601-6.436-3.801-10.333C129.542,423.861,134.169,422.169,138.065,423.973z"/>
					<path fill="#F3FA20" d="M151.86,406.688c3.474,0.783,5.639,4.238,4.854,7.702c-0.79,3.479-4.235,5.649-7.702,4.868
						c-3.474-0.789-5.649-4.25-4.867-7.714C144.938,408.068,148.394,405.899,151.86,406.688z"/>
					<path fill="#F3FA20" d="M155.992,399.667c-2.805-0.249-5.285,1.825-5.536,4.638c-0.24,2.803,1.837,5.29,4.655,5.538
						c2.806,0.239,5.274-1.833,5.519-4.653C160.872,402.389,158.804,399.905,155.992,399.667z"/>
				</g>
				<g>
					<path fill="#F3FA20" d="M76.637,380.366c-1.924,0.027-3.493-1.524-3.519-3.448c-0.02-1.924,1.527-3.498,3.46-3.513
						c1.919-0.021,3.494,1.535,3.514,3.458C80.105,378.776,78.558,380.363,76.637,380.366z"/>
					<path fill="#F3FA20" d="M110.822,370.133c1.836,1.106,2.421,3.503,1.312,5.344c-1.112,1.829-3.502,2.418-5.339,1.307
						c-1.838-1.112-2.424-3.498-1.318-5.341C106.586,369.604,108.978,369.017,110.822,370.133z"/>
					<path fill="#F3FA20" d="M137.244,381.4c1.373,1.929,0.916,4.616-1.02,5.988c-1.932,1.369-4.618,0.915-5.987-1.022
						c-1.376-1.934-0.914-4.61,1.018-5.991C133.188,379.002,135.868,379.46,137.244,381.4z"/>
					<path fill="#F3FA20" d="M154.211,396.031c0.961,2.406-0.215,5.146-2.629,6.105c-2.409,0.958-5.144-0.219-6.106-2.632
						c-0.96-2.412,0.219-5.141,2.631-6.11C150.517,392.435,153.247,393.615,154.211,396.031z"/>
					<path fill="#F3FA20" d="M160.521,403.504c-0.671-2.743-3.428-4.428-6.165-3.762c-2.743,0.674-4.423,3.43-3.761,6.171
						c0.673,2.743,3.429,4.415,6.171,3.759C159.508,408.999,161.188,406.24,160.521,403.504z"/>
				</g>
				<g>
					<path fill="#F3FA20" d="M158.129,484.138c-2.237,0.473-4.426-0.978-4.891-3.217c-0.46-2.244,0.982-4.427,3.215-4.888
						c2.243-0.461,4.432,0.985,4.894,3.213C161.813,481.485,160.371,483.676,158.129,484.138z"/>
					<path fill="#F3FA20" d="M140.253,450.308c1.004-2.133,3.542-3.048,5.669-2.049c2.134,1.001,3.048,3.542,2.053,5.666
						c-0.996,2.136-3.534,3.056-5.669,2.054C140.17,454.987,139.258,452.443,140.253,450.308z"/>
					<path fill="#F3FA20" d="M142.493,424.273c2.067-1.36,4.844-0.78,6.195,1.283c1.358,2.066,0.781,4.84-1.279,6.191
						c-2.064,1.361-4.836,0.792-6.195-1.276C139.851,428.408,140.429,425.63,142.493,424.273z"/>
					<path fill="#F3FA20" d="M150.597,406.431c2.582-0.512,5.09,1.171,5.594,3.748c0.511,2.578-1.167,5.078-3.741,5.586
						c-2.58,0.515-5.081-1.154-5.593-3.735C146.341,409.447,148.022,406.942,150.597,406.431z"/>
					<path fill="#F3FA20" d="M157.697,400.083c-2.559-1.174-5.593-0.069-6.777,2.498c-1.184,2.563-0.067,5.587,2.495,6.769
						c2.557,1.186,5.588,0.075,6.771-2.481C161.377,404.312,160.256,401.275,157.697,400.083z"/>
					<path fill="#F3FA20" d="M162.821,408.049c-2.074,1.251-4.773,0.579-6.021-1.499c-1.257-2.077-0.591-4.769,1.49-6.021
						c2.082-1.26,4.782-0.584,6.032,1.487C165.576,404.097,164.904,406.802,162.821,408.049z"/>
					<path fill="#F3FA20" d="M173,409.283c-2.015,0.344-3.928-1.021-4.27-3.039c-0.342-2.021,1.009-3.93,3.032-4.271
						c2.026-0.348,3.935,1.019,4.28,3.031C176.382,407.03,175.023,408.945,173,409.283z"/>
					<path fill="#F3FA20" d="M184.987,415.52c-1.547-0.688-2.241-2.513-1.547-4.062s2.503-2.241,4.056-1.547
						c1.558,0.695,2.248,2.514,1.559,4.059C188.359,415.525,186.541,416.218,184.987,415.52z"/>
					<path fill="#F3FA20" d="M195.046,430.554c-0.57-1.267,0.001-2.778,1.282-3.342c1.27-0.576,2.768,0,3.333,1.281
						c0.58,1.278,0,2.775-1.271,3.342C197.111,432.411,195.618,431.835,195.046,430.554z"/>
				</g>
				<path fill="none" stroke="#FFFFFF" stroke-width="0.6337" stroke-miterlimit="10" d="M155.554,404.721
					c0,0-31.861-46.265-78.954-27.814"/>
				<path fill="none" stroke="#FFFFFF" stroke-width="0.6337" stroke-miterlimit="10" d="M155.554,404.721
					c0,0-26.89,52.648-85.366,52.418"/>
				<path fill="none" stroke="#FFFFFF" stroke-width="0.6337" stroke-miterlimit="10" d="M197.36,429.537
					c-10.854-30.654-41.806-24.815-41.806-24.815s-28.859,36.991,1.741,75.361"/>
				<g>
					<path fill="#F3FA20" d="M545.165,894.739c-0.883,1.906-3.149,2.729-5.046,1.842c-1.907-0.871-2.729-3.137-1.856-5.057
						c0.895-1.896,3.146-2.729,5.061-1.83C545.229,890.577,546.041,892.831,545.165,894.739z"/>
					<path fill="#F3FA20" d="M552.604,921.887c-1.519-0.754-2.135-2.6-1.373-4.129c0.756-1.518,2.601-2.129,4.128-1.361
						c1.518,0.76,2.126,2.596,1.37,4.119C555.973,922.038,554.124,922.643,552.604,921.887z"/>
					<path fill="#F3FA20" d="M554.725,945.452c-1.585-0.459-2.491-2.111-2.027-3.703c0.46-1.59,2.117-2.492,3.706-2.029
						c1.589,0.465,2.491,2.113,2.031,3.703C557.976,945.012,556.312,945.911,554.725,945.452z"/>
					<path fill="#F3FA20" d="M551.993,963.114c-1.979-0.146-3.461-1.859-3.312-3.834c0.146-1.994,1.87-3.469,3.849-3.322
						c1.988,0.146,3.463,1.861,3.317,3.844C555.704,961.788,553.975,963.258,551.993,963.114z"/>
					<path fill="#F3FA20" d="M550.121,970.667c-2.546,0.156-4.725-1.799-4.864-4.334c-0.14-2.572,1.817-4.75,4.363-4.879
						c2.563-0.158,4.728,1.803,4.869,4.355C554.633,968.366,552.672,970.542,550.121,970.667z"/>
				</g>
				<g>
					<path fill="#F3FA20" d="M740.325,932.149c-5.077-2.406-7.216-8.465-4.811-13.52c2.407-5.047,8.438-7.191,13.496-4.791
						c5.056,2.41,7.21,8.461,4.799,13.508C751.417,932.393,745.363,934.553,740.325,932.149z"/>
					<path fill="#F3FA20" d="M667.711,913.565c-4.837,0.459-9.101-3.09-9.553-7.908c-0.444-4.809,3.082-9.07,7.897-9.527
						c4.818-0.447,9.096,3.088,9.537,7.902C676.052,908.838,672.513,913.116,667.711,913.565z"/>
					<path fill="#F3FA20" d="M608.863,928.799c-3.554,2.043-8.06,0.812-10.095-2.723c-2.017-3.535-0.805-8.035,2.729-10.07
						c3.539-2.027,8.045-0.809,10.073,2.727C613.6,922.264,612.385,926.772,608.863,928.799z"/>
					<path fill="#F3FA20" d="M568.742,955.288c-2.377,2.342-6.18,2.311-8.508-0.059c-2.317-2.357-2.285-6.158,0.07-8.488
						c2.365-2.326,6.158-2.295,8.484,0.066C571.121,949.17,571.09,952.961,568.742,955.288z"/>
					<path fill="#F3FA20" d="M553.583,968.793c-1.544,2.062-4.434,2.473-6.492,0.947c-2.03-1.535-2.453-4.428-0.933-6.479
						c1.53-2.047,4.424-2.471,6.467-0.936C554.688,963.854,555.092,966.747,553.583,968.793z"/>
				</g>
				<g>
					<path fill="#F3FA20" d="M602.152,1165.375c-10.157-0.088-18.312-8.385-18.229-18.533c0.096-10.15,8.382-18.312,18.546-18.221
						c10.136,0.088,18.295,8.369,18.217,18.523C620.584,1157.299,612.301,1165.454,602.152,1165.375z"/>
					<path fill="#F3FA20" d="M616.69,1089.346c-7.297,3.871-16.337,1.1-20.207-6.188c-3.863-7.291-1.102-16.336,6.202-20.203
						c7.274-3.861,16.317-1.102,20.189,6.188C626.734,1076.438,623.975,1085.479,616.69,1089.346z"/>
					<path fill="#F3FA20" d="M598.502,1026.366c-4.247,4.732-11.514,5.133-16.246,0.891c-4.729-4.244-5.134-11.516-0.876-16.246
						c4.229-4.721,11.501-5.125,16.23-0.883C602.331,1014.372,602.741,1021.643,598.502,1026.366z"/>
					<path fill="#F3FA20" d="M570.271,984.137c-2.214,3.871-7.132,5.223-11.004,3.012c-3.869-2.207-5.21-7.127-2.994-11.002
						c2.204-3.855,7.127-5.213,10.989-3C571.122,975.354,572.485,980.282,570.271,984.137z"/>
					<path fill="#F3FA20" d="M554.175,967.805c-0.971,2.371-3.662,3.514-6.034,2.543c-2.366-0.961-3.508-3.666-2.521-6.031
						c0.95-2.359,3.663-3.5,6.021-2.525C553.993,962.75,555.151,965.458,554.175,967.805z"/>
				</g>
				<g>
					<path fill="#F3FA20" d="M428.038,1010.315c-5.204-0.691-8.855-5.482-8.165-10.688c0.692-5.203,5.465-8.863,10.678-8.174
						c5.198,0.691,8.859,5.465,8.17,10.678C438.029,1007.333,433.244,1010.993,428.038,1010.315z"/>
					<path fill="#F3FA20" d="M483.04,1015.918c-4.261,1.666-9.065-0.455-10.728-4.719c-1.664-4.264,0.441-9.066,4.709-10.736
						c4.26-1.66,9.06,0.447,10.729,4.713C489.411,1009.442,487.302,1014.25,483.04,1015.918z"/>
					<path fill="#F3FA20" d="M522.963,999.792c-2.739,2.777-7.217,2.793-9.99,0.043c-2.777-2.746-2.8-7.217-0.057-9.998
						c2.744-2.768,7.21-2.789,9.992-0.045C525.683,992.54,525.708,997.016,522.963,999.792z"/>
					<path fill="#F3FA20" d="M546.756,978.668c-1.591,2.807-5.158,3.785-7.966,2.186c-2.815-1.598-3.797-5.168-2.203-7.977
						c1.593-2.805,5.158-3.775,7.973-2.186C547.371,972.292,548.352,975.858,546.756,978.668z"/>
					<path fill="#F3FA20" d="M554.219,967.709c-0.88,2.396-3.548,3.609-5.942,2.711c-2.405-0.893-3.612-3.559-2.73-5.955
						c0.898-2.389,3.553-3.592,5.953-2.709C553.899,962.655,555.122,965.315,554.219,967.709z"/>
				</g>
				<path fill="none" stroke="#FFFFFF" stroke-width="0.6337" stroke-miterlimit="10" d="M549.876,966.061
					c0,0,82.54-102.025,194.799-43.064"/>
				<path fill="none" stroke="#FFFFFF" stroke-width="0.6337" stroke-miterlimit="10" d="M549.876,966.061
					c0,0,17.896-38.289-8.17-72.934"/>
				<path fill="none" stroke="#FFFFFF" stroke-width="0.6337" stroke-miterlimit="10" d="M549.876,966.061
					c0,0,89.325,80.033,52.426,180.924"/>
				<path fill="none" stroke="#FFFFFF" stroke-width="0.6092" stroke-miterlimit="10" d="M549.876,966.061
					c0,0-48.335,63.289-120.582,34.842"/>
				<path fill="none" stroke="#FFFFFF" stroke-width="1.2674" stroke-miterlimit="10" d="M90.6,618.6
					c0,0,58.696-40.125,97.864-106.2c39.169-66.077,58.526-146.894,58.526-146.894"/>
			</g>
		</g>
		<g>
			<path fill="#F3FA20" d="M559.111,687.86c2.278,0.461,3.768,2.67,3.303,4.969c-0.456,2.285-2.686,3.758-4.965,3.307
				c-2.297-0.439-3.766-2.676-3.303-4.951C554.592,688.897,556.821,687.409,559.111,687.86z"/>
			<path fill="#F3FA20" d="M537.044,667.125c2.025-0.436,4.029,0.855,4.465,2.898c0.434,2.027-0.87,4.018-2.894,4.459
				c-2.035,0.445-4.021-0.857-4.459-2.883C533.718,669.571,535.009,667.565,537.044,667.125z"/>
			<path fill="#F3FA20" d="M513.825,657.139c1.59-0.883,3.605-0.303,4.495,1.303c0.876,1.592,0.288,3.596-1.301,4.48
				c-1.597,0.889-3.602,0.307-4.486-1.287C511.646,660.04,512.226,658.026,513.825,657.139z"/>
			<path fill="#F3FA20" d="M495.532,653.963c1.198-1.006,3.01-0.846,4.021,0.369c0.999,1.201,0.826,2.994-0.374,4
				c-1.204,1.008-2.999,0.854-4.009-0.354C494.154,656.776,494.324,654.977,495.532,653.963z"/>
			<path fill="#F3FA20" d="M488.185,654.008c0.895-0.959,2.419-1.012,3.395-0.113c0.946,0.896,0.998,2.406,0.102,3.365
				c-0.894,0.965-2.409,1.027-3.379,0.129C487.326,656.493,487.29,654.985,488.185,654.008z"/>
		</g>
		<g>
			<path fill="#F3FA20" d="M501.167,585.965c0.249-1.368,1.563-2.287,2.945-2.048c1.373,0.243,2.294,1.563,2.041,2.935
				c-0.245,1.383-1.562,2.303-2.949,2.062C501.824,588.656,500.917,587.35,501.167,585.965z"/>
			<path fill="#F3FA20" d="M508.443,609c0.977-0.967,2.561-0.966,3.541,0.012c0.968,0.971,0.959,2.555-0.016,3.523
				c-0.979,0.976-2.564,0.979-3.544-0.001C507.449,611.554,507.461,609.976,508.443,609z"/>
			<path fill="#F3FA20" d="M503.564,630.794c1.251-0.524,2.697,0.062,3.231,1.322c0.525,1.239-0.07,2.684-1.315,3.211
				c-1.257,0.532-2.703-0.053-3.236-1.308C501.712,632.765,502.307,631.324,503.564,630.794z"/>
			<path fill="#F3FA20" d="M494.505,646.957c1.315-0.256,2.595,0.6,2.856,1.927c0.258,1.294-0.607,2.57-1.912,2.832
				c-1.32,0.266-2.596-0.592-2.861-1.906C492.322,648.493,493.188,647.216,494.505,646.957z"/>
			<path fill="#F3FA20" d="M489.747,653.256c1.319-0.1,2.474,0.885,2.574,2.219c0.102,1.291-0.895,2.441-2.2,2.547
				c-1.322,0.113-2.46-0.883-2.578-2.193C487.439,654.512,488.43,653.36,489.747,653.256z"/>
		</g>
		<g>
			<path fill="#F3FA20" d="M633.628,624.01c0.574-0.638,1.582-0.688,2.217-0.098c0.659,0.576,0.711,1.587,0.121,2.239
				c-0.572,0.638-1.592,0.674-2.237,0.099C633.068,625.665,633.029,624.654,633.628,624.01z"/>
			<path fill="#F3FA20" d="M591.866,646.79c0.905-0.358,1.938,0.089,2.303,0.999c0.366,0.913-0.069,1.954-0.992,2.325
				c-0.898,0.361-1.948-0.098-2.314-1.002C590.489,648.188,590.946,647.155,591.866,646.79z"/>
			<path fill="#F3FA20" d="M544.619,654.926c1.078-0.16,2.082,0.594,2.244,1.674c0.161,1.08-0.58,2.092-1.676,2.256
				c-1.071,0.158-2.088-0.598-2.252-1.678C542.775,656.083,543.53,655.086,544.619,654.926z"/>
			<path fill="#F3FA20" d="M505.983,654.879c1.202-0.023,2.198,0.941,2.222,2.146c0.025,1.199-0.931,2.197-2.151,2.223
				c-1.195,0.023-2.204-0.936-2.226-2.143C503.807,655.883,504.771,654.903,505.983,654.879z"/>
			<path fill="#F3FA20" d="M490.077,653.258c1.316,0.074,2.315,1.215,2.24,2.531c-0.078,1.307-1.202,2.307-2.535,2.23
				c-1.309-0.078-2.318-1.203-2.241-2.521C487.631,654.167,488.757,653.182,490.077,653.258z"/>
		</g>
		<g>
			<path fill="#F3FA20" d="M591.609,560.357c3.303,1.588,4.698,5.568,3.101,8.888c-1.587,3.313-5.571,4.686-8.885,3.096
				c-3.302-1.587-4.702-5.568-3.101-8.873C584.339,560.155,588.295,558.757,591.609,560.357z"/>
			<path fill="#F3FA20" d="M547.66,579.021c3.078-0.051,5.621,2.414,5.668,5.509c0.057,3.086-2.421,5.614-5.505,5.665
				c-3.077,0.051-5.626-2.414-5.667-5.496C542.124,581.604,544.567,579.066,547.66,579.021z"/>
			<path fill="#F3FA20" d="M515.412,610.461c2.4-0.673,4.886,0.739,5.562,3.152c0.675,2.405-0.742,4.892-3.146,5.56
				c-2.398,0.673-4.905-0.736-5.565-3.141C511.601,613.616,512.998,611.129,515.412,610.461z"/>
			<path fill="#F3FA20" d="M495.461,639.948c1.742-0.771,3.77,0.023,4.549,1.777c0.775,1.747-0.025,3.778-1.768,4.547
				c-1.742,0.77-3.794-0.019-4.558-1.765C492.919,642.752,493.705,640.723,495.461,639.948z"/>
			<path fill="#F3FA20" d="M488.775,653.532c1.15-0.645,2.599-0.217,3.237,0.949c0.651,1.15,0.218,2.607-0.936,3.234
				c-1.151,0.645-2.611,0.219-3.252-0.932C487.199,655.616,487.608,654.17,488.775,653.532z"/>
		</g>
		<path fill="none" stroke="#FFFFFF" stroke-width="0.6337" stroke-miterlimit="10" d="M489.931,655.639
			c0,0,98.304,13.535,144.879-30.547"/>
		<path fill="none" stroke="#FFFFFF" stroke-width="0.6337" stroke-miterlimit="10" d="M489.931,655.639
			c0,0,45.183-0.398,68.33,36.361"/>
		<path fill="none" stroke="#FFFFFF" stroke-width="0.6337" stroke-miterlimit="10" d="M489.931,655.639
			c0,0,38.243-79.072,98.79-89.288"/>
		<g>
			<path fill="#F3FA20" d="M559.111,687.86c2.278,0.461,3.768,2.67,3.303,4.969c-0.456,2.285-2.686,3.758-4.965,3.307
				c-2.297-0.439-3.766-2.676-3.303-4.951C554.592,688.897,556.821,687.409,559.111,687.86z"/>
			<path fill="#F3FA20" d="M537.044,667.125c2.025-0.436,4.029,0.855,4.465,2.898c0.434,2.027-0.87,4.018-2.894,4.459
				c-2.035,0.445-4.021-0.857-4.459-2.883C533.718,669.571,535.009,667.565,537.044,667.125z"/>
			<path fill="#F3FA20" d="M513.825,657.139c1.59-0.883,3.605-0.303,4.495,1.303c0.876,1.592,0.288,3.596-1.301,4.48
				c-1.597,0.889-3.602,0.307-4.486-1.287C511.646,660.04,512.226,658.026,513.825,657.139z"/>
			<path fill="#F3FA20" d="M495.532,653.963c1.198-1.006,3.01-0.846,4.021,0.369c0.999,1.201,0.826,2.994-0.374,4
				c-1.204,1.008-2.999,0.854-4.009-0.354C494.154,656.776,494.324,654.977,495.532,653.963z"/>
			<path fill="#F3FA20" d="M488.185,654.008c0.895-0.959,2.419-1.012,3.395-0.113c0.946,0.896,0.998,2.406,0.102,3.365
				c-0.894,0.965-2.409,1.027-3.379,0.129C487.326,656.493,487.29,654.985,488.185,654.008z"/>
		</g>
		<g>
			<path fill="#F3FA20" d="M501.167,585.965c0.249-1.368,1.563-2.287,2.945-2.048c1.373,0.243,2.294,1.563,2.041,2.935
				c-0.245,1.383-1.562,2.303-2.949,2.062C501.824,588.656,500.917,587.35,501.167,585.965z"/>
			<path fill="#F3FA20" d="M508.443,609c0.977-0.967,2.561-0.966,3.541,0.012c0.968,0.971,0.959,2.555-0.016,3.523
				c-0.979,0.976-2.564,0.979-3.544-0.001C507.449,611.554,507.461,609.976,508.443,609z"/>
			<path fill="#F3FA20" d="M503.564,630.794c1.251-0.524,2.697,0.062,3.231,1.322c0.525,1.239-0.07,2.684-1.315,3.211
				c-1.257,0.532-2.703-0.053-3.236-1.308C501.712,632.765,502.307,631.324,503.564,630.794z"/>
			<path fill="#F3FA20" d="M494.505,646.957c1.315-0.256,2.595,0.6,2.856,1.927c0.258,1.294-0.607,2.57-1.912,2.832
				c-1.32,0.266-2.596-0.592-2.861-1.906C492.322,648.493,493.188,647.216,494.505,646.957z"/>
			<path fill="#F3FA20" d="M489.747,653.256c1.319-0.1,2.474,0.885,2.574,2.219c0.102,1.291-0.895,2.441-2.2,2.547
				c-1.322,0.113-2.46-0.883-2.578-2.193C487.439,654.512,488.43,653.36,489.747,653.256z"/>
		</g>
		<g>
			<path fill="#F3FA20" d="M633.628,624.01c0.574-0.638,1.582-0.688,2.217-0.098c0.659,0.576,0.711,1.587,0.121,2.239
				c-0.572,0.638-1.592,0.674-2.237,0.099C633.068,625.665,633.029,624.654,633.628,624.01z"/>
			<path fill="#F3FA20" d="M591.866,646.79c0.905-0.358,1.938,0.089,2.303,0.999c0.366,0.913-0.069,1.954-0.992,2.325
				c-0.898,0.361-1.948-0.098-2.314-1.002C590.489,648.188,590.946,647.155,591.866,646.79z"/>
			<path fill="#F3FA20" d="M544.619,654.926c1.078-0.16,2.082,0.594,2.244,1.674c0.161,1.08-0.58,2.092-1.676,2.256
				c-1.071,0.158-2.088-0.598-2.252-1.678C542.775,656.083,543.53,655.086,544.619,654.926z"/>
			<path fill="#F3FA20" d="M505.983,654.879c1.202-0.023,2.198,0.941,2.222,2.146c0.025,1.199-0.931,2.197-2.151,2.223
				c-1.195,0.023-2.204-0.936-2.226-2.143C503.807,655.883,504.771,654.903,505.983,654.879z"/>
			<path fill="#F3FA20" d="M490.077,653.258c1.316,0.074,2.315,1.215,2.24,2.531c-0.078,1.307-1.202,2.307-2.535,2.23
				c-1.309-0.078-2.318-1.203-2.241-2.521C487.631,654.167,488.757,653.182,490.077,653.258z"/>
		</g>
		<g>
			<path fill="#F3FA20" d="M582.34,564.42c1.088-3.521,4.812-5.479,8.322-4.408c3.521,1.089,5.479,4.814,4.385,8.323
				c-1.082,3.508-4.805,5.481-8.315,4.396C583.226,571.641,581.261,567.916,582.34,564.42z"/>
			<path fill="#F3FA20" d="M542.223,585.549c-0.508-3.054,1.549-5.932,4.587-6.44c3.056-0.513,5.929,1.557,6.428,4.602
				c0.507,3.041-1.544,5.923-4.596,6.428C545.6,590.639,542.726,588.581,542.223,585.549z"/>
			<path fill="#F3FA20" d="M512.501,616.683c-1.026-2.286-0.01-4.961,2.266-5.981c2.287-1.025,4.96,0.005,5.979,2.286
				c1.021,2.276,0.007,4.954-2.281,5.975C516.185,619.979,513.514,618.954,512.501,616.683z"/>
			<path fill="#F3FA20" d="M493.951,644.972c-1.026-1.616-0.557-3.751,1.055-4.771c1.616-1.025,3.753-0.538,4.777,1.073
				c1.021,1.61,0.551,3.744-1.072,4.771C497.097,647.064,494.966,646.579,493.951,644.972z"/>
			<path fill="#F3FA20" d="M488.057,657.083c-0.809-1.051-0.617-2.545,0.427-3.35c1.057-0.799,2.555-0.598,3.364,0.445
				c0.804,1.047,0.611,2.545-0.451,3.355C490.346,658.336,488.851,658.129,488.057,657.083z"/>
		</g>
		<path fill="none" stroke="#FFFFFF" stroke-width="0.6337" stroke-miterlimit="10" d="M489.931,655.639
			c0,0,98.304,13.535,144.879-30.547"/>
		<path fill="none" stroke="#FFFFFF" stroke-width="0.6337" stroke-miterlimit="10" d="M489.931,655.639
			c0,0,45.183-0.398,68.33,36.361"/>
		<path fill="none" stroke="#FFFFFF" stroke-width="0.6337" stroke-miterlimit="10" d="M489.931,655.639
			c0,0,38.243-79.072,98.79-89.288"/>
	</g>
</g>
</svg>
