<?xml version="1.0" encoding="utf-8"?>
<!-- Generator: Adobe Illustrator 16.0.4, SVG Export Plug-In . SVG Version: 6.00 Build 0)  -->
<!DOCTYPE svg PUBLIC "-//W3C//DTD SVG 1.1//EN" "http://www.w3.org/Graphics/SVG/1.1/DTD/svg11.dtd">
<svg version="1.1" id="Capa_1" xmlns="http://www.w3.org/2000/svg" xmlns:xlink="http://www.w3.org/1999/xlink" x="0px" y="0px"
	 width="1162px" height="1183.645px" viewBox="-202.5 0 1162 1183.645" enable-background="new -202.5 0 1162 1183.645"
	 xml:space="preserve">
<g>
	<g opacity="0.6">
		
			<image overflow="visible" width="932" height="932" xlink:href="1EAF4E1806307B91.png"  transform="matrix(1 0 0 1 -35.5 53.3223)">
		</image>
	</g>
	<g>
		<path fill="none" stroke="#FFFFFF" stroke-width="1.1081" stroke-miterlimit="10" d="M52.721,899.924
			c0,0,41.04,168.596,142.61,216.09"/>
		<g>
			<path fill="#86CFAF" d="M-8.577,686.062c1.502-5.094,6.841-8.008,11.924-6.514c5.093,1.502,7.997,6.842,6.493,11.924
				c-1.482,5.092-6.831,8.008-11.924,6.516C-7.166,696.482-10.07,691.137-8.577,686.062z"/>
			<path fill="#A4DBC3" d="M54.306,577.711c-1.49,5.092-6.836,8.006-11.927,6.514c-5.084-1.503-7.992-6.85-6.496-11.926
				c1.5-5.094,6.841-8.008,11.924-6.509C52.897,567.289,55.805,572.629,54.306,577.711z"/>
			<path fill="#C3E7D7" d="M118.498,501.399c-1.498,5.092-6.842,8.003-11.93,6.511c-5.087-1.501-7.997-6.847-6.498-11.926
				c1.497-5.094,6.841-8.008,11.924-6.504C117.082,490.978,119.991,496.317,118.498,501.399z"/>
			<path fill="#E1F3EB" d="M176.22,458.541c-1.505,5.092-6.846,8.001-11.932,6.508c-5.089-1.498-8.001-6.845-6.5-11.925
				c1.495-5.094,6.841-8.008,11.925-6.5C174.797,448.119,177.709,453.458,176.22,458.541z"/>
			<path fill="#FFFFFF" d="M182.846,439.723c1.493-5.094,6.841-8.008,11.924-6.496c5.082,1.493,7.997,6.833,6.514,11.915
				c-1.513,5.092-6.852,7.999-11.935,6.505C184.257,450.152,181.342,444.806,182.846,439.723z"/>
		</g>
		<path fill="none" stroke="#FFFFFF" stroke-width="2.2161" stroke-miterlimit="10" d="M192.071,442.442
			c0,0-156.939,67.906-191.444,246.321"/>
		<path fill="none" stroke="#FFFFFF" stroke-width="1.1081" stroke-miterlimit="10" d="M0.053,690.328
			c0,0-31.651-34.23-25.791-73.949c7.403-50.275,43.433-64.031,43.433-64.031"/>
		<path fill="none" stroke="#FFFFFF" stroke-width="1.2524" stroke-miterlimit="10" d="M193.369,443.178
			c0,0,96.683,54.611,164.363-18.93"/>
		<path fill="none" stroke="#FFFFFF" stroke-width="1.2524" stroke-miterlimit="10" d="M193.369,443.178
			c0,0,2.209-116.819,106.296-167.031"/>
		<path fill="none" stroke="#FFFFFF" stroke-width="1.2524" stroke-miterlimit="10" d="M97.627,435.283
			c45.815,45.06,95.742,7.895,95.742,7.895s19.247-90.708-68.324-132.374"/>
		<g>
			<path fill="#86CFAF" d="M683.35,692.22c0.774,2.339-0.514,4.877-2.885,5.665c-2.363,0.734-4.869-0.534-5.664-2.905
				c-0.768-2.373,0.521-4.921,2.922-5.669C680.097,688.556,682.574,689.845,683.35,692.22z"/>
			<path fill="#A4DBC3" d="M704.79,720.382c-1.911,0.555-3.938-0.539-4.509-2.483c-0.568-1.938,0.544-3.964,2.495-4.512
				c1.939-0.545,3.917,0.534,4.488,2.479C707.835,717.782,706.74,719.816,704.79,720.382z"/>
			<path fill="#C3E7D7" d="M717.198,745.133c-1.724,0.86-3.863,0.17-4.736-1.589c-0.871-1.755-0.16-3.887,1.598-4.745
				c1.76-0.858,3.854-0.177,4.732,1.588C719.666,742.127,718.97,744.248,717.198,745.133z"/>
			<path fill="#E1F3EB" d="M721.945,765.339c-1.815,1.447-4.5,1.156-5.958-0.676c-1.455-1.841-1.156-4.525,0.684-5.974
				c1.847-1.454,4.497-1.167,5.964,0.687C724.089,761.201,723.798,763.86,721.945,765.339z"/>
			<path fill="#FFFFFF" d="M723.41,774.009c-2.07,2.172-5.55,2.213-7.71,0.129c-2.158-2.102-2.227-5.583-0.121-7.733
				c2.108-2.17,5.553-2.222,7.724-0.104C725.451,768.384,725.536,771.839,723.41,774.009z"/>
		</g>
		<path fill="none" stroke="#FFFFFF" stroke-width="0.7485" stroke-miterlimit="10" d="M719.49,770.188
			c0,0,46.867-147.756,195.717-131.25"/>
		<path fill="none" stroke="#FFFFFF" stroke-width="0.7485" stroke-miterlimit="10" d="M719.49,770.188
			c0,0,3.201-49.824-40.373-76.701"/>
		<path fill="none" stroke="#FFFFFF" stroke-width="0.7485" stroke-miterlimit="10" d="M719.49,770.188
			c0,0,132.742,49.58,135.564,176.418"/>
		<path fill="none" stroke="#FFFFFF" stroke-width="0.7196" stroke-miterlimit="10" d="M719.51,770.188
			c0,0-25.914,90.424-117.646,90.24"/>
		<path fill="#FFFFFF" d="M182.846,439.723c1.493-5.094,6.841-8.008,11.924-6.496c5.082,1.493,7.997,6.833,6.514,11.915
			c-1.513,5.092-6.852,7.999-11.935,6.505C184.257,450.152,181.342,444.806,182.846,439.723z"/>
		<path fill="#FFFFFF" d="M182.846,439.723c1.493-5.094,6.841-8.008,11.924-6.496c5.082,1.493,7.997,6.833,6.514,11.915
			c-1.513,5.092-6.852,7.999-11.935,6.505C184.257,450.152,181.342,444.806,182.846,439.723z"/>
		<path fill="none" stroke="#FFFFFF" stroke-width="2.2161" stroke-miterlimit="10" d="M192.071,442.442
			c0,0,73.079,390.024-308.631,572.243"/>
		<path fill="none" stroke="#FFFFFF" stroke-width="2.2161" stroke-miterlimit="10" d="M552.561,1092.982
			c-330.096-184.971-360.49-650.54-360.49-650.54"/>
		<path fill="none" stroke="#FFFFFF" stroke-width="2.2161" stroke-miterlimit="10" d="M192.071,442.442
			c0,0,175.407,312.958,525.783,325.495"/>
		<g>
			<path fill="#86CFAF" d="M209.901,1115.838c0.104,8.031-6.339,14.65-14.411,14.807c-8.036,0.092-14.643-6.365-14.747-14.424
				c-0.111-8.036,6.321-14.645,14.381-14.758C203.183,1101.355,209.812,1107.793,209.901,1115.838z"/>
			<path fill="#A4DBC3" d="M141.045,1067.346c-2.828,5.97-9.981,8.543-15.983,5.723c-5.979-2.809-8.511-9.982-5.682-15.967
				c2.826-5.971,9.957-8.529,15.948-5.701C141.316,1054.231,143.879,1061.374,141.045,1067.346z"/>
			<path fill="#C3E7D7" d="M93.281,996.02c-3.242,4.037-9.148,4.693-13.211,1.462c-4.051-3.222-4.68-9.142-1.445-13.188
				c3.24-4.033,9.133-4.697,13.185-1.457C95.861,986.078,96.515,991.977,93.281,996.02z"/>
			<path fill="#E1F3EB" d="M65.451,931.873c-2.698,2.603-6.988,2.509-9.605-0.179c-2.612-2.685-2.523-6.99,0.172-9.586
				c2.695-2.595,6.986-2.524,9.594,0.175C68.22,924.983,68.145,929.273,65.451,931.873z"/>
			<path fill="#FFFFFF" d="M55.401,903.128c-1.801,1.465-4.419,1.198-5.892-0.581c-1.493-1.772-1.215-4.41,0.555-5.881
				c1.798-1.452,4.425-1.216,5.898,0.574C57.437,899.029,57.171,901.646,55.401,903.128z"/>
		</g>
		<path fill="none" stroke="#FFFFFF" stroke-width="1.1081" stroke-miterlimit="10" d="M52.721,899.924
			c0,0,29.638,73.221-15.31,134.459"/>
		<path fill="none" stroke="#FFFFFF" stroke-width="1.1081" stroke-miterlimit="10" d="M52.721,899.924
			c0,0,153.175,11.494,208.604,103.432"/>
		<path fill="none" stroke="#FFFFFF" stroke-width="1.1081" stroke-miterlimit="10" d="M52.721,899.924
			c0,0,82.427,32.029,121.441-22.029"/>
		<path fill="none" stroke="#FFFFFF" stroke-width="1.1081" stroke-miterlimit="10" d="M0.053,690.328
			c0,0-34.954-4.84-65.307,22.057c-33.391,29.588-16.25,78.357-16.25,78.357"/>
		<path fill="none" stroke="#FFFFFF" stroke-width="1.1081" stroke-miterlimit="10" d="M0.053,690.328
			c0,0-59.426,28.686-114.855-22.377c-59.887-55.162-40.846-117.986-40.846-117.986"/>
		<path fill="none" stroke="#FFFFFF" stroke-width="1.1081" stroke-miterlimit="10" d="M0.053,690.328
			c0,0,62.148-5.125,119.479,11.158"/>
		<path fill="none" stroke="#FFFFFF" stroke-width="1.1081" stroke-miterlimit="10" d="M-42.417,899.381
			c0,0,79.88-18.816,93.84-90.025c13.949-71.197-51.37-119.027-51.37-119.027"/>
		<g>
			<path fill="#86CFAF" d="M9.513,548.977c1.861-4.532,7.044-6.7,11.565-4.796c4.531,1.849,6.681,7.034,4.806,11.565
				c-1.84,4.51-7.014,6.675-11.557,4.806C9.799,558.691,7.631,553.496,9.513,548.977z"/>
			<path fill="#97D6BA" d="M2.135,554.652c0.875-4.563,5.272-7.536,9.841-6.647c4.552,0.885,7.526,5.271,6.651,9.84
				c-0.869,4.539-5.256,7.53-9.827,6.649C4.238,563.622,1.243,559.21,2.135,554.652z"/>
			<path fill="#A9DDC6" d="M-13.436,570.866c-0.444-4.371,2.729-8.258,7.109-8.694c4.359-0.434,8.245,2.733,8.693,7.111
				c0.445,4.348-2.719,8.245-7.093,8.684C-9.099,578.414-13.003,575.236-13.436,570.866z"/>
			<path fill="#BAE4D1" d="M-27.658,600.424c-1.892-3.684-0.45-8.187,3.243-10.077c3.672-1.879,8.172-0.437,10.072,3.25
				c1.887,3.663,0.452,8.169-3.233,10.055C-21.259,605.549-25.771,604.108-27.658,600.424z"/>
			<path fill="#CBEADD" d="M-30.5,638.515c-3.056-2.403-3.596-6.811-1.182-9.87c2.39-3.04,6.801-3.573,9.866-1.169
				c3.046,2.387,3.584,6.792,1.18,9.84C-23.038,640.379-27.445,640.916-30.5,638.515z"/>
			<path fill="#DCF1E8" d="M-20.234,668.407c-3.436-1.185-5.267-4.903-4.084-8.351c1.179-3.413,4.904-5.243,8.352-4.064
				c3.425,1.172,5.245,4.892,4.065,8.317C-13.085,667.753-16.794,669.583-20.234,668.407z"/>
			<path fill="#EEF8F4" d="M-7.018,688.737c-3.352-0.453-5.705-3.518-5.246-6.879c0.453-3.324,3.524-5.671,6.887-5.22
				c3.339,0.448,5.67,3.512,5.214,6.848C-0.622,686.844-3.666,689.19-7.018,688.737z"/>
			<path fill="#FFFFFF" d="M-0.177,696.065c-3.128-0.054-5.615-2.598-5.583-5.737c0.062-3.098,2.61-5.605,5.75-5.553
				c3.119,0.033,5.605,2.599,5.542,5.707C5.489,693.621,2.953,696.1-0.177,696.065z"/>
		</g>
		<g>
			<path fill="#86CFAF" d="M-165.553,542.909c3.906-5.489,11.526-6.767,16.997-2.859c5.481,3.887,6.759,11.517,2.851,17.007
				c-3.876,5.471-11.506,6.769-16.976,2.851C-168.171,556.011-169.458,548.39-165.553,542.909z"/>
			<path fill="#97D6BA" d="M-168.191,558.364c2.57-5.663,9.252-8.166,14.899-5.593c5.655,2.56,8.157,9.246,5.585,14.914
				c-2.548,5.641-9.234,8.162-14.882,5.582C-168.253,570.703-170.764,564.022-168.191,558.364z"/>
			<path fill="#A9DDC6" d="M-166.687,594.681c0.776-5.646,5.996-9.594,11.631-8.812c5.642,0.774,9.586,5.993,8.811,11.649
				c-0.767,5.624-5.983,9.586-11.621,8.8C-163.517,605.544-167.469,600.33-166.687,594.681z"/>
			<path fill="#BAE4D1" d="M-147.658,642.479c-1.303-5.014,1.722-10.144,6.728-11.438c5.018-1.301,10.137,1.721,11.446,6.748
				c1.302,4.994-1.713,10.129-6.724,11.426C-141.23,650.52-146.359,647.502-147.658,642.479z"/>
			<path fill="#CBEADD" d="M-101.56,688.326c-3.007-3.561-2.546-8.905,1.011-11.906c3.574-3.01,8.901-2.546,11.924,1.025
				c2.999,3.55,2.547,8.891-1.012,11.896C-93.209,692.356-98.548,691.901-101.56,688.326z"/>
			<path fill="#DCF1E8" d="M-51.625,704.935c-3.813-1.614-5.594-6.045-3.98-9.854c1.633-3.825,6.042-5.593,9.879-3.975
				c3.804,1.613,5.587,6.033,3.978,9.848C-43.376,704.782-47.796,706.563-51.625,704.935z"/>
			<path fill="#EEF8F4" d="M-14.237,701.535c-3.613-0.262-6.347-3.438-6.076-7.047c0.273-3.639,3.436-6.339,7.076-6.08
				c3.608,0.27,6.336,3.432,6.074,7.045C-7.427,699.09-10.6,701.81-14.237,701.535z"/>
			<path fill="#FFFFFF" d="M0.755,695.885c-3.077,0.398-5.913-1.809-6.313-4.886c-0.38-3.112,1.808-5.915,4.916-6.324
				c3.079-0.388,5.901,1.807,6.314,4.885C6.061,692.667,3.865,695.493,0.755,695.885z"/>
		</g>
		<g>
			<path fill="#86CFAF" d="M-75.426,793.586c-1.616,3.295-5.623,4.689-8.895,3.117c-3.336-1.603-4.73-5.572-3.126-8.887
				c1.57-3.293,5.557-4.707,8.853-3.113C-75.28,786.285-73.895,790.23-75.426,793.586z"/>
			<path fill="#A4DBC3" d="M-81.022,770.764c-2.357,2.619-6.465,2.78-9.049,0.432c-2.634-2.403-2.828-6.443-0.444-9.064
				c2.361-2.597,6.421-2.81,9.025-0.435C-78.867,764.075-78.644,768.123-81.022,770.764z"/>
			<path fill="#C3E7D7" d="M-71.752,726.096c-3.356,0.396-6.437-2.076-6.81-5.408c-0.382-3.409,2.04-6.46,5.42-6.844
				c3.353-0.381,6.42,2.038,6.802,5.406C-65.956,722.636-68.359,725.696-71.752,726.096z"/>
			<path fill="#E1F3EB" d="M-28.213,696.971c-2.719-1.752-3.509-5.453-1.753-8.146c1.799-2.759,5.458-3.548,8.194-1.773
				c2.717,1.762,3.513,5.424,1.745,8.155C-21.813,697.95-25.456,698.748-28.213,696.971z"/>
			<path fill="#FFFFFF" d="M-4.492,693.747c-1.847-2.478-1.363-6.04,1.093-7.892c2.539-1.879,6.065-1.385,7.965,1.093
				c1.839,2.495,1.374,6.033-1.114,7.913C0.935,696.742-2.582,696.246-4.492,693.747z"/>
		</g>
		<g>
			<path fill="#FFFFFF" d="M2.348,695.506c-2.822,1.29-6.188,0.011-7.488-2.797c-1.279-2.845-0.013-6.188,2.833-7.489
				c2.8-1.29,6.186-0.042,7.464,2.802C6.449,690.852,5.171,694.195,2.348,695.506z"/>
			<path fill="#EEF8F4" d="M14.194,706.801c-2.889,0.831-5.946-0.88-6.769-3.762c-0.83-2.911,0.885-5.929,3.796-6.766
				c2.877-0.826,5.929,0.854,6.75,3.763C18.792,702.938,17.094,705.958,14.194,706.801z"/>
			<path fill="#DCF1E8" d="M37.245,738.101c-2.909,0.065-5.347-2.294-5.402-5.195c-0.056-2.931,2.296-5.33,5.225-5.391
				c2.904-0.06,5.341,2.265,5.39,5.192C42.506,735.627,40.171,738.035,37.245,738.101z"/>
			<path fill="#CBEADD" d="M50.879,785.375c-2.568-1.147-3.716-4.223-2.56-6.778c1.171-2.586,4.221-3.703,6.799-2.538
				c2.566,1.159,3.727,4.196,2.553,6.774C56.501,785.405,53.462,786.54,50.879,785.375z"/>
			<path fill="#BAE4D1" d="M37.498,839.766c-1.481-2.278-0.812-5.373,1.464-6.843c2.305-1.489,5.367-0.8,6.847,1.492
				c1.479,2.29,0.836,5.36-1.466,6.84C42.046,842.732,38.992,842.063,37.498,839.766z"/>
			<path fill="#A9DDC6" d="M3.728,875.399c-0.337-2.599,1.531-5.013,4.123-5.342c2.629-0.335,5.005,1.541,5.334,4.15
				c0.332,2.615-1.503,5.017-4.124,5.344C6.445,879.88,4.069,878.025,3.728,875.399z"/>
			<path fill="#97D6BA" d="M-30.873,893.404c0.323-2.503,2.653-4.293,5.15-3.964c2.534,0.334,4.286,2.664,3.952,5.172
				c-0.336,2.524-2.63,4.309-5.153,3.972C-29.444,898.247-31.201,895.939-30.873,893.404z"/>
			<path fill="#86CFAF" d="M-46.661,898.146c0.643-2.342,3.128-3.689,5.461-3.04c2.361,0.698,3.721,3.151,3.024,5.479
				c-0.663,2.367-3.116,3.737-5.468,3.051C-45.996,902.963-47.358,900.508-46.661,898.146z"/>
		</g>
		<g>
			<path fill="#86CFAF" d="M116.435,706.225c-2.639-1.74-3.366-5.297-1.596-7.896c1.717-2.635,5.236-3.33,7.844-1.572
				c2.627,1.734,3.354,5.232,1.627,7.861C122.54,707.225,119.041,707.941,116.435,706.225z"/>
			<path fill="#97D6BA" d="M92.195,700.731c-2.781-1.488-3.808-4.94-2.314-7.706s4.903-3.781,7.665-2.287
				c2.768,1.498,3.835,4.909,2.337,7.674C98.384,701.181,94.948,702.202,92.195,700.731z"/>
			<path fill="#A9DDC6" d="M68.47,697.316c-2.875-1.286-4.147-4.65-2.856-7.511c1.292-2.864,4.625-4.119,7.481-2.829
				c2.866,1.294,4.168,4.622,2.873,7.485C74.672,697.326,71.317,698.589,68.47,697.316z"/>
			<path fill="#BAE4D1" d="M46.427,695.538c-2.936-1.123-4.398-4.4-3.272-7.327c1.128-2.931,4.392-4.376,7.309-3.246
				c2.937,1.124,4.414,4.379,3.284,7.309C52.617,695.202,49.341,696.65,46.427,695.538z"/>
			<path fill="#CBEADD" d="M27.255,694.951c-2.977-0.988-4.59-4.19-3.597-7.16c0.991-2.979,4.191-4.567,7.153-3.575
				c2.981,0.992,4.6,4.173,3.604,7.148C33.421,694.338,30.215,695.933,27.255,694.951z"/>
			<path fill="#DCF1E8" d="M12.136,695.105c-3.005-0.878-4.732-4.008-3.857-7.013c0.886-3.009,4.021-4.714,7.014-3.838
				c3.015,0.882,4.744,3.999,3.861,7.007C18.273,694.268,15.13,695.978,12.136,695.105z"/>
			<path fill="#EEF8F4" d="M2.256,695.544c-3.025-0.783-4.854-3.853-4.069-6.878c0.787-3.035,3.878-4.833,6.891-4.055
				c3.039,0.792,4.854,3.849,4.07,6.883C8.358,694.521,5.274,696.326,2.256,695.544z"/>
			<path fill="#FFFFFF" d="M-1.216,695.809c-3.038-0.705-4.928-3.713-4.243-6.759c0.726-3.05,3.753-4.929,6.781-4.233
				c3.056,0.713,4.948,3.722,4.242,6.772C4.859,694.631,1.821,696.514-1.216,695.809z"/>
		</g>
		<g>
			<path fill="#86CFAF" d="M-134.979,1009.258c2.986-10.178,13.663-15.986,23.839-13c10.185,2.986,16.004,13.684,13.009,23.859
				c-3.008,10.176-13.684,15.994-23.85,12.998C-132.157,1030.119-137.986,1019.432-134.979,1009.258z"/>
			<path fill="#91D3B6" d="M-40.922,955.104c2.85-9.716,13.042-15.261,22.755-12.409c9.722,2.852,15.277,13.062,12.418,22.774
				c-2.872,9.714-13.063,15.267-22.767,12.407C-38.228,975.017-43.792,964.814-40.922,955.104z"/>
			<path fill="#9CD8BE" d="M32.966,893.342c2.714-9.254,12.422-14.536,21.672-11.817c9.257,2.715,14.548,12.438,11.828,21.688
				c-2.736,9.252-12.442,14.54-21.684,11.817C35.532,912.306,30.233,902.59,32.966,893.342z"/>
			<path fill="#A7DCC5" d="M89.062,826.664c2.579-8.791,11.802-13.811,20.589-11.226c8.793,2.579,13.821,11.815,11.238,20.602
				c-2.6,8.789-11.821,13.813-20.6,11.228C91.499,844.68,86.465,835.449,89.062,826.664z"/>
			<path fill="#B2E0CC" d="M129.744,757.769c2.442-8.329,11.182-13.085,19.506-10.635c8.329,2.443,13.092,11.192,10.647,19.516
				c-2.464,8.327-11.2,13.087-19.518,10.637C132.052,774.837,127.284,766.091,129.744,757.769z"/>
			<path fill="#BDE5D3" d="M157.393,689.348c2.307-7.867,10.562-12.359,18.423-10.044c7.865,2.308,12.364,10.569,10.057,18.431
				c-2.329,7.864-10.579,12.359-18.435,10.047C159.574,705.467,155.069,697.207,157.393,689.348z"/>
			<path fill="#C8E9DB" d="M174.388,624.097c2.171-7.405,9.942-11.635,17.34-9.452c7.401,2.172,11.637,9.946,9.467,17.344
				c-2.193,7.402-9.958,11.633-17.352,9.457C176.44,639.268,172.201,631.494,174.388,624.097z"/>
			<path fill="#D3EEE2" d="M183.109,564.71c2.036-6.942,9.322-10.908,16.257-8.86c6.938,2.036,10.908,9.324,8.875,16.258
				c-2.057,6.94-9.336,10.906-16.267,8.866C185.034,578.933,181.059,571.645,183.109,564.71z"/>
			<path fill="#DEF2E9" d="M185.936,513.886c1.9-6.48,8.701-10.184,15.174-8.27c6.473,1.9,10.181,8.701,8.285,15.172
				c-1.921,6.479-8.715,10.18-15.185,8.276C187.731,527.16,184.022,520.356,185.936,513.886z"/>
			<path fill="#E9F6F0" d="M185.248,474.316c1.764-6.019,8.081-9.458,14.091-7.678c6.01,1.764,9.453,8.078,7.694,14.086
				c-1.785,6.016-8.094,9.452-14.102,7.686C186.916,486.643,183.471,480.325,185.248,474.316z"/>
			<path fill="#F4FBF8" d="M183.422,448.697c1.628-5.557,7.461-8.733,13.008-7.087c5.546,1.629,8.737,7.458,7.104,13
				c-1.637,5.558-7.473,8.726-13.019,7.096C184.962,460.074,181.782,454.242,183.422,448.697z"/>
			<path fill="#FFFFFF" d="M182.846,439.723c1.493-5.094,6.841-8.008,11.924-6.496c5.082,1.493,7.997,6.833,6.514,11.915
				c-1.513,5.092-6.852,7.999-11.935,6.505C184.257,450.152,181.342,444.806,182.846,439.723z"/>
		</g>
		<g>
			<path fill="#FFFFFF" d="M182.846,439.723c1.493-5.094,6.841-8.008,11.924-6.496c5.082,1.493,7.997,6.833,6.514,11.915
				c-1.513,5.092-6.852,7.999-11.935,6.505C184.257,450.152,181.342,444.806,182.846,439.723z"/>
			<path fill="#F4FBF8" d="M191.91,462.191c-4.85-0.607-8.29-5.038-7.674-9.88c0.605-4.852,5.038-8.29,9.88-7.666
				c4.841,0.605,8.294,5.031,7.684,9.871C201.188,459.369,196.751,462.797,191.91,462.191z"/>
			<path fill="#E9F6F0" d="M197.195,492.458c-4.606,0.282-8.572-3.234-8.844-7.835c-0.281-4.611,3.233-8.571,7.836-8.836
				c4.6-0.283,8.576,3.226,8.853,7.828C205.316,488.224,201.796,492.177,197.195,492.458z"/>
			<path fill="#DEF2E9" d="M206.418,539.086c-4.364,1.17-8.855-1.43-10.015-5.789c-1.168-4.37,1.43-8.854,5.792-10.008
				c4.359-1.17,8.859,1.421,10.022,5.784C213.381,533.439,210.779,537.919,206.418,539.086z"/>
			<path fill="#D3EEE2" d="M220.791,598.711c-4.122,2.058-9.138,0.373-11.186-3.746c-2.055-4.127-0.374-9.135,3.747-11.178
				c4.119-2.058,9.141-0.383,11.192,3.741S224.91,596.655,220.791,598.711z"/>
			<path fill="#C8E9DB" d="M241.528,667.965c-3.879,2.946-9.421,2.177-12.355-1.701c-2.942-3.886-2.177-9.416,1.702-12.348
				c3.878-2.945,9.416-2.182,12.362,1.697C246.167,659.5,245.406,665.023,241.528,667.965z"/>
			<path fill="#BDE5D3" d="M269.84,743.489c-3.637,3.834-9.703,3.979-13.526,0.343c-3.829-3.644-3.98-9.698-0.342-13.518
				c3.637-3.834,9.698-3.984,13.531-0.347C273.322,733.614,273.477,739.66,269.84,743.489z"/>
			<path fill="#B2E0CC" d="M306.942,821.915c-3.394,4.723-9.985,5.784-14.696,2.389c-4.716-3.402-5.784-9.98-2.387-14.689
				c3.396-4.721,9.982-5.787,14.7-2.389C309.269,810.631,310.339,817.2,306.942,821.915z"/>
			<path fill="#A7DCC5" d="M354.051,899.883c-3.15,5.61-10.268,7.587-15.867,4.433c-5.603-3.161-7.587-10.262-4.431-15.859
				c3.156-5.608,10.267-7.59,15.87-4.433C355.221,887.188,357.206,894.28,354.051,899.883z"/>
			<path fill="#9CD8BE" d="M412.378,974.027c-2.909,6.499-10.552,9.391-17.037,6.477c-6.49-2.919-9.392-10.544-6.477-17.03
				c2.915-6.496,10.551-9.393,17.04-6.476C412.391,959.922,415.292,967.537,412.378,974.027z"/>
			<path fill="#91D3B6" d="M483.137,1040.983c-2.667,7.388-10.835,11.195-18.209,8.522c-7.377-2.678-11.194-10.826-8.52-18.201
				c2.674-7.384,10.833-11.195,18.209-8.519C481.992,1025.468,485.809,1033.606,483.137,1040.983z"/>
			<path fill="#86CFAF" d="M537.6,1088.584c2.434-8.271,11.117-12.998,19.379-10.562c8.264,2.441,12.996,11.104,10.564,19.367
				c-2.424,8.275-11.117,12.998-19.379,10.566C539.9,1105.52,535.166,1096.848,537.6,1088.584z"/>
		</g>
		<g>
			<path fill="#86CFAF" d="M293.906,296.007c-10.984-3.19-17.264-14.643-14.124-25.597c3.209-10.969,14.684-17.275,25.617-14.092
				c10.963,3.179,17.264,14.631,14.082,25.616C316.322,292.896,304.838,299.206,293.906,296.007z"/>
			<path fill="#A4DBC3" d="M236.439,305.605c9.838-1.478,19.013,5.292,20.497,15.147c1.501,9.835-5.286,19.024-15.11,20.485
				c-9.864,1.487-19.024-5.291-20.53-15.117C219.822,316.271,226.61,307.08,236.439,305.605z"/>
			<path fill="#C3E7D7" d="M200.452,364.798c7.554-3.859,16.818-0.876,20.688,6.688c3.887,7.548,0.898,16.823-6.649,20.675
				c-7.573,3.886-16.831,0.896-20.713-6.652C189.9,377.957,192.895,368.667,200.452,364.798z"/>
			<path fill="#E1F3EB" d="M187.279,414.251c5.451-4.419,13.473-3.605,17.901,1.851c4.453,5.441,3.637,13.465-1.808,17.891
				c-5.46,4.458-13.48,3.639-17.922-1.814C181,426.751,181.818,418.698,187.279,414.251z"/>
			<path fill="#FFFFFF" d="M185.976,436.265c-3.816,4.09-3.591,10.514,0.49,14.274c4.069,3.817,10.461,3.593,14.265-0.497
				c3.795-4.06,3.57-10.443-0.511-14.237C196.171,431.999,189.781,432.225,185.976,436.265z"/>
		</g>
		<g>
			<path fill="#86CFAF" d="M363.126,428.343c-2.345,3.008-6.661,3.58-9.696,1.279c-3.009-2.317-3.561-6.647-1.238-9.665
				c2.321-3.036,6.638-3.58,9.635-1.265C364.854,421.001,365.436,425.34,363.126,428.343z"/>
			<path fill="#A4DBC3" d="M300.728,450.973c3.98-1.521,8.396,0.491,9.902,4.451c1.511,3.972-0.466,8.426-4.431,9.924
				c-3.972,1.5-8.431-0.492-9.947-4.459C294.739,456.929,296.756,452.484,300.728,450.973z"/>
			<path fill="#C3E7D7" d="M250.536,452.771c4.695,0.212,8.29,4.192,8.073,8.872c-0.217,4.688-4.176,8.308-8.859,8.093
				c-4.672-0.226-8.311-4.2-8.102-8.881C241.865,456.179,245.851,452.562,250.536,452.771z"/>
			<path fill="#E1F3EB" d="M212.121,441.632c4.935,1.438,7.745,6.602,6.295,11.528c-1.431,4.932-6.581,7.748-11.513,6.311
				c-4.905-1.434-7.756-6.607-6.317-11.525C202.021,443.028,207.193,440.205,212.121,441.632z"/>
			<path fill="#FFFFFF" d="M197.513,433.982c-5.085-2.279-11.076-0.026-13.364,5.046c-2.3,5.064-0.016,11.069,5.037,13.344
				c5.094,2.296,11.054,0.059,13.344-5.028C204.839,442.26,202.596,436.278,197.513,433.982z"/>
		</g>
		<g>
			<path fill="#86CFAF" d="M116.965,309.611c0.654-4.471,4.828-7.57,9.286-6.904c4.479,0.665,7.559,4.815,6.882,9.313
				c-0.644,4.45-4.816,7.549-9.275,6.895C119.369,318.232,116.301,314.066,116.965,309.611z"/>
			<path fill="#A4DBC3" d="M178.648,343.131c3.294,3.311,3.271,8.637-0.058,11.927c-3.284,3.27-8.637,3.259-11.904-0.036
				c-3.291-3.319-3.25-8.663,0.045-11.928C170.035,339.809,175.38,339.832,178.648,343.131z"/>
			<path fill="#C3E7D7" d="M200.653,390.618c1.136,4.771-1.815,9.521-6.595,10.633c-4.739,1.114-9.5-1.836-10.621-6.574
				c-1.113-4.771,1.844-9.533,6.584-10.64C194.786,382.913,199.542,385.872,200.653,390.618z"/>
			<path fill="#E1F3EB" d="M204.298,429.845c-0.793,5.157-5.594,8.661-10.745,7.844c-5.121-0.805-8.626-5.615-7.834-10.732
				c0.808-5.142,5.625-8.66,10.739-7.853C201.607,419.902,205.087,424.721,204.298,429.845z"/>
			<path fill="#FFFFFF" d="M200.509,450.345c3.929-3.937,3.953-10.321-0.014-14.268c-3.926-3.929-10.327-3.912-14.268,0.035
				c-3.917,3.937-3.92,10.317,0.016,14.256C190.19,454.328,196.581,454.333,200.509,450.345z"/>
			<path fill="#E1F3EB" d="M176.322,449.972c-0.901-4.708,2.187-9.252,6.877-10.159c4.712-0.908,9.275,2.166,10.173,6.866
				c0.921,4.727-2.183,9.258-6.885,10.169C181.767,457.781,177.22,454.691,176.322,449.972z"/>
			<path fill="#C3E7D7" d="M155.443,454.832c0.744-3.98,4.581-6.603,8.545-5.861c3.984,0.739,6.613,4.557,5.875,8.536
				c-0.742,4-4.575,6.603-8.558,5.872C157.312,462.646,154.694,458.811,155.443,454.832z"/>
			<path fill="#A4DBC3" d="M127.508,451.323c2.344-2.408,6.202-2.449,8.598-0.113c2.407,2.346,2.469,6.178,0.126,8.592
				c-2.352,2.424-6.203,2.459-8.617,0.119C125.197,457.578,125.166,453.718,127.508,451.323z"/>
			<path fill="#86CFAF" d="M97.221,430.325c2.76-0.193,5.164,1.903,5.337,4.656c0.195,2.758-1.871,5.143-4.643,5.335
				c-2.771,0.207-5.145-1.9-5.359-4.661C92.384,432.886,94.479,430.502,97.221,430.325z"/>
		</g>
		<g>
			<path fill="#86CFAF" d="M918.787,650.381c-6.309,1.977-13.015-1.537-14.971-7.859c-2.004-6.324,1.525-13.043,7.855-15.004
				c6.31-1.977,13.008,1.559,14.982,7.865C928.627,641.697,925.098,648.416,918.787,650.381z"/>
			<path fill="#A4DBC3" d="M829.541,659.399c-3.807,4.258-10.328,4.594-14.589,0.784c-4.27-3.817-4.639-10.352-0.808-14.608
				c3.807-4.254,10.354-4.599,14.6-0.789C833,648.603,833.362,655.148,829.541,659.399z"/>
			<path fill="#C3E7D7" d="M769.846,700.977c-1.43,4.595-6.318,7.123-10.916,5.694c-4.603-1.432-7.173-6.31-5.724-10.914
				c1.432-4.587,6.343-7.151,10.919-5.707C768.722,691.491,771.297,696.377,769.846,700.977z"/>
			<path fill="#E1F3EB" d="M736.206,747.678c-0.187,3.909-3.508,6.899-7.418,6.727c-3.909-0.172-6.941-3.477-6.753-7.398
				c0.182-3.899,3.524-6.945,7.414-6.743C733.363,740.451,736.394,743.754,736.206,747.678z"/>
			<path fill="#FFFFFF" d="M724.9,769.593c0.323,2.995-1.877,5.673-4.873,5.981c-2.986,0.345-5.687-1.833-6.001-4.843
				c-0.313-2.984,1.886-5.714,4.861-5.999C721.891,764.424,724.601,766.572,724.9,769.593z"/>
		</g>
		<g>
			<path fill="#86CFAF" d="M869.672,962.675c-8.889,8.082-22.6,7.405-30.683-1.451c-8.047-8.864-7.395-22.604,1.474-30.67
				c8.866-8.066,22.6-7.41,30.658,1.484C879.189,940.895,878.535,954.616,869.672,962.675z"/>
			<path fill="#A4DBC3" d="M849.349,871.354c-3.222,9.223-13.281,14.053-22.486,10.853c-9.189-3.22-14.043-13.292-10.831-22.493
				c3.213-9.202,13.279-14.048,22.486-10.816C847.718,852.106,852.566,862.166,849.349,871.354z"/>
			<path fill="#C3E7D7" d="M799.799,810.619c0.12,7.521-5.866,13.686-13.365,13.812c-7.502,0.111-13.68-5.879-13.8-13.384
				c-0.121-7.504,5.866-13.672,13.378-13.785C793.519,797.145,799.693,803.125,799.799,810.619z"/>
			<path fill="#E1F3EB" d="M749.55,777.765c1.192,5.141-1.996,10.251-7.115,11.44c-5.134,1.184-10.247-2.012-11.439-7.14
				c-1.19-5.127,2.001-10.23,7.134-11.425C743.265,769.458,748.382,772.643,749.55,777.765z"/>
			<path fill="#FFFFFF" d="M724.6,768.27c1.064,2.838-0.36,5.986-3.181,7.039c-2.844,1.06-5.984-0.377-7.048-3.205
				c-1.062-2.83,0.371-5.961,3.199-7.033C720.415,764.018,723.565,765.441,724.6,768.27z"/>
		</g>
		<g>
			<path fill="#86CFAF" d="M597.918,849.904c5.816-2.158,12.283,0.777,14.459,6.568c2.199,5.814-0.736,12.291-6.551,14.471
				c-5.846,2.176-12.301-0.77-14.467-6.57C589.182,858.557,592.127,852.09,597.918,849.904z"/>
			<path fill="#A4DBC3" d="M653.403,840.249c3.526-4.093,9.701-4.569,13.793-1.061c4.127,3.512,4.612,9.689,1.085,13.797
				c-3.54,4.122-9.708,4.591-13.804,1.077C650.377,850.535,649.897,844.351,653.403,840.249z"/>
			<path fill="#C3E7D7" d="M688.793,813.194c1.32-4.407,5.968-6.903,10.372-5.597c4.431,1.314,6.955,5.944,5.625,10.367
				c-1.319,4.437-5.968,6.952-10.376,5.63C690.003,822.271,687.477,817.604,688.793,813.194z"/>
			<path fill="#E1F3EB" d="M707.804,784.228c0.101-3.797,3.283-6.785,7.079-6.688c3.822,0.097,6.823,3.245,6.72,7.067
				c-0.104,3.821-3.262,6.844-7.069,6.734C710.733,791.231,707.694,788.035,707.804,784.228z"/>
			<path fill="#FFFFFF" d="M714.15,770.947c-0.405-2.97,1.712-5.718,4.688-6.099c2.996-0.423,5.749,1.668,6.131,4.673
				c0.42,2.988-1.679,5.74-4.664,6.152C717.33,776.041,714.535,773.938,714.15,770.947z"/>
		</g>
		<g>
			<path fill="#86CFAF" d="M694.18,760.963c3.854-13.068,17.561-20.555,30.648-16.711c13.08,3.865,20.557,17.568,16.711,30.658
				c-3.854,13.072-17.58,20.559-30.65,16.711C697.811,787.766,690.324,774.053,694.18,760.963z"/>
			<path fill="#9AD7BC" d="M535.979,733.209c3.461-11.739,15.774-18.464,27.528-15.008c11.747,3.47,18.463,15.779,15.012,27.534
				c-3.464,11.742-15.792,18.465-27.531,15.01C539.241,757.283,532.517,744.965,535.979,733.209z"/>
			<path fill="#AEDFCA" d="M406.957,672.422c3.066-10.41,13.987-16.372,24.407-13.306c10.414,3.074,16.37,13.989,13.312,24.41
				c-3.073,10.412-14.004,16.372-24.412,13.31C409.848,693.767,403.886,682.843,406.957,672.422z"/>
			<path fill="#C3E7D7" d="M307.12,595.642c2.673-9.081,12.2-14.281,21.286-11.604c9.081,2.679,14.277,12.2,11.612,21.286
				c-2.683,9.082-12.216,14.279-21.292,11.608C309.64,614.258,304.44,604.728,307.12,595.642z"/>
			<path fill="#D7EFE4" d="M236.48,519.905c2.279-7.752,10.414-12.189,18.166-9.9c7.747,2.284,12.183,10.411,9.912,18.162
				c-2.293,7.752-10.428,12.186-18.173,9.907C238.632,535.793,234.192,527.657,236.48,519.905z"/>
			<path fill="#EBF7F2" d="M195.052,462.253c1.886-6.423,8.627-10.099,15.044-8.198c6.416,1.888,10.091,8.622,8.214,15.039
				c-1.903,6.422-8.64,10.092-15.055,8.206C196.832,475.411,193.155,468.67,195.052,462.253z"/>
			<path fill="#FFFFFF" d="M182.846,439.723c1.493-5.094,6.841-8.008,11.924-6.496c5.082,1.493,7.997,6.833,6.514,11.915
				c-1.513,5.092-6.852,7.999-11.935,6.505C184.257,450.152,181.342,444.806,182.846,439.723z"/>
		</g>
		<g>
			<path fill="#86CFAF" d="M41.28,1040.606c-3.465,2.149-8.007,1.065-10.146-2.395c-2.146-3.446-1.073-8.015,2.394-10.151
				c3.438-2.14,7.997-1.078,10.134,2.4C45.8,1033.917,44.748,1038.458,41.28,1040.606z"/>
			<path fill="#A4DBC3" d="M64.152,991.261c-2.075,2.985-6.177,3.709-9.154,1.633c-2.974-2.068-3.705-6.175-1.628-9.157
				c2.063-2.965,6.163-3.712,9.142-1.624C65.484,984.185,66.232,988.279,64.152,991.261z"/>
			<path fill="#C3E7D7" d="M67.407,945.949c-0.988,3.037-4.249,4.696-7.281,3.708c-3.026-0.991-4.684-4.248-3.696-7.289
				c0.981-3.021,4.236-4.689,7.271-3.694C66.725,939.66,68.394,942.916,67.407,945.949z"/>
			<path fill="#E1F3EB" d="M61.581,912.918c-0.341,2.731-2.826,4.679-5.553,4.331c-2.725-0.347-4.653-2.829-4.313-5.569
				c0.336-2.718,2.818-4.658,5.544-4.313C59.978,907.708,61.92,910.194,61.581,912.918z"/>
			<path fill="#FFFFFF" d="M56.891,899.905c0.014,2.312-1.86,4.193-4.171,4.195c-2.31-0.02-4.184-1.871-4.172-4.193
				c-0.021-2.302,1.858-4.175,4.162-4.176C55.009,895.732,56.903,897.604,56.891,899.905z"/>
		</g>
		<g>
			<path fill="#86CFAF" d="M180.922,873.596c2.38,3.754,1.328,8.729-2.404,11.135c-3.744,2.404-8.745,1.322-11.125-2.42
				c-2.436-3.725-1.341-8.672,2.38-11.086C173.539,868.811,178.476,869.852,180.922,873.596z"/>
			<path fill="#A4DBC3" d="M145.784,904.457c-0.153,3.902-3.446,6.957-7.356,6.807c-3.907-0.157-6.938-3.456-6.787-7.354
				c0.151-3.916,3.412-6.951,7.316-6.796C142.874,897.27,145.939,900.524,145.784,904.457z"/>
			<path fill="#C3E7D7" d="M104.363,911.706c-1.384,3.069-5.004,4.454-8.092,3.065c-3.074-1.388-4.433-5.002-3.05-8.073
				c1.392-3.089,4.986-4.477,8.064-3.081C104.352,905.009,105.761,908.606,104.363,911.706z"/>
			<path fill="#E1F3EB" d="M70.35,907.096c-1.662,2.289-4.879,2.819-7.195,1.143c-2.292-1.667-2.798-4.871-1.133-7.164
				c1.678-2.31,4.887-2.857,7.187-1.171C71.478,901.568,72.032,904.779,70.35,907.096z"/>
			<path fill="#FFFFFF" d="M55.767,902.735c-1.545,1.688-4.195,1.812-5.912,0.232c-1.686-1.557-1.805-4.192-0.232-5.871
				c1.566-1.715,4.215-1.845,5.923-0.268C57.181,898.392,57.353,901.033,55.767,902.735z"/>
		</g>
		<g>
			<path fill="#86CFAF" d="M260.381,991.766c6.382-0.5,11.984,4.316,12.445,10.717c0.502,6.415-4.285,11.988-10.726,12.459
				c-6.384,0.49-11.947-4.297-12.456-10.699C249.142,997.822,253.96,992.247,260.381,991.766z"/>
			<path fill="#A4DBC3" d="M200.289,940.019c4.614-2.775,10.611-1.255,13.38,3.368c2.774,4.633,1.283,10.607-3.368,13.389
				c-4.619,2.761-10.598,1.267-13.381-3.349C194.131,948.79,195.649,942.796,200.289,940.019z"/>
			<path fill="#C3E7D7" d="M130.574,911.611c3.056-3.121,8.058-3.159,11.172-0.105c3.122,3.05,3.177,8.046,0.11,11.169
				c-3.055,3.112-8.051,3.169-11.167,0.128C127.558,919.735,127.515,914.739,130.574,911.611z"/>
			<path fill="#E1F3EB" d="M72.651,899.564c1.982-2.703,5.75-3.269,8.446-1.308c2.688,1.965,3.284,5.744,1.31,8.436
				c-1.974,2.69-5.758,3.286-8.438,1.326C71.266,906.031,70.685,902.267,72.651,899.564z"/>
			<path fill="#FFFFFF" d="M49.158,897.735c1.218-1.991,3.765-2.596,5.749-1.42c1.962,1.19,2.618,3.766,1.421,5.728
				c-1.196,1.983-3.785,2.629-5.738,1.44C48.605,902.267,47.974,899.721,49.158,897.735z"/>
		</g>
	</g>
</g>
</svg>
