<?xml version="1.0" encoding="utf-8"?>
<!-- Generator: Adobe Illustrator 16.0.4, SVG Export Plug-In . SVG Version: 6.00 Build 0)  -->
<!DOCTYPE svg PUBLIC "-//W3C//DTD SVG 1.1//EN" "http://www.w3.org/Graphics/SVG/1.1/DTD/svg11.dtd">
<svg version="1.1" id="Capa_1" xmlns="http://www.w3.org/2000/svg" xmlns:xlink="http://www.w3.org/1999/xlink" x="0px" y="0px"
	 width="1162px" height="1183.645px" viewBox="0 0 1162 1183.645" enable-background="new 0 0 1162 1183.645" xml:space="preserve">
<g>
	<g opacity="0.6">
		
			<image overflow="visible" width="940" height="940" xlink:href="1EAF4E1806307B92.png"  transform="matrix(1 0 0 1 159.5 54.3223)">
		</image>
	</g>
	<g>
		<path fill="none" stroke="#FFFFFF" stroke-width="1.1179" stroke-miterlimit="10" d="M248.557,908.796
			c0,0,41.405,170.097,143.88,218.012"/>
		<g>
			<path fill="#00636D" d="M186.713,693.032c1.516-5.14,6.902-8.079,12.03-6.572c5.139,1.516,8.068,6.902,6.551,12.03
				c-1.496,5.137-6.892,8.079-12.031,6.573C188.137,703.545,185.207,698.15,186.713,693.032z"/>
			<path fill="#21878D" d="M250.156,583.717c-1.503,5.137-6.897,8.077-12.033,6.57c-5.13-1.516-8.063-6.91-6.553-12.031
				c1.513-5.14,6.901-8.079,12.03-6.567C248.735,573.203,251.668,578.589,250.156,583.717z"/>
			<path fill="#6AACAF" d="M314.919,506.726c-1.511,5.137-6.902,8.074-12.036,6.568c-5.132-1.513-8.067-6.908-6.556-12.031
				c1.511-5.14,6.902-8.079,12.03-6.562C313.491,496.211,316.426,501.598,314.919,506.726z"/>
			<path fill="#B2D4D5" d="M373.155,463.485c-1.52,5.137-6.908,8.072-12.039,6.565c-5.135-1.511-8.073-6.905-6.559-12.03
				c1.509-5.139,6.902-8.079,12.031-6.558C371.719,452.971,374.657,458.357,373.155,463.485z"/>
			<path fill="#FFFFFF" d="M379.839,444.501c1.506-5.14,6.902-8.079,12.031-6.554c5.127,1.506,8.068,6.893,6.572,12.021
				c-1.527,5.137-6.913,8.069-12.042,6.563C381.263,455.023,378.322,449.629,379.839,444.501z"/>
		</g>
		<path fill="none" stroke="#FFFFFF" stroke-width="2.2359" stroke-miterlimit="10" d="M389.146,447.244
			c0,0-158.335,68.51-193.147,248.513"/>
		<path fill="none" stroke="#FFFFFF" stroke-width="1.1179" stroke-miterlimit="10" d="M195.421,697.336
			c0,0-31.933-34.534-26.021-74.608c7.469-50.721,43.819-64.6,43.819-64.6"/>
		<path fill="none" stroke="#FFFFFF" stroke-width="1.2635" stroke-miterlimit="10" d="M390.456,447.986
			c0,0,97.542,55.098,165.825-19.098"/>
		<path fill="none" stroke="#FFFFFF" stroke-width="1.2635" stroke-miterlimit="10" d="M390.456,447.986
			c0,0,2.229-117.859,107.241-168.517"/>
		<path fill="none" stroke="#FFFFFF" stroke-width="1.2635" stroke-miterlimit="10" d="M293.862,440.021
			c46.222,45.461,96.594,7.965,96.594,7.965s19.418-91.515-68.933-133.551"/>
		<g>
			<path fill="#00636D" d="M884.789,699.256c0.78,2.363-0.52,4.922-2.91,5.719c-2.383,0.739-4.915-0.542-5.717-2.933
				c-0.771-2.395,0.53-4.966,2.951-5.718C881.508,695.562,884.006,696.861,884.789,699.256z"/>
			<path fill="#21878D" d="M906.422,727.667c-1.927,0.56-3.975-0.547-4.549-2.508c-0.571-1.955,0.552-3.997,2.52-4.549
				c1.955-0.55,3.948,0.536,4.525,2.497C909.493,725.041,908.391,727.096,906.422,727.667z"/>
			<path fill="#6AACAF" d="M918.944,752.634c-1.739,0.865-3.9,0.168-4.779-1.604s-0.16-3.921,1.612-4.787
				c1.773-0.866,3.884-0.179,4.773,1.6C921.43,749.6,920.732,751.738,918.944,752.634z"/>
			<path fill="#B2D4D5" d="M923.735,773.014c-1.83,1.461-4.544,1.171-6.012-0.68c-1.472-1.855-1.163-4.566,0.69-6.026
				c1.863-1.468,4.534-1.179,6.016,0.688C925.894,768.841,925.606,771.521,923.735,773.014z"/>
			<path fill="#FFFFFF" d="M925.213,781.76c-2.09,2.19-5.601,2.234-7.779,0.134c-2.18-2.126-2.245-5.635-0.121-7.802
				c2.125-2.191,5.601-2.246,7.79-0.11C927.273,776.084,927.357,779.568,925.213,781.76z"/>
		</g>
		<path fill="none" stroke="#FFFFFF" stroke-width="0.7552" stroke-miterlimit="10" d="M921.259,777.905
			c0,0,47.284-149.07,197.457-132.417"/>
		<path fill="none" stroke="#FFFFFF" stroke-width="0.7552" stroke-miterlimit="10" d="M921.259,777.905
			c0,0,3.228-50.269-40.734-77.383"/>
		<path fill="none" stroke="#FFFFFF" stroke-width="0.7552" stroke-miterlimit="10" d="M921.259,777.905
			c0,0,133.922,50.021,136.77,177.988"/>
		<path fill="none" stroke="#FFFFFF" stroke-width="0.726" stroke-miterlimit="10" d="M921.277,777.905
			c0,0-26.144,91.229-118.692,91.043"/>
		<path fill="#FFFFFF" d="M379.839,444.501c1.506-5.14,6.902-8.079,12.031-6.554c5.127,1.506,8.068,6.893,6.572,12.021
			c-1.527,5.137-6.913,8.069-12.042,6.563C381.263,455.023,378.322,449.629,379.839,444.501z"/>
		<path fill="#FFFFFF" d="M379.839,444.501c1.506-5.14,6.902-8.079,12.031-6.554c5.127,1.506,8.068,6.893,6.572,12.021
			c-1.527,5.137-6.913,8.069-12.042,6.563C381.263,455.023,378.322,449.629,379.839,444.501z"/>
		<path fill="none" stroke="#FFFFFF" stroke-width="2.2359" stroke-miterlimit="10" d="M389.146,447.244
			c0,0,73.73,393.495-311.377,577.334"/>
		<path fill="none" stroke="#FFFFFF" stroke-width="2.2359" stroke-miterlimit="10" d="M752.843,1103.571
			C419.81,916.955,389.146,447.244,389.146,447.244"/>
		<path fill="none" stroke="#FFFFFF" stroke-width="2.2359" stroke-miterlimit="10" d="M389.146,447.244
			c0,0,176.968,315.742,530.46,328.391"/>
		<g>
			<path fill="#00636D" d="M407.13,1126.633c0.107,8.107-6.393,14.784-14.536,14.938c-8.108,0.096-14.774-6.42-14.876-14.55
				c-0.113-8.107,6.374-14.771,14.507-14.887C400.353,1112.022,407.041,1118.521,407.13,1126.633z"/>
			<path fill="#21878D" d="M337.665,1077.705c-2.854,6.025-10.067,8.618-16.123,5.773c-6.033-2.835-8.588-10.069-5.732-16.106
				c2.85-6.023,10.041-8.604,16.087-5.751C337.938,1064.474,340.522,1071.683,337.665,1077.705z"/>
			<path fill="#6AACAF" d="M289.475,1005.745c-3.271,4.075-9.222,4.729-13.326,1.476c-4.083-3.258-4.723-9.222-1.46-13.304
				c3.269-4.07,9.211-4.739,13.301-1.471C292.078,995.716,292.736,1001.669,289.475,1005.745z"/>
			<path fill="#B2D4D5" d="M261.399,941.027c-2.722,2.627-7.05,2.532-9.688-0.18c-2.637-2.708-2.547-7.052,0.171-9.669
				c2.721-2.619,7.049-2.55,9.68,0.175C264.192,934.077,264.116,938.405,261.399,941.027z"/>
			<path fill="#FFFFFF" d="M251.26,912.028c-1.817,1.478-4.459,1.208-5.943-0.587c-1.506-1.787-1.227-4.448,0.558-5.933
				c1.815-1.465,4.466-1.228,5.952,0.577C253.314,907.892,253.045,910.532,251.26,912.028z"/>
		</g>
		<path fill="none" stroke="#FFFFFF" stroke-width="1.1179" stroke-miterlimit="10" d="M248.557,908.796
			c0,0,29.901,73.872-15.445,135.654"/>
		<path fill="none" stroke="#FFFFFF" stroke-width="1.1179" stroke-miterlimit="10" d="M248.557,908.796
			c0,0,154.538,11.597,210.46,104.352"/>
		<path fill="none" stroke="#FFFFFF" stroke-width="1.1179" stroke-miterlimit="10" d="M248.557,908.796
			c0,0,83.16,32.314,122.522-22.225"/>
		<path fill="none" stroke="#FFFFFF" stroke-width="1.1179" stroke-miterlimit="10" d="M195.421,697.336
			c0,0-35.266-4.883-65.888,22.253c-33.688,29.851-16.395,79.054-16.395,79.054"/>
		<path fill="none" stroke="#FFFFFF" stroke-width="1.1179" stroke-miterlimit="10" d="M195.421,697.336
			c0,0-59.956,28.94-115.877-22.577c-60.42-55.652-41.208-119.035-41.208-119.035"/>
		<path fill="none" stroke="#FFFFFF" stroke-width="1.1179" stroke-miterlimit="10" d="M195.421,697.336
			c0,0,62.701-5.171,120.542,11.256"/>
		<path fill="none" stroke="#FFFFFF" stroke-width="1.1179" stroke-miterlimit="10" d="M152.572,908.247
			c0,0,80.592-18.983,94.675-90.826c14.073-71.831-51.826-120.085-51.826-120.085"/>
		<g>
			<path fill="#00636D" d="M204.965,554.726c1.877-4.572,7.108-6.759,11.666-4.838c4.574,1.865,6.742,7.097,4.853,11.668
				c-1.858,4.55-7.077,6.737-11.658,4.85C205.256,564.527,203.067,559.286,204.965,554.726z"/>
			<path fill="#00777F" d="M197.519,560.452c0.882-4.603,5.321-7.602,9.926-6.706c4.595,0.894,7.596,5.318,6.714,9.927
				c-0.876,4.579-5.302,7.597-9.912,6.708C199.643,569.501,196.621,565.05,197.519,560.452z"/>
			<path fill="#2D8C92" d="M181.809,576.813c-0.449-4.41,2.754-8.332,7.169-8.77c4.4-0.438,8.321,2.756,8.772,7.171
				c0.448,4.386-2.743,8.319-7.154,8.762C186.186,584.429,182.246,581.222,181.809,576.813z"/>
			<path fill="#56A1A5" d="M167.459,606.638c-1.908-3.715-0.453-8.258,3.271-10.164c3.706-1.896,8.247-0.443,10.163,3.276
				c1.903,3.695,0.456,8.241-3.259,10.143C173.917,611.808,169.363,610.354,167.459,606.638z"/>
			<path fill="#7FB7BA" d="M164.594,645.068c-3.083-2.424-3.627-6.873-1.193-9.956c2.413-3.068,6.863-3.605,9.956-1.18
				c3.071,2.408,3.615,6.853,1.19,9.925C172.124,646.948,167.676,647.491,164.594,645.068z"/>
			<path fill="#A8CED0" d="M174.946,675.229c-3.466-1.194-5.313-4.948-4.117-8.424c1.189-3.444,4.949-5.29,8.428-4.099
				c3.453,1.184,5.289,4.937,4.099,8.391C182.158,674.571,178.414,676.418,174.946,675.229z"/>
			<path fill="#D4E6E7" d="M188.268,695.746c-3.378-0.459-5.75-3.552-5.286-6.941c0.458-3.353,3.558-5.722,6.951-5.264
				c3.366,0.455,5.716,3.548,5.255,6.909C194.723,693.839,191.649,696.206,188.268,695.746z"/>
			<path fill="#FFFFFF" d="M195.166,703.142c-3.153-0.057-5.662-2.624-5.626-5.79c0.063-3.125,2.637-5.655,5.805-5.6
				c3.144,0.037,5.65,2.627,5.585,5.759C200.886,700.679,198.323,703.18,195.166,703.142z"/>
		</g>
		<g>
			<path fill="#00636D" d="M28.344,548.605c3.942-5.539,11.63-6.827,17.149-2.884c5.527,3.924,6.816,11.62,2.875,17.159
				c-3.913,5.522-11.613,6.83-17.128,2.875C25.702,561.824,24.403,554.135,28.344,548.605z"/>
			<path fill="#00777F" d="M25.684,564.197c2.592-5.713,9.335-8.238,15.033-5.641c5.703,2.584,8.227,9.329,5.634,15.046
				c-2.572,5.694-9.319,8.236-15.017,5.63C25.621,576.645,23.087,569.906,25.684,564.197z"/>
			<path fill="#2D8C92" d="M27.2,600.838c0.782-5.696,6.05-9.68,11.735-8.89c5.691,0.782,9.669,6.048,8.888,11.752
				c-0.772,5.677-6.037,9.673-11.725,8.879C30.397,611.797,26.41,606.536,27.2,600.838z"/>
			<path fill="#56A1A5" d="M46.396,649.061c-1.316-5.057,1.736-10.233,6.788-11.54c5.062-1.312,10.226,1.738,11.547,6.807
				c1.315,5.041-1.729,10.223-6.784,11.529C52.88,657.172,47.706,654.129,46.396,649.061z"/>
			<path fill="#7FB7BA" d="M92.906,695.314c-3.036-3.59-2.571-8.982,1.019-12.012c3.604-3.033,8.979-2.566,12.028,1.036
				c3.028,3.581,2.57,8.971-1.02,12.002C101.329,699.382,95.943,698.923,92.906,695.314z"/>
			<path fill="#A8CED0" d="M143.284,712.069c-3.848-1.625-5.645-6.096-4.016-9.938c1.647-3.858,6.096-5.643,9.966-4.011
				c3.839,1.628,5.637,6.087,4.014,9.935C151.604,711.918,147.147,713.716,143.284,712.069z"/>
			<path fill="#D4E6E7" d="M181.001,708.64c-3.643-0.262-6.402-3.466-6.128-7.109c0.275-3.667,3.467-6.393,7.139-6.131
				c3.641,0.27,6.393,3.462,6.128,7.107C187.873,706.176,184.672,708.918,181.001,708.64z"/>
			<path fill="#FFFFFF" d="M196.127,702.939c-3.102,0.404-5.964-1.822-6.368-4.928c-0.384-3.138,1.825-5.967,4.959-6.379
				c3.106-0.394,5.953,1.823,6.37,4.928C201.481,699.696,199.266,702.546,196.127,702.939z"/>
		</g>
		<g>
			<path fill="#00636D" d="M119.274,801.508c-1.63,3.321-5.673,4.73-8.974,3.145c-3.367-1.617-4.772-5.622-3.155-8.965
				c1.584-3.323,5.606-4.75,8.931-3.144C119.421,794.139,120.818,798.118,119.274,801.508z"/>
			<path fill="#21878D" d="M113.627,778.485c-2.378,2.642-6.525,2.805-9.131,0.436c-2.659-2.425-2.852-6.501-0.449-9.145
				c2.383-2.622,6.479-2.835,9.106-0.44C115.799,771.735,116.027,775.818,113.627,778.485z"/>
			<path fill="#6AACAF" d="M122.973,733.425c-3.387,0.398-6.488-2.096-6.872-5.456c-0.379-3.44,2.06-6.517,5.469-6.904
				c3.382-0.384,6.477,2.056,6.862,5.453C128.82,729.933,126.398,733.022,122.973,733.425z"/>
			<path fill="#B2D4D5" d="M166.895,704.041c-2.744-1.77-3.539-5.503-1.768-8.219c1.815-2.784,5.508-3.579,8.267-1.79
				c2.74,1.777,3.543,5.472,1.761,8.229C173.352,705.028,169.678,705.836,166.895,704.041z"/>
			<path fill="#FFFFFF" d="M190.823,700.792c-1.862-2.502-1.373-6.097,1.104-7.963c2.562-1.895,6.12-1.395,8.035,1.104
				c1.855,2.519,1.385,6.088-1.125,7.985C196.297,703.812,192.751,703.314,190.823,700.792z"/>
		</g>
		<g>
			<path fill="#FFFFFF" d="M197.727,702.569c-2.848,1.301-6.244,0.013-7.555-2.822c-1.294-2.867-0.012-6.244,2.855-7.554
				c2.827-1.302,6.241-0.044,7.532,2.821C201.861,697.875,200.575,701.249,197.727,702.569z"/>
			<path fill="#D4E6E7" d="M209.687,713.954c-2.916,0.838-5.998-0.885-6.83-3.796c-0.839-2.934,0.893-5.981,3.828-6.823
				c2.904-0.833,5.989,0.858,6.812,3.792C214.33,710.057,212.611,713.106,209.687,713.954z"/>
			<path fill="#A8CED0" d="M232.943,745.531c-2.936,0.066-5.395-2.311-5.452-5.241c-0.058-2.955,2.318-5.378,5.271-5.438
				c2.93-0.06,5.396,2.285,5.44,5.235C238.255,743.038,235.894,745.467,232.943,745.531z"/>
			<path fill="#7FB7BA" d="M246.698,793.228c-2.59-1.163-3.751-4.258-2.583-6.84c1.179-2.606,4.259-3.734,6.86-2.559
				c2.587,1.17,3.766,4.236,2.578,6.832C252.374,793.261,249.305,794.399,246.698,793.228z"/>
			<path fill="#56A1A5" d="M233.198,848.101c-1.494-2.3-0.822-5.419,1.476-6.904c2.325-1.502,5.413-0.808,6.908,1.507
				c1.492,2.311,0.848,5.412-1.476,6.901C237.789,851.099,234.704,850.419,233.198,848.101z"/>
			<path fill="#2D8C92" d="M199.128,884.053c-0.341-2.623,1.541-5.058,4.159-5.391c2.651-0.338,5.048,1.553,5.382,4.188
				c0.334,2.638-1.516,5.064-4.159,5.392C201.87,888.577,199.472,886.701,199.128,884.053z"/>
			<path fill="#00777F" d="M164.219,902.218c0.328-2.526,2.674-4.335,5.196-4.002c2.555,0.337,4.323,2.687,3.985,5.221
				c-0.338,2.546-2.653,4.352-5.198,4.007C165.66,907.107,163.888,904.773,164.219,902.218z"/>
			<path fill="#00636D" d="M148.292,907.002c0.646-2.363,3.153-3.725,5.509-3.068c2.38,0.706,3.753,3.178,3.05,5.532
				c-0.667,2.387-3.143,3.768-5.516,3.077C148.963,911.861,147.586,909.384,148.292,907.002z"/>
		</g>
		<g>
			<path fill="#00636D" d="M312.84,713.375c-2.661-1.757-3.394-5.343-1.61-7.97c1.731-2.657,5.283-3.357,7.914-1.585
				c2.65,1.751,3.384,5.281,1.641,7.927C319,714.38,315.473,715.102,312.84,713.375z"/>
			<path fill="#00777F" d="M288.388,707.831c-2.805-1.503-3.842-4.984-2.336-7.776c1.505-2.79,4.948-3.814,7.733-2.307
				c2.792,1.511,3.867,4.955,2.357,7.738C294.629,708.279,291.166,709.311,288.388,707.831z"/>
			<path fill="#2D8C92" d="M264.45,704.385c-2.899-1.299-4.183-4.691-2.882-7.578c1.302-2.889,4.666-4.155,7.547-2.854
				c2.892,1.307,4.203,4.663,2.897,7.548C270.704,704.392,267.325,705.665,264.45,704.385z"/>
			<path fill="#56A1A5" d="M242.21,702.591c-2.96-1.134-4.437-4.441-3.302-7.394c1.137-2.956,4.429-4.411,7.375-3.275
				c2.959,1.141,4.451,4.417,3.311,7.37C248.452,702.248,245.152,703.71,242.21,702.591z"/>
			<path fill="#7FB7BA" d="M222.867,702c-3.002-0.998-4.63-4.229-3.63-7.226c0.999-3.005,4.229-4.608,7.217-3.605
				c3.008,1,4.639,4.21,3.635,7.21C229.084,701.379,225.855,702.986,222.867,702z"/>
			<path fill="#A8CED0" d="M207.613,702.155c-3.031-0.886-4.773-4.045-3.892-7.074c0.892-3.037,4.056-4.759,7.075-3.873
				c3.042,0.891,4.781,4.033,3.895,7.068C213.798,701.308,210.635,703.033,207.613,702.155z"/>
			<path fill="#D4E6E7" d="M197.643,702.599c-3.051-0.793-4.896-3.891-4.105-6.94c0.793-3.063,3.911-4.878,6.952-4.09
				c3.066,0.796,4.898,3.883,4.105,6.941C203.799,701.565,200.689,703.386,197.643,702.599z"/>
			<path fill="#FFFFFF" d="M194.139,702.865c-3.064-0.714-4.971-3.75-4.28-6.82c0.73-3.077,3.784-4.974,6.841-4.271
				c3.084,0.718,4.993,3.754,4.277,6.831C200.269,701.677,197.205,703.575,194.139,702.865z"/>
		</g>
		<g>
			<path fill="#00636D" d="M59.187,1019.103c3.013-10.268,13.784-16.128,24.051-13.115c10.276,3.013,16.147,13.806,13.125,24.07
				c-3.034,10.268-13.806,16.137-24.062,13.115C62.034,1040.149,56.154,1029.366,59.187,1019.103z"/>
			<path fill="#007078" d="M154.081,964.465c2.875-9.801,13.159-15.396,22.958-12.519c9.808,2.876,15.412,13.178,12.528,22.976
				c-2.897,9.801-13.179,15.402-22.969,12.52C156.799,984.556,151.186,974.262,154.081,964.465z"/>
			<path fill="#007C84" d="M228.626,902.155c2.739-9.336,12.533-14.665,21.865-11.923c9.34,2.739,14.678,12.549,11.933,21.88
				c-2.76,9.335-12.552,14.67-21.876,11.924C231.215,921.288,225.869,911.484,228.626,902.155z"/>
			<path fill="#298A90" d="M285.221,834.885c2.602-8.869,11.907-13.933,20.772-11.325c8.872,2.602,13.944,11.921,11.338,20.784
				c-2.623,8.867-11.926,13.936-20.783,11.328C287.68,853.062,282.601,843.748,285.221,834.885z"/>
			<path fill="#45979C" d="M326.265,765.375c2.465-8.402,11.282-13.2,19.68-10.729c8.403,2.465,13.209,11.292,10.741,19.688
				c-2.486,8.401-11.299,13.203-19.691,10.732C328.595,782.595,323.784,773.771,326.265,765.375z"/>
			<path fill="#5EA5A9" d="M354.159,696.346c2.329-7.937,10.656-12.469,18.588-10.133c7.936,2.328,12.475,10.664,10.146,18.594
				c-2.35,7.936-10.673,12.47-18.598,10.137C356.36,712.609,351.816,704.275,354.159,696.346z"/>
			<path fill="#77B3B6" d="M371.306,630.515c2.191-7.471,10.03-11.737,17.495-9.536c7.467,2.19,11.74,10.035,9.55,17.498
				c-2.212,7.469-10.046,11.736-17.505,9.541C373.377,645.82,369.1,637.977,371.306,630.515z"/>
			<path fill="#91C1C4" d="M380.104,570.601c2.054-7.004,9.404-11.006,16.402-8.939c6.999,2.054,11.006,9.406,8.954,16.402
				c-2.075,7.001-9.419,11.001-16.412,8.945C382.046,584.949,378.036,577.596,380.104,570.601z"/>
			<path fill="#ABD0D1" d="M382.957,519.324c1.917-6.538,8.779-10.274,15.309-8.344c6.532,1.918,10.271,8.779,8.359,15.308
				c-1.938,6.536-8.793,10.27-15.32,8.35C384.769,532.715,381.026,525.852,382.957,519.324z"/>
			<path fill="#C8E0E0" d="M382.263,479.402c1.78-6.072,8.153-9.542,14.216-7.747c6.063,1.78,9.538,8.15,7.763,14.211
				c-1.801,6.07-8.166,9.536-14.227,7.754C383.945,491.837,380.47,485.463,382.263,479.402z"/>
			<path fill="#E4EFEF" d="M380.421,453.555c1.643-5.605,7.527-8.811,13.123-7.15c5.596,1.644,8.815,7.525,7.167,13.116
				c-1.652,5.606-7.539,8.803-13.134,7.158C381.974,465.033,378.766,459.148,380.421,453.555z"/>
			<path fill="#FFFFFF" d="M379.839,444.501c1.506-5.14,6.902-8.079,12.031-6.554c5.127,1.506,8.068,6.893,6.572,12.021
				c-1.527,5.137-6.913,8.069-12.042,6.563C381.263,455.023,378.322,449.629,379.839,444.501z"/>
		</g>
		<g>
			<path fill="#FFFFFF" d="M379.839,444.501c1.506-5.14,6.902-8.079,12.031-6.554c5.127,1.506,8.068,6.893,6.572,12.021
				c-1.527,5.137-6.913,8.069-12.042,6.563C381.263,455.023,378.322,449.629,379.839,444.501z"/>
			<path fill="#E4EFEF" d="M388.984,467.168c-4.893-0.612-8.363-5.083-7.742-9.967c0.611-4.896,5.082-8.363,9.968-7.734
				c4.884,0.61,8.368,5.076,7.752,9.959C398.344,464.321,393.87,467.78,388.984,467.168z"/>
			<path fill="#C8E0E0" d="M394.316,497.705c-4.648,0.284-8.648-3.263-8.923-7.905c-0.283-4.652,3.263-8.647,7.905-8.915
				c4.642-0.285,8.654,3.254,8.932,7.897C402.51,493.432,398.959,497.421,394.316,497.705z"/>
			<path fill="#ABD0D1" d="M403.622,544.748c-4.403,1.18-8.934-1.443-10.104-5.842c-1.178-4.408,1.444-8.932,5.843-10.096
				c4.398-1.181,8.938,1.434,10.112,5.836C410.647,539.05,408.021,543.57,403.622,544.748z"/>
			<path fill="#91C1C4" d="M418.122,604.902c-4.159,2.075-9.219,0.376-11.286-3.779c-2.072-4.164-0.375-9.216,3.781-11.276
				c4.155-2.077,9.222-0.387,11.291,3.773C423.978,597.781,422.278,602.829,418.122,604.902z"/>
			<path fill="#77B3B6" d="M439.044,674.773c-3.914,2.971-9.504,2.195-12.466-1.717c-2.968-3.92-2.195-9.5,1.718-12.457
				c3.912-2.973,9.499-2.201,12.472,1.712C443.724,666.233,442.957,671.805,439.044,674.773z"/>
			<path fill="#5EA5A9" d="M467.607,750.969c-3.669,3.868-9.789,4.016-13.647,0.346c-3.862-3.676-4.015-9.784-0.345-13.638
				c3.67-3.868,9.785-4.021,13.651-0.35C471.121,741.006,471.277,747.105,467.607,750.969z"/>
			<path fill="#45979C" d="M505.041,830.093c-3.425,4.764-10.075,5.836-14.829,2.408c-4.757-3.432-5.833-10.067-2.407-14.817
				c3.426-4.765,10.071-5.84,14.832-2.412C507.387,818.708,508.467,825.335,505.041,830.093z"/>
			<path fill="#298A90" d="M552.567,908.755c-3.18,5.659-10.36,7.654-16.01,4.471c-5.651-3.188-7.652-10.353-4.47-15.999
				c3.184-5.659,10.357-7.658,16.012-4.473C553.747,895.946,555.751,903.103,552.567,908.755z"/>
			<path fill="#007C84" d="M611.413,983.558c-2.934,6.556-10.645,9.475-17.189,6.534c-6.547-2.944-9.473-10.637-6.532-17.18
				c2.94-6.556,10.644-9.478,17.191-6.535C611.427,969.327,614.354,977.011,611.413,983.558z"/>
			<path fill="#007078" d="M682.803,1051.109c-2.689,7.452-10.93,11.295-18.371,8.598c-7.441-2.7-11.293-10.921-8.596-18.36
				c2.697-7.451,10.93-11.297,18.371-8.597C681.648,1035.456,685.5,1043.668,682.803,1051.109z"/>
			<path fill="#00636D" d="M737.749,1099.136c2.454-8.347,11.216-13.115,19.552-10.658c8.337,2.464,13.112,11.203,10.658,19.54
				c-2.445,8.348-11.216,13.114-19.553,10.659C740.07,1116.221,735.295,1107.472,737.749,1099.136z"/>
		</g>
		<g>
			<path fill="#00636D" d="M491.885,299.511c-11.082-3.218-17.417-14.774-14.25-25.824c3.239-11.067,14.815-17.429,25.844-14.218
				c11.063,3.209,17.418,14.761,14.208,25.843C514.5,296.372,502.913,302.734,491.885,299.511z"/>
			<path fill="#21878D" d="M433.905,309.198c9.929-1.49,19.183,5.339,20.681,15.281c1.515,9.924-5.336,19.192-15.245,20.668
				c-9.95,1.5-19.194-5.338-20.712-15.251C417.141,319.958,423.99,310.685,433.905,309.198z"/>
			<path fill="#6AACAF" d="M397.6,368.915c7.623-3.895,16.969-0.886,20.873,6.746c3.922,7.615,0.904,16.972-6.708,20.86
				c-7.64,3.92-16.982,0.903-20.897-6.711C386.955,382.19,389.977,372.817,397.6,368.915z"/>
			<path fill="#B2D4D5" d="M384.311,418.805c5.5-4.458,13.594-3.638,18.062,1.866c4.492,5.491,3.668,13.585-1.822,18.05
				c-5.509,4.498-13.602,3.672-18.083-1.829C377.976,431.416,378.804,423.291,384.311,418.805z"/>
			<path fill="#FFFFFF" d="M382.997,441.014c-3.848,4.125-3.622,10.606,0.498,14.399c4.103,3.852,10.554,3.624,14.392-0.502
				c3.828-4.097,3.6-10.536-0.517-14.363C393.285,436.708,386.837,436.937,382.997,441.014z"/>
		</g>
		<g>
			<path fill="#00636D" d="M561.709,433.004c-2.363,3.034-6.717,3.611-9.779,1.29c-3.037-2.338-3.592-6.707-1.249-9.75
				c2.342-3.064,6.695-3.612,9.72-1.27C563.455,425.597,564.04,429.974,561.709,433.004z"/>
			<path fill="#21878D" d="M498.76,455.84c4.017-1.535,8.467,0.497,9.988,4.495c1.524,4.004-0.471,8.487-4.469,10.007
				c-4.008,1.506-8.504-0.495-10.033-4.497C492.719,461.849,494.754,457.365,498.76,455.84z"/>
			<path fill="#6AACAF" d="M448.124,457.659c4.738,0.214,8.361,4.227,8.144,8.953c-0.218,4.728-4.209,8.379-8.935,8.161
				c-4.713-0.225-8.384-4.235-8.174-8.958C439.375,461.097,443.397,457.447,448.124,457.659z"/>
			<path fill="#B2D4D5" d="M409.37,446.426c4.979,1.451,7.805,6.657,6.352,11.631c-1.452,4.973-6.637,7.815-11.613,6.364
				c-4.948-1.443-7.823-6.664-6.375-11.624C399.18,447.833,404.399,444.985,409.37,446.426z"/>
			<path fill="#FFFFFF" d="M394.631,438.708c-5.128-2.301-11.174-0.026-13.482,5.093c-2.318,5.109-0.015,11.168,5.085,13.461
				c5.138,2.318,11.151,0.062,13.461-5.071C402.025,447.061,399.761,441.027,394.631,438.708z"/>
		</g>
		<g>
			<path fill="#00636D" d="M313.373,313.227c0.66-4.505,4.874-7.632,9.369-6.96c4.518,0.669,7.625,4.858,6.942,9.397
				c-0.65,4.489-4.859,7.616-9.357,6.955C315.8,321.927,312.703,317.727,313.373,313.227z"/>
			<path fill="#21878D" d="M375.605,347.052c3.324,3.339,3.299,8.713-0.06,12.034c-3.313,3.299-8.713,3.288-12.009-0.038
				c-3.318-3.348-3.279-8.739,0.048-12.036C366.914,343.7,372.31,343.724,375.605,347.052z"/>
			<path fill="#6AACAF" d="M397.806,394.964c1.146,4.812-1.832,9.605-6.653,10.727c-4.781,1.124-9.584-1.853-10.715-6.633
				c-1.122-4.812,1.86-9.616,6.644-10.735C391.886,387.191,396.685,390.177,397.806,394.964z"/>
			<path fill="#B2D4D5" d="M401.483,434.544c-0.801,5.202-5.644,8.737-10.84,7.913c-5.167-0.811-8.703-5.664-7.903-10.826
				c0.814-5.187,5.674-8.736,10.833-7.924C398.768,424.514,402.279,429.375,401.483,434.544z"/>
			<path fill="#FFFFFF" d="M397.659,455.229c3.965-3.972,3.989-10.412-0.012-14.396c-3.959-3.965-10.417-3.948-14.394,0.034
				c-3.953,3.972-3.957,10.408,0.015,14.382C387.249,459.246,393.695,459.251,397.659,455.229z"/>
			<path fill="#B2D4D5" d="M373.257,454.849c-0.909-4.749,2.208-9.333,6.941-10.246c4.753-0.916,9.357,2.186,10.26,6.927
				c0.927,4.771-2.205,9.333-6.948,10.259C378.746,462.72,374.162,459.61,373.257,454.849z"/>
			<path fill="#6AACAF" d="M352.188,459.747c0.75-4.015,4.623-6.66,8.625-5.911c4.018,0.745,6.668,4.598,5.923,8.611
				c-0.75,4.037-4.617,6.662-8.635,5.924C354.071,467.631,351.433,463.761,352.188,459.747z"/>
			<path fill="#21878D" d="M324,456.205c2.364-2.429,6.256-2.469,8.676-0.11c2.426,2.364,2.489,6.229,0.125,8.665
				c-2.373,2.444-6.257,2.481-8.692,0.121C321.669,462.514,321.639,458.62,324,456.205z"/>
			<path fill="#00636D" d="M293.442,435.018c2.784-0.194,5.21,1.921,5.385,4.703c0.197,2.777-1.889,5.183-4.683,5.376
				c-2.796,0.209-5.19-1.916-5.407-4.7C288.561,437.601,290.678,435.197,293.442,435.018z"/>
		</g>
		<g>
			<path fill="#00636D" d="M1122.328,657.034c-6.363,1.991-13.13-1.552-15.104-7.934c-2.023-6.376,1.537-13.156,7.924-15.137
				c6.364-1.991,13.125,1.575,15.115,7.936C1132.256,648.27,1128.694,655.052,1122.328,657.034z"/>
			<path fill="#21878D" d="M1032.286,666.133c-3.84,4.294-10.416,4.633-14.718,0.788c-4.307-3.849-4.682-10.441-0.816-14.736
				c3.841-4.29,10.449-4.639,14.729-0.796C1035.775,655.236,1036.144,661.844,1032.286,666.133z"/>
			<path fill="#6AACAF" d="M972.062,708.082c-1.45,4.631-6.372,7.183-11.013,5.741c-4.642-1.441-7.238-6.364-5.774-11.009
				c1.443-4.627,6.399-7.215,11.015-5.759C970.927,698.51,973.518,703.437,972.062,708.082z"/>
			<path fill="#B2D4D5" d="M938.122,755.198c-0.188,3.941-3.539,6.957-7.484,6.784c-3.942-0.173-7.004-3.508-6.811-7.467
				c0.18-3.93,3.555-7.004,7.477-6.801C935.251,747.905,938.312,751.235,938.122,755.198z"/>
			<path fill="#FFFFFF" d="M926.715,777.307c0.328,3.022-1.893,5.722-4.915,6.032c-3.012,0.352-5.74-1.849-6.054-4.888
				c-0.319-3.006,1.9-5.762,4.902-6.049C923.678,772.092,926.414,774.255,926.715,777.307z"/>
		</g>
		<g>
			<path fill="#00636D" d="M1072.775,972.104c-8.967,8.155-22.801,7.472-30.956-1.462c-8.12-8.946-7.458-22.804,1.484-30.945
				c8.95-8.138,22.804-7.476,30.933,1.502C1082.379,950.131,1081.719,963.974,1072.775,972.104z"/>
			<path fill="#21878D" d="M1052.271,879.972c-3.25,9.305-13.399,14.175-22.686,10.949c-9.274-3.252-14.167-13.409-10.93-22.695
				c3.245-9.282,13.399-14.172,22.69-10.909C1050.627,860.55,1055.521,870.698,1052.271,879.972z"/>
			<path fill="#6AACAF" d="M1002.282,818.694c0.121,7.589-5.919,13.803-13.482,13.933c-7.572,0.11-13.801-5.932-13.926-13.504
				c-0.117-7.57,5.921-13.793,13.502-13.906C995.947,805.097,1002.179,811.13,1002.282,818.694z"/>
			<path fill="#B2D4D5" d="M951.59,785.544c1.193,5.19-2.015,10.337-7.175,11.538c-5.185,1.193-10.339-2.028-11.545-7.203
				c-1.196-5.172,2.022-10.318,7.202-11.523C945.251,777.16,950.401,780.375,951.59,785.544z"/>
			<path fill="#FFFFFF" d="M926.415,775.965c1.078,2.864-0.362,6.033-3.202,7.097c-2.874,1.069-6.04-0.377-7.116-3.234
				c-1.066-2.853,0.378-6.01,3.231-7.096C922.196,771.669,925.375,773.104,926.415,775.965z"/>
		</g>
		<g>
			<path fill="#00636D" d="M798.604,858.331c5.868-2.178,12.393,0.783,14.588,6.627c2.219,5.866-0.742,12.401-6.607,14.599
				c-5.898,2.192-12.411-0.776-14.597-6.629C789.79,867.061,792.761,860.534,798.604,858.331z"/>
			<path fill="#21878D" d="M854.588,848.591c3.557-4.13,9.778-4.602,13.914-1.068c4.158,3.551,4.654,9.775,1.095,13.918
				c-3.572,4.156-9.795,4.632-13.929,1.086C851.533,858.968,851.049,852.727,854.588,848.591z"/>
			<path fill="#6AACAF" d="M890.294,821.301c1.333-4.446,6.021-6.962,10.465-5.643c4.472,1.326,7.008,5.993,5.672,10.457
				c-1.339,4.473-6.019,7.016-10.466,5.681C891.515,830.46,888.966,825.749,890.294,821.301z"/>
			<path fill="#B2D4D5" d="M909.477,792.08c0.101-3.83,3.312-6.842,7.142-6.743c3.857,0.099,6.879,3.272,6.774,7.128
				c-0.104,3.855-3.286,6.906-7.128,6.795C912.432,799.148,909.366,795.922,909.477,792.08z"/>
			<path fill="#FFFFFF" d="M915.879,778.685c-0.41-2.996,1.727-5.768,4.729-6.146c3.025-0.431,5.801,1.678,6.181,4.71
				c0.433,3.014-1.688,5.791-4.7,6.209C919.086,783.823,916.269,781.702,915.879,778.685z"/>
		</g>
		<g>
			<path fill="#00636D" d="M895.723,768.599c3.888-13.185,17.716-20.738,30.921-16.86c13.196,3.9,20.739,17.727,16.858,30.933
				c-3.888,13.188-17.735,20.74-30.922,16.859C899.386,795.64,891.833,781.806,895.723,768.599z"/>
			<path fill="#007A82" d="M736.115,740.598c3.491-11.844,15.913-18.629,27.772-15.143c11.852,3.501,18.628,15.921,15.145,27.78
				c-3.494,11.846-15.932,18.629-27.775,15.144C739.405,764.886,732.621,752.458,736.115,740.598z"/>
			<path fill="#3C9398" d="M605.945,679.271c3.094-10.503,14.111-16.519,24.624-13.425c10.507,3.103,16.516,14.115,13.43,24.629
				c-3.102,10.503-14.128,16.517-24.628,13.427C608.861,700.805,602.847,689.784,605.945,679.271z"/>
			<path fill="#6AACAF" d="M505.22,601.807c2.696-9.162,12.309-14.409,21.476-11.707c9.161,2.703,14.403,12.31,11.715,21.477
				c-2.708,9.162-12.324,14.405-21.481,11.711C507.763,620.588,502.516,610.974,505.22,601.807z"/>
			<path fill="#9AC7C8" d="M433.951,525.397c2.3-7.822,10.506-12.299,18.327-9.989c7.817,2.304,12.292,10.504,10.001,18.324
				c-2.314,7.82-10.521,12.293-18.335,9.995C436.121,541.425,431.643,533.218,433.951,525.397z"/>
			<path fill="#CBE2E2" d="M392.154,467.231c1.903-6.48,8.704-10.188,15.179-8.271c6.472,1.906,10.18,8.699,8.286,15.173
				c-1.921,6.479-8.716,10.181-15.188,8.279C393.95,480.506,390.241,473.706,392.154,467.231z"/>
			<path fill="#FFFFFF" d="M379.839,444.501c1.506-5.14,6.902-8.079,12.031-6.554c5.127,1.506,8.068,6.893,6.572,12.021
				c-1.527,5.137-6.913,8.069-12.042,6.563C381.263,455.023,378.322,449.629,379.839,444.501z"/>
		</g>
		<g>
			<path fill="#00636D" d="M237.01,1050.723c-3.495,2.168-8.078,1.076-10.234-2.417c-2.164-3.472-1.086-8.084,2.413-10.239
				c3.471-2.156,8.065-1.09,10.223,2.421C241.567,1043.975,240.508,1048.559,237.01,1050.723z"/>
			<path fill="#21878D" d="M260.09,1000.942c-2.091,3.013-6.23,3.744-9.234,1.647c-2.998-2.083-3.74-6.228-1.644-9.237
				c2.085-2.991,6.217-3.744,9.225-1.638C261.433,993.807,262.188,997.938,260.09,1000.942z"/>
			<path fill="#6AACAF" d="M263.375,955.233c-0.996,3.063-4.284,4.737-7.347,3.74c-3.051-0.997-4.726-4.286-3.729-7.353
				c0.991-3.049,4.274-4.73,7.337-3.728C262.688,948.89,264.37,952.175,263.375,955.233z"/>
			<path fill="#B2D4D5" d="M257.499,921.914c-0.343,2.755-2.852,4.719-5.607,4.37c-2.749-0.349-4.693-2.856-4.351-5.618
				c0.34-2.746,2.844-4.7,5.596-4.355C255.881,916.657,257.841,919.168,257.499,921.914z"/>
			<path fill="#FFFFFF" d="M252.769,908.787c0.013,2.331-1.876,4.228-4.213,4.234c-2.33-0.019-4.217-1.89-4.209-4.229
				c-0.02-2.327,1.878-4.213,4.203-4.218C250.87,904.576,252.776,906.469,252.769,908.787z"/>
		</g>
		<g>
			<path fill="#00636D" d="M377.896,882.247c2.399,3.784,1.339,8.805-2.426,11.232c-3.778,2.424-8.823,1.334-11.227-2.441
				c-2.455-3.757-1.353-8.749,2.404-11.185C370.445,877.419,375.428,878.471,377.896,882.247z"/>
			<path fill="#21878D" d="M342.446,913.38c-0.155,3.936-3.476,7.019-7.421,6.867c-3.942-0.161-7.002-3.487-6.85-7.421
				c0.153-3.949,3.443-7.012,7.384-6.854C339.509,906.129,342.603,909.414,342.446,913.38z"/>
			<path fill="#6AACAF" d="M300.657,920.69c-1.396,3.095-5.048,4.492-8.164,3.091c-3.1-1.4-4.473-5.047-3.077-8.146
				c1.403-3.114,5.033-4.517,8.138-3.107C300.646,913.932,302.067,917.565,300.657,920.69z"/>
			<path fill="#B2D4D5" d="M266.341,916.036c-1.677,2.306-4.921,2.841-7.258,1.148c-2.312-1.679-2.824-4.913-1.144-7.226
				c1.694-2.332,4.932-2.883,7.251-1.182C267.479,910.457,268.038,913.699,266.341,916.036z"/>
			<path fill="#FFFFFF" d="M251.629,911.634c-1.56,1.701-4.231,1.826-5.963,0.231c-1.701-1.567-1.822-4.228-0.234-5.92
				c1.58-1.733,4.253-1.861,5.975-0.272C253.056,907.248,253.228,909.917,251.629,911.634z"/>
		</g>
		<g>
			<path fill="#00636D" d="M458.056,1001.457c6.439-0.505,12.091,4.354,12.557,10.813c0.507,6.471-4.324,12.091-10.825,12.565
				c-6.44,0.497-12.05-4.332-12.566-10.792C446.717,1007.566,451.578,1001.941,458.056,1001.457z"/>
			<path fill="#21878D" d="M397.434,949.246c4.656-2.799,10.706-1.266,13.5,3.401c2.799,4.673,1.291,10.699-3.404,13.506
				c-4.658,2.784-10.688,1.276-13.498-3.377C391.221,958.095,392.752,952.049,397.434,949.246z"/>
			<path fill="#6AACAF" d="M327.106,920.582c3.083-3.149,8.129-3.188,11.271-0.105c3.15,3.078,3.203,8.116,0.106,11.27
				c-3.08,3.137-8.119,3.194-11.264,0.128C324.061,928.777,324.017,923.737,327.106,920.582z"/>
			<path fill="#B2D4D5" d="M268.674,908.422c2-2.727,5.801-3.299,8.521-1.318c2.713,1.983,3.312,5.795,1.318,8.512
				c-1.99,2.713-5.807,3.313-8.511,1.339C267.275,914.947,266.687,911.148,268.674,908.422z"/>
			<path fill="#FFFFFF" d="M244.975,906.574c1.228-2.009,3.797-2.62,5.799-1.433c1.982,1.201,2.641,3.802,1.433,5.78
				c-1.206,1.999-3.816,2.649-5.786,1.455C244.417,911.146,243.777,908.577,244.975,906.574z"/>
		</g>
	</g>
</g>
</svg>
