<?xml version="1.0" encoding="utf-8"?>
<!-- Generator: Adobe Illustrator 16.0.4, SVG Export Plug-In . SVG Version: 6.00 Build 0)  -->
<!DOCTYPE svg PUBLIC "-//W3C//DTD SVG 1.1//EN" "http://www.w3.org/Graphics/SVG/1.1/DTD/svg11.dtd">
<svg version="1.1" id="Capa_1" xmlns="http://www.w3.org/2000/svg" xmlns:xlink="http://www.w3.org/1999/xlink" x="0px" y="0px"
	 width="212px" height="576px" viewBox="705.726 29.645 212 576" enable-background="new 705.726 29.645 212 576"
	 xml:space="preserve">
<g>
	<g>
		<path fill="#FFFFFF" d="M813.153,268.239c-28.312,0-51.483-11.348-67.005-32.817c-14.112-19.522-21.572-46.528-21.572-78.1
			c0-31.574,7.46-58.581,21.572-78.103c15.521-21.47,38.689-32.817,67.005-32.817s51.488,11.348,67.008,32.817
			c14.114,19.521,21.574,46.528,21.574,78.103c0,31.571-7.46,58.578-21.574,78.1C864.64,256.891,841.469,268.239,813.153,268.239z
			 M813.153,49.06c-63.348,0-85.919,55.924-85.919,108.262c0,52.336,22.571,108.259,85.919,108.259
			c63.354,0,85.924-55.923,85.924-108.259C899.077,104.984,876.507,49.06,813.153,49.06z M813.153,225.671
			c-25.725,0-38.768-22.996-38.768-68.35c0-45.355,13.043-68.353,38.768-68.353s38.768,22.997,38.768,68.353
			C851.921,202.675,838.878,225.671,813.153,225.671z M813.153,91.627c-23.96,0-36.109,22.103-36.109,65.694
			c0,43.59,12.149,65.691,36.109,65.691s36.109-22.102,36.109-65.691C849.263,113.73,837.113,91.627,813.153,91.627z"/>
	</g>
	<g>
		<path fill="#FFFFFF" d="M807.718,563.552c-26.814,0-49.467-10.002-71.279-31.477c-5.482-5.471-3.253-8.616,0.833-13.294
			l16.635-18.133c5.126-5.491,8.7-5.626,13.386-0.954c12.978,12.35,22.802,18.632,40.426,18.632
			c29.593,0,33.388-13.488,33.388-25.24c0-9.415-7.64-20.412-29.164-20.412H782.66c-7.089,0-9.481-2.389-9.481-9.466v-22.958
			c0-7.087,2.393-9.479,9.481-9.479h25.058c20.832,0,28.256-10.543,28.256-20.409c0-15.98-8.979-23.423-28.256-23.423
			c-18.102,0-24.951,6.478-36.465,18.891c-2.168,2.326-4.13,3.408-6.173,3.408c-2.258,0-4.425-1.286-7.244-4.302l-16.622-18.435
			c-4.101-4.693-6.328-7.837-0.856-13.301c19.739-19.44,37.891-31.483,67.36-31.483c31.968,0,79.523,17.076,79.523,64.121
			c0,18.306-8.954,34.829-24.645,45.624c15.005,8.099,29.776,20.13,29.776,46.161C892.373,538.29,859.937,563.552,807.718,563.552z
			 M761.086,499.118c-1.464,0-3.076,1.028-5.23,3.335l-16.604,18.101c-4.187,4.792-4.639,5.944-0.942,9.633
			c21.278,20.948,43.336,30.708,69.408,30.708c51.344,0,81.998-23.652,81.998-63.271c0-25.543-14.458-36.59-30.078-44.722
			l-0.717-0.373v-1.826l0.61-0.394c15.921-10.255,25.053-26.465,25.053-44.472c0-45.094-45.968-61.463-76.866-61.463
			c-28.564,0-46.234,11.751-65.489,30.714c-3.662,3.657-3.172,4.906,0.974,9.647l16.591,18.403c4.146,4.434,6.053,4.593,9.516,0.883
			c11.688-12.605,19.238-19.74,38.409-19.74c20.801,0,30.914,8.53,30.914,26.081c0,11.15-8.122,23.067-30.914,23.067H782.66
			c-5.611,0-6.823,1.211-6.823,6.821v22.958c0,5.599,1.212,6.808,6.823,6.808h29.281c23.487,0,31.821,12.428,31.821,23.069
			c0,19.032-11.454,27.897-36.045,27.897c-18.418,0-29.067-6.813-42.279-19.386C763.733,499.899,762.357,499.118,761.086,499.118z"
			/>
	</g>
</g>
</svg>
