<?xml version="1.0" encoding="utf-8"?>
<!-- Generator: Adobe Illustrator 16.0.4, SVG Export Plug-In . SVG Version: 6.00 Build 0)  -->
<!DOCTYPE svg PUBLIC "-//W3C//DTD SVG 1.1//EN" "http://www.w3.org/Graphics/SVG/1.1/DTD/svg11.dtd">
<svg version="1.1" id="Capa_1" xmlns="http://www.w3.org/2000/svg" xmlns:xlink="http://www.w3.org/1999/xlink" x="0px" y="0px"
	 width="1044px" height="1064px" viewBox="-148.5 60.322 1044 1064" enable-background="new -148.5 60.322 1044 1064"
	 xml:space="preserve">
<g>
	<g>
		
			<image overflow="visible" width="831" height="623" xlink:href="2884033C6A6A2205.png"  transform="matrix(1 0 0 1 26.5 223.3223)">
		</image>
	</g>
	<g>
		
			<line fill="none" stroke="#FFFFFF" stroke-width="3.6009" stroke-miterlimit="10" x1="164.95" y1="1073.678" x2="291.514" y2="641.255"/>
		<path fill="none" stroke="#FFFFFF" stroke-width="3.6009" stroke-miterlimit="10" d="M291.514,641.255
			c0,0,253.101-131.355,474.899-23.142"/>
		<path fill="none" stroke="#FFFFFF" stroke-width="3.6009" stroke-miterlimit="10" d="M291.514,641.255
			c0,0,12.451-291.167-201.631-535.083"/>
		<path fill="none" stroke="#FFFFFF" stroke-width="1.8005" stroke-miterlimit="10" d="M288.638,639.592
			c0,0-238.235-150.803-410.588-91.684"/>
		<path fill="none" stroke="#FFFFFF" stroke-width="1.8005" stroke-miterlimit="10" d="M288.638,639.592
			c0,0-117.293-52.194-133.848-174.479"/>
		<path fill="none" stroke="#FFFFFF" stroke-width="1.8005" stroke-miterlimit="10" d="M288.638,639.592
			c0,0-192.063,159.403-360.607,114.469"/>
		<g>
			<path fill="#80067D" d="M503.991,607.006c2.043,3.414,0.929,7.852-2.489,9.898c-3.426,2.018-7.835,0.906-9.861-2.51
				c-2.053-3.415-0.927-7.844,2.487-9.864C497.548,602.48,501.956,603.596,503.991,607.006z"/>
			<path fill="#A0449E" d="M446.583,652.84c-0.285,3.911-3.693,6.869-7.606,6.577c-3.909-0.291-6.843-3.695-6.55-7.6
				c0.28-3.918,3.686-6.855,7.586-6.562C443.935,645.538,446.864,648.932,446.583,652.84z"/>
			<path fill="#C083BE" d="M380.789,662.457c-1.708,3.466-5.907,4.898-9.377,3.194c-3.464-1.712-4.891-5.902-3.184-9.363
				c1.709-3.474,5.896-4.9,9.357-3.197C381.063,654.801,382.488,658.985,380.789,662.457z"/>
			<path fill="#DFC1DF" d="M327.125,654.389c-2.336,3.005-6.676,3.539-9.681,1.202c-3.005-2.34-3.544-6.673-1.207-9.672
				c2.351-3.007,6.666-3.549,9.671-1.218C328.92,647.051,329.466,651.379,327.125,654.389z"/>
			<path fill="#FFFFFF" d="M304.722,647.784c-2.642,2.661-6.938,2.686-9.605,0.052c-2.676-2.63-2.701-6.937-0.07-9.602
				c2.651-2.666,6.927-2.702,9.604-0.078C307.323,640.806,307.352,645.098,304.722,647.784z"/>
		</g>
		<path fill="none" stroke="#FFFFFF" stroke-width="1.8005" stroke-miterlimit="10" d="M299.904,643.009
			c0,0,61.821,275.081,225.486,355.158"/>
		<path fill="none" stroke="#FFFFFF" stroke-width="1.8005" stroke-miterlimit="10" d="M299.904,643.009
			c0,0,46.033,119.836-28.744,218.01"/>
		<path fill="none" stroke="#FFFFFF" stroke-width="1.8005" stroke-miterlimit="10" d="M299.904,643.009
			c0,0,248.526,23.09,335.93,174.041"/>
		<path fill="none" stroke="#FFFFFF" stroke-width="1.8005" stroke-miterlimit="10" d="M299.904,643.009
			c0,0,132.993,54.414,197.917-32.311"/>
		<path fill="none" stroke="#FFFFFF" stroke-width="1.8005" stroke-miterlimit="10" d="M288.638,639.592
			c0,0-132.524,55.557-117.118,162.794"/>
		<path fill="none" stroke="#FFFFFF" stroke-width="1.8005" stroke-miterlimit="10" d="M291.514,641.265
			c0,0,61.062-169.661,272.253-294.324"/>
		<g>
			<path fill="#FFFFFF" d="M273.72,643.983c-1.507-9.829,5.236-19.012,15.066-20.53c9.83-1.497,19.021,5.247,20.528,15.077
				c1.507,9.828-5.236,19.021-15.073,20.527C284.411,660.557,275.228,653.813,273.72,643.983z"/>
			<path fill="#DBCDE4" d="M248.407,730.466c-1.508-9.828,5.235-19.012,15.066-20.527c9.83-1.5,19.019,5.244,20.526,15.074
				c1.508,9.828-5.235,19.021-15.069,20.527C259.098,747.041,249.915,740.296,248.407,730.466z"/>
			<path fill="#B79BCA" d="M223.095,816.948c-1.508-9.828,5.235-19.011,15.065-20.524c9.83-1.502,19.019,5.241,20.524,15.072
				c1.508,9.827-5.235,19.02-15.065,20.527C233.786,833.525,224.602,826.778,223.095,816.948z"/>
			<path fill="#926AAF" d="M197.782,903.432c-1.508-9.828,5.235-19.012,15.066-20.523c9.83-1.504,19.016,5.24,20.522,15.07
				c1.508,9.827-5.235,19.02-15.062,20.527C208.474,920.01,199.29,913.261,197.782,903.432z"/>
			<path fill="#6E3895" d="M172.47,989.914c-1.508-9.828,5.235-19.011,15.065-20.521c9.83-1.507,19.015,5.237,20.521,15.067
				c1.507,9.827-5.236,19.021-15.06,20.527C183.161,1006.494,173.977,999.743,172.47,989.914z"/>
			<path fill="#4A067A" d="M147.157,1076.396c-1.508-9.827,5.236-19.011,15.066-20.519s19.014,5.235,20.519,15.066
				c1.507,9.826-5.236,19.02-15.056,20.527C157.849,1092.979,148.664,1086.226,147.157,1076.396z"/>
		</g>
		<g>
			<path fill="#4A067A" d="M718.359,625.476c-4.062-26.532,14.142-51.339,40.691-55.418c26.54-4.059,51.348,14.152,55.418,40.692
				c4.061,26.541-14.142,51.34-40.684,55.418C747.234,670.229,722.428,652.016,718.359,625.476z"/>
			<path fill="#8659A6" d="M506.745,581.835c-3.211-20.965,11.172-40.563,32.148-43.789c20.971-3.204,40.572,11.185,43.789,32.154
				c3.209,20.97-11.174,40.567-32.146,43.789C529.559,617.195,509.96,602.806,506.745,581.835z"/>
			<path fill="#C3ACD3" d="M337.464,615.48c-2.359-15.396,8.203-29.788,23.607-32.16c15.399-2.351,29.796,8.216,32.159,23.615
				c2.358,15.399-8.205,29.795-23.611,32.158C354.216,641.447,339.825,630.88,337.464,615.48z"/>
			<path fill="#FFFFFF" d="M273.72,643.983c-1.507-9.829,5.236-19.012,15.066-20.53c9.83-1.497,19.021,5.247,20.528,15.077
				c1.507,9.828-5.236,19.021-15.073,20.527C284.411,660.557,275.228,653.813,273.72,643.983z"/>
		</g>
		<g>
			<path fill="#4A067A" d="M61.398,110.53c-2.404-15.729,8.393-30.429,24.12-32.85c15.738-2.407,30.436,8.39,32.84,24.117
				c2.423,15.736-8.382,30.436-24.101,32.85C78.522,137.061,63.815,126.264,61.398,110.53z"/>
			<path fill="#6E3895" d="M166.714,259.522c-2.225-14.549,7.762-28.146,22.309-30.386c14.557-2.225,28.153,7.762,30.378,22.309
				c2.239,14.555-7.753,28.153-22.295,30.386C182.552,284.062,168.95,274.075,166.714,259.522z"/>
			<path fill="#926AAF" d="M229.132,403.604c-2.045-13.369,7.13-25.862,20.499-27.922c13.375-2.043,25.869,7.133,27.915,20.501
				c2.057,13.373-7.123,25.87-20.489,27.921C243.683,426.151,231.186,416.976,229.132,403.604z"/>
			<path fill="#B79BCA" d="M260.124,526.536c-1.866-12.188,6.499-23.578,18.688-25.458c12.193-1.86,23.587,6.505,25.453,18.693
				c1.874,12.191-6.494,23.587-18.684,25.456C273.389,547.093,261.996,538.728,260.124,526.536z"/>
			<path fill="#DBCDE4" d="M271.162,612.077c-1.687-11.009,5.867-21.295,16.876-22.994c11.011-1.679,21.303,5.875,22.991,16.884
				c1.69,11.01-5.865,21.304-16.878,22.992C283.14,630.642,272.852,623.088,271.162,612.077z"/>
			<path fill="#FFFFFF" d="M273.72,643.983c-1.507-9.829,5.236-19.012,15.066-20.53c9.83-1.497,19.021,5.247,20.528,15.077
				c1.507,9.828-5.236,19.021-15.073,20.527C284.411,660.557,275.228,653.813,273.72,643.983z"/>
		</g>
		<g>
			<path fill="#80067D" d="M165.195,459.172c3.287,5.75,1.282,13.069-4.465,16.337c-5.74,3.284-13.05,1.281-16.334-4.462
				c-3.292-5.733-1.279-13.059,4.453-16.336C154.602,451.432,161.91,453.428,165.195,459.172z"/>
			<path fill="#A0449E" d="M189.102,535.424c4.724,3.542,5.672,10.243,2.13,14.953c-3.539,4.716-10.231,5.671-14.951,2.13
				c-4.723-3.531-5.668-10.236-2.138-14.948C177.69,532.841,184.377,531.887,189.102,535.424z"/>
			<path fill="#C083BE" d="M231.151,589.402c4.873,1.776,7.372,7.172,5.597,12.035c-1.78,4.862-7.166,7.374-12.034,5.595
				c-4.87-1.773-7.37-7.167-5.599-12.028C220.897,590.134,226.276,587.631,231.151,589.402z"/>
			<path fill="#DFC1DF" d="M271.357,621.554c4.412,0.709,7.404,4.869,6.701,9.273c-0.718,4.402-4.865,7.414-9.274,6.698
				c-4.411-0.712-7.404-4.864-6.699-9.267C262.798,623.848,266.939,620.853,271.357,621.554z"/>
			<path fill="#FFFFFF" d="M288.896,632.819c3.748,0.13,6.674,3.285,6.556,7.025c-0.144,3.74-3.279,6.692-7.028,6.554
				c-3.751-0.138-6.676-3.279-6.549-7.021C282.006,635.628,285.139,632.701,288.896,632.819z"/>
		</g>
		<g>
			<path fill="#80067D" d="M167.824,796.201c3.407-2.042,7.843-0.923,9.874,2.48c2.038,3.428,0.923,7.835-2.502,9.89
				c-3.402,2.022-7.832,0.906-9.853-2.508C163.293,802.659,164.41,798.242,167.824,796.201z"/>
			<path fill="#A0449E" d="M183.833,724.628c3.903,0.28,6.853,3.686,6.567,7.592c-0.292,3.914-3.684,6.853-7.608,6.567
				c-3.891-0.282-6.83-3.693-6.545-7.594C176.531,727.282,179.919,724.344,183.833,724.628z"/>
			<path fill="#C083BE" d="M227.389,674.495c3.46,1.699,4.899,5.896,3.192,9.367c-1.71,3.465-5.896,4.897-9.374,3.189
				c-3.452-1.696-4.886-5.9-3.183-9.358C219.727,674.22,223.915,672.788,227.389,674.495z"/>
			<path fill="#DFC1DF" d="M272.408,644.506c2.996,2.334,3.548,6.666,1.201,9.681c-2.339,2.996-6.665,3.545-9.676,1.202
				c-2.992-2.327-3.538-6.67-1.206-9.668C265.071,642.709,269.397,642.163,272.408,644.506z"/>
			<path fill="#FFFFFF" d="M293.411,634.758c2.657,2.63,2.701,6.927,0.052,9.613c-2.63,2.657-6.918,2.686-9.601,0.059
				c-2.65-2.631-2.695-6.936-0.07-9.601C286.439,632.153,290.735,632.115,293.411,634.758z"/>
		</g>
		<g>
			<path fill="#95084B" d="M-121.86,543.362c2.479,0.061,4.451,2.116,4.402,4.607c-0.045,2.483-2.12,4.455-4.593,4.403
				c-2.5-0.051-4.456-2.109-4.418-4.604C-126.408,545.279-124.344,543.318-121.86,543.362z"/>
			<path fill="#B04678" d="M17.247,532.759c2.491,1.281,3.462,4.349,2.175,6.845c-1.277,2.491-4.348,3.463-6.832,2.183
				c-2.499-1.288-3.475-4.346-2.189-6.844C11.686,532.448,14.756,531.478,17.247,532.759z"/>
			<path fill="#CA84A5" d="M151.666,567.29c2.373,2.03,2.633,5.602,0.595,7.972c-2.024,2.365-5.595,2.633-7.958,0.603
				c-2.369-2.034-2.642-5.596-0.607-7.966C145.731,565.527,149.296,565.262,151.666,567.29z"/>
			<path fill="#E5C1D2" d="M253.359,612.799c2.312,2.554,2.09,6.492-0.472,8.793c-2.545,2.297-6.479,2.09-8.777-0.462
				c-2.298-2.552-2.091-6.478,0.459-8.782C247.131,610.05,251.053,610.252,253.359,612.799z"/>
			<path fill="#FFFFFF" d="M294.047,635.47c2.294,2.987,1.721,7.25-1.267,9.532c-2.969,2.282-7.23,1.724-9.515-1.256
				c-2.279-2.973-1.721-7.229,1.252-9.515C287.504,631.947,291.746,632.505,294.047,635.47z"/>
		</g>
		<g>
			<path fill="#95084B" d="M-87.84,743.764c5.683-8.77,17.38-11.259,26.155-5.568c8.75,5.683,11.239,17.391,5.56,26.152
				c-5.681,8.756-17.393,11.256-26.14,5.559C-91.039,764.224-93.522,752.521-87.84,743.764z"/>
			<path fill="#B04678" d="M39.692,753.367c0.969-8.724,8.813-14.992,17.545-14.02c8.708,0.976,14.979,8.829,14.014,17.545
				c-0.97,8.713-8.827,14.995-17.538,14.009C44.991,769.935,38.72,762.08,39.692,753.367z"/>
			<path fill="#CA84A5" d="M158.818,715.53c-1.03-7.03,3.824-13.543,10.863-14.57c7.017-1.024,13.533,3.838,14.568,10.86
				c1.03,7.021-3.836,13.55-10.858,14.566C166.366,727.415,159.842,722.55,158.818,715.53z"/>
			<path fill="#E5C1D2" d="M246.577,666.594c-1.55-5.208,1.406-10.663,6.623-12.211c5.196-1.547,10.654,1.416,12.209,6.616
				c1.552,5.199-1.417,10.67-6.616,12.213C253.595,674.756,248.122,671.79,246.577,666.594z"/>
			<path fill="#FFFFFF" d="M282.32,642.096c-1.387-3.495,0.312-7.431,3.817-8.817c3.485-1.386,7.422,0.321,8.818,3.809
				c1.393,3.487-0.324,7.439-3.811,8.825C287.661,647.289,283.702,645.581,282.32,642.096z"/>
		</g>
		<g>
			<path fill="#4A067A" d="M277.084,871.388c-5.747,3.267-13.052,1.272-16.337-4.479c-3.274-5.733-1.271-13.052,4.47-16.328
				c5.734-3.293,13.042-1.28,16.339,4.461C284.815,860.792,282.837,868.094,277.084,871.388z"/>
			<path fill="#77449B" d="M315.733,791.938c-3.551,4.712-10.235,5.658-14.959,2.117c-4.709-3.538-5.662-10.235-2.122-14.949
				c3.533-4.722,10.228-5.677,14.951-2.131C318.316,780.515,319.273,787.207,315.733,791.938z"/>
			<path fill="#A583BD" d="M322.385,718.416c-1.779,4.874-7.169,7.361-12.042,5.588c-4.861-1.779-7.367-7.168-5.589-12.032
				c1.773-4.868,7.149-7.366,12.027-5.595C321.643,708.159,324.164,713.541,322.385,718.416z"/>
			<path fill="#D2C1DE" d="M313.913,664.563c-0.709,4.421-4.87,7.397-9.281,6.696c-4.405-0.717-7.407-4.864-6.695-9.271
				c0.712-4.408,4.844-7.402,9.261-6.697C311.604,656.001,314.622,660.15,313.913,664.563z"/>
			<path fill="#FFFFFF" d="M306.696,643.258c-0.14,3.764-3.287,6.671-7.034,6.554c-3.747-0.141-6.682-3.279-6.551-7.024
				c0.14-3.747,3.257-6.675,7.012-6.546C303.869,636.362,306.81,639.51,306.696,643.258z"/>
		</g>
		<g>
			<path fill="#4A067A" d="M529.914,998.255c-0.06,2.494-2.115,4.457-4.615,4.409c-2.478-0.052-4.461-2.107-4.401-4.588
				c0.062-2.488,2.117-4.45,4.61-4.404C527.992,993.725,529.951,995.781,529.914,998.255z"/>
			<path fill="#77449B" d="M425.639,911.211c-1.283,2.495-4.349,3.465-6.85,2.179c-2.486-1.283-3.469-4.344-2.184-6.828
				c1.294-2.49,4.35-3.464,6.845-2.178C425.94,905.666,426.919,908.725,425.639,911.211z"/>
			<path fill="#A583BD" d="M355.564,794.229c-2.032,2.36-5.598,2.632-7.968,0.598c-2.364-2.032-2.636-5.594-0.606-7.955
				c2.04-2.365,5.603-2.636,7.969-0.602C357.325,788.299,357.591,791.857,355.564,794.229z"/>
			<path fill="#D2C1DE" d="M316.28,691.85c-2.547,2.289-6.487,2.087-8.783-0.468c-2.298-2.557-2.09-6.48,0.459-8.777
				c2.559-2.296,6.494-2.094,8.786,0.464C319.043,685.615,318.835,689.543,316.28,691.85z"/>
			<path fill="#FFFFFF" d="M304.028,648.382c-2.964,2.271-7.241,1.715-9.515-1.261c-2.286-2.983-1.718-7.232,1.252-9.518
				c2.983-2.282,7.252-1.726,9.523,1.255C307.575,641.828,307.016,646.089,304.028,648.382z"/>
		</g>
		<g>
			<path fill="#80067D" d="M639.767,835.521c-10.211,2.178-20.249-4.322-22.43-14.54c-2.177-10.225,4.345-20.253,14.554-22.436
				c10.211-2.16,20.269,4.343,22.428,14.555C656.48,823.31,649.98,833.361,639.767,835.521z"/>
			<path fill="#A0449E" d="M556.379,738.572c-6.846,5.477-16.829,4.366-22.31-2.484c-5.48-6.856-4.354-16.842,2.489-22.318
				c6.854-5.466,16.853-4.361,22.315,2.487C564.34,723.112,563.237,733.105,556.379,738.572z"/>
			<path fill="#C083BE" d="M445.393,681.098c-4.235,5.689-12.281,6.862-17.978,2.623c-5.693-4.243-6.856-12.292-2.624-17.979
				c4.246-5.688,12.303-6.868,17.979-2.633C448.458,667.357,449.641,675.408,445.393,681.098z"/>
			<path fill="#DFC1DF" d="M348.736,653.651c-2.577,4.767-8.541,6.53-13.312,3.947c-4.77-2.582-6.529-8.546-3.952-13.31
				c2.587-4.772,8.555-6.54,13.308-3.968C349.551,642.916,351.327,648.878,348.736,653.651z"/>
			<path fill="#FFFFFF" d="M306.141,645.703c-1.481,3.44-5.488,5.014-8.933,3.527c-3.44-1.484-5.016-5.489-3.533-8.925
				c1.488-3.451,5.498-5.026,8.921-3.556C306.048,638.25,307.633,642.25,306.141,645.703z"/>
		</g>
		<g>
			<path fill="#4A067A" d="M536.064,351.192c-2.343-15.3,8.154-29.607,23.457-31.951s29.607,8.157,31.943,23.457
				c2.354,15.309-8.147,29.608-23.446,31.954C552.717,377.002,538.41,366.495,536.064,351.192z"/>
			<path fill="#8659A6" d="M375.797,482.255c-1.988-12.99,6.926-25.14,19.922-27.126c12.99-1.992,25.135,6.924,27.122,19.913
				c1.999,13-6.919,25.145-19.911,27.135C389.939,504.173,377.79,495.251,375.797,482.255z"/>
			<path fill="#C3ACD3" d="M295.821,595.621c-1.634-10.682,5.699-20.673,16.389-22.303c10.676-1.641,20.662,5.692,22.3,16.368
				c1.645,10.692-5.691,20.682-16.378,22.317C307.454,613.647,297.462,606.311,295.821,595.621z"/>
			<path fill="#FFFFFF" d="M276.341,643.582c-1.279-8.372,4.471-16.205,12.855-17.479c8.362-1.289,16.189,4.46,17.478,12.824
				c1.291,8.385-4.462,16.218-12.843,17.499C285.465,657.717,277.632,651.965,276.341,643.582z"/>
		</g>
	</g>
</g>
</svg>
