<?xml version="1.0" encoding="utf-8"?>
<!-- Generator: Adobe Illustrator 16.0.4, SVG Export Plug-In . SVG Version: 6.00 Build 0)  -->
<!DOCTYPE svg PUBLIC "-//W3C//DTD SVG 1.1//EN" "http://www.w3.org/Graphics/SVG/1.1/DTD/svg11.dtd">
<svg version="1.1" id="Capa_1" xmlns="http://www.w3.org/2000/svg" xmlns:xlink="http://www.w3.org/1999/xlink" x="0px" y="0px"
	 width="212px" height="576px" viewBox="705.726 29.645 212 576" enable-background="new 705.726 29.645 212 576"
	 xml:space="preserve">
<g>
	<g>
		<g>
			<path fill="#FFFFFF" d="M812.224,265.92c-28.015,0-50.941-11.229-66.3-32.473c-13.965-19.318-21.348-46.042-21.348-77.284
				c0-31.244,7.383-57.97,21.348-77.289c15.358-21.244,38.285-32.473,66.3-32.473c28.016,0,50.941,11.229,66.3,32.473
				c13.966,19.319,21.348,46.045,21.348,77.289c0,31.242-7.382,57.966-21.348,77.284C863.165,254.691,840.239,265.92,812.224,265.92
				z M812.224,49.008c-62.7,0-85.041,55.354-85.041,107.155c0,51.799,22.341,107.149,85.041,107.149s85.041-55.35,85.041-107.149
				C897.265,104.362,874.924,49.008,812.224,49.008z"/>
		</g>
		<g>
			<path fill="#FFFFFF" d="M812.224,223.797c-25.451,0-38.355-22.756-38.355-67.633c0-44.875,12.904-67.628,38.355-67.628
				s38.355,22.753,38.355,67.628C850.579,201.041,837.675,223.797,812.224,223.797z M812.224,91.142
				c-23.721,0-35.749,21.876-35.749,65.021c0,43.149,12.028,65.026,35.749,65.026s35.749-21.877,35.749-65.026
				C847.973,113.018,835.944,91.142,812.224,91.142z"/>
		</g>
	</g>
	<g>
		<g>
			<path fill="#FFFFFF" d="M816.994,558.171c-58.774,0-86.15-33.925-86.15-106.766c0-71.656,32.926-112.753,90.336-112.753
				c26.144,0,47.703,9.235,67.85,29.062c5.415,5.414,3.21,8.519-0.835,13.138l-17.347,18.85c-4.571,4.886-7.892,6.292-13.237,0.932
				c-10.354-10.352-21.172-17.248-40.313-17.248c-20.5,0-34.552,19.274-35.675,48.37c7.171-8.286,19.604-16.616,47.625-16.616
				c39.997,0,65.841,26.196,65.841,66.737C895.088,525.371,861.516,558.171,816.994,558.171z M821.18,341.259
				c-32.763,0-87.729,14.309-87.729,110.146c0,71.061,26.547,104.159,83.544,104.159c43.034,0,75.487-31.678,75.487-73.687
				c0-38.958-24.82-64.13-63.234-64.13c-30.297,0-41.543,9.938-47.956,18.595l-2.35,3.174v-3.95
				c0-32.77,15.414-54.788,38.355-54.788c17.147,0,29.362,5.218,42.159,18.013c1.83,1.834,3.228,2.688,4.398,2.688
				c1.47,0,3.032-1.358,5.082-3.55l17.318-18.818c4.088-4.671,4.576-5.908,0.938-9.547
				C867.574,350.255,846.596,341.259,821.18,341.259z"/>
		</g>
		<g>
			<path fill="#FFFFFF" d="M814.316,517.544c-19.548,0-32.685-13.014-32.685-32.381c0-18.888,13.441-32.078,32.685-32.078
				c18.321,0,32.671,14.09,32.671,32.078C846.987,504.229,833.552,517.544,814.316,517.544z M814.316,455.692
				c-17.708,0-30.077,12.119-30.077,29.471c0,18.087,11.807,29.774,30.077,29.774c17.982,0,30.064-11.966,30.064-29.774
				C844.381,468.637,831.174,455.692,814.316,455.692z"/>
		</g>
	</g>
</g>
</svg>
