<?xml version="1.0" encoding="utf-8"?>
<!-- Generator: Adobe Illustrator 16.0.4, SVG Export Plug-In . SVG Version: 6.00 Build 0)  -->
<!DOCTYPE svg PUBLIC "-//W3C//DTD SVG 1.1//EN" "http://www.w3.org/Graphics/SVG/1.1/DTD/svg11.dtd">
<svg version="1.1" id="Capa_1" xmlns="http://www.w3.org/2000/svg" xmlns:xlink="http://www.w3.org/1999/xlink" x="0px" y="0px"
	 width="758px" height="1183.645px" viewBox="25.726 0 758 1183.645" enable-background="new 25.726 0 758 1183.645"
	 xml:space="preserve">
<g>
	<g opacity="0.6">
		
			<image overflow="visible" width="458" height="1035" xlink:href="7D9FF88519596AC4.png"  transform="matrix(1 0 0 1 132.7256 54.645)">
		</image>
	</g>
	<g>
		<path fill="none" stroke="#FFFFFF" stroke-width="1.7112" stroke-miterlimit="10" d="M305.004,549.531
			c0,0,166.838,288.258,411.188,458.51"/>
		<path fill="none" stroke="#FFFFFF" stroke-width="1.7112" stroke-miterlimit="10" d="M305.004,549.531
			c0,0,128.644,254.383,147.053,472.284"/>
		
			<line fill="none" stroke="#FFFFFF" stroke-width="1.7112" stroke-miterlimit="10" x1="351.413" y1="254.025" x2="305.004" y2="549.531"/>
		<path fill="none" stroke="#FFFFFF" stroke-width="1.7112" stroke-miterlimit="10" d="M114.58,50.783
			c94.793,335.946,190.424,498.748,190.424,498.748"/>
		<g>
			<path fill="#FFFFFF" d="M301.158,540.014c-5.253,2.121-7.792,8.111-5.669,13.371c2.113,5.26,8.104,7.799,13.363,5.676
				c5.261-2.124,7.792-8.111,5.669-13.371C312.4,540.43,306.41,537.893,301.158,540.014z"/>
			<path fill="#FFDDD7" d="M292.844,524.44c-6.331,2.557-9.392,9.773-6.833,16.111c2.551,6.338,9.768,9.399,16.105,6.84
				c6.339-2.56,9.392-9.773,6.833-16.112C306.392,524.941,299.176,521.883,292.844,524.44z"/>
			<path fill="#FFBCAE" d="M271.275,481.453c-7.409,2.993-10.993,11.437-7.997,18.852c2.988,7.416,11.432,10.998,18.847,8.003
				c7.417-2.996,10.992-11.437,7.997-18.853C287.127,482.04,278.686,478.458,271.275,481.453z"/>
			<path fill="#FF9A86" d="M239.125,410.757c-8.487,3.428-12.592,13.099-9.161,21.592c3.427,8.494,13.097,12.597,21.589,9.167
				c8.495-3.431,12.593-13.099,9.162-21.593C257.284,411.429,247.616,407.327,239.125,410.757z"/>
			<path fill="#FE785D" d="M199.076,312.066c-9.565,3.863-14.193,14.761-10.325,24.332c3.864,9.571,14.761,14.196,24.331,10.33
				c9.573-3.866,14.193-14.761,10.326-24.334C219.541,312.823,208.647,308.199,199.076,312.066z"/>
			<path fill="#FE5735" d="M153.807,185.092c-10.644,4.3-15.792,16.425-11.489,27.073c4.302,10.649,16.426,15.795,27.073,11.494
				c10.651-4.303,15.793-16.424,11.49-27.075C176.577,185.935,164.458,180.789,153.807,185.092z"/>
			<path fill="#FE350C" d="M105.999,29.546C94.277,34.282,88.606,47.633,93.346,59.36c4.739,11.727,18.09,17.395,29.814,12.657
				c11.729-4.738,17.394-18.086,12.654-29.816C131.074,30.474,117.729,24.807,105.999,29.546z"/>
		</g>
		<g>
			<path fill="#FE350C" d="M711.881,997.339c-5.911,2.384-8.767,9.114-6.378,15.025c2.381,5.91,9.113,8.761,15.017,6.378
				c5.919-2.382,8.774-9.111,6.386-15.022S717.791,994.958,711.881,997.339z"/>
			<path fill="#FE4E2A" d="M624.116,928.904c-5.828,2.352-8.645,8.989-6.289,14.819c2.348,5.828,8.987,8.641,14.811,6.29
				c5.837-2.35,8.651-8.986,6.296-14.816S629.944,926.556,624.116,928.904z"/>
			<path fill="#FE6849" d="M544.665,854.166c-5.746,2.318-8.523,8.864-6.201,14.612c2.314,5.748,8.861,8.521,14.604,6.203
				c5.755-2.317,8.529-8.861,6.207-14.609C556.952,854.623,550.41,851.85,544.665,854.166z"/>
			<path fill="#FE8167" d="M474.573,777.888c-5.665,2.285-8.401,8.738-6.112,14.404c2.28,5.667,8.734,8.4,14.396,6.115
				c5.672-2.285,8.406-8.736,6.116-14.403C486.686,778.337,480.236,775.605,474.573,777.888z"/>
			<path fill="#FF9A86" d="M414.887,704.829c-5.582,2.253-8.279,8.613-6.023,14.198c2.247,5.585,8.608,8.28,14.19,6.027
				c5.59-2.253,8.283-8.611,6.027-14.196C426.826,705.272,420.468,702.579,414.887,704.829z"/>
			<path fill="#FFB3A4" d="M366.656,639.749c-5.5,2.221-8.158,8.488-5.935,13.992c2.213,5.504,8.482,8.16,13.983,5.939
				c5.508-2.221,8.16-8.486,5.938-13.99C378.421,640.186,372.155,637.532,366.656,639.749z"/>
			<path fill="#FFCDC2" d="M330.926,587.413c-5.417,2.187-8.036,8.361-5.846,13.784c2.18,5.423,8.356,8.04,13.777,5.852
				c5.425-2.188,8.038-8.361,5.848-13.783C342.516,587.842,336.343,585.228,330.926,587.413z"/>
			<path fill="#FFE6E1" d="M308.744,552.578c-5.335,2.154-7.914,8.236-5.758,13.578c2.147,5.341,8.23,7.919,13.57,5.764
				c5.343-2.156,7.915-8.237,5.758-13.578C320.16,553,314.078,550.424,308.744,552.578z"/>
			<path fill="#FFFFFF" d="M301.158,540.014c-5.253,2.121-7.792,8.111-5.669,13.371c2.113,5.26,8.104,7.799,13.363,5.676
				c5.261-2.124,7.792-8.111,5.669-13.371C312.4,540.43,306.41,537.893,301.158,540.014z"/>
		</g>
		<path fill="none" stroke="#FFFFFF" stroke-width="1.1819" stroke-miterlimit="10" d="M352.557,254.512
			c0,0-1.112-37.619,30.89-66.717c35.202-32.009,84.944-8.239,84.944-8.239"/>
		<path fill="none" stroke="#FFFFFF" stroke-width="1.1819" stroke-miterlimit="10" d="M352.557,254.512
			c0,0,37.249-59.719-10.538-124.366c-51.607-69.836-120.42-56.843-120.42-56.843"/>
		<path fill="none" stroke="#FFFFFF" stroke-width="1.1819" stroke-miterlimit="10" d="M352.557,254.512
			c0,0-32.663-37.481-75.458-35.835c-54.16,2.083-72.881,38.711-72.881,38.711"/>
		<path fill="none" stroke="#FFFFFF" stroke-width="1.1819" stroke-miterlimit="10" d="M352.557,254.512
			c0,0-12.569,65.331-1.894,127.985c10.688,62.659,74.433,66.63,74.433,66.63"/>
		<path fill="none" stroke="#FFFFFF" stroke-width="1.1819" stroke-miterlimit="10" d="M579.125,233.479
			c0,0-29.13,82.569-106.237,89.181c-77.106,6.608-120.331-68.148-120.331-68.148"/>
		<g>
			<path fill="#FFFFFF" d="M356.423,259.16c2.533-2.165,2.831-5.964,0.685-8.504c-2.161-2.528-5.968-2.833-8.496-0.683
				c-2.537,2.148-2.838,5.951-0.671,8.492C350.074,260.997,353.881,261.299,356.423,259.16z"/>
			<path fill="#FFE2DC" d="M368.587,274.732c3.024-3.115,2.929-8.093-0.179-11.114c-3.121-3.013-8.096-2.932-11.108,0.182
				c-3.024,3.104-2.94,8.081,0.188,11.104C360.584,277.921,365.566,277.844,368.587,274.732z"/>
			<path fill="#FFC5BA" d="M401.611,303.774c2.775-4.585,1.297-10.547-3.279-13.32c-4.586-2.769-10.541-1.295-13.316,3.282
				c-2.774,4.576-1.312,10.539,3.282,13.313C392.866,309.824,398.83,308.353,401.611,303.774z"/>
			<path fill="#FFA897" d="M453.771,322.458c0.787-6.333-3.722-12.096-10.044-12.878c-6.333-0.78-12.086,3.717-12.875,10.046
				c-0.788,6.323,3.701,12.096,10.042,12.877C447.214,333.289,452.98,328.79,453.771,322.458z"/>
			<path fill="#FE8C74" d="M515.56,309.88c-3.099-6.727-11.075-9.651-17.785-6.548c-6.725,3.107-9.641,11.061-6.543,17.787
				c3.096,6.716,11.055,9.663,17.784,6.552C515.729,324.572,518.662,316.607,515.56,309.88z"/>
			<path fill="#FE6F51" d="M557.06,272.991c-6.426-5.46-16.066-4.654-21.504,1.772c-5.455,6.434-4.649,16.044,1.778,21.503
				c6.418,5.451,16.052,4.676,21.509-1.762C564.286,288.078,563.494,278.446,557.06,272.991z"/>
			<path fill="#FE522F" d="M579.063,234.57c-8.49-4.17-18.755-0.637-22.894,7.85c-4.161,8.5-0.639,18.729,7.858,22.895
				c8.481,4.159,18.747,0.662,22.906-7.841C591.081,248.982,587.566,238.727,579.063,234.57z"/>
			<path fill="#FE350C" d="M597.143,239.355c3.228-9.971-2.227-20.68-12.21-23.917c-9.968-3.257-20.687,2.221-23.905,12.181
				c-3.246,9.98,2.202,20.688,12.189,23.907C583.165,254.801,593.9,249.334,597.143,239.355z"/>
		</g>
		<g>
			<path fill="#FE350C" d="M215.416,84.731c6.296,3.411,14.196,1.057,17.6-5.258c3.428-6.312,1.065-14.205-5.25-17.62
				c-6.321-3.41-14.198-1.049-17.631,5.261C206.733,73.422,209.088,81.318,215.416,84.731z"/>
			<path fill="#FE522F" d="M245.008,79.912c4.188-5.14,3.396-12.702-1.749-16.882c-5.149-4.175-12.701-3.383-16.892,1.755
				c-4.165,5.143-3.38,12.708,1.774,16.886C233.271,85.84,240.84,85.057,245.008,79.912z"/>
			<path fill="#FE6F51" d="M276.871,86.751c4.999-3.458,6.233-10.315,2.77-15.311c-3.466-4.991-10.319-6.224-15.32-2.767
				c-4.98,3.467-6.222,10.328-2.75,15.32C265.023,88.974,271.889,90.217,276.871,86.751z"/>
			<path fill="#FE8C74" d="M317.464,111.489c5.389-1.223,8.757-6.586,7.53-11.977c-1.229-5.386-6.593-8.755-11.983-7.532
				c-5.378,1.237-8.754,6.602-7.52,11.99C306.716,109.343,312.086,112.723,317.464,111.489z"/>
			<path fill="#FFA897" d="M353.688,161.551c4.862,1.052,9.65-2.038,10.703-6.905c1.05-4.86-2.042-9.655-6.906-10.706
				c-4.861-1.036-9.659,2.053-10.703,6.917C345.74,155.707,348.833,160.51,353.688,161.551z"/>
			<path fill="#FFC5BA" d="M361.365,209.998c3.472,2.74,8.503,2.149,11.25-1.328c2.742-3.468,2.151-8.511-1.324-11.251
				c-3.48-2.729-8.52-2.142-11.255,1.333C357.306,202.218,357.896,207.267,361.365,209.998z"/>
			<path fill="#FFE2DC" d="M353.275,244.322c2.164,3.214,6.512,4.071,9.736,1.908c3.216-2.154,4.079-6.519,1.912-9.732
				c-2.174-3.209-6.532-4.072-9.742-1.909C351.979,236.749,351.116,241.118,353.275,244.322z"/>
			<path fill="#FFFFFF" d="M347.028,256.913c1.34,3.044,4.877,4.433,7.935,3.098c3.045-1.325,4.447-4.883,3.103-7.928
				c-1.351-3.045-4.897-4.441-7.938-3.105C347.094,250.318,345.694,253.878,347.028,256.913z"/>
		</g>
		<g>
			<path fill="#FE350C" d="M419.333,450.988c1.03,3.203,4.453,4.962,7.644,3.918c3.183-1.026,4.921-4.451,3.892-7.653
				c-1.028-3.178-4.466-4.924-7.641-3.893C420.029,444.388,418.291,447.811,419.333,450.988z"/>
			<path fill="#FE522F" d="M415.946,445.845c-0.234-3.318-3.134-5.826-6.449-5.593c-3.333,0.229-5.824,3.118-5.588,6.437
				c0.237,3.336,3.114,5.849,6.443,5.612C413.673,452.064,416.174,449.18,415.946,445.845z"/>
			<path fill="#FE6F51" d="M384.401,433.103c1.158-3.109-0.431-6.579-3.535-7.74c-3.114-1.168-6.574,0.418-7.727,3.524
				c-1.17,3.118,0.408,6.588,3.52,7.749C379.771,437.796,383.231,436.215,384.401,433.103z"/>
			<path fill="#FE8C74" d="M356.325,398.305c2.809-1.756,3.667-5.464,1.92-8.273c-1.75-2.816-5.45-3.669-8.254-1.918
				c-2.82,1.751-3.686,5.456-1.934,8.266C349.811,399.191,353.509,400.05,356.325,398.305z"/>
			<path fill="#FFA897" d="M348.262,348.705c3.192-0.884,5.061-4.198,4.184-7.386c-0.88-3.192-4.185-5.055-7.367-4.173
				c-3.193,0.879-5.072,4.185-4.19,7.37C341.773,347.709,345.079,349.587,348.262,348.705z"/>
			<path fill="#FFC5BA" d="M348.1,304.687c3.288-0.421,5.611-3.433,5.198-6.718c-0.416-3.283-3.421-5.6-6.698-5.185
				c-3.285,0.415-5.617,3.421-5.199,6.698C341.82,302.771,344.826,305.105,348.1,304.687z"/>
			<path fill="#FFE2DC" d="M350.711,272.808c3.323-0.063,5.963-2.81,5.911-6.128c-0.059-3.312-2.799-5.945-6.107-5.891
				c-3.313,0.056-5.963,2.797-5.903,6.103C344.671,270.217,347.412,272.871,350.711,272.808z"/>
			<path fill="#FFFFFF" d="M352.133,260.525c3.328,0.214,6.208-2.281,6.448-5.604c0.233-3.312-2.273-6.184-5.583-6.424
				c-3.312-0.236-6.212,2.27-6.434,5.575C346.32,257.401,348.837,260.285,352.133,260.525z"/>
		</g>
		<g>
			<path fill="#FE350C" d="M212.602,261.667c2.364-4.651,0.514-10.348-4.146-12.712c-4.647-2.37-10.337-0.527-12.709,4.149
				c-2.376,4.637-0.524,10.337,4.142,12.706C204.529,268.183,210.226,266.32,212.602,261.667z"/>
			<path fill="#FE522F" d="M202.701,244.192c-3.261,3.555-3.008,9.092,0.573,12.353c3.557,3.256,9.094,2.997,12.356-0.575
				c3.25-3.563,2.999-9.099-0.574-12.354C211.492,240.362,205.963,240.609,202.701,244.192z"/>
			<path fill="#FE6F51" d="M222.074,227.545c-4.004,1.975-5.637,6.83-3.643,10.839c1.977,3.995,6.833,5.628,10.841,3.638
				c3.992-1.979,5.627-6.835,3.64-10.837C230.931,227.19,226.082,225.552,222.074,227.545z"/>
			<path fill="#FE8C74" d="M256.074,213.99c-4.137-0.034-7.508,3.297-7.53,7.445c-0.029,4.125,3.302,7.501,7.447,7.52
				c4.122,0.031,7.496-3.302,7.524-7.44C263.542,217.389,260.213,214.014,256.074,213.99z"/>
			<path fill="#FFA897" d="M298.393,214.205c-3.29-2.006-7.568-0.959-9.568,2.34c-1.993,3.277-0.948,7.553,2.348,9.555
				c3.274,1.989,7.552,0.95,9.554-2.337C302.721,220.487,301.677,216.204,298.393,214.205z"/>
			<path fill="#FFC5BA" d="M330.322,228.617c-1.934-3.058-5.962-3.962-9.019-2.022c-3.04,1.923-3.944,5.95-2.009,9.005
				c1.922,3.036,5.944,3.949,9.001,2.022C331.336,235.702,332.242,231.666,330.322,228.617z"/>
			<path fill="#FFE2DC" d="M351.195,245.736c-0.776-3.357-4.116-5.428-7.472-4.642c-3.33,0.775-5.403,4.106-4.623,7.457
				c0.776,3.33,4.097,5.41,7.45,4.639C349.882,252.418,351.967,249.073,351.195,245.736z"/>
			<path fill="#FFFFFF" d="M358.659,254.792c0.132-3.342-2.44-6.144-5.782-6.278c-3.312-0.14-6.142,2.436-6.254,5.766
				c-0.166,3.315,2.418,6.12,5.756,6.271C355.691,260.697,358.499,258.109,358.659,254.792z"/>
		</g>
		<g>
			<path fill="#FE350C" d="M472.188,185.565c3.305-2.091,4.308-6.477,2.205-9.772c-2.083-3.327-6.457-4.322-9.777-2.229
				c-3.312,2.089-4.303,6.461-2.205,9.766C464.485,186.666,468.868,187.659,472.188,185.565z"/>
			<path fill="#FE6849" d="M447.502,177.199c2.738-2.408,3.018-6.573,0.616-9.312c-2.408-2.747-6.569-3.036-9.315-0.63
				s-3.013,6.563-0.616,9.307C440.594,179.318,444.76,179.603,447.502,177.199z"/>
			<path fill="#FF9A86" d="M398.315,182.79c0.956-3.318-0.932-6.786-4.246-7.75c-3.314-0.967-6.788,0.926-7.752,4.237
				c-0.963,3.321,0.936,6.787,4.245,7.748C393.881,188.001,397.354,186.095,398.315,182.79z"/>
			<path fill="#FFCDC2" d="M363.086,226.734c-0.799-3.25-4.059-5.248-7.314-4.459c-3.243,0.791-5.247,4.061-4.459,7.3
				c0.8,3.255,4.071,5.247,7.314,4.458C361.877,233.244,363.879,229.962,363.086,226.734z"/>
			<path fill="#FFFFFF" d="M354.984,260.025c3.04-1.351,4.414-4.919,3.081-7.941c-1.37-3.041-4.903-4.431-7.967-3.082
				c-3.031,1.347-4.421,4.911-3.081,7.944C348.381,259.995,351.94,261.369,354.984,260.025z"/>
		</g>
		<g>
			<path fill="#FFFFFF" d="M301.158,540.014c-5.253,2.121-7.792,8.111-5.669,13.371c2.113,5.26,8.104,7.799,13.363,5.676
				c5.261-2.124,7.792-8.111,5.669-13.371C312.4,540.43,306.41,537.893,301.158,540.014z"/>
			<path fill="#FFCDC2" d="M312.068,464.428c-6.193,2.502-9.19,9.566-6.686,15.767c2.497,6.202,9.561,9.198,15.762,6.693
				c6.202-2.504,9.192-9.565,6.689-15.769C325.328,464.919,318.268,461.926,312.068,464.428z"/>
			<path fill="#FF9A86" d="M322.978,388.842c-7.133,2.884-10.588,11.021-7.704,18.162c2.88,7.144,11.018,10.598,18.162,7.71
				c7.143-2.884,10.592-11.018,7.71-18.165C338.257,389.409,330.125,385.959,322.978,388.842z"/>
			<path fill="#FE6849" d="M333.888,313.256c-8.073,3.266-11.985,12.477-8.721,20.558c3.264,8.085,12.475,11.998,20.561,8.728
				c8.083-3.264,11.992-12.472,8.731-20.562C351.186,313.898,341.983,309.993,333.888,313.256z"/>
			<path fill="#FE350C" d="M344.798,237.67c-9.014,3.647-13.384,13.932-9.739,22.954c3.647,9.027,13.933,13.396,22.96,9.744
				c9.024-3.645,13.392-13.925,9.752-22.959C364.113,238.387,353.841,234.026,344.798,237.67z"/>
		</g>
		<path fill="none" stroke="#FFFFFF" stroke-width="1.1819" stroke-miterlimit="10" d="M308.506,562.718
			c0,0-31.298,182.426-135.912,240.401"/>
		<path fill="none" stroke="#FFFFFF" stroke-width="1.1819" stroke-miterlimit="10" d="M308.506,562.718
			c0,0-26.147,80.108,26.157,141.976"/>
		<path fill="none" stroke="#FFFFFF" stroke-width="1.1819" stroke-miterlimit="10" d="M308.506,562.718
			c0,0-162.154,23.475-214.385,125.377"/>
		<path fill="none" stroke="#FFFFFF" stroke-width="1.1819" stroke-miterlimit="10" d="M308.506,562.718
			c0,0-85.358,40.138-130.836-14.542"/>
		<g>
			<path fill="#FE350C" d="M333.637,712.462c4.313,0.562,8.242-2.483,8.801-6.804c0.564-4.3-2.478-8.246-6.774-8.803
				c-4.315-0.549-8.236,2.483-8.815,6.795C326.292,707.958,329.337,711.888,333.637,712.462z"/>
			<path fill="#FE6849" d="M305.088,662.502c3.377,1.889,7.629,0.667,9.517-2.713c1.887-3.369,0.68-7.637-2.693-9.513
				c-3.381-1.88-7.632-0.667-9.526,2.706C300.505,656.353,301.72,660.611,305.088,662.502z"/>
			<path fill="#FF9A86" d="M297.708,614.913c2.441,2.356,6.322,2.268,8.676-0.172c2.357-2.438,2.291-6.326-0.154-8.673
				c-2.448-2.35-6.333-2.274-8.686,0.167C295.197,608.667,295.27,612.556,297.708,614.913z"/>
			<path fill="#FFCDC2" d="M301.068,579.441c1.792,2.308,5.115,2.706,7.417,0.919c2.313-1.792,2.736-5.114,0.935-7.419
				c-1.801-2.304-5.126-2.716-7.429-0.922C299.699,573.806,299.272,577.13,301.068,579.441z"/>
			<path fill="#FFFFFF" d="M304.847,565.234c1.389,2.03,4.168,2.528,6.188,1.146c2.04-1.393,2.545-4.151,1.161-6.196
				c-1.419-2.017-4.188-2.554-6.204-1.146C303.975,560.416,303.444,563.199,304.847,565.234z"/>
		</g>
		<g>
			<path fill="#FE350C" d="M173.023,547.329c-0.508,2.552,1.148,5.038,3.711,5.559c2.564,0.505,5.061-1.155,5.555-3.724
				c0.511-2.552-1.132-5.065-3.703-5.561C176.017,543.097,173.526,544.75,173.023,547.329z"/>
			<path fill="#FE6849" d="M219.228,577.806c2.343-1.059,3.376-3.825,2.311-6.17c-1.061-2.335-3.811-3.396-6.16-2.323
				c-2.341,1.069-3.383,3.817-2.314,6.171C214.125,577.821,216.881,578.867,219.228,577.806z"/>
			<path fill="#FF9A86" d="M263.522,579.106c1.722-1.853,1.615-4.755-0.24-6.486c-1.848-1.724-4.75-1.638-6.483,0.23
				c-1.72,1.854-1.626,4.748,0.235,6.482C258.887,581.059,261.79,580.955,263.522,579.106z"/>
			<path fill="#FFCDC2" d="M298.385,570.441c1.265-2.143,0.548-4.914-1.599-6.191c-2.139-1.273-4.913-0.57-6.19,1.594
				c-1.262,2.139-0.561,4.904,1.591,6.181C294.337,573.301,297.11,572.584,298.385,570.441z"/>
			<path fill="#FFFFFF" d="M312.642,564.467c0.963-2.25-0.084-4.88-2.346-5.844c-2.243-0.99-4.875,0.065-5.843,2.348
				c-0.969,2.238,0.068,4.867,2.335,5.828C309.043,567.791,311.671,566.721,312.642,564.467z"/>
		</g>
		<g>
			<path fill="#FE350C" d="M184.846,814.857c6.49-6.771,6.229-17.512-0.529-23.983c-6.776-6.47-17.498-6.236-23.968,0.509
				c-6.477,6.772-6.256,17.502,0.521,23.97C167.631,821.847,178.362,821.586,184.846,814.857z"/>
			<path fill="#FE6849" d="M251.129,744.583c1.93-7.276-2.422-14.723-9.684-16.646c-7.28-1.922-14.727,2.411-16.653,9.663
				c-1.924,7.277,2.403,14.732,9.675,16.647C241.74,756.187,249.183,751.836,251.129,744.583z"/>
			<path fill="#FF9A86" d="M290.105,660.594c-0.322-5.696-5.209-10.044-10.9-9.722c-5.71,0.319-10.063,5.204-9.746,10.888
				c0.323,5.706,5.205,10.063,10.899,9.736C286.062,671.182,290.407,666.291,290.105,660.594z"/>
			<path fill="#FFCDC2" d="M308.762,589.73c-1.316-3.732-5.429-5.677-9.161-4.351c-3.756,1.318-5.709,5.432-4.387,9.161
				c1.326,3.748,5.44,5.701,9.171,4.375C308.126,597.593,310.083,593.476,308.762,589.73z"/>
			<path fill="#FFFFFF" d="M311.676,565.888c1.735-1.745,1.722-4.572-0.015-6.329c-1.745-1.718-4.557-1.705-6.288,0.04
				c-1.759,1.732-1.749,4.57-0.004,6.298C307.113,567.643,309.95,567.628,311.676,565.888z"/>
		</g>
		<g>
			<path fill="#FE350C" d="M88.759,676.898c-6.183,2.956-8.787,10.362-5.839,16.546c2.964,6.185,10.37,8.801,16.559,5.835
				c6.169-2.942,8.797-10.354,5.842-16.549C102.365,676.559,94.956,673.943,88.759,676.898z"/>
			<path fill="#FE6849" d="M150.208,615.163c-5.712-0.311-10.594,4.077-10.903,9.79c-0.308,5.722,4.076,10.606,9.8,10.91
				c5.701,0.314,10.596-4.066,10.907-9.793C160.319,620.362,155.935,615.48,150.208,615.163z"/>
			<path fill="#FF9A86" d="M223.862,579.392c-4.297-1.636-9.122,0.533-10.751,4.837c-1.641,4.312,0.528,9.131,4.842,10.763
				c4.295,1.635,9.118-0.524,10.756-4.843C230.343,585.85,228.174,581.038,223.862,579.392z"/>
			<path fill="#FFCDC2" d="M285.91,562.704c-2.896-1.96-6.855-1.186-8.811,1.72c-1.965,2.918-1.197,6.868,1.719,8.826
				c2.903,1.96,6.855,1.197,8.817-1.728C289.598,568.619,288.823,564.676,285.91,562.704z"/>
			<path fill="#FFFFFF" d="M311.484,566.04c1.842-1.628,1.998-4.438,0.362-6.288c-1.618-1.835-4.461-2.004-6.281-0.363
				c-1.854,1.638-2.01,4.463-0.37,6.299C306.828,567.525,309.646,567.694,311.484,566.04z"/>
		</g>
		<path fill="none" stroke="#FFFFFF" stroke-width="0.8556" stroke-miterlimit="10" d="M451.577,1021.57
			c0,0,25.521,25.374,56.34,21.987c38.992-4.295,50.63-31.701,50.63-31.701"/>
		<path fill="none" stroke="#FFFFFF" stroke-width="0.8556" stroke-miterlimit="10" d="M451.577,1021.57
			c0,0,2.746,27.104-18.866,49.758c-23.773,24.933-60.916,10.323-60.916,10.323"/>
		<path fill="none" stroke="#FFFFFF" stroke-width="0.8556" stroke-miterlimit="10" d="M451.577,1021.57
			c0,0-23.827,45.031,14.014,89.259c40.879,47.767,89.891,34.84,89.891,34.84"/>
		<path fill="none" stroke="#FFFFFF" stroke-width="0.8556" stroke-miterlimit="10" d="M451.577,1021.57
			c0,0,5.714-47.82-5.222-92.517"/>
		<path fill="none" stroke="#FFFFFF" stroke-width="0.8556" stroke-miterlimit="10" d="M289.068,1048.427
			c0,0,16.778-61.112,72.12-69.874c55.331-8.736,90.389,43.017,90.389,43.017"/>
		<g>
			<path fill="#FE350C" d="M565.217,1015.254c1.026-3.643-1.097-7.432-4.734-8.463c-3.653-1.008-7.423,1.115-8.442,4.775
				c-1.014,3.632,1.105,7.405,4.751,8.43C560.421,1021.012,564.212,1018.874,565.217,1015.254z"/>
			<path fill="#FE522F" d="M549.83,1015.567c-1.796,2.988-0.834,6.874,2.162,8.683c2.989,1.799,6.894,0.826,8.686-2.155
				c1.808-2.997,0.852-6.905-2.147-8.71C555.528,1011.577,551.637,1012.555,549.83,1015.567z"/>
			<path fill="#FE6F51" d="M540.214,1025.753c-2.549,1.973-3.022,5.642-1.049,8.203c1.977,2.551,5.664,3.023,8.209,1.056
				c2.56-1.978,3.044-5.664,1.064-8.226S542.775,1023.765,540.214,1025.753z"/>
			<path fill="#FE8C74" d="M521.229,1035.603c-2.928,0.569-4.854,3.404-4.287,6.341c0.567,2.935,3.42,4.862,6.35,4.299
				c2.938-0.57,4.869-3.412,4.302-6.358C527.027,1036.944,524.172,1035.029,521.229,1035.603z"/>
			<path fill="#FFA897" d="M496.006,1038.318c-2.605-0.946-5.5,0.39-6.452,3.001s0.396,5.521,3.008,6.472
				c2.612,0.952,5.509-0.394,6.468-3.018C499.983,1042.159,498.622,1039.266,496.006,1038.318z"/>
			<path fill="#FFC5BA" d="M475.656,1032.049c-1.792-1.884-4.783-1.976-6.673-0.182c-1.891,1.795-1.976,4.806-0.178,6.699
				c1.793,1.89,4.781,1.965,6.689,0.163C477.385,1036.931,477.452,1033.937,475.656,1032.049z"/>
			<path fill="#FFE2DC" d="M461.194,1023.188c-1.016-2.255-3.673-3.282-5.934-2.265c-2.262,1.018-3.288,3.696-2.265,5.968
				c1.017,2.258,3.671,3.263,5.953,2.242C461.211,1028.114,462.21,1025.445,461.194,1023.188z"/>
			<path fill="#FFFFFF" d="M455.782,1019.248c-0.362-2.371-2.576-4.011-4.957-3.665c-2.374,0.378-4.031,2.6-3.668,4.995
				c0.369,2.37,2.578,4.002,4.977,3.637C454.515,1023.855,456.14,1021.618,455.782,1019.248z"/>
		</g>
		<g>
			<path fill="#FE350C" d="M553.5,1154.872c5.098,1.082,10.084-2.146,11.184-7.226c1.083-5.092-2.148-10.102-7.24-11.184
				c-5.076-1.077-10.074,2.149-11.184,7.229C545.172,1148.795,548.421,1153.78,553.5,1154.872z"/>
			<path fill="#FE522F" d="M553.37,1150.452c1.855-4.434-0.22-9.529-4.651-11.384c-4.423-1.845-9.519,0.224-11.383,4.646
				c-1.871,4.439,0.233,9.522,4.653,11.381C546.43,1156.948,551.506,1154.872,553.37,1150.452z"/>
			<path fill="#FE6F51" d="M526.064,1150.019c2.77-3.432,2.241-8.447-1.186-11.21c-3.426-2.753-8.439-2.233-11.209,1.186
				c-2.78,3.431-2.229,8.443,1.189,11.206C518.298,1153.968,523.298,1153.436,526.064,1150.019z"/>
			<path fill="#FE8C74" d="M489.914,1136.283c3.503-1.954,4.756-6.363,2.805-9.857c-1.957-3.483-6.359-4.738-9.859-2.8
				c-3.505,1.958-4.746,6.367-2.8,9.854C482.022,1136.982,486.423,1138.23,489.914,1136.283z"/>
			<path fill="#FFA897" d="M455.086,1101.697c3.604-0.257,6.304-3.378,6.045-6.97c-0.272-3.589-3.387-6.29-6.98-6.039
				c-3.604,0.263-6.298,3.385-6.038,6.971C448.382,1099.264,451.498,1101.958,455.086,1101.697z"/>
			<path fill="#FFC5BA" d="M442.071,1064.317c2.979,1.209,6.361-0.228,7.554-3.198c1.193-2.972-0.245-6.35-3.214-7.554
				c-2.981-1.201-6.355,0.236-7.548,3.203C437.666,1059.755,439.101,1063.125,442.071,1064.317z"/>
			<path fill="#FFE2DC" d="M444.319,1035.966c2.166,1.804,5.367,1.518,7.155-0.639c1.792-2.16,1.496-5.364-0.659-7.162
				c-2.162-1.8-5.362-1.509-7.149,0.646C441.866,1030.984,442.165,1034.173,444.319,1035.966z"/>
			<path fill="#FFFFFF" d="M448.237,1024.352c1.547,1.863,4.295,2.096,6.14,0.558c1.838-1.562,2.083-4.308,0.534-6.154
				c-1.551-1.852-4.299-2.098-6.135-0.549C446.921,1019.769,446.683,1022.515,448.237,1024.352z"/>
		</g>
		<g>
			<path fill="#FE350C" d="M376.918,1082.06c0.22-2.825-1.915-5.301-4.739-5.504c-2.808-0.221-5.281,1.914-5.5,4.739
				c-0.208,2.81,1.902,5.286,4.735,5.503C374.233,1087.006,376.697,1084.881,376.918,1082.06z"/>
			<path fill="#FE6849" d="M395.18,1085.272c-0.211-2.632-2.536-4.587-5.158-4.372c-2.62,0.214-4.581,2.529-4.371,5.158
				c0.217,2.616,2.518,4.584,5.156,4.367C393.432,1090.21,395.392,1087.898,395.18,1085.272z"/>
			<path fill="#FF9A86" d="M430.282,1073.914c-1.51-1.989-4.364-2.366-6.34-0.86c-1.989,1.505-2.368,4.354-0.862,6.343
				c1.507,1.979,4.341,2.372,6.333,0.854C431.4,1078.743,431.788,1075.898,430.282,1073.914z"/>
			<path fill="#FFCDC2" d="M451.283,1036.765c-2.228-0.938-4.803,0.127-5.736,2.339c-0.94,2.231,0.12,4.802,2.342,5.744
				c2.224,0.934,4.782-0.107,5.722-2.343C454.548,1040.275,453.504,1037.698,451.283,1036.765z"/>
			<path fill="#FFFFFF" d="M455.815,1022.481c0.531-2.356-0.954-4.701-3.292-5.222c-2.349-0.523-4.681,0.977-5.211,3.306
				c-0.521,2.357,0.97,4.688,3.312,5.22C452.974,1026.306,455.298,1024.836,455.815,1022.481z"/>
		</g>
		<g>
			<path fill="#FFFFFF" d="M455.196,1023.937c1.318-2.007,0.762-4.716-1.234-6.031c-2.011-1.325-4.726-0.767-6.053,1.252
				c-1.316,2.003-0.757,4.715,1.254,6.026C451.17,1026.514,453.883,1025.954,455.196,1023.937z"/>
			<path fill="#FFE2DC" d="M447.082,1013.297c1.012-2.098,0.13-4.624-1.954-5.633c-2.098-1.016-4.633-0.133-5.647,1.972
				c-1.007,2.095-0.124,4.616,1.973,5.628C443.551,1016.277,446.078,1015.399,447.082,1013.297z"/>
			<path fill="#FFC5BA" d="M423.833,992.574c0.471-2.207-0.938-4.377-3.131-4.846c-2.203-0.475-4.384,0.938-4.852,3.147
				c-0.464,2.202,0.941,4.373,3.146,4.839C421.2,996.189,423.371,994.779,423.833,992.574z"/>
			<path fill="#FFA897" d="M387.172,977.316c-0.462-2.137-2.566-3.486-4.686-3.027c-2.13,0.455-3.492,2.567-3.026,4.697
				c0.469,2.129,2.567,3.482,4.699,3.019C386.288,981.546,387.638,979.444,387.172,977.316z"/>
			<path fill="#FE8C74" d="M342.253,982.68c-1.463-1.528-3.875-1.574-5.39-0.124c-1.524,1.45-1.579,3.878-0.12,5.394
				c1.466,1.516,3.873,1.572,5.399,0.113C343.662,986.609,343.71,984.199,342.253,982.68z"/>
			<path fill="#FE6F51" d="M310.846,1006.455c-1.899-0.767-4.032,0.153-4.794,2.029c-0.764,1.881,0.147,4.038,2.03,4.792
				c1.895,0.751,4.032-0.15,4.801-2.041C313.642,1009.352,312.729,1007.215,310.846,1006.455z"/>
			<path fill="#FE522F" d="M294.205,1032.648c-1.958-0.299-3.751,1.039-4.05,2.972c-0.3,1.935,1.032,3.763,2.965,4.047
				c1.949,0.286,3.756-1.036,4.058-2.985C297.472,1034.748,296.143,1032.947,294.205,1032.648z"/>
			<path fill="#FE350C" d="M292.496,1048.515c0.053-1.885-1.427-3.449-3.315-3.512c-1.914-0.057-3.477,1.433-3.531,3.318
				c-0.069,1.886,1.428,3.477,3.307,3.526C290.858,1051.886,292.431,1050.419,292.496,1048.515z"/>
		</g>
		<g>
			<path fill="#FE350C" d="M448.483,932.898c2.133-1.199,2.857-3.869,1.685-5.977c-1.172-2.121-3.868-2.849-5.983-1.68
				c-2.111,1.187-2.864,3.856-1.672,5.978C443.703,933.343,446.375,934.08,448.483,932.898z"/>
			<path fill="#FE522F" d="M451.857,952.263c2.231-0.993,3.194-3.581,2.22-5.791c-0.977-2.215-3.586-3.198-5.796-2.22
				c-2.211,0.979-3.201,3.574-2.211,5.792C447.06,952.266,449.65,953.248,451.857,952.263z"/>
			<path fill="#FE6F51" d="M453.655,971.064c2.292-0.829,3.438-3.339,2.621-5.613c-0.818-2.275-3.341-3.442-5.615-2.623
				c-2.273,0.819-3.444,3.334-2.615,5.613C448.874,970.725,451.384,971.89,453.655,971.064z"/>
			<path fill="#FE8C74" d="M454.253,988.425c2.332-0.694,3.617-3.134,2.926-5.451c-0.69-2.315-3.134-3.622-5.451-2.932
				c-2.312,0.689-3.622,3.132-2.924,5.452C449.504,987.818,451.941,989.125,454.253,988.425z"/>
			<path fill="#FFA897" d="M454.031,1003.472c2.355-0.593,3.751-2.96,3.162-5.31c-0.587-2.342-2.96-3.753-5.305-3.171
				c-2.337,0.588-3.756,2.963-3.165,5.308C449.317,1002.649,451.688,1004.061,454.031,1003.472z"/>
			<path fill="#FFC5BA" d="M453.367,1015.321c2.371-0.503,3.854-2.813,3.35-5.185c-0.501-2.358-2.812-3.858-5.177-3.361
				c-2.355,0.5-3.859,2.819-3.356,5.181C448.692,1014.323,451.005,1015.822,453.367,1015.321z"/>
			<path fill="#FFE2DC" d="M452.644,1023.085c2.381-0.429,3.936-2.687,3.502-5.075c-0.43-2.37-2.684-3.939-5.064-3.515
				c-2.367,0.426-3.938,2.697-3.51,5.069C448.007,1021.945,450.268,1023.513,452.644,1023.085z"/>
			<path fill="#FFFFFF" d="M452.248,1025.877c2.389-0.354,4.009-2.579,3.625-4.979c-0.361-2.379-2.575-4.006-4.963-3.641
				c-2.375,0.363-4.003,2.593-3.637,4.971C447.646,1024.616,449.864,1026.255,452.248,1025.877z"/>
		</g>
		<g>
			<path fill="#FE350C" d="M446.914,1009.083c-7.031,2.854-10.421,10.847-7.59,17.875c2.851,7.019,10.844,10.416,17.875,7.578
				c7.023-2.838,10.416-10.832,7.578-17.863C461.934,1009.657,453.938,1006.257,446.914,1009.083z"/>
			<path fill="#FE6849" d="M416.498,844.165c-6.587,2.671-9.764,10.163-7.11,16.749c2.666,6.579,10.159,9.763,16.747,7.103
				c6.583-2.659,9.759-10.151,7.101-16.74C430.573,844.7,423.078,841.516,416.498,844.165z"/>
			<path fill="#FF9A86" d="M367.134,692.833c-6.142,2.487-9.106,9.479-6.629,15.623c2.482,6.14,9.474,9.107,15.619,6.627
				c6.142-2.48,9.104-9.472,6.624-15.617C380.265,693.328,373.271,690.359,367.134,692.833z"/>
			<path fill="#FFCDC2" d="M321.221,582.357c-5.697,2.304-8.449,8.795-6.148,14.497c2.297,5.7,8.788,8.453,14.491,6.152
				c5.701-2.303,8.448-8.792,6.146-14.494C333.408,582.813,326.917,580.06,321.221,582.357z"/>
			<path fill="#FFFFFF" d="M301.158,540.014c-5.253,2.121-7.792,8.111-5.669,13.371c2.113,5.26,8.104,7.799,13.363,5.676
				c5.261-2.124,7.792-8.111,5.669-13.371C312.4,540.43,306.41,537.893,301.158,540.014z"/>
		</g>
	</g>
</g>
</svg>
