<?xml version="1.0" encoding="utf-8"?>
<!-- Generator: Adobe Illustrator 16.0.4, SVG Export Plug-In . SVG Version: 6.00 Build 0)  -->
<!DOCTYPE svg PUBLIC "-//W3C//DTD SVG 1.1//EN" "http://www.w3.org/Graphics/SVG/1.1/DTD/svg11.dtd">
<svg version="1.1" id="Capa_1" xmlns="http://www.w3.org/2000/svg" xmlns:xlink="http://www.w3.org/1999/xlink" x="0px" y="0px"
	 width="212px" height="576px" viewBox="705.726 29.645 212 576" enable-background="new 705.726 29.645 212 576"
	 xml:space="preserve">
<g>
	<g>
		<path fill="#FFFFFF" d="M813.328,268.674c-28.37,0-51.584-11.37-67.136-32.88c-14.14-19.56-21.616-46.621-21.616-78.256
			c0-31.634,7.477-58.695,21.616-78.254c15.552-21.512,38.766-32.882,67.136-32.882s51.584,11.37,67.135,32.882
			c14.144,19.56,21.617,46.62,21.617,78.254c0,31.635-7.474,58.696-21.617,78.256C864.912,257.304,841.698,268.674,813.328,268.674z
			 M813.328,49.066c-63.472,0-86.087,56.033-86.087,108.472s22.615,108.472,86.087,108.472s86.087-56.033,86.087-108.472
			S876.8,49.066,813.328,49.066z M813.328,226.027c-25.775,0-38.847-23.043-38.847-68.489c0-45.444,13.071-68.486,38.847-68.486
			c25.777,0,38.847,23.042,38.847,68.486C852.175,202.984,839.105,226.027,813.328,226.027z M813.328,91.717
			c-24.009,0-36.182,22.145-36.182,65.821c0,43.677,12.173,65.824,36.182,65.824c24.008,0,36.182-22.146,36.182-65.824
			C849.51,113.862,837.336,91.717,813.328,91.717z"/>
	</g>
	<g>
		<path fill="#FFFFFF" d="M878.967,560.639H738.904c-2.842,0-4.055-1.212-4.055-4.054v-4.236c0-2.317,0.695-3.296,2.365-5.66
			l0.599-0.846l91.396-120.135c6.836-8.993,8.501-18.183,4.687-25.875c-3.683-7.424-12.114-12.221-21.479-12.221
			c-16.118,0-30.357,6.404-43.532,19.579c-5.423,5.424-8.801,3.988-13.409-0.943l-17.553-19.065
			c-4.122-4.709-6.354-7.857-0.858-13.338c20.661-20.347,47.418-31.548,75.353-31.548c31.297,0,56.802,13.939,68.229,37.286
			c10.18,20.804,7.119,44.988-8.191,64.69l-53.159,71.962h59.672c7.104,0,9.501,2.398,9.501,9.503v25.403
			C888.468,558.243,886.071,560.639,878.967,560.639z M812.417,384.947c10.37,0,19.738,5.378,23.865,13.702
			c4.289,8.647,2.529,18.83-4.952,28.672l-91.939,120.907c-1.59,2.246-1.876,2.651-1.876,4.121v4.236c0,1.376,0.013,1.39,1.39,1.39
			h140.062c5.624,0,6.836-1.214,6.836-6.833v-25.403c0-5.625-1.212-6.838-6.836-6.838h-64.954l56.317-76.235
			c14.692-18.908,17.646-42.042,7.921-61.911c-10.968-22.412-35.577-35.792-65.834-35.792c-27.622,0-53.031,10.642-73.477,30.777
			c-3.703,3.694-3.25,4.847,0.966,9.665l17.523,19.033c2.061,2.208,3.643,3.582,5.126,3.582c1.184,0,2.598-0.861,4.444-2.71
			C780.698,391.606,795.558,384.947,812.417,384.947z"/>
	</g>
</g>
</svg>
