<?xml version="1.0" encoding="utf-8"?>
<!-- Generator: Adobe Illustrator 16.0.4, SVG Export Plug-In . SVG Version: 6.00 Build 0)  -->
<!DOCTYPE svg PUBLIC "-//W3C//DTD SVG 1.1//EN" "http://www.w3.org/Graphics/SVG/1.1/DTD/svg11.dtd">
<svg version="1.1" id="Capa_1" xmlns="http://www.w3.org/2000/svg" xmlns:xlink="http://www.w3.org/1999/xlink" x="0px" y="0px"
	 width="212px" height="576px" viewBox="705.726 29.645 212 576" enable-background="new 705.726 29.645 212 576"
	 xml:space="preserve">
<g>
	<g>
		<path fill="#FFFFFF" d="M811.305,263.622c-27.722,0-50.409-11.112-65.605-32.133c-13.819-19.117-21.123-45.565-21.123-76.484
			c0-30.914,7.304-57.357,21.123-76.472c15.196-21.021,37.884-32.131,65.605-32.131c27.728,0,50.418,11.11,65.616,32.131
			c13.819,19.114,21.123,45.558,21.123,76.472c0,30.92-7.304,57.367-21.123,76.484C861.723,252.51,839.032,263.622,811.305,263.622z
			 M811.305,48.998c-62.03,0-84.133,54.76-84.133,106.006c0,51.254,22.103,106.021,84.133,106.021
			c62.039,0,84.144-54.768,84.144-106.021C895.448,103.758,873.344,48.998,811.305,48.998z M811.305,221.941
			c-25.179,0-37.946-22.521-37.946-66.937c0-44.408,12.768-66.924,37.946-66.924c25.188,0,37.957,22.516,37.957,66.924
			C849.262,199.419,836.492,221.941,811.305,221.941z M811.305,90.676c-23.458,0-35.351,21.643-35.351,64.328
			c0,42.694,11.893,64.341,35.351,64.341c23.464,0,35.361-21.647,35.361-64.341C846.666,112.319,834.769,90.676,811.305,90.676z"/>
	</g>
	<g>
		<path fill="#FFFFFF" d="M811.305,552.786c-48.736,0-80.229-24.413-80.229-62.193c0-27.395,20.312-44.747,30.448-49.071v-0.169
			c-7.645-4.88-25.416-21-25.416-43.583c0-23.232,9.809-62.208,75.496-62.208c47.605,0,74.907,22.675,74.907,62.208
			c0,23.003-18.155,39.109-25.429,43.598v0.154c10.136,4.32,30.448,21.666,30.448,49.071
			C891.531,528.373,860.042,552.786,811.305,552.786z M811.604,338.157c-63.428,0-72.899,37.35-72.899,59.612
			c0,22.023,17.891,37.603,24.786,41.747l0.629,0.379v3.402l-0.842,0.316c-7.904,2.969-29.605,19.616-29.605,46.979
			c0,36.204,30.473,59.597,77.632,59.597c47.16,0,77.63-23.393,77.63-59.597c0-27.374-21.701-44.013-29.605-46.979l-0.842-0.315
			v-3.422l0.654-0.374c6.427-3.676,24.773-19.234,24.773-41.733C883.915,375.506,874.52,338.157,811.604,338.157z M811.305,512.583
			c-20.359,0-33.515-9.793-33.515-24.951c0-14.025,10.853-23.718,33.183-29.634l0.332-0.087l0.332,0.087
			c22.335,5.915,33.193,15.608,33.193,29.634C844.83,502.556,831.358,512.583,811.305,512.583z M811.305,460.596
			c-21.093,5.649-30.919,14.245-30.919,27.035c0,13.58,12.136,22.355,30.919,22.355c18.5,0,30.93-8.983,30.93-22.355
			C842.234,474.841,832.405,466.245,811.305,460.596z M811.305,425.408l-0.296-0.07c-18.713-4.383-28.199-12.667-28.199-24.618
			c0-15.621,10.652-24.946,28.495-24.946s28.493,9.325,28.493,24.946c0,11.954-9.486,20.237-28.196,24.618L811.305,425.408z
			 M811.305,378.37c-16.218,0-25.899,8.354-25.899,22.351c0,10.526,8.714,17.934,25.899,22.021
			c17.187-4.084,25.897-11.492,25.897-22.021C837.202,386.724,827.521,378.37,811.305,378.37z"/>
	</g>
</g>
</svg>
