<?xml version="1.0" encoding="utf-8"?>
<!-- Generator: Adobe Illustrator 16.0.4, SVG Export Plug-In . SVG Version: 6.00 Build 0)  -->
<!DOCTYPE svg PUBLIC "-//W3C//DTD SVG 1.1//EN" "http://www.w3.org/Graphics/SVG/1.1/DTD/svg11.dtd">
<svg version="1.1" id="Capa_1" xmlns="http://www.w3.org/2000/svg" xmlns:xlink="http://www.w3.org/1999/xlink" x="0px" y="0px"
	 width="1044px" height="1510px" viewBox="-148.5 60.322 1044 1510" enable-background="new -148.5 60.322 1044 1510"
	 xml:space="preserve">
<g>
	<g opacity="0.4">
		
			<image overflow="visible" width="961" height="1399" xlink:href="C81D3AC57E729101.png"  transform="matrix(1 0 0 1 -99.5 97.3223)">
		</image>
	</g>
	<g>
		<path fill="none" stroke="#FFFFFF" stroke-width="1.8242" stroke-miterlimit="10" d="M83.501,1058.435
			c0,0,45.354,61.923,28.333,125.796c-21.547,80.826-83.073,96.575-83.073,96.575"/>
		<path fill="none" stroke="#FFFFFF" stroke-width="1.8242" stroke-miterlimit="10" d="M83.501,1058.435
			c0,0,56.296,14.464,110.95-23.835c60.174-42.133,41.284-125.106,41.284-125.106"/>
		<path fill="none" stroke="#FFFFFF" stroke-width="1.8242" stroke-miterlimit="10" d="M83.501,1058.435
			c0,0,102.581-35.784,183.675,58.12"/>
		<path fill="none" stroke="#FFFFFF" stroke-width="1.8242" stroke-miterlimit="10" d="M83.501,1058.435
			c0,0-102.613-3.28-193.317-40.659"/>
		<path fill="none" stroke="#FFFFFF" stroke-width="1.8242" stroke-miterlimit="10" d="M192.19,724.475
			c0,0-134.193,15.791-170.36,129.629c-36.188,113.836,61.671,204.331,61.671,204.331"/>
		<g>
			<path fill="#81C41D" d="M16.888,1272.309c4.695-6.56,13.798-8.081,20.331-3.389c6.601,4.698,8.111,13.802,3.417,20.358
				c-4.667,6.56-13.774,8.084-20.348,3.387C13.733,1287.973,12.221,1278.87,16.888,1272.309z"/>
			<path fill="#93CC3D" d="M28.825,1270.145c3.121-6.978,11.288-10.099,18.251-6.989c7.009,3.13,10.146,11.289,7.021,18.268
				c-3.093,6.979-11.267,10.113-18.259,6.994C28.858,1285.3,25.733,1277.126,28.825,1270.145z"/>
			<path fill="#A5D55E" d="M57.125,1254.479c0.932-7.161,7.486-12.203,14.637-11.277c7.188,0.933,12.232,7.467,11.31,14.637
				c-0.92,7.157-7.458,12.212-14.632,11.285C61.269,1268.197,56.22,1261.642,57.125,1254.479z"/>
			<path fill="#B7DD7E" d="M88.5,1217.993c-1.66-6.593,2.371-13.279,8.962-14.927c6.619-1.654,13.293,2.338,14.952,8.945
				c1.656,6.593-2.338,13.274-8.944,14.928C96.86,1228.602,90.161,1224.591,88.5,1217.993z"/>
			<path fill="#C9E69E" d="M106.601,1164.37c-4.004-4.963-3.19-12.252,1.782-16.246c4.987-4.007,12.245-3.228,16.257,1.754
				c4.001,4.97,3.22,12.231-1.758,16.232C117.9,1170.129,110.61,1169.341,106.601,1164.37z"/>
			<path fill="#DBEEBE" d="M102.104,1117.051c-5.062-3.138-6.59-9.826-3.437-14.886c3.158-5.065,9.801-6.623,14.879-3.467
				c5.064,3.148,6.614,9.794,3.461,14.854C113.855,1118.642,107.177,1120.196,102.104,1117.051z"/>
			<path fill="#EDF7DF" d="M88.551,1081.573c-5.183-1.938-7.794-7.768-5.837-12.956c1.956-5.187,7.732-7.818,12.938-5.862
				c5.192,1.95,7.811,7.728,5.856,12.912C99.562,1080.886,93.75,1083.519,88.551,1081.573z"/>
			<path fill="#FFFFFF" d="M81.296,1067.437c-4.964-1.218-8.041-6.28-6.789-11.255c1.19-4.976,6.234-8.055,11.227-6.811
				c4.989,1.189,8.023,6.228,6.805,11.197C91.335,1065.58,86.292,1068.628,81.296,1067.437z"/>
		</g>
		<g>
			<path fill="#81C41D" d="M247.823,1121.989c-2.983-10.685,3.195-21.772,13.881-24.743c10.678-2.992,21.744,3.196,24.756,13.854
				c2.983,10.688-3.22,21.773-13.893,24.771C261.924,1138.892,250.794,1132.675,247.823,1121.989z"/>
			<path fill="#93CC3D" d="M215.321,1092.875c-5.026-8.922-1.919-20.224,7.006-25.239c8.913-5.025,20.203-1.913,25.246,6.98
				c5.029,8.932,1.902,20.235-7.009,25.271C231.682,1104.931,220.337,1101.806,215.321,1092.875z"/>
			<path fill="#A5D55E" d="M182.87,1075.562c-6.406-6.864-6.072-17.61,0.795-24.006c6.854-6.396,17.594-6.064,24.005,0.771
				c6.414,6.878,6.066,17.624-0.787,24.039C200.051,1082.772,189.269,1082.438,182.87,1075.562z"/>
			<path fill="#B7DD7E" d="M151.988,1066.932c-7.004-4.882-8.751-14.503-3.868-21.498c4.875-6.986,14.493-8.744,21.494-3.89
				c7.02,4.897,8.755,14.518,3.885,21.53C168.64,1070.066,158.991,1071.826,151.988,1066.932z"/>
			<path fill="#C9E69E" d="M124.375,1064.358c-6.972-3.233-10.016-11.499-6.78-18.46c3.233-6.947,11.492-10.014,18.454-6.8
				c6.995,3.25,10.03,11.509,6.807,18.49C139.628,1064.542,131.35,1067.607,124.375,1064.358z"/>
			<path fill="#DBEEBE" d="M102.077,1065.361c-6.537-1.992-10.224-8.905-8.231-15.431c1.999-6.507,8.903-10.228,15.426-8.248
				c6.566,2.008,10.247,8.911,8.265,15.458C115.536,1063.656,108.622,1067.369,102.077,1065.361z"/>
			<path fill="#EDF7DF" d="M87.345,1067.368c-5.877-1.111-9.739-6.787-8.626-12.651c1.126-5.842,6.786-9.745,12.647-8.64
				c5.914,1.126,9.787,6.789,8.666,12.673C98.915,1064.612,93.234,1068.496,87.345,1067.368z"/>
			<path fill="#FFFFFF" d="M82.498,1067.682c-5.104-0.516-8.817-5.093-8.301-10.182c0.537-5.065,5.091-8.829,10.178-8.313
				c5.147,0.529,8.851,5.085,8.346,10.2C92.167,1064.476,87.617,1068.212,82.498,1067.682z"/>
		</g>
		<g>
			<path fill="#81C41D" d="M244.383,916.315c-3.782,4.688-10.693,5.443-15.411,1.647c-4.678-3.768-5.444-10.692-1.652-15.413
				c3.78-4.688,10.677-5.41,15.395-1.622C247.433,904.696,248.162,911.597,244.383,916.315z"/>
			<path fill="#A1D356" d="M244.236,958.637c-4.78,3.29-11.36,2.086-14.662-2.712c-3.292-4.754-2.093-11.352,2.701-14.655
				c4.775-3.302,11.335-2.068,14.646,2.718C250.243,948.759,249.012,955.321,244.236,958.637z"/>
			<path fill="#C0E28E" d="M206.524,1033.576c-5.549-0.628-9.527-5.67-8.896-11.228c0.627-5.524,5.649-9.524,11.202-8.893
				c5.554,0.633,9.521,5.662,8.891,11.215C217.114,1030.226,212.069,1034.203,206.524,1033.576z"/>
			<path fill="#E0F0C7" d="M117.816,1067.135c-3.737-3.849-3.603-9.999,0.246-13.734c3.829-3.717,9.975-3.617,13.703,0.229
				c3.741,3.859,3.609,9.987-0.228,13.726C127.695,1071.097,121.542,1070.972,117.816,1067.135z"/>
			<path fill="#FFFFFF" d="M74.998,1062.207c-2.093-4.699,0.027-10.204,4.726-12.27c4.651-2.126,10.174,0,12.237,4.689
				c2.135,4.696-0.015,10.183-4.694,12.276C82.585,1069.024,77.103,1066.87,74.998,1062.207z"/>
		</g>
		<g>
			<path fill="#FFFFFF" d="M85.349,1067.541c-5.032,0.988-9.926-2.26-10.961-7.292c-0.991-5.036,2.26-9.928,7.294-10.948
				c5.019-1.016,9.893,2.233,10.945,7.291C93.639,1061.599,90.364,1066.52,85.349,1067.541z"/>
			<path fill="#E4F2E1" d="M65.323,1046.746c-4.968,0.236-9.206-3.603-9.449-8.577c-0.243-4.966,3.606-9.185,8.576-9.434
				c4.957-0.246,9.176,3.573,9.434,8.571C74.138,1042.252,70.278,1046.511,65.323,1046.746z"/>
			<path fill="#C9E6C2" d="M28.961,990.544c-4.711-1.011-7.724-5.651-6.721-10.369c1.001-4.708,5.653-7.704,10.364-6.705
				c4.7,0.997,7.702,5.618,6.708,10.358C38.317,988.519,33.659,991.551,28.961,990.544z"/>
			<path fill="#AED9A4" d="M8.732,907.374c-3.693-2.849-4.4-8.145-1.563-11.851c2.829-3.694,8.14-4.378,11.838-1.551
				c3.691,2.824,4.398,8.113,1.557,11.835C17.746,909.491,12.423,910.198,8.732,907.374z"/>
			<path fill="#93CD85" d="M35.311,813.352c-1.516-4.247,0.683-8.917,4.924-10.447c4.227-1.524,8.903,0.702,10.428,4.931
				c1.521,4.224-0.667,8.899-4.921,10.429C41.526,819.783,36.83,817.576,35.311,813.352z"/>
			<path fill="#78C067" d="M96.517,754.323c0.45-4.332,4.312-7.475,8.642-7.038c4.312,0.435,7.453,4.327,7.016,8.639
				c-0.438,4.309-4.293,7.474-8.629,7.024C99.244,762.512,96.075,758.633,96.517,754.323z"/>
			<path fill="#5DB448" d="M157.736,727.561c1.481-3.931,5.852-5.906,9.781-4.438c3.91,1.462,5.882,5.863,4.417,9.771
				c-1.466,3.907-5.836,5.911-9.764,4.429C158.271,735.853,156.264,731.467,157.736,727.561z"/>
			<path fill="#42A72A" d="M185.797,720.917c1.968-3.534,6.404-4.778,9.941-2.831c3.506,1.954,4.761,6.42,2.811,9.928
				c-1.952,3.509-6.406,4.809-9.922,2.826C185.121,728.892,183.837,724.424,185.797,720.917z"/>
		</g>
		<g>
			<path fill="#81C41D" d="M-123.466,1030.512c-7.031-7.49-6.687-19.282,0.788-26.322c7.464-7.067,19.242-6.724,26.312,0.734
				c7.055,7.495,6.714,19.285-0.75,26.354C-104.598,1038.29-116.372,1038.008-123.466,1030.512z"/>
			<path fill="#ABD868" d="M-28.603,1057.436c-6.897-5.063-8.414-14.767-3.361-21.673c5.041-6.931,14.738-8.445,21.67-3.405
				c6.922,5.067,8.43,14.772,3.384,21.696C-11.959,1060.952-21.657,1062.507-28.603,1057.436z"/>
			<path fill="#D5EBB4" d="M47.304,1066.933c-5.914-3.436-7.953-11.011-4.524-16.936c3.418-5.949,10.995-7.985,16.946-4.563
				c5.941,3.44,7.961,11.023,4.529,16.958C60.844,1068.326,53.254,1070.385,47.304,1066.933z"/>
			<path fill="#FFFFFF" d="M79.408,1066.781c-4.596-2.263-6.516-7.809-4.255-12.419c2.252-4.635,7.807-6.553,12.445-4.291
				c4.625,2.267,6.514,7.83,4.24,12.441C89.616,1067.147,84.029,1069.073,79.408,1066.781z"/>
		</g>
		<path fill="none" stroke="#FFFFFF" stroke-width="3.6484" stroke-miterlimit="10" d="M434.681,921.737
			c0,0,124.806,125.162,351.778,141.757"/>
		<path fill="none" stroke="#FFFFFF" stroke-width="3.6484" stroke-miterlimit="10" d="M434.681,921.737
			c0,0,83.103,477.415,266.832,590.886"/>
		<path fill="none" stroke="#FFFFFF" stroke-width="3.6484" stroke-miterlimit="10" d="M434.681,921.737
			c0,0-2.376,276.9-159.53,376.714"/>
		<path fill="none" stroke="#FFFFFF" stroke-width="3.6484" stroke-miterlimit="10" d="M434.681,921.737
			c0,0-233.95,42.553-348.917,136.259"/>
		<path fill="none" stroke="#FFFFFF" stroke-width="3.6484" stroke-miterlimit="10" d="M434.681,921.737
			c0,0-256.261-34.215-443.161-194.833"/>
		<path fill="none" stroke="#FFFFFF" stroke-width="3.6484" stroke-miterlimit="10" d="M434.681,921.737
			c0,0-12.471-321.435,200.333-473.188"/>
		<path fill="none" stroke="#FFFFFF" stroke-width="3.6484" stroke-miterlimit="10" d="M434.681,921.737
			c0,0,11.535-186.266-139.792-357.584"/>
		<path fill="none" stroke="#FFFFFF" stroke-width="3.6484" stroke-miterlimit="10" d="M788.72,773.262
			C655.794,970.301,434.681,921.737,434.681,921.737"/>
		<g>
			<path fill="#FFFFFF" d="M454.841,930.262c-4.723,11.142-17.589,16.343-28.701,11.623c-11.139-4.709-16.342-17.562-11.62-28.688
				c4.696-11.127,17.562-16.33,28.675-11.621C454.332,906.271,459.537,919.135,454.841,930.262z"/>
			<path fill="#E6F3D2" d="M478.006,930.766c-3.077,10.646-14.204,16.775-24.821,13.7c-10.645-3.062-16.777-14.182-13.702-24.815
				c3.057-10.63,14.186-16.763,24.804-13.696C474.924,909.008,481.062,920.134,478.006,930.766z"/>
			<path fill="#CDE7A5" d="M539.385,928.801c-1.433,10.151-10.82,17.207-20.942,15.777c-10.149-1.417-17.214-10.802-15.784-20.943
				c1.417-10.132,10.81-17.195,20.933-15.772C533.729,909.276,540.799,918.663,539.385,928.801z"/>
			<path fill="#B3DC77" d="M624.139,910.25c0.211,9.656-7.436,17.641-17.062,17.856c-9.656,0.229-17.648-7.423-17.865-17.072
				c-0.225-9.634,7.432-17.628,17.059-17.849C615.91,892.96,623.91,900.608,624.139,910.25z"/>
			<path fill="#9AD04A" d="M717.422,860.993c1.857,9.161-4.051,18.073-13.184,19.934c-9.16,1.874-18.084-4.043-19.946-13.2
				c-1.863-9.137,4.057-18.061,13.188-19.924C706.621,845.937,715.554,851.846,717.422,860.993z"/>
			<path fill="#81C41D" d="M782.368,757.599c8.641-3.506,18.506,0.665,22.015,9.317c3.503,8.666-0.666,18.506-9.304,22.012
				c-8.666,3.52-18.52-0.664-22.028-9.329C769.548,770.96,773.731,761.105,782.368,757.599z"/>
		</g>
		<g>
			<path fill="#81C41D" d="M288.61,561.524c1.471-3.466,5.455-5.105,8.936-3.634c3.449,1.471,5.06,5.471,3.589,8.92
				c-1.438,3.479-5.455,5.075-8.904,3.604C288.781,568.96,287.167,564.974,288.61,561.524z"/>
			<path fill="#ABD868" d="M409.279,737.614c-2.533,6.033-9.499,8.83-15.503,6.277c-6.013-2.54-8.823-9.481-6.287-15.49
				c2.546-6.02,9.491-8.846,15.515-6.296C409.018,724.65,411.825,731.605,409.279,737.614z"/>
			<path fill="#D5EBB4" d="M447.597,873.671c-3.628,8.588-13.544,12.587-22.102,8.95c-8.576-3.624-12.583-13.521-8.954-22.089
				c3.621-8.573,13.526-12.588,22.095-8.958C447.211,855.193,451.218,865.104,447.597,873.671z"/>
			<path fill="#FFFFFF" d="M454.841,930.262c-4.723,11.142-17.589,16.343-28.701,11.623c-11.139-4.709-16.342-17.562-11.62-28.688
				c4.696-11.127,17.562-16.33,28.675-11.621C454.332,906.271,459.537,919.135,454.841,930.262z"/>
		</g>
		<g>
			<path fill="#81C41D" d="M669.111,1525.741c-7.234-17.9,1.386-38.256,19.284-45.494c17.871-7.255,38.259,1.371,45.493,19.271
				c7.24,17.883-1.386,38.256-19.284,45.48C696.736,1552.236,676.38,1543.64,669.111,1525.741z"/>
			<path fill="#96CE43" d="M648.292,1419.954c5.246,16.76-4.086,34.604-20.854,39.838c-16.746,5.247-34.577-4.059-39.848-20.829
				c-5.246-16.771,4.082-34.602,20.85-39.848C625.189,1393.852,643.046,1403.184,648.292,1419.954z"/>
			<path fill="#ABD868" d="M578.981,1303.106c3.252,15.636-6.787,30.951-22.424,34.194c-15.625,3.257-30.93-6.759-34.202-22.4
				c-3.257-15.643,6.778-30.947,22.415-34.203C560.396,1277.426,575.724,1287.464,578.981,1303.106z"/>
			<path fill="#C0E28E" d="M525.468,1172.341c1.259,14.513-9.487,27.3-23.993,28.553c-14.503,1.264-27.283-9.461-28.557-23.973
				c-1.269-14.514,9.475-27.293,23.98-28.558C511.402,1147.083,524.199,1157.828,525.468,1172.341z"/>
			<path fill="#D5EBB4" d="M487.265,1051.032c-0.735,13.389-12.188,23.646-25.562,22.908c-13.382-0.726-23.637-12.16-22.912-25.543
				c0.72-13.385,12.17-23.639,25.545-22.912C477.719,1026.196,487.984,1037.647,487.265,1051.032z"/>
			<path fill="#EAF5D9" d="M463.888,962.55c-2.729,12.265-14.889,19.995-27.132,17.267c-12.26-2.719-19.988-14.861-17.266-27.116
				c2.708-12.256,14.865-19.984,27.11-17.267C458.86,938.137,466.596,950.294,463.888,962.55z"/>
			<path fill="#FFFFFF" d="M454.841,930.262c-4.723,11.142-17.589,16.343-28.701,11.623c-11.139-4.709-16.342-17.562-11.62-28.688
				c4.696-11.127,17.562-16.33,28.675-11.621C454.332,906.271,459.537,919.135,454.841,930.262z"/>
		</g>
		<g>
			<path fill="#81C41D" d="M794.794,1043.773c10.915,4.597,16.008,17.178,11.398,28.076c-4.638,10.915-17.193,15.977-28.108,11.396
				c-10.898-4.624-15.988-17.22-11.379-28.092C771.329,1044.255,783.912,1039.15,794.794,1043.773z"/>
			<path fill="#A1D356" d="M655.58,1042.743c-4.659,10.972-17.292,16.067-28.257,11.453c-10.958-4.646-16.076-17.306-11.439-28.241
				c4.643-10.956,17.296-16.085,28.236-11.44C655.091,1019.136,660.212,1031.787,655.58,1042.743z"/>
			<path fill="#C0E28E" d="M545.405,994.835c-4.681,11.028-17.392,16.159-28.405,11.51c-11.018-4.667-16.164-17.391-11.499-28.39
				c4.66-11.014,17.384-16.167,28.382-11.501C544.909,971.1,550.059,983.822,545.405,994.835z"/>
			<path fill="#E0F0C7" d="M477.788,950.037c-4.701,11.085-17.49,16.252-28.554,11.566c-11.078-4.688-16.252-17.476-11.559-28.538
				c4.678-11.07,17.473-16.249,28.527-11.562C477.285,926.174,482.463,938.968,477.788,950.037z"/>
			<path fill="#FFFFFF" d="M454.841,930.262c-4.723,11.142-17.589,16.343-28.701,11.623c-11.139-4.709-16.342-17.562-11.62-28.688
				c4.696-11.127,17.562-16.33,28.675-11.621C454.332,906.271,459.537,919.135,454.841,930.262z"/>
		</g>
		<g>
			<path fill="#81C41D" d="M80.25,1044.341c7.52-3.054,16.117,0.577,19.198,8.127c3.026,7.536-0.594,16.144-8.145,19.184
				c-7.551,3.055-16.118-0.564-19.199-8.112C69.052,1056.001,72.699,1047.394,80.25,1044.341z"/>
			<path fill="#A1D356" d="M204.078,995.16c1.112,8.435-4.842,16.193-13.283,17.294c-8.448,1.114-16.174-4.814-17.304-13.257
				c-1.116-8.436,4.836-16.191,13.278-17.304C195.192,980.777,202.965,986.714,204.078,995.16z"/>
			<path fill="#C0E28E" d="M320.25,956.228c-0.828,9.34-9.092,16.242-18.423,15.402c-9.345-0.826-16.229-9.062-15.409-18.399
				c0.821-9.333,9.078-16.237,18.41-15.409C314.157,938.642,321.079,946.891,320.25,956.228z"/>
			<path fill="#E0F0C7" d="M414.872,934.864c-2.785,10.239-13.341,16.293-23.562,13.513c-10.241-2.768-16.285-13.312-13.514-23.543
				c2.759-10.23,13.319-16.284,23.542-13.516C411.57,914.075,417.624,924.631,414.872,934.864z"/>
			<path fill="#FFFFFF" d="M454.841,930.262c-4.723,11.142-17.589,16.343-28.701,11.623c-11.139-4.709-16.342-17.562-11.62-28.688
				c4.696-11.127,17.562-16.33,28.675-11.621C454.332,906.271,459.537,919.135,454.841,930.262z"/>
		</g>
		<g>
			<path fill="#81C41D" d="M672.165,464.299c-8.708,20.499-32.376,30.1-52.874,21.405c-20.498-8.682-30.087-32.362-21.434-52.863
				c8.712-20.498,32.377-30.084,52.872-21.402C671.233,420.118,680.845,443.785,672.165,464.299z"/>
			<path fill="#ABD868" d="M519.987,652.019c-7.379,17.38-27.446,25.515-44.815,18.145c-17.378-7.357-25.505-27.429-18.163-44.805
				c7.373-17.374,27.439-25.499,44.807-18.142C519.197,614.568,527.34,634.634,519.987,652.019z"/>
			<path fill="#D5EBB4" d="M465.158,843.715c-6.052,14.261-22.518,20.929-36.759,14.884c-14.258-6.033-20.924-22.495-14.892-36.746
				c6.035-14.25,22.501-20.914,36.741-14.881C464.509,812.994,471.183,829.459,465.158,843.715z"/>
			<path fill="#FFFFFF" d="M454.841,930.262c-4.723,11.142-17.589,16.343-28.701,11.623c-11.139-4.709-16.342-17.562-11.62-28.688
				c4.696-11.127,17.562-16.33,28.675-11.621C454.332,906.271,459.537,919.135,454.841,930.262z"/>
		</g>
		<g>
			<path fill="#81C41D" d="M3.14,699.493c15.13,6.418,22.226,23.892,15.809,39.019c-6.391,15.143-23.867,22.226-39.022,15.809
				c-15.124-6.405-22.221-23.882-15.803-39.007C-29.459,700.171-12.015,693.09,3.14,699.493z"/>
			<path fill="#A1D356" d="M165.227,835.945c-5.974,14.143-22.297,20.755-36.441,14.762c-14.128-5.98-20.752-22.302-14.757-36.427
				c5.987-14.138,22.287-20.75,36.431-14.771C164.591,805.497,171.214,821.818,165.227,835.945z"/>
			<path fill="#C0E28E" d="M306.986,894.62c-5.557,13.143-20.728,19.284-33.862,13.716c-13.131-5.558-19.282-20.722-13.711-33.847
				c5.557-13.135,20.712-19.277,33.846-13.721C306.393,866.324,312.543,881.493,306.986,894.62z"/>
			<path fill="#E0F0C7" d="M413.701,923.179c-5.139,12.142-19.158,17.813-31.281,12.67c-12.135-5.134-17.812-19.142-12.666-31.268
				c5.127-12.131,19.137-17.804,31.261-12.671C413.15,897.035,418.828,911.052,413.701,923.179z"/>
			<path fill="#FFFFFF" d="M454.841,930.262c-4.723,11.142-17.589,16.343-28.701,11.623c-11.139-4.709-16.342-17.562-11.62-28.688
				c4.696-11.127,17.562-16.33,28.675-11.621C454.332,906.271,459.537,919.135,454.841,930.262z"/>
		</g>
		<g>
			<path fill="#81C41D" d="M295.312,1306.974c-4.722,11.158-17.557,16.358-28.701,11.636c-11.108-4.722-16.343-17.56-11.621-28.686
				c4.722-11.125,17.561-16.355,28.701-11.62C294.83,1283.025,300.034,1295.848,295.312,1306.974z"/>
			<path fill="#9AD04A" d="M372.25,1229.465c-4.722,11.155-17.563,16.355-28.701,11.634c-11.114-4.72-16.343-17.561-11.621-28.687
				c4.717-11.125,17.561-16.35,28.696-11.62C371.763,1205.508,376.967,1218.339,372.25,1229.465z"/>
			<path fill="#B3DC77" d="M419.358,1131.251c-4.722,11.151-17.569,16.352-28.701,11.631c-11.12-4.717-16.343-17.561-11.621-28.687
				c4.711-11.126,17.562-16.346,28.691-11.62C418.866,1107.285,424.07,1120.124,419.358,1131.251z"/>
			<path fill="#CDE7A5" d="M443.951,1034.118c-4.723,11.148-17.576,16.349-28.701,11.628c-11.127-4.714-16.343-17.561-11.621-28.687
				c4.707-11.126,17.562-16.34,28.686-11.62C443.453,1010.145,448.658,1022.992,443.951,1034.118z"/>
			<path fill="#E6F3D2" d="M453.342,959.86c-4.722,11.145-17.582,16.346-28.701,11.625c-11.132-4.711-16.342-17.562-11.62-28.687
				c4.701-11.127,17.562-16.336,28.681-11.621C452.839,935.877,458.044,948.733,453.342,959.86z"/>
			<path fill="#FFFFFF" d="M454.841,930.262c-4.723,11.142-17.589,16.343-28.701,11.623c-11.139-4.709-16.342-17.562-11.62-28.688
				c4.696-11.127,17.562-16.33,28.675-11.621C454.332,906.271,459.537,919.135,454.841,930.262z"/>
		</g>
		<g>
			<path fill="#81C41D" d="M314.869,142.251c-2.374,0.818-4.99-0.456-5.809-2.828c-0.78-2.373,0.463-4.973,2.855-5.822
				c2.389-0.792,4.961,0.478,5.781,2.881C318.516,138.859,317.269,141.461,314.869,142.251z"/>
			<path fill="#A1D356" d="M347.587,277.787c-2.816-0.363-4.841-2.929-4.479-5.739c0.361-2.806,2.925-4.826,5.761-4.473
				c2.82,0.351,4.798,2.933,4.448,5.766C352.961,276.16,350.403,278.149,347.587,277.787z"/>
			<path fill="#C0E28E" d="M335.605,416.963c-2.964-1.115-4.483-4.41-3.374-7.363c1.111-2.958,4.398-4.467,7.375-3.357
				c2.965,1.105,4.461,4.406,3.353,7.377C341.853,416.588,338.556,418.072,335.605,416.963z"/>
			<path fill="#E0F0C7" d="M307.271,525.819c-3.089-1.634-4.273-5.439-2.649-8.515c1.63-3.087,5.424-4.256,8.517-2.627
				c3.086,1.625,4.27,5.441,2.645,8.526C314.155,526.295,310.335,527.44,307.271,525.819z"/>
			<path fill="#FFFFFF" d="M291.031,569.938c-3.239-2.028-4.173-6.275-2.154-9.496c2.051-3.225,6.258-4.162,9.486-2.13
				c3.22,2.039,4.174,6.276,2.167,9.505C298.468,571.035,294.215,571.973,291.031,569.938z"/>
		</g>
		<path fill="none" stroke="#FFFFFF" stroke-width="1.8242" stroke-miterlimit="10" d="M294.777,564.083
			c0,0,108.208-264.375,18.717-425.828"/>
		<path fill="none" stroke="#FFFFFF" stroke-width="1.8242" stroke-miterlimit="10" d="M294.777,564.083
			c0,0,31.299-126.264,150.338-164.436"/>
		<path fill="none" stroke="#FFFFFF" stroke-width="1.8242" stroke-miterlimit="10" d="M294.777,564.083
			c0,0-193.04-163.348-178.082-339.445"/>
		<path fill="none" stroke="#FFFFFF" stroke-width="1.8242" stroke-miterlimit="10" d="M294.777,564.083
			c0,0-78.891-122.363-183.142-87.979"/>
		<g>
			<path fill="#81C41D" d="M101.081,235.755c-6.167-8.653-4.116-20.61,4.492-26.717c8.624-6.164,20.602-4.127,26.723,4.49
				c6.164,8.628,4.126,20.587-4.511,26.728C119.161,246.388,107.2,244.35,101.081,235.755z"/>
			<path fill="#A1D356" d="M130.675,366.234c-7.877-4.184-10.833-13.933-6.667-21.755c4.164-7.871,13.912-10.844,21.749-6.677
				c7.879,4.16,10.842,13.911,6.66,21.763C148.256,367.413,138.514,370.387,130.675,366.234z"/>
			<path fill="#C0E28E" d="M197.157,473.225c-7.018-1.671-11.326-8.698-9.667-15.674c1.656-7.015,8.667-11.333,15.654-9.675
				c7.028,1.64,11.325,8.669,9.665,15.672C211.153,470.535,204.158,474.866,197.157,473.225z"/>
			<path fill="#E0F0C7" d="M264.012,545.973c-5.486-0.487-9.51-5.351-9.02-10.808c0.494-5.489,5.309-9.501,10.774-9.025
				c5.503,0.479,9.509,5.32,9.019,10.794C274.297,542.395,269.501,546.461,264.012,545.973z"/>
			<path fill="#FFFFFF" d="M294.819,571.272c-3.802-0.03-6.868-3.12-6.865-6.907c0.017-3.815,3.07-6.869,6.861-6.867
				c3.83-0.023,6.898,3.087,6.864,6.883C301.706,568.163,298.651,571.247,294.819,571.272z"/>
		</g>
		<g>
			<path fill="#81C41D" d="M437.348,408.886c-5.164-4.358-5.787-11.994-1.489-17.139c4.329-5.118,12.005-5.77,17.111-1.443
				c5.132,4.326,5.78,11.963,1.469,17.077C450.115,412.501,442.464,413.182,437.348,408.886z"/>
			<path fill="#A1D356" d="M368.363,451.771c-5.765-1.734-9.004-7.764-7.289-13.501c1.71-5.722,7.777-8.958,13.49-7.232
				c5.731,1.731,8.979,7.741,7.259,13.456C380.098,450.209,374.077,453.479,368.363,451.771z"/>
			<path fill="#C0E28E" d="M325.406,505.668c-5.283,0.01-9.548-4.23-9.567-9.505c-0.019-5.241,4.263-9.504,9.506-9.505
				c5.262-0.001,9.53,4.223,9.534,9.471C334.883,501.37,330.652,505.654,325.406,505.668z"/>
			<path fill="#E0F0C7" d="M303.179,551.804c-4.461,0.871-8.768-2.014-9.647-6.488c-0.871-4.425,2.062-8.728,6.499-9.582
				c4.455-0.857,8.765,2.013,9.62,6.458C310.505,546.621,307.625,550.938,303.179,551.804z"/>
			<path fill="#FFFFFF" d="M297.001,570.638c-3.618,1.191-7.489-0.759-8.72-4.402c-1.163-3.595,0.804-7.497,4.419-8.65
				c3.618-1.199,7.525,0.752,8.699,4.372C302.571,565.552,300.623,569.453,297.001,570.638z"/>
		</g>
		<g>
			<path fill="#42A72A" d="M118.911,478.289c-1.131,3.857-5.175,6.108-9.045,4.992c-3.877-1.12-6.108-5.163-4.981-9.009
				c1.077-3.912,5.143-6.119,9.022-5.003C117.753,470.4,120.013,474.414,118.911,478.289z"/>
			<path fill="#71BD5F" d="M188.965,481.033c-3.078,2.494-7.617,2.014-10.113-1.076c-2.514-3.091-2.012-7.603,1.053-10.099
				c3.096-2.521,7.615-2.031,10.111,1.055C192.502,474.004,192.056,478.529,188.965,481.033z"/>
			<path fill="#A1D395" d="M244.555,513.972c-3.733,1.14-7.676-0.974-8.828-4.716c-1.156-3.758,0.961-7.7,4.688-8.847
				c3.752-1.155,7.708,0.969,8.843,4.7C250.4,508.861,248.306,512.812,244.555,513.972z"/>
			<path fill="#D0E9CA" d="M281.627,552.335c-3.829,0.362-7.192-2.47-7.558-6.312c-0.369-3.864,2.465-7.248,6.291-7.606
				c3.843-0.359,7.233,2.491,7.583,6.306C288.298,548.586,285.484,551.967,281.627,552.335z"/>
			<path fill="#FFFFFF" d="M294.755,570.787c-3.786-0.079-6.76-3.241-6.65-7.042c0.052-3.829,3.247-6.82,7.033-6.723
				c3.793,0.093,6.792,3.285,6.683,7.046C301.738,567.902,298.578,570.872,294.755,570.787z"/>
		</g>
	</g>
</g>
</svg>
