<svg xmlns="http://www.w3.org/2000/svg" width="449.036" height="44.014" viewBox="0 0 449.036 44.014"><g transform="translate(-556.261 -411.764)"><path d="M572,455.778c-3.521-8.549-4.762-17.4-4.762-26.53a70.5,70.5,0,0,1,.908-11.762H571.5a52.4,52.4,0,0,0-1.064,11.249,84.975,84.975,0,0,0,3.277,23.984,84.9,84.9,0,0,0,3.275-23.984,52.266,52.266,0,0,0-1.062-11.249h3.358a70.609,70.609,0,0,1,.908,11.762c0,9.13-1.239,17.981-4.761,26.53Z" fill="#fff"/><path d="M585.716,426.91a.746.746,0,1,1-.048,1.053.746.746,0,0,1,.048-1.053Z" fill="#fff"/><path d="M585.716,429.225a.748.748,0,1,1-.048,1.054A.748.748,0,0,1,585.716,429.225Z" fill="#fff"/><path d="M587.3,431.032a.745.745,0,1,1-.244.517.745.745,0,0,1,.244-.517Z" fill="#fff"/><path d="M585.247,437.07a.746.746,0,1,1-.048,1.054.746.746,0,0,1,.048-1.054Z" fill="#fff"/><path d="M585.168,439.413a.742.742,0,1,1-.27.505.747.747,0,0,1,.27-.505Z" fill="#fff"/><path d="M586.677,441.293a.745.745,0,1,1-.277.5A.746.746,0,0,1,586.677,441.293Z" fill="#fff"/><path d="M586.826,435.627a.747.747,0,1,1-.048,1.054.747.747,0,0,1,.048-1.054Z" fill="#fff"/><path d="M583.725,447.135a.747.747,0,1,1-.3.485.746.746,0,0,1,.3-.485Z" fill="#fff"/><path d="M583.55,449.727a.745.745,0,1,1-.317.474.746.746,0,0,1,.317-.474Z" fill="#fff"/><path d="M585.48,445.877a.746.746,0,1,1-.174,1.04A.746.746,0,0,1,585.48,445.877Z" fill="#fff"/><path d="M589.086,423.413a.746.746,0,1,1,.347.994A.746.746,0,0,1,589.086,423.413Z" fill="#fff"/><path d="M589.7,421.09a.745.745,0,1,1,.191.538A.745.745,0,0,1,589.7,421.09Z" fill="#fff"/><path d="M589.608,418.438a.746.746,0,1,1,.871.594.746.746,0,0,1-.871-.594Z" fill="#fff"/><path d="M588.785,416.061a.747.747,0,1,1,1.023.265.747.747,0,0,1-1.023-.265Z" fill="#fff"/><path d="M587.581,425.184a.746.746,0,1,1-.049,1.052.746.746,0,0,1,.049-1.052Z" fill="#fff"/><path d="M561.735,426.91a.746.746,0,1,0,.046,1.053A.746.746,0,0,0,561.735,426.91Z" fill="#fff"/><path d="M561.735,429.225a.747.747,0,1,0,.046,1.054.747.747,0,0,0-.046-1.054Z" fill="#fff"/><path d="M560.155,431.032a.745.745,0,1,0,.244.517.745.745,0,0,0-.244-.517Z" fill="#fff"/><path d="M562.205,437.07a.746.746,0,1,0,.047,1.054A.746.746,0,0,0,562.205,437.07Z" fill="#fff"/><path d="M562.283,439.413a.744.744,0,1,0,.269.505.746.746,0,0,0-.269-.505Z" fill="#fff"/><path d="M560.776,441.293a.746.746,0,1,0,.117,1.048.746.746,0,0,0-.117-1.048Z" fill="#fff"/><path d="M560.625,435.627a.747.747,0,1,0,.049,1.054.747.747,0,0,0-.049-1.054Z" fill="#fff"/><path d="M563.728,447.135a.747.747,0,1,0,.173,1.043.747.747,0,0,0-.173-1.043Z" fill="#fff"/><path d="M563.9,449.727a.742.742,0,1,0,.318.474.746.746,0,0,0-.318-.474Z" fill="#fff"/><path d="M561.97,445.877a.744.744,0,1,0,.3.484.746.746,0,0,0-.3-.484Z" fill="#fff"/><path d="M558.366,423.413a.746.746,0,1,0-.347.994.746.746,0,0,0,.347-.994Z" fill="#fff"/><path d="M557.752,421.09a.746.746,0,1,0-.709.783A.746.746,0,0,0,557.752,421.09Z" fill="#fff"/><path d="M557.843,418.438a.746.746,0,1,0-.871.594A.746.746,0,0,0,557.843,418.438Z" fill="#fff"/><path d="M558.666,416.061a.747.747,0,1,0-1.021.265.747.747,0,0,0,1.021-.265Z" fill="#fff"/><path d="M559.869,425.184a.744.744,0,1,0,.244.515.746.746,0,0,0-.244-.515Z" fill="#fff"/><path d="M568.85,447.04l-4.257-3a.786.786,0,0,1-.121-1.107l2.846-3.333a1.582,1.582,0,0,0-.1-2.235l-3.565-3.245A.791.791,0,0,1,563.6,433l3.251-3.563a1.579,1.579,0,0,0-.1-2.233l-4.722-4.314a1.638,1.638,0,0,1-.1-2.233l4.914-6.561a1.323,1.323,0,0,0-.087-1.865,2.171,2.171,0,0,0-1.768-.425,8.176,8.176,0,0,0-7.233,9.261c.258,2.362,1.1,3.209,1.562,3.631l3.554,3.245a.788.788,0,0,1,.051,1.115l-3.249,3.562a1.58,1.58,0,0,0,.1,2.233l3.564,3.25a.786.786,0,0,1,.051,1.113l-2.86,3.586a1.58,1.58,0,0,0,.247,2.221l4.264,3.043a.792.792,0,0,1,.135,1.108l-1.839,2.746a1.581,1.581,0,0,0,2.571,1.842l3.217-4.505a1.579,1.579,0,0,0-.273-2.217Zm-6-33.185a.635.635,0,1,1,.042.9.635.635,0,0,1-.042-.9Z" fill="#fff"/><path d="M582.47,411.808a2.171,2.171,0,0,0-1.768.425,1.323,1.323,0,0,0-.087,1.865l4.915,6.561a1.638,1.638,0,0,1-.1,2.233l-4.721,4.314a1.577,1.577,0,0,0-.1,2.233l3.25,3.563a.79.79,0,0,1-.052,1.115l-3.564,3.245a1.583,1.583,0,0,0-.1,2.235l2.849,3.333a.79.79,0,0,1-.124,1.107l-4.258,3a1.58,1.58,0,0,0-.269,2.219l3.216,4.505a1.582,1.582,0,1,0,2.572-1.842l-1.839-2.746a.791.791,0,0,1,.135-1.108l4.266-3.043a1.582,1.582,0,0,0,.248-2.221l-2.862-3.586a.786.786,0,0,1,.05-1.113l3.565-3.25a1.581,1.581,0,0,0,.1-2.233l-3.25-3.562a.79.79,0,0,1,.051-1.115l3.554-3.245c.462-.422,1.3-1.269,1.563-3.631a8.176,8.176,0,0,0-7.24-9.258Zm2.086,2.945a.636.636,0,1,1,.207-.441.635.635,0,0,1-.207.441Z" fill="#fff"/><path d="M702.89,433.475h7.219v-2.807H702.89v-4.031h7.423v-2.768H699.828v16.566h10.728v-2.8H702.89Zm12.379-8.46H712.2v15.42H723v-2.628h-7.725Zm21.777,6.56a3.481,3.481,0,0,0,1.7-3.215,4.144,4.144,0,0,0-1.433-3.345,5.893,5.893,0,0,0-3.9-1.16h-5.054v16.58h5.921a6.488,6.488,0,0,0,4.157-1.259,4.185,4.185,0,0,0,1.594-3.442,4.238,4.238,0,0,0-1.036-2.849,4.97,4.97,0,0,0-1.949-1.31m-5.661-4.917h1.791a3.056,3.056,0,0,1,1.893.443,1.3,1.3,0,0,1,.384.541,2.525,2.525,0,0,1,.131.862,1.8,1.8,0,0,1-.689,1.59,4.018,4.018,0,0,1-2.354.544h-1.156Zm4.849,10.45a3.626,3.626,0,0,1-2.194.492h-2.655v-4.143h2.282a4.353,4.353,0,0,1,2.484.541,1.772,1.772,0,0,1,.69,1.578,1.748,1.748,0,0,1-.607,1.532m27.913-5.7h0l-.328-.18a10.424,10.424,0,0,1-1.933-1.368,2.291,2.291,0,0,1-.427-.536.675.675,0,0,1-.128-.369,1.032,1.032,0,0,1,.49-.9,2.371,2.371,0,0,1,1.435-.4,4.155,4.155,0,0,1,1.561.3,7.955,7.955,0,0,1,1.754,1.056l.619.46v-3.3l-.187-.114a9.185,9.185,0,0,0-1.821-.762,7.188,7.188,0,0,0-1.834-.257,5.326,5.326,0,0,0-3.482,1.149,3.8,3.8,0,0,0-1.389,2.993,3.618,3.618,0,0,0,.732,2.265,6.628,6.628,0,0,0,1.215,1.082c.556.423,1.268.879,2.133,1.41.543.311.98.6,1.32.84a4.366,4.366,0,0,1,.69.574,1.544,1.544,0,0,1,.35.955,1.227,1.227,0,0,1-.511,1.017,2.522,2.522,0,0,1-1.545.412,3.875,3.875,0,0,1-1.836-.441,7.519,7.519,0,0,1-1.862-1.5l-.669-.723V438.9l.165.108a6.317,6.317,0,0,0,2,1.083,7.1,7.1,0,0,0,2.335.354,5.291,5.291,0,0,0,3.481-1.147,3.749,3.749,0,0,0,1.4-2.966,4.372,4.372,0,0,0-.747-2.6,9.289,9.289,0,0,0-2.981-2.341m19.28,6.484a7.3,7.3,0,0,0,1.725-4.822,8.286,8.286,0,0,0-.611-3.148,8.149,8.149,0,0,0-1.815-2.609,8.022,8.022,0,0,0-2.659-1.736,8.586,8.586,0,0,0-3.188-.6,8.4,8.4,0,0,0-3.151.6,8.253,8.253,0,0,0-2.684,1.736,7.952,7.952,0,0,0-1.777,2.579,7.412,7.412,0,0,0-.644,3.031,7.862,7.862,0,0,0,1.709,5.006,8,8,0,0,0,4.426,2.812,20.291,20.291,0,0,0,3.838,2.2,8.9,8.9,0,0,0,3.416.781h.3a1.092,1.092,0,0,0,.249-.025l.123-.02,2.269-1.992-.172-.479-.125-.3-.3.068c-.3.063-.545.093-.786.121a3.334,3.334,0,0,1-.624.041,8.073,8.073,0,0,1-1.858-.244c-.4-.116-.862-.275-1.353-.464a8.51,8.51,0,0,0,3.692-2.531m-1.686-3.185a5.1,5.1,0,0,1-1.134,1.688l-.017.014a5.282,5.282,0,0,1-1.7,1.179,5.4,5.4,0,0,1-2.009.394,5.157,5.157,0,0,1-2.009-.41,5.479,5.479,0,0,1-1.707-1.163v-.014a4.838,4.838,0,0,1-1.123-1.688,5.012,5.012,0,0,1-.4-2.01,5.134,5.134,0,0,1,.4-2.035,4.942,4.942,0,0,1,1.114-1.681,5.6,5.6,0,0,1,1.737-1.158,5.217,5.217,0,0,1,4,0,4.93,4.93,0,0,1,1.693,1.146,5.2,5.2,0,0,1,1.16,1.737,4.883,4.883,0,0,1,.4,1.991,5.075,5.075,0,0,1-.4,2.01m15.209-.209a2.82,2.82,0,0,1-1.034,2.3,4.227,4.227,0,0,1-2.82.9,4.787,4.787,0,0,1-1.862-.354,3.753,3.753,0,0,1-1.4-1.036,2.013,2.013,0,0,1-.425-.862,8.116,8.116,0,0,1-.149-1.9V425.01h-2.85v8.609a10.256,10.256,0,0,0,.258,2.673,4.409,4.409,0,0,0,.871,1.653,6.357,6.357,0,0,0,2.407,1.849,7.825,7.825,0,0,0,3.154.623,7.1,7.1,0,0,0,4.813-1.624,5.289,5.289,0,0,0,1.875-4.254V425.01H796.95Zm7.727,3.284V434h7.266v-2.643h-7.266v-3.631h7.493V425.1H801.606v15.3h10.8v-2.625Zm-49.625-10.585a8.3,8.3,0,0,0-2.674-1.7,9.006,9.006,0,0,0-3.208-.587,8.743,8.743,0,0,0-3.151.587,7.936,7.936,0,0,0-2.69,1.7,7.689,7.689,0,0,0-1.819,2.523,7.439,7.439,0,0,0-.636,2.977,7.585,7.585,0,0,0,2.455,5.64A8.184,8.184,0,0,0,746,440.02a9,9,0,0,0,6.356.014,8.536,8.536,0,0,0,2.71-1.7,7.913,7.913,0,0,0,1.8-2.516,7.426,7.426,0,0,0,.621-3,7.691,7.691,0,0,0-.6-3.054,7.786,7.786,0,0,0-1.833-2.571m-.99,7.521a5.139,5.139,0,0,1-2.836,2.775,5.686,5.686,0,0,1-4.1,0,5.405,5.405,0,0,1-1.7-1.112,4.86,4.86,0,0,1-1.135-1.663,4.762,4.762,0,0,1-.4-1.958,4.976,4.976,0,0,1,.4-1.974,5.049,5.049,0,0,1,1.135-1.643,5.99,5.99,0,0,1,1.744-1.13,5.429,5.429,0,0,1,4.016,0,5.1,5.1,0,0,1,1.71,1.13,5.182,5.182,0,0,1,1.176,1.688,5,5,0,0,1,.382,1.929,4.828,4.828,0,0,1-.4,1.958" fill="#fff"/><path d="M601.176,440.441a4.241,4.241,0,0,0,3.256-1.291,4.961,4.961,0,0,0,1.207-3.476v-6.325h-.912v6.376a3.949,3.949,0,0,1-.948,2.772,3.443,3.443,0,0,1-2.6,1.038A3.372,3.372,0,0,1,598.6,438.5a3.863,3.863,0,0,1-.974-2.772v-6.376h-.87v6.325a4.857,4.857,0,0,0,1.193,3.476,4.212,4.212,0,0,0,3.233,1.291m8.652-9.446,7.01,8.458h.7v-9.561h-.754v8.331l-6.927-8.331h-.8v9.561h.765Zm11.186,8.6h.813V430.02h-.813Zm7.7.161,4.016-9.734h-.813l-3.268,8.032-3.229-8.032h-.849l4.029,9.734Zm11.534-.814h-4.476v-3.891h4.22v-.614h-4.22v-3.793h4.366v-.622H635V439.6h5.244Zm4.129-3.95h.769a5.364,5.364,0,0,1,1.22.113,1.408,1.408,0,0,1,.672.363,7.671,7.671,0,0,1,.506.639c.207.289.478.672.764,1.136l1.513,2.352h.858l-2.611-4.027a2.9,2.9,0,0,0-.364-.463,3.7,3.7,0,0,0-.479-.348,2.661,2.661,0,0,0,1.355-.879,2.284,2.284,0,0,0,.446-1.455,2.1,2.1,0,0,0-.8-1.779,3.747,3.747,0,0,0-2.309-.622h-2.3V439.6h.753Zm0-4.313h1.59a2.567,2.567,0,0,1,1.655.457,1.55,1.55,0,0,1,.573,1.287,1.885,1.885,0,0,1-.251,1.026,1.621,1.621,0,0,1-.783.646,2.969,2.969,0,0,1-.7.2c-.293.025-.785.041-1.495.041h-.589Zm13.567,6.431a2.986,2.986,0,0,0-.149-.91,2.59,2.59,0,0,0-.468-.759,5.037,5.037,0,0,0-1.752-1.038,1.578,1.578,0,0,1-.205-.1,4.315,4.315,0,0,1-1.515-.889,1.434,1.434,0,0,1-.352-1.019,1.707,1.707,0,0,1,.541-1.294,2.005,2.005,0,0,1,1.4-.508,3.146,3.146,0,0,1,1.054.189,4.9,4.9,0,0,1,1.133.609v-.86a5.617,5.617,0,0,0-1.068-.478,4.188,4.188,0,0,0-1.081-.161,2.764,2.764,0,0,0-1.977.718,2.371,2.371,0,0,0-.765,1.811,2.18,2.18,0,0,0,.5,1.49,5.11,5.11,0,0,0,1.862,1.138,5.262,5.262,0,0,1,1.677.96,1.54,1.54,0,0,1,.358,1.071,1.812,1.812,0,0,1-.54,1.4,2.031,2.031,0,0,1-1.462.51,3.03,3.03,0,0,1-1.149-.256,5.465,5.465,0,0,1-1.273-.779v.921a5.063,5.063,0,0,0,1.212.639,3.767,3.767,0,0,0,1.225.208,2.79,2.79,0,0,0,2.009-.733,2.459,2.459,0,0,0,.79-1.881m3.857-7.088h-.8V439.6h.8Zm8.653,9.35a4.013,4.013,0,0,0,1.388-.67,4.572,4.572,0,0,0,1.387-1.686,5.251,5.251,0,0,0,0-4.43,4.615,4.615,0,0,0-1.387-1.687,4.13,4.13,0,0,0-1.376-.667,7.545,7.545,0,0,0-1.841-.21H665.35v9.573h3.283a6.741,6.741,0,0,0,1.829-.223m-4.3-.458V430.7h2.279a7.577,7.577,0,0,1,1.6.163,3.465,3.465,0,0,1,1.166.488,3.757,3.757,0,0,1,1.247,1.453,4.477,4.477,0,0,1,.441,2.008,4.587,4.587,0,0,1-.441,2.009,3.824,3.824,0,0,1-1.247,1.451,3.531,3.531,0,0,1-1.166.494,7.979,7.979,0,0,1-1.6.142Zm12.933-8.526-3.933,9.207h.765l1.34-3.184h3.961l1.344,3.184h.764l-3.935-9.207Zm-1.578,5.4,1.742-4.137,1.72,4.137Zm13.688,3.585a3.789,3.789,0,0,0,1.384-.67,4.5,4.5,0,0,0,1.387-1.686,5.184,5.184,0,0,0,0-4.43,4.54,4.54,0,0,0-1.387-1.687,3.894,3.894,0,0,0-1.371-.667,7.6,7.6,0,0,0-1.845-.21H686.1v9.573h3.265a6.732,6.732,0,0,0,1.832-.223m-4.3-.458V430.7h2.284a7.6,7.6,0,0,1,1.605.163,3.439,3.439,0,0,1,1.163.488,3.682,3.682,0,0,1,1.243,1.453,4.362,4.362,0,0,1,.445,2.008,4.469,4.469,0,0,1-.445,2.009,3.746,3.746,0,0,1-1.243,1.451,3.507,3.507,0,0,1-1.163.494,8.007,8.007,0,0,1-1.605.142Z" fill="#fff"/><rect width="3.072" height="23.182" transform="translate(823.875 421.624)" fill="#fff"/><path d="M1.7-3.266v-2.77H3.295c1.327,0,1.662.678,1.662,1.347,0,.726-.334,1.423-1.662,1.423Zm1.643.649c1.165,0,2.349-.525,2.349-2.072s-1.184-2-2.349-2H1.1c-.115,0-.153.019-.153.153V-.153C.945-.038.974,0,1.1,0h.449C1.671,0,1.7-.038,1.7-.153V-2.617Zm6-1.643c.115,0,.143-.029.172-.143l.057-.43c.019-.1,0-.134-.134-.134A1.98,1.98,0,0,0,7.449-3.753l-.115-.955c-.048-.115-.086-.153-.162-.153H6.933c-.105,0-.143.038-.143.153V-.153c0,.115.038.153.143.153h.43c.105,0,.143-.038.143-.153V-2.5A1.708,1.708,0,0,1,9.34-4.259Zm.783,1.834A2.519,2.519,0,0,0,12.635.105a2.519,2.519,0,0,0,2.512-2.531,2.527,2.527,0,0,0-2.512-2.54A2.527,2.527,0,0,0,10.123-2.426ZM12.635-.535a1.84,1.84,0,0,1-1.8-1.891,1.84,1.84,0,0,1,1.8-1.891,1.842,1.842,0,0,1,1.8,1.891A1.842,1.842,0,0,1,12.635-.535Zm7.4.267c0,1.146-.382,1.986-1.614,1.986a4.194,4.194,0,0,1-1.614-.325c-.105-.048-.134-.029-.162.086l-.1.363c-.029.105-.01.134.086.172a4.962,4.962,0,0,0,1.891.344c1.48,0,2.225-.869,2.225-2.7V-4.708c0-.115-.038-.153-.143-.153h-.22c-.086,0-.124.038-.162.153l-.076.888a2.172,2.172,0,0,0-1.881-1.146,2.325,2.325,0,0,0-2.206,2.54A2.306,2.306,0,0,0,18.269.105a1.937,1.937,0,0,0,1.767-1.117ZM18.412-4.326a1.776,1.776,0,0,1,1.633,1.891A1.77,1.77,0,0,1,18.412-.544a1.743,1.743,0,0,1-1.633-1.881A1.712,1.712,0,0,1,18.412-4.326Zm6.733.067c.115,0,.143-.029.172-.143l.057-.43c.019-.1,0-.134-.134-.134a1.98,1.98,0,0,0-1.986,1.213l-.115-.955c-.048-.115-.086-.153-.162-.153h-.239c-.105,0-.143.038-.143.153V-.153c0,.115.038.153.143.153h.43c.105,0,.143-.038.143-.153V-2.5A1.708,1.708,0,0,1,25.145-4.259Zm1.471.076a7.809,7.809,0,0,1,1.471-.153c1,0,1.356.439,1.356,1.643A4.211,4.211,0,0,0,27.9-3.027c-1.175,0-1.958.506-1.958,1.547a1.569,1.569,0,0,0,1.7,1.585A2.356,2.356,0,0,0,29.557-.8l.038.649c.029.115.067.153.143.153h.277c.105,0,.143-.038.143-.153V-2.674c0-1.576-.439-2.292-2.044-2.292a9.026,9.026,0,0,0-1.643.172c-.115.038-.143.086-.115.191l.076.286C26.463-4.2,26.492-4.154,26.616-4.183Zm1.423,1.69a3.38,3.38,0,0,1,1.4.344v.793a2.063,2.063,0,0,1-1.585.9c-.774,0-1.2-.43-1.2-1.022C26.654-2.13,27.132-2.493,28.039-2.493Zm7.478-1.3A1.75,1.75,0,0,0,33.9-4.966,1.7,1.7,0,0,0,32.384-3.82l-.076-.888c-.048-.115-.086-.153-.162-.153h-.239c-.105,0-.143.038-.143.153V-.153c0,.115.038.153.143.153h.43c.105,0,.143-.038.143-.153V-2.559c0-1.012.478-1.757,1.251-1.757s1.251.688,1.251,1.69V-.153c0,.115.048.153.143.153h.43c.115,0,.143-.038.143-.153V-2.607c0-1.05.544-1.709,1.251-1.709.678,0,1.251.554,1.251,1.69V-.153c0,.115.048.153.143.153h.43c.115,0,.143-.038.143-.153V-2.817c0-1.528-.86-2.149-1.8-2.149A1.835,1.835,0,0,0,35.516-3.791ZM40.8-4.183a7.809,7.809,0,0,1,1.471-.153c1,0,1.356.439,1.356,1.643a4.211,4.211,0,0,0-1.547-.334c-1.175,0-1.958.506-1.958,1.547a1.569,1.569,0,0,0,1.7,1.585A2.356,2.356,0,0,0,43.739-.8l.038.649c.029.115.067.153.143.153H44.2c.105,0,.143-.038.143-.153V-2.674c0-1.576-.439-2.292-2.044-2.292a9.026,9.026,0,0,0-1.643.172c-.115.038-.143.086-.115.191l.076.286C40.645-4.2,40.673-4.154,40.8-4.183Zm1.423,1.69a3.38,3.38,0,0,1,1.4.344v.793a2.063,2.063,0,0,1-1.585.9c-.774,0-1.2-.43-1.2-1.022C40.836-2.13,41.313-2.493,42.221-2.493Zm9.646-1.356A1.937,1.937,0,0,0,50.1-4.966a2.311,2.311,0,0,0-2.206,2.531A2.325,2.325,0,0,0,50.1.105a2.172,2.172,0,0,0,1.881-1.146l.076.888c.038.115.076.153.162.153h.22c.105,0,.143-.038.143-.153V-6.9c0-.115-.038-.153-.143-.153h-.43c-.105,0-.143.038-.143.153ZM50.243-.535a1.712,1.712,0,0,1-1.633-1.9,1.738,1.738,0,0,1,1.633-1.881,1.77,1.77,0,0,1,1.633,1.891A1.776,1.776,0,0,1,50.243-.535Zm7.993-.458c-.076-.086-.115-.067-.22-.01a2.624,2.624,0,0,1-1.5.478,1.856,1.856,0,0,1-1.843-1.652h3.982c.124,0,.143-.038.143-.153A2.406,2.406,0,0,0,56.44-4.966a2.519,2.519,0,0,0-2.5,2.54A2.521,2.521,0,0,0,56.488.105a2.872,2.872,0,0,0,1.929-.669c.067-.067.067-.124,0-.21ZM54.693-2.674a1.768,1.768,0,0,1,1.738-1.69,1.688,1.688,0,0,1,1.633,1.69ZM62.61-.153c0,.115.038.153.153.153h.458c.115,0,.143-.038.143-.153V-6.532c0-.115-.029-.153-.143-.153h-.458c-.115,0-.153.038-.153.153Zm3.228-4.555c-.048-.115-.086-.153-.162-.153h-.239c-.105,0-.143.038-.143.153V-.153c0,.115.038.153.143.153h.43c.105,0,.143-.038.143-.153V-2.559c0-.955.535-1.757,1.366-1.757.774,0,1.347.554,1.347,1.69V-.153c0,.115.038.153.143.153h.43c.105,0,.143-.038.143-.153V-2.817c0-1.528-.869-2.149-1.891-2.149a1.89,1.89,0,0,0-1.633,1.117ZM74.557-.267c0,1.146-.382,1.986-1.614,1.986a4.194,4.194,0,0,1-1.614-.325c-.105-.048-.134-.029-.162.086l-.1.363c-.029.105-.01.134.086.172a4.962,4.962,0,0,0,1.891.344c1.48,0,2.225-.869,2.225-2.7V-4.708c0-.115-.038-.153-.143-.153h-.22c-.086,0-.124.038-.162.153l-.076.888A2.172,2.172,0,0,0,72.79-4.966a2.325,2.325,0,0,0-2.206,2.54A2.306,2.306,0,0,0,72.79.105a1.937,1.937,0,0,0,1.767-1.117ZM72.933-4.326a1.776,1.776,0,0,1,1.633,1.891A1.77,1.77,0,0,1,72.933-.544,1.743,1.743,0,0,1,71.3-2.426,1.712,1.712,0,0,1,72.933-4.326ZM80.927-.993c-.076-.086-.115-.067-.22-.01a2.624,2.624,0,0,1-1.5.478,1.856,1.856,0,0,1-1.843-1.652h3.982c.124,0,.143-.038.143-.153a2.406,2.406,0,0,0-2.359-2.636,2.519,2.519,0,0,0-2.5,2.54A2.521,2.521,0,0,0,79.179.105a2.872,2.872,0,0,0,1.929-.669c.067-.067.067-.124,0-.21ZM77.384-2.674a1.768,1.768,0,0,1,1.738-1.69,1.688,1.688,0,0,1,1.633,1.69Zm6.007-2.034c-.048-.115-.086-.153-.162-.153H82.99c-.105,0-.143.038-.143.153V-.153c0,.115.038.153.143.153h.43c.105,0,.143-.038.143-.153V-2.559c0-.955.535-1.757,1.366-1.757.774,0,1.347.554,1.347,1.69V-.153c0,.115.038.153.143.153h.43c.105,0,.143-.038.143-.153V-2.817c0-1.528-.869-2.149-1.891-2.149a1.89,1.89,0,0,0-1.633,1.117ZM88.815-.153c0,.115.029.153.143.153h.42c.115,0,.153-.038.153-.153V-4.708c0-.115-.029-.153-.153-.153h-.42c-.115,0-.143.038-.143.153Zm-.153-6.3a.493.493,0,0,0,.5.5.5.5,0,0,0,.506-.5.5.5,0,0,0-.506-.5A.493.493,0,0,0,88.662-6.456ZM95.4-.993c-.076-.086-.115-.067-.22-.01a2.624,2.624,0,0,1-1.5.478,1.856,1.856,0,0,1-1.843-1.652h3.982c.124,0,.143-.038.143-.153a2.406,2.406,0,0,0-2.359-2.636,2.519,2.519,0,0,0-2.5,2.54A2.521,2.521,0,0,0,93.657.105a2.872,2.872,0,0,0,1.929-.669c.067-.067.067-.124,0-.21ZM91.861-2.674A1.768,1.768,0,0,1,93.6-4.364a1.688,1.688,0,0,1,1.633,1.69Zm8.012-1.585c.115,0,.143-.029.172-.143l.057-.43c.019-.1,0-.134-.134-.134a1.98,1.98,0,0,0-1.986,1.213l-.115-.955c-.048-.115-.086-.153-.162-.153h-.239c-.105,0-.143.038-.143.153V-.153c0,.115.038.153.143.153h.43c.105,0,.143-.038.143-.153V-2.5A1.708,1.708,0,0,1,99.874-4.259Zm1.48,4.107c0,.115.038.153.153.153h.411c.115,0,.153-.038.153-.153V-4.708c0-.115-.029-.153-.153-.153h-.411c-.115,0-.153.038-.153.153Zm1.518-6.265a.123.123,0,0,0,.029-.191L102.72-6.9c-.057-.086-.124-.115-.191-.038l-1.194,1.261c-.105.105-.067.162.029.162h.382a.382.382,0,0,0,.248-.1ZM104.3-4.183a7.809,7.809,0,0,1,1.471-.153c1,0,1.356.439,1.356,1.643a4.211,4.211,0,0,0-1.547-.334c-1.175,0-1.958.506-1.958,1.547a1.569,1.569,0,0,0,1.7,1.585,2.356,2.356,0,0,0,1.92-.907l.038.649c.029.115.067.153.143.153h.277c.105,0,.143-.038.143-.153V-2.674c0-1.576-.439-2.292-2.044-2.292a9.026,9.026,0,0,0-1.643.172c-.115.038-.143.086-.115.191l.076.286C104.143-4.2,104.171-4.154,104.3-4.183Zm1.423,1.69a3.38,3.38,0,0,1,1.4.344v.793a2.063,2.063,0,0,1-1.585.9c-.774,0-1.2-.43-1.2-1.022C104.334-2.13,104.811-2.493,105.718-2.493Zm9.646-1.356A1.937,1.937,0,0,0,113.6-4.966a2.312,2.312,0,0,0-2.206,2.531A2.325,2.325,0,0,0,113.6.105a2.172,2.172,0,0,0,1.881-1.146l.076.888c.038.115.076.153.162.153h.22c.105,0,.143-.038.143-.153V-6.9c0-.115-.038-.153-.143-.153h-.43c-.105,0-.143.038-.143.153ZM113.741-.535a1.712,1.712,0,0,1-1.633-1.9,1.738,1.738,0,0,1,1.633-1.881,1.77,1.77,0,0,1,1.633,1.891A1.776,1.776,0,0,1,113.741-.535Zm7.993-.458c-.076-.086-.115-.067-.22-.01a2.624,2.624,0,0,1-1.5.478,1.856,1.856,0,0,1-1.843-1.652h3.982c.124,0,.143-.038.143-.153a2.406,2.406,0,0,0-2.359-2.636,2.519,2.519,0,0,0-2.5,2.54,2.521,2.521,0,0,0,2.55,2.531,2.872,2.872,0,0,0,1.929-.669c.067-.067.067-.124,0-.21Zm-3.543-1.681a1.768,1.768,0,0,1,1.738-1.69,1.688,1.688,0,0,1,1.633,1.69Zm10.066-3.448a3.38,3.38,0,0,1,1.91.63c.1.076.153.038.21-.067l.181-.3c.038-.1.057-.153-.048-.21a4.153,4.153,0,0,0-2.349-.726,2.124,2.124,0,0,0-2.407,2c0,1.27,1.213,1.585,2.254,1.729,1.251.172,1.967.43,1.967,1.222,0,.993-.917,1.28-1.8,1.28a3.86,3.86,0,0,1-2.12-.64c-.115-.067-.153-.048-.22.057l-.181.306c-.057.105-.057.153.038.21a4.339,4.339,0,0,0,2.579.735c1.643,0,2.435-.955,2.435-1.977,0-1.28-1.05-1.662-2.282-1.824-1.051-.134-1.939-.334-1.939-1.117C126.49-5.31,126.8-6.122,128.257-6.122Zm4.106,5.969c0,.115.029.153.143.153h.42c.115,0,.153-.038.153-.153V-4.708c0-.115-.029-.153-.153-.153h-.42c-.115,0-.143.038-.143.153Zm-.153-6.3a.493.493,0,0,0,.5.5.5.5,0,0,0,.506-.5.5.5,0,0,0-.506-.5A.493.493,0,0,0,132.21-6.456Zm4.422,5.978a2.835,2.835,0,0,1-1.614-.535c-.115-.086-.162-.038-.21.057l-.134.239c-.057.105-.057.153.029.21a3.674,3.674,0,0,0,1.967.611c1.232,0,1.958-.63,1.958-1.509,0-.926-.917-1.232-1.862-1.366-.869-.124-1.347-.22-1.347-.745s.392-.869,1.194-.869a2.53,2.53,0,0,1,1.5.458c.115.076.162.029.21-.067l.124-.229c.048-.086.067-.143-.048-.21a3.508,3.508,0,0,0-1.824-.535c-1.127,0-1.834.583-1.834,1.49,0,1,.907,1.222,1.853,1.347.869.124,1.347.344,1.347.764C137.94-.879,137.558-.478,136.632-.478Zm6.122.353c.086-.048.1-.086.067-.181l-.057-.306c-.038-.134-.067-.143-.191-.076a1.214,1.214,0,0,1-.659.143c-.764,0-1.1-.411-1.1-1.528v-2.2h1.729c.115,0,.143-.038.143-.153v-.286c0-.124-.038-.153-.143-.153h-1.729v-.984c0-.115-.029-.153-.143-.153h-.42c-.115,0-.143.038-.143.153v.984h-.468c-.115,0-.153.029-.153.153v.286c0,.115.038.153.153.153h.468v2.254c0,1.327.468,2.12,1.729,2.12A1.787,1.787,0,0,0,142.753-.124Zm5.233-.869c-.076-.086-.115-.067-.22-.01a2.624,2.624,0,0,1-1.5.478,1.856,1.856,0,0,1-1.843-1.652h3.982c.124,0,.143-.038.143-.153a2.406,2.406,0,0,0-2.359-2.636,2.519,2.519,0,0,0-2.5,2.54,2.521,2.521,0,0,0,2.55,2.531,2.872,2.872,0,0,0,1.929-.669c.067-.067.067-.124,0-.21Zm-3.543-1.681a1.768,1.768,0,0,1,1.738-1.69,1.688,1.688,0,0,1,1.633,1.69Zm9.2-1.117a1.75,1.75,0,0,0-1.614-1.175,1.7,1.7,0,0,0-1.518,1.146l-.076-.888c-.048-.115-.086-.153-.162-.153h-.239c-.105,0-.143.038-.143.153V-.153c0,.115.038.153.143.153h.43c.105,0,.143-.038.143-.153V-2.559c0-1.012.478-1.757,1.251-1.757s1.251.688,1.251,1.69V-.153c0,.115.048.153.143.153h.43c.115,0,.143-.038.143-.153V-2.607c0-1.05.544-1.709,1.251-1.709.678,0,1.251.554,1.251,1.69V-.153c0,.115.048.153.143.153h.43c.115,0,.143-.038.143-.153V-2.817c0-1.528-.859-2.149-1.8-2.149A1.835,1.835,0,0,0,153.64-3.791Zm5.281-.392a7.809,7.809,0,0,1,1.471-.153c1,0,1.356.439,1.356,1.643a4.211,4.211,0,0,0-1.547-.334c-1.175,0-1.958.506-1.958,1.547a1.569,1.569,0,0,0,1.7,1.585,2.356,2.356,0,0,0,1.92-.907l.038.649c.029.115.067.153.143.153h.277c.105,0,.143-.038.143-.153V-2.674c0-1.576-.439-2.292-2.044-2.292a9.026,9.026,0,0,0-1.643.172c-.115.038-.143.086-.115.191l.076.286C158.769-4.2,158.8-4.154,158.922-4.183Zm1.423,1.69a3.38,3.38,0,0,1,1.4.344v.793a2.063,2.063,0,0,1-1.585.9c-.774,0-1.2-.43-1.2-1.022C158.96-2.13,159.437-2.493,160.344-2.493Zm5.233,2.015a2.835,2.835,0,0,1-1.614-.535c-.115-.086-.162-.038-.21.057l-.134.239c-.057.105-.057.153.029.21a3.674,3.674,0,0,0,1.967.611c1.232,0,1.958-.63,1.958-1.509,0-.926-.917-1.232-1.862-1.366-.869-.124-1.347-.22-1.347-.745s.392-.869,1.194-.869a2.53,2.53,0,0,1,1.5.458c.115.076.162.029.21-.067l.124-.229c.048-.086.067-.143-.048-.21a3.508,3.508,0,0,0-1.824-.535c-1.127,0-1.834.583-1.834,1.49,0,1,.907,1.222,1.853,1.347.869.124,1.347.344,1.347.764C166.886-.879,166.5-.478,165.578-.478Z" transform="translate(837.723 436.837)" fill="#fff"/></g></svg>