<svg xmlns="http://www.w3.org/2000/svg" width="449.462" height="43.992" viewBox="0 0 449.462 43.992">
  <g id="Group_249" data-name="Group 249" transform="translate(-556.261 -411.786)">
    <g id="Group_248" data-name="Group 248">
      <g id="Group_246" data-name="Group 246">
        <path id="Path_1789" data-name="Path 1789" d="M572,455.778c-3.521-8.549-4.762-17.4-4.762-26.53a70.5,70.5,0,0,1,.908-11.762H571.5a52.4,52.4,0,0,0-1.064,11.249,84.973,84.973,0,0,0,3.277,23.984,84.9,84.9,0,0,0,3.275-23.984,52.265,52.265,0,0,0-1.062-11.249h3.358a70.61,70.61,0,0,1,.908,11.762c0,9.13-1.239,17.981-4.761,26.53Z" fill="#fff"/>
        <path id="Path_1790" data-name="Path 1790" d="M585.716,426.91a.746.746,0,1,1-.048,1.053A.748.748,0,0,1,585.716,426.91Z" fill="#fff"/>
        <path id="Path_1791" data-name="Path 1791" d="M585.716,429.225a.748.748,0,1,1-.048,1.054A.746.746,0,0,1,585.716,429.225Z" fill="#fff"/>
        <path id="Path_1792" data-name="Path 1792" d="M587.3,431.032a.745.745,0,1,1-.05,1.054A.745.745,0,0,1,587.3,431.032Z" fill="#fff"/>
        <path id="Path_1793" data-name="Path 1793" d="M585.247,437.07a.746.746,0,1,1-.048,1.054A.749.749,0,0,1,585.247,437.07Z" fill="#fff"/>
        <path id="Path_1794" data-name="Path 1794" d="M585.168,439.413a.747.747,0,1,1-.1,1.052A.742.742,0,0,1,585.168,439.413Z" fill="#fff"/>
        <path id="Path_1795" data-name="Path 1795" d="M586.677,441.293a.746.746,0,1,1-.119,1.048A.745.745,0,0,1,586.677,441.293Z" fill="#fff"/>
        <path id="Path_1796" data-name="Path 1796" d="M586.826,435.627a.747.747,0,1,1-.048,1.054A.747.747,0,0,1,586.826,435.627Z" fill="#fff"/>
        <path id="Path_1797" data-name="Path 1797" d="M583.725,447.135a.746.746,0,1,1-.175,1.043A.747.747,0,0,1,583.725,447.135Z" fill="#fff"/>
        <path id="Path_1798" data-name="Path 1798" d="M583.55,449.727a.746.746,0,1,1-.205,1.034A.745.745,0,0,1,583.55,449.727Z" fill="#fff"/>
        <path id="Path_1799" data-name="Path 1799" d="M585.48,445.877a.746.746,0,1,1-.174,1.04A.746.746,0,0,1,585.48,445.877Z" fill="#fff"/>
        <path id="Path_1800" data-name="Path 1800" d="M589.086,423.413a.746.746,0,1,1,.347.994A.746.746,0,0,1,589.086,423.413Z" fill="#fff"/>
        <path id="Path_1801" data-name="Path 1801" d="M589.7,421.09a.745.745,0,1,1,.707.783A.745.745,0,0,1,589.7,421.09Z" fill="#fff"/>
        <path id="Path_1802" data-name="Path 1802" d="M589.608,418.438a.746.746,0,1,1,.871.594A.749.749,0,0,1,589.608,418.438Z" fill="#fff"/>
        <path id="Path_1803" data-name="Path 1803" d="M588.785,416.061a.747.747,0,1,1,1.023.265A.748.748,0,0,1,588.785,416.061Z" fill="#fff"/>
        <path id="Path_1804" data-name="Path 1804" d="M587.581,425.184a.746.746,0,1,1-.049,1.052A.747.747,0,0,1,587.581,425.184Z" fill="#fff"/>
        <path id="Path_1805" data-name="Path 1805" d="M561.735,426.91a.746.746,0,1,0,.046,1.053A.748.748,0,0,0,561.735,426.91Z" fill="#fff"/>
        <path id="Path_1806" data-name="Path 1806" d="M561.735,429.225a.747.747,0,1,0,.046,1.054A.746.746,0,0,0,561.735,429.225Z" fill="#fff"/>
        <path id="Path_1807" data-name="Path 1807" d="M560.155,431.032a.745.745,0,1,0,.05,1.054A.745.745,0,0,0,560.155,431.032Z" fill="#fff"/>
        <path id="Path_1808" data-name="Path 1808" d="M562.205,437.07a.746.746,0,1,0,.047,1.054A.748.748,0,0,0,562.205,437.07Z" fill="#fff"/>
        <path id="Path_1809" data-name="Path 1809" d="M562.283,439.413a.746.746,0,1,0,.1,1.052A.744.744,0,0,0,562.283,439.413Z" fill="#fff"/>
        <path id="Path_1810" data-name="Path 1810" d="M560.776,441.293a.746.746,0,1,0,.117,1.048A.748.748,0,0,0,560.776,441.293Z" fill="#fff"/>
        <path id="Path_1811" data-name="Path 1811" d="M560.625,435.627a.747.747,0,1,0,.049,1.054A.747.747,0,0,0,560.625,435.627Z" fill="#fff"/>
        <path id="Path_1812" data-name="Path 1812" d="M563.728,447.135a.747.747,0,1,0,.173,1.043A.749.749,0,0,0,563.728,447.135Z" fill="#fff"/>
        <path id="Path_1813" data-name="Path 1813" d="M563.9,449.727a.746.746,0,1,0,.205,1.034A.742.742,0,0,0,563.9,449.727Z" fill="#fff"/>
        <path id="Path_1814" data-name="Path 1814" d="M561.97,445.877a.746.746,0,1,0,.175,1.04A.744.744,0,0,0,561.97,445.877Z" fill="#fff"/>
        <path id="Path_1815" data-name="Path 1815" d="M558.366,423.413a.746.746,0,1,0-.347.994A.748.748,0,0,0,558.366,423.413Z" fill="#fff"/>
        <path id="Path_1816" data-name="Path 1816" d="M557.752,421.09a.746.746,0,1,0-.709.783A.747.747,0,0,0,557.752,421.09Z" fill="#fff"/>
        <path id="Path_1817" data-name="Path 1817" d="M557.843,418.438a.746.746,0,1,0-.871.594A.747.747,0,0,0,557.843,418.438Z" fill="#fff"/>
        <path id="Path_1818" data-name="Path 1818" d="M558.666,416.061a.747.747,0,1,0-1.021.265A.749.749,0,0,0,558.666,416.061Z" fill="#fff"/>
        <path id="Path_1819" data-name="Path 1819" d="M559.869,425.184a.746.746,0,1,0,.051,1.052A.744.744,0,0,0,559.869,425.184Z" fill="#fff"/>
        <g id="Group_245" data-name="Group 245">
          <path id="Path_1820" data-name="Path 1820" d="M568.85,447.04l-4.257-3a.786.786,0,0,1-.121-1.107l2.846-3.333a1.582,1.582,0,0,0-.1-2.235l-3.565-3.245A.791.791,0,0,1,563.6,433l3.251-3.563a1.579,1.579,0,0,0-.1-2.233l-4.722-4.314a1.638,1.638,0,0,1-.1-2.233l4.914-6.561a1.323,1.323,0,0,0-.087-1.865,2.171,2.171,0,0,0-1.768-.425,8.176,8.176,0,0,0-7.233,9.261c.258,2.362,1.1,3.209,1.562,3.631l3.554,3.245a.788.788,0,0,1,.051,1.115l-3.249,3.562a1.58,1.58,0,0,0,.1,2.233l3.564,3.25a.786.786,0,0,1,.051,1.113l-2.86,3.586a1.58,1.58,0,0,0,.247,2.221l4.264,3.043a.792.792,0,0,1,.135,1.108l-1.839,2.746a1.581,1.581,0,0,0,2.571,1.842l3.217-4.505A1.579,1.579,0,0,0,568.85,447.04Zm-6-33.185a.635.635,0,1,1,.042.9A.639.639,0,0,1,562.854,413.855Z" fill="#fff"/>
          <path id="Path_1821" data-name="Path 1821" d="M582.47,411.808a2.171,2.171,0,0,0-1.768.425,1.323,1.323,0,0,0-.087,1.865l4.915,6.561a1.638,1.638,0,0,1-.1,2.233l-4.721,4.314a1.577,1.577,0,0,0-.1,2.233l3.25,3.563a.79.79,0,0,1-.052,1.115l-3.564,3.245a1.583,1.583,0,0,0-.1,2.235l2.849,3.333a.79.79,0,0,1-.124,1.107l-4.258,3a1.58,1.58,0,0,0-.269,2.219l3.216,4.505a1.582,1.582,0,0,0,2.572-1.842l-1.839-2.746a.791.791,0,0,1,.135-1.108l4.266-3.043a1.582,1.582,0,0,0,.248-2.221l-2.862-3.586a.786.786,0,0,1,.05-1.113l3.565-3.25a1.581,1.581,0,0,0,.1-2.233l-3.25-3.562a.79.79,0,0,1,.051-1.115l3.554-3.245c.462-.422,1.3-1.269,1.563-3.631A8.176,8.176,0,0,0,582.47,411.808Zm2.086,2.945a.635.635,0,1,1,.041-.9A.636.636,0,0,1,584.556,414.753Z" fill="#fff"/>
        </g>
      </g>
      <g id="Group_247" data-name="Group 247">
        <path id="Path_1822" data-name="Path 1822" d="M702.89,433.475h7.219v-2.807H702.89v-4.031h7.423v-2.768H699.828v16.566h10.728v-2.8H702.89Zm12.379-8.46H712.2v15.42h10.8v-2.628h-7.725Zm21.777,6.56a3.481,3.481,0,0,0,1.7-3.215,4.144,4.144,0,0,0-1.433-3.345,5.893,5.893,0,0,0-3.9-1.16h-5.054v16.58h5.921a6.488,6.488,0,0,0,4.157-1.259,4.185,4.185,0,0,0,1.594-3.442,4.238,4.238,0,0,0-1.036-2.849,4.97,4.97,0,0,0-1.949-1.31m-5.661-4.917h1.791a3.056,3.056,0,0,1,1.893.443,1.3,1.3,0,0,1,.384.541,2.526,2.526,0,0,1,.131.862,1.8,1.8,0,0,1-.689,1.59,4.018,4.018,0,0,1-2.354.544h-1.156Zm4.849,10.45a3.626,3.626,0,0,1-2.194.492h-2.655v-4.143h2.282a4.353,4.353,0,0,1,2.484.541,1.772,1.772,0,0,1,.69,1.578,1.748,1.748,0,0,1-.607,1.532m27.913-5.7h0l-.328-.18a10.423,10.423,0,0,1-1.933-1.368,2.292,2.292,0,0,1-.427-.536.675.675,0,0,1-.128-.369,1.032,1.032,0,0,1,.49-.9,2.371,2.371,0,0,1,1.435-.4,4.155,4.155,0,0,1,1.561.3,7.955,7.955,0,0,1,1.754,1.056l.619.46v-3.3l-.187-.114a9.184,9.184,0,0,0-1.821-.762,7.189,7.189,0,0,0-1.834-.257,5.326,5.326,0,0,0-3.482,1.149,3.8,3.8,0,0,0-1.389,2.993,3.617,3.617,0,0,0,.732,2.265,6.627,6.627,0,0,0,1.215,1.082c.556.423,1.268.879,2.133,1.41.543.311.98.6,1.32.84a4.367,4.367,0,0,1,.69.574,1.544,1.544,0,0,1,.35.955,1.227,1.227,0,0,1-.511,1.017,2.522,2.522,0,0,1-1.545.412,3.875,3.875,0,0,1-1.836-.441,7.52,7.52,0,0,1-1.862-1.5l-.669-.723v3.829l.165.108a6.318,6.318,0,0,0,2,1.083,7.1,7.1,0,0,0,2.335.354,5.291,5.291,0,0,0,3.481-1.147,3.749,3.749,0,0,0,1.4-2.966,4.372,4.372,0,0,0-.747-2.6,9.29,9.29,0,0,0-2.981-2.341m19.28,6.484a7.3,7.3,0,0,0,1.725-4.822,8.286,8.286,0,0,0-.611-3.148,8.15,8.15,0,0,0-1.815-2.609,8.022,8.022,0,0,0-2.659-1.736,8.586,8.586,0,0,0-3.188-.6,8.4,8.4,0,0,0-3.151.6,8.253,8.253,0,0,0-2.684,1.736,7.954,7.954,0,0,0-1.777,2.579,7.412,7.412,0,0,0-.644,3.031,7.862,7.862,0,0,0,1.709,5.006,8,8,0,0,0,4.426,2.812,20.294,20.294,0,0,0,3.838,2.2,8.9,8.9,0,0,0,3.416.781h.3a1.092,1.092,0,0,0,.249-.025l.123-.02,2.269-1.992-.172-.479-.125-.3-.3.068c-.3.063-.545.093-.786.121a3.333,3.333,0,0,1-.624.041,8.072,8.072,0,0,1-1.858-.244c-.4-.116-.862-.275-1.353-.464a8.51,8.51,0,0,0,3.692-2.531m-1.686-3.185a5.1,5.1,0,0,1-1.134,1.688l-.017.014a5.282,5.282,0,0,1-1.7,1.179,5.4,5.4,0,0,1-2.009.394,5.156,5.156,0,0,1-2.009-.41,5.479,5.479,0,0,1-1.707-1.163v-.014a4.837,4.837,0,0,1-1.123-1.688,5.013,5.013,0,0,1-.4-2.01,5.133,5.133,0,0,1,.4-2.035,4.941,4.941,0,0,1,1.114-1.681,5.6,5.6,0,0,1,1.737-1.158,5.217,5.217,0,0,1,4,0,4.929,4.929,0,0,1,1.693,1.146,5.2,5.2,0,0,1,1.16,1.737,4.884,4.884,0,0,1,.4,1.991,5.077,5.077,0,0,1-.4,2.01m15.209-.209a2.819,2.819,0,0,1-1.034,2.3,4.227,4.227,0,0,1-2.82.9,4.788,4.788,0,0,1-1.862-.354,3.753,3.753,0,0,1-1.4-1.036,2.013,2.013,0,0,1-.425-.862,8.115,8.115,0,0,1-.149-1.9v-8.524h-2.85v8.609a10.257,10.257,0,0,0,.258,2.673,4.411,4.411,0,0,0,.871,1.653,6.357,6.357,0,0,0,2.407,1.849,7.825,7.825,0,0,0,3.154.623,7.1,7.1,0,0,0,4.813-1.624,5.289,5.289,0,0,0,1.875-4.254v-9.529H796.95Zm7.727,3.284V434h7.266v-2.643h-7.266v-3.631h7.493v-2.63H801.606V440.4h10.8v-2.625Zm-49.625-10.585a8.3,8.3,0,0,0-2.674-1.7,9.006,9.006,0,0,0-3.208-.587,8.742,8.742,0,0,0-3.15.587,7.936,7.936,0,0,0-2.691,1.7,7.688,7.688,0,0,0-1.819,2.523,7.439,7.439,0,0,0-.636,2.977,7.585,7.585,0,0,0,2.455,5.64A8.185,8.185,0,0,0,746,440.02a9,9,0,0,0,6.356.014,8.537,8.537,0,0,0,2.71-1.7,7.913,7.913,0,0,0,1.8-2.516,7.427,7.427,0,0,0,.621-3,7.692,7.692,0,0,0-.6-3.054,7.785,7.785,0,0,0-1.833-2.571m-.99,7.521a5.139,5.139,0,0,1-2.836,2.775,5.686,5.686,0,0,1-4.1,0,5.406,5.406,0,0,1-1.7-1.112,4.86,4.86,0,0,1-1.135-1.663,4.764,4.764,0,0,1-.4-1.958,4.976,4.976,0,0,1,.4-1.974,5.049,5.049,0,0,1,1.135-1.643,5.988,5.988,0,0,1,1.744-1.13,5.429,5.429,0,0,1,4.016,0,5.1,5.1,0,0,1,1.71,1.13,5.182,5.182,0,0,1,1.176,1.688,5,5,0,0,1,.382,1.929,4.829,4.829,0,0,1-.4,1.958" fill="#fff"/>
        <path id="Path_1823" data-name="Path 1823" d="M601.176,440.441a4.241,4.241,0,0,0,3.256-1.291,4.961,4.961,0,0,0,1.207-3.476v-6.325h-.912v6.376a3.948,3.948,0,0,1-.948,2.772,3.443,3.443,0,0,1-2.6,1.038,3.372,3.372,0,0,1-2.582-1.038,3.863,3.863,0,0,1-.974-2.772v-6.376h-.87v6.325a4.857,4.857,0,0,0,1.193,3.476,4.212,4.212,0,0,0,3.233,1.291m8.652-9.446,7.01,8.458h.7v-9.561h-.754v8.331l-6.927-8.331h-.8v9.561h.765Zm11.186,8.6h.813V430.02h-.813Zm7.7.161,4.016-9.734h-.813l-3.268,8.032-3.229-8.032h-.849l4.029,9.734Zm11.534-.814h-4.476v-3.891h4.22v-.614h-4.22v-3.793h4.366v-.622H635v9.573h5.244Zm4.129-3.95h.769a5.364,5.364,0,0,1,1.22.113,1.409,1.409,0,0,1,.672.363,7.675,7.675,0,0,1,.506.639c.207.289.478.672.764,1.136l1.513,2.352h.858l-2.611-4.027a2.9,2.9,0,0,0-.364-.463,3.7,3.7,0,0,0-.479-.348,2.661,2.661,0,0,0,1.355-.879,2.284,2.284,0,0,0,.446-1.455,2.1,2.1,0,0,0-.8-1.779,3.747,3.747,0,0,0-2.309-.622h-2.3v9.573h.753Zm0-4.313h1.59a2.567,2.567,0,0,1,1.655.457,1.55,1.55,0,0,1,.573,1.287,1.885,1.885,0,0,1-.251,1.026,1.621,1.621,0,0,1-.783.646,2.968,2.968,0,0,1-.7.2c-.293.025-.785.041-1.495.041h-.589Zm13.567,6.431a2.985,2.985,0,0,0-.149-.91,2.591,2.591,0,0,0-.468-.759,5.037,5.037,0,0,0-1.752-1.038c-.1-.046-.158-.068-.205-.1a4.315,4.315,0,0,1-1.515-.889,1.434,1.434,0,0,1-.352-1.019,1.707,1.707,0,0,1,.541-1.294,2.005,2.005,0,0,1,1.4-.508,3.145,3.145,0,0,1,1.054.189,4.9,4.9,0,0,1,1.133.609v-.86a5.617,5.617,0,0,0-1.068-.478,4.189,4.189,0,0,0-1.081-.161,2.764,2.764,0,0,0-1.977.718,2.371,2.371,0,0,0-.765,1.811,2.18,2.18,0,0,0,.5,1.49,5.111,5.111,0,0,0,1.862,1.138,5.263,5.263,0,0,1,1.677.96,1.54,1.54,0,0,1,.358,1.071,1.812,1.812,0,0,1-.54,1.4,2.031,2.031,0,0,1-1.462.51,3.03,3.03,0,0,1-1.149-.256,5.466,5.466,0,0,1-1.273-.779v.921a5.062,5.062,0,0,0,1.212.639,3.767,3.767,0,0,0,1.225.208,2.79,2.79,0,0,0,2.009-.733,2.459,2.459,0,0,0,.79-1.881m3.857-7.088h-.8V439.6h.8Zm8.653,9.35a4.013,4.013,0,0,0,1.388-.67,4.572,4.572,0,0,0,1.387-1.686,5.251,5.251,0,0,0,0-4.43,4.616,4.616,0,0,0-1.387-1.687,4.13,4.13,0,0,0-1.376-.667,7.544,7.544,0,0,0-1.841-.21h-3.283v9.573h3.283a6.738,6.738,0,0,0,1.829-.223m-4.3-.458V430.7h2.279a7.575,7.575,0,0,1,1.6.163,3.465,3.465,0,0,1,1.166.488,3.756,3.756,0,0,1,1.247,1.453,4.476,4.476,0,0,1,.441,2.008,4.587,4.587,0,0,1-.441,2.009,3.824,3.824,0,0,1-1.247,1.451,3.532,3.532,0,0,1-1.166.494,7.979,7.979,0,0,1-1.6.142Zm12.933-8.526-3.933,9.207h.765l1.34-3.184h3.961l1.344,3.184h.764l-3.935-9.207Zm-1.578,5.4,1.742-4.137,1.72,4.137Zm13.688,3.585a3.79,3.79,0,0,0,1.384-.67,4.5,4.5,0,0,0,1.387-1.686,5.184,5.184,0,0,0,0-4.43,4.538,4.538,0,0,0-1.387-1.687,3.894,3.894,0,0,0-1.371-.667,7.6,7.6,0,0,0-1.845-.21H686.1v9.573h3.265a6.73,6.73,0,0,0,1.832-.223m-4.3-.458V430.7h2.284a7.6,7.6,0,0,1,1.605.163,3.44,3.44,0,0,1,1.163.488,3.682,3.682,0,0,1,1.243,1.453,4.362,4.362,0,0,1,.445,2.008,4.468,4.468,0,0,1-.445,2.009,3.746,3.746,0,0,1-1.243,1.451,3.506,3.506,0,0,1-1.163.494,8.009,8.009,0,0,1-1.605.142Z" fill="#fff"/>
      </g>
      <rect id="Rectangle_12" data-name="Rectangle 12" width="3.072" height="23.182" transform="translate(823.875 421.624)" fill="#fff"/>
    </g>
    <text id="Programa_de_Ingeniería_de_Sistemas" data-name="Programa de Ingeniería de Sistemas" transform="translate(837.723 436.837)" fill="#fff" font-size="9.55" font-family="AcherusGrotesque-Regular, Acherus Grotesque"><tspan x="0" y="0">Programa de Ingeniería de Sistemas</tspan></text>
  </g>
</svg>
