<svg xmlns="http://www.w3.org/2000/svg" width="453.648" height="406.955" viewBox="0 0 453.648 406.955"><g transform="translate(-673.274 -2702.605)"><g transform="translate(685.383 2702.604)"><g transform="translate(51.205)"><g transform="translate(82.705)"><path d="M918.213,901.5c-16.247-39.456-21.967-80.308-21.967-122.447a325.546,325.546,0,0,1,4.187-54.288h15.5c-3.747,17.045-4.911,34.518-4.911,51.925,0,36.57,4.539,75.458,15.118,110.694,10.584-35.236,15.123-74.124,15.123-110.694,0-17.407-1.164-34.88-4.9-51.925h15.5a326.324,326.324,0,0,1,4.187,54.288c0,42.139-5.716,82.99-21.971,122.447Z" transform="translate(-845.595 -698.464)" fill="#fff"/><path d="M1002.042,778.637a3.447,3.447,0,1,1-.23,4.87,3.448,3.448,0,0,1,.23-4.87Z" transform="translate(-866.096 -708.839)" fill="#fff"/><path d="M1002.042,791.926a3.446,3.446,0,1,1-.216,4.864,3.446,3.446,0,0,1,.216-4.864Z" transform="translate(-866.096 -711.441)" fill="#fff"/><path d="M1011.107,802.3a3.427,3.427,0,1,1-1.129,2.384A3.441,3.441,0,0,1,1011.107,802.3Z" transform="translate(-867.869 -713.471)" fill="#fff"/><path d="M999.349,836.956a3.445,3.445,0,1,1-.224,4.864,3.445,3.445,0,0,1,.224-4.864Z" transform="translate(-865.567 -720.259)" fill="#fff"/><path d="M998.863,850.439a3.437,3.437,0,1,1-1.245,2.326,3.444,3.444,0,0,1,1.245-2.326Z" transform="translate(-865.446 -722.921)" fill="#fff"/><path d="M1007.516,861.227a3.435,3.435,0,1,1-1.276,2.3A3.443,3.443,0,0,1,1007.516,861.227Z" transform="translate(-867.132 -725.041)" fill="#fff"/><path d="M1008.415,828.675a3.439,3.439,0,1,1-1.124,2.385A3.445,3.445,0,0,1,1008.415,828.675Z" transform="translate(-867.342 -718.637)" fill="#fff"/><path d="M990.531,894.793a3.439,3.439,0,1,1-1.395,2.234,3.441,3.441,0,0,1,1.395-2.234Z" transform="translate(-863.778 -731.636)" fill="#fff"/><path d="M989.5,909.675a3.444,3.444,0,1,1-.94,4.775,3.444,3.444,0,0,1,.94-4.775Z" transform="translate(-863.56 -734.562)" fill="#fff"/><path d="M1000.622,887.56a3.444,3.444,0,1,1-.819,4.8,3.444,3.444,0,0,1,.819-4.8Z" transform="translate(-865.752 -730.221)" fill="#fff"/><path d="M1021.575,758.312a3.434,3.434,0,1,1-.157,2.633A3.444,3.444,0,0,1,1021.575,758.312Z" transform="translate(-870.072 -704.654)" fill="#fff"/><path d="M1025.175,744.671a3.444,3.444,0,1,1,3.275,3.606A3.444,3.444,0,0,1,1025.175,744.671Z" transform="translate(-870.844 -701.721)" fill="#fff"/><path d="M1024.64,729.241a3.441,3.441,0,1,1,1.444,2.2,3.442,3.442,0,0,1-1.444-2.2Z" transform="translate(-870.728 -698.541)" fill="#fff"/><path d="M1019.813,715.329a3.444,3.444,0,1,1,4.715,1.231A3.444,3.444,0,0,1,1019.813,715.329Z" transform="translate(-869.703 -695.6)" fill="#fff"/><path d="M1012.74,768.736a3.44,3.44,0,1,1-.224,4.863,3.44,3.44,0,0,1,.224-4.863Z" transform="translate(-868.19 -706.898)" fill="#fff"/><path d="M863.271,778.637a3.446,3.446,0,1,0,.227,4.863A3.446,3.446,0,0,0,863.271,778.637Z" transform="translate(-838.01 -708.839)" fill="#fff"/><path d="M863.271,791.926a3.445,3.445,0,1,0,.227,4.864A3.445,3.445,0,0,0,863.271,791.926Z" transform="translate(-838.01 -711.441)" fill="#fff"/><path d="M854.216,802.3a3.438,3.438,0,1,0,1.121,2.385A3.444,3.444,0,0,0,854.216,802.3Z" transform="translate(-836.236 -713.471)" fill="#fff"/><path d="M865.968,836.956a3.444,3.444,0,1,0,.224,4.864A3.444,3.444,0,0,0,865.968,836.956Z" transform="translate(-838.538 -720.259)" fill="#fff"/><path d="M866.454,850.439a3.437,3.437,0,1,0,1.245,2.326,3.442,3.442,0,0,0-1.245-2.326Z" transform="translate(-838.659 -722.921)" fill="#fff"/><path d="M857.8,861.227a3.443,3.443,0,1,0,.548,4.832A3.443,3.443,0,0,0,857.8,861.227Z" transform="translate(-836.974 -725.041)" fill="#fff"/><path d="M856.9,828.675a3.44,3.44,0,1,0,1.123,2.385A3.444,3.444,0,0,0,856.9,828.675Z" transform="translate(-836.763 -718.637)" fill="#fff"/><path d="M874.786,894.793a3.442,3.442,0,1,0,.8,4.8,3.442,3.442,0,0,0-.8-4.8Z" transform="translate(-840.328 -731.636)" fill="#fff"/><path d="M875.807,909.675a3.437,3.437,0,1,0,1.466,2.19,3.442,3.442,0,0,0-1.466-2.19Z" transform="translate(-840.544 -734.562)" fill="#fff"/><path d="M864.7,887.56a3.444,3.444,0,1,0,.812,4.8,3.444,3.444,0,0,0-.812-4.8Z" transform="translate(-838.354 -730.221)" fill="#fff"/><path d="M843.745,758.312a3.439,3.439,0,1,0,.155,2.632A3.447,3.447,0,0,0,843.745,758.312Z" transform="translate(-834.031 -704.654)" fill="#fff"/><path d="M840.141,744.671a3.442,3.442,0,1,0-3.274,3.606,3.442,3.442,0,0,0,3.274-3.606Z" transform="translate(-833.261 -701.721)" fill="#fff"/><path d="M840.675,729.241a3.442,3.442,0,1,0-4.021,2.741,3.442,3.442,0,0,0,4.021-2.741Z" transform="translate(-833.376 -698.541)" fill="#fff"/><path d="M845.5,715.329a3.444,3.444,0,1,0-4.712,1.231,3.444,3.444,0,0,0,4.712-1.231Z" transform="translate(-834.401 -695.6)" fill="#fff"/><path d="M852.577,768.736a3.438,3.438,0,1,0,1.121,2.385A3.44,3.44,0,0,0,852.577,768.736Z" transform="translate(-835.916 -706.898)" fill="#fff"/><g transform="translate(6.615)"><path d="M892.984,854.762l-19.651-13.853a3.623,3.623,0,0,1-.568-5.11L885.9,820.42a7.3,7.3,0,0,0-.474-10.312l-16.46-14.986a3.64,3.64,0,0,1-.24-5.141l15.006-16.444a7.3,7.3,0,0,0-.477-10.315l-21.788-19.9c-2.969-2.721-2.9-7.13-.47-10.316l22.681-30.282c2.229-2.924,2.087-6.333-.4-8.592-1.245-1.133-3.687-2.455-8.161-1.972-21.392,2.3-35.749,21.061-33.381,42.746,1.18,10.892,5.069,14.8,7.2,16.749l16.411,14.982a3.637,3.637,0,0,1,.233,5.141l-15,16.441a7.3,7.3,0,0,0,.481,10.312l16.45,15a3.626,3.626,0,0,1,.234,5.134l-13.2,16.547a7.3,7.3,0,0,0,1.139,10.26l19.683,14.043a3.627,3.627,0,0,1,.622,5.106L867.51,877.3a7.3,7.3,0,1,0,11.865,8.5l14.844-20.789a7.294,7.294,0,0,0-1.235-10.249ZM865.3,701.613a2.929,2.929,0,1,1,.189,4.144A2.929,2.929,0,0,1,865.3,701.613Z" transform="translate(-841.487 -692.057)" fill="#fff"/><path d="M978.652,692.16c-4.478-.483-6.92.839-8.164,1.972-2.483,2.259-2.625,5.668-.4,8.592l22.688,30.282c2.428,3.186,2.5,7.6-.474,10.316l-21.794,19.9a7.3,7.3,0,0,0-.474,10.315l15.01,16.444a3.638,3.638,0,0,1-.244,5.141l-16.457,14.986a7.294,7.294,0,0,0-.474,10.313L981.013,835.8a3.624,3.624,0,0,1-.575,5.11l-19.643,13.853a7.3,7.3,0,0,0-1.245,10.248L974.391,885.8a7.3,7.3,0,1,0,11.871-8.5l-8.482-12.677a3.63,3.63,0,0,1,.622-5.106l19.684-14.043a7.311,7.311,0,0,0,1.143-10.26l-13.211-16.547a3.629,3.629,0,0,1,.237-5.134l16.451-15a7.312,7.312,0,0,0,.48-10.312l-15-16.441a3.637,3.637,0,0,1,.231-5.141l16.41-14.982c2.13-1.949,6.02-5.858,7.2-16.749C1014.4,713.221,1000.041,694.463,978.652,692.16Zm9.626,13.6a2.932,2.932,0,1,1,.953-2.034,2.929,2.929,0,0,1-.953,2.034Z" transform="translate(-864.304 -692.057)" fill="#fff"/></g></g><path d="M739.289,1045.892h20.948v-8.141H739.289v-11.7h21.538v-8.029H730.414v48.063h31.115v-8.137h-22.24Zm35.918-24.541H766.3v44.736h31.322v-7.63h-22.41Zm63.181,19.031a10.092,10.092,0,0,0,4.941-9.328c0-4.075-1.38-7.414-4.153-9.7-2.774-2.317-6.555-3.368-11.331-3.368H813.184v48.1h17.178c4.938,0,8.989-1.2,12.064-3.652a12.141,12.141,0,0,0,4.62-9.984,12.3,12.3,0,0,0-3-8.268,14.372,14.372,0,0,0-5.655-3.8m-16.42-14.264h5.2c2.726,0,4.519.486,5.492,1.283a3.922,3.922,0,0,1,1.116,1.563,7.589,7.589,0,0,1,.375,2.5,5.232,5.232,0,0,1-2,4.62c-1.282.961-3.565,1.577-6.828,1.577h-3.352Zm14.07,30.319c-1.15.872-3.275,1.478-6.372,1.42h-7.7v-12.023h6.615c3.477,0,5.882.6,7.211,1.569a5.159,5.159,0,0,1,2,4.583c0,2.219-.585,3.544-1.755,4.451m80.973-16.556h0l-.954-.52a29.935,29.935,0,0,1-5.6-3.974,6.037,6.037,0,0,1-1.238-1.555,1.932,1.932,0,0,1-.379-1.066,3.008,3.008,0,0,1,1.42-2.6,6.949,6.949,0,0,1,4.166-1.147,12,12,0,0,1,4.532.869,23.146,23.146,0,0,1,5.087,3.061l1.8,1.34v-9.578l-.541-.325a26.337,26.337,0,0,0-5.283-2.209,20.433,20.433,0,0,0-5.323-.746,15.439,15.439,0,0,0-10.106,3.334,11.011,11.011,0,0,0-4.025,8.679,10.527,10.527,0,0,0,2.117,6.568,19.357,19.357,0,0,0,3.531,3.142c1.61,1.221,3.68,2.553,6.19,4.1,1.569.9,2.84,1.739,3.828,2.435a13.153,13.153,0,0,1,2,1.656,4.492,4.492,0,0,1,1.021,2.774,3.553,3.553,0,0,1-1.489,2.955,7.35,7.35,0,0,1-4.478,1.194,11.212,11.212,0,0,1-5.324-1.282,22.02,22.02,0,0,1-5.411-4.336l-1.935-2.1v11.1l.474.315a18.5,18.5,0,0,0,5.824,3.145,20.548,20.548,0,0,0,6.765,1.035,15.34,15.34,0,0,0,10.1-3.336,10.885,10.885,0,0,0,4.059-8.607,12.666,12.666,0,0,0-2.171-7.531c-1.481-2.131-4.336-4.306-8.651-6.793m55.94,18.809a21.181,21.181,0,0,0,5.005-13.988,24.085,24.085,0,0,0-1.772-9.135,23.452,23.452,0,0,0-5.27-7.566,23.169,23.169,0,0,0-7.711-5.039,25.025,25.025,0,0,0-9.247-1.756,24.446,24.446,0,0,0-9.145,1.756,24,24,0,0,0-7.786,5.039,23.122,23.122,0,0,0-5.154,7.481,21.466,21.466,0,0,0-1.874,8.79,22.777,22.777,0,0,0,4.965,14.522,23.136,23.136,0,0,0,12.838,8.165,58.892,58.892,0,0,0,11.134,6.371,25.644,25.644,0,0,0,9.9,2.273h.88a3.2,3.2,0,0,0,.724-.075l.359-.055,6.589-5.786-.507-1.39-.359-.873-.873.19a21.6,21.6,0,0,1-2.286.352,9.712,9.712,0,0,1-1.806.118,23.239,23.239,0,0,1-5.391-.707c-1.17-.329-2.5-.8-3.916-1.347a24.612,24.612,0,0,0,10.7-7.342m-4.891-9.237a14.816,14.816,0,0,1-3.287,4.894l-.054.044a15.3,15.3,0,0,1-4.938,3.414,15.488,15.488,0,0,1-5.825,1.148,14.947,14.947,0,0,1-5.83-1.187,15.938,15.938,0,0,1-4.958-3.375v-.044a14.124,14.124,0,0,1-3.254-4.894,14.54,14.54,0,0,1-1.164-5.834,14.888,14.888,0,0,1,1.164-5.905,14.388,14.388,0,0,1,3.234-4.874,15.987,15.987,0,0,1,5.039-3.358,15.149,15.149,0,0,1,11.594,0,14.282,14.282,0,0,1,4.91,3.318,15.061,15.061,0,0,1,3.369,5.046,14.292,14.292,0,0,1,1.15,5.773,14.89,14.89,0,0,1-1.15,5.834m44.123-.606a8.174,8.174,0,0,1-3,6.683,12.243,12.243,0,0,1-8.185,2.615,13.856,13.856,0,0,1-5.4-1.021,10.963,10.963,0,0,1-4.079-3.01,5.831,5.831,0,0,1-1.231-2.5,23.468,23.468,0,0,1-.433-5.505v-24.73H981.6v24.974a29.89,29.89,0,0,0,.744,7.759,12.838,12.838,0,0,0,2.53,4.8,18.518,18.518,0,0,0,6.987,5.361,22.648,22.648,0,0,0,9.145,1.809c5.628,0,10.363-1.569,13.968-4.708a15.359,15.359,0,0,0,5.439-12.351v-27.646h-8.226Zm22.424,9.528V1047.4h21.077v-7.664h-21.077V1029.2h21.733v-7.627H1025.69v44.414h31.352v-7.616Zm-143.978-30.71a24.042,24.042,0,0,0-7.755-4.934,26.256,26.256,0,0,0-9.307-1.706,25.465,25.465,0,0,0-9.146,1.706,23.216,23.216,0,0,0-7.805,4.934,22.346,22.346,0,0,0-5.276,7.323,21.6,21.6,0,0,0-1.84,8.631,22.24,22.24,0,0,0,1.8,8.878,22.469,22.469,0,0,0,5.32,7.488,23.9,23.9,0,0,0,7.759,4.9,26.2,26.2,0,0,0,18.446.041,24.756,24.756,0,0,0,7.857-4.939,23.192,23.192,0,0,0,5.225-7.3,21.59,21.59,0,0,0,1.8-8.7,22.214,22.214,0,0,0-1.757-8.859,22.484,22.484,0,0,0-5.313-7.457m-2.865,21.814a14.973,14.973,0,0,1-8.236,8.054,16.485,16.485,0,0,1-11.888,0,15.622,15.622,0,0,1-4.917-3.224,13.985,13.985,0,0,1-3.294-4.83,13.72,13.72,0,0,1-1.157-5.674,14.372,14.372,0,0,1,1.157-5.734,14.568,14.568,0,0,1,3.294-4.759,17.221,17.221,0,0,1,5.056-3.279,15.763,15.763,0,0,1,11.652,0,14.74,14.74,0,0,1,4.965,3.279,14.982,14.982,0,0,1,3.406,4.9,14.325,14.325,0,0,1,1.109,5.595,14.039,14.039,0,0,1-1.146,5.674" transform="translate(-730.414 -755.886)" fill="#fff"/><path d="M770.077,997.029a12.338,12.338,0,0,0,9.45-3.742,14.4,14.4,0,0,0,3.5-10.085V964.848h-2.648v18.5a11.46,11.46,0,0,1-2.746,8.042,9.995,9.995,0,0,1-7.555,3.01,9.773,9.773,0,0,1-7.488-3.01,11.2,11.2,0,0,1-2.828-8.042v-18.5h-2.523V983.2c0,4.249,1.14,7.632,3.46,10.085a12.239,12.239,0,0,0,9.379,3.742m25.1-27.412,20.333,24.541h2.039v-27.74h-2.191v24.172l-20.09-24.172h-2.31v27.74h2.219Zm32.451,24.95h2.36V966.8h-2.36Zm22.322.463L861.61,966.8h-2.361l-9.483,23.3L840.4,966.8h-2.466l11.7,28.234Zm33.466-2.357h-12.99V981.386H882.68v-1.779H870.431V968.6H883.1v-1.8H868.212v27.771h15.21ZM895.4,981.213h2.232a15.22,15.22,0,0,1,3.53.329,4.033,4.033,0,0,1,1.953,1.055,20.426,20.426,0,0,1,1.468,1.856c.6.833,1.386,1.936,2.218,3.295l4.39,6.819h2.49L906.1,982.884a8.329,8.329,0,0,0-1.048-1.342,9.986,9.986,0,0,0-1.394-1.012,7.684,7.684,0,0,0,3.93-2.553,6.591,6.591,0,0,0,1.3-4.215,6.087,6.087,0,0,0-2.314-5.164,10.805,10.805,0,0,0-6.695-1.8h-6.67v27.771H895.4Zm0-12.516h4.609a7.433,7.433,0,0,1,4.8,1.332,4.488,4.488,0,0,1,1.657,3.734,5.5,5.5,0,0,1-.723,2.977,4.807,4.807,0,0,1-2.273,1.873,8.457,8.457,0,0,1-2.027.571c-.86.079-2.286.129-4.343.129h-1.7Zm39.359,18.656a8.385,8.385,0,0,0-.44-2.633,7.493,7.493,0,0,0-1.353-2.208,14.661,14.661,0,0,0-5.087-3,5.8,5.8,0,0,1-.588-.288c-2.28-.964-3.741-1.79-4.4-2.577a4.163,4.163,0,0,1-1.021-2.954,4.908,4.908,0,0,1,1.57-3.754,5.819,5.819,0,0,1,4.051-1.477,8.934,8.934,0,0,1,3.065.552,14.376,14.376,0,0,1,3.287,1.758v-2.49a16.281,16.281,0,0,0-3.1-1.393,12.625,12.625,0,0,0-3.145-.467,7.993,7.993,0,0,0-5.73,2.09,6.874,6.874,0,0,0-2.219,5.256,6.281,6.281,0,0,0,1.441,4.316,14.8,14.8,0,0,0,5.4,3.307c2.55,1.079,4.167,2,4.87,2.783a4.5,4.5,0,0,1,1.042,3.109,5.258,5.258,0,0,1-1.569,4.055,5.911,5.911,0,0,1-4.242,1.488,8.842,8.842,0,0,1-3.341-.75,15.574,15.574,0,0,1-3.686-2.259v2.671a14.4,14.4,0,0,0,3.517,1.854,10.837,10.837,0,0,0,3.551.6,8.113,8.113,0,0,0,5.831-2.119,7.169,7.169,0,0,0,2.293-5.468m11.2-20.55h-2.34v27.77h2.34Zm25.1,27.125a11.853,11.853,0,0,0,4.031-1.938,13.438,13.438,0,0,0,4.018-4.894,15.24,15.24,0,0,0,0-12.851,13.464,13.464,0,0,0-4.018-4.9,12.23,12.23,0,0,0-3.991-1.944,22.144,22.144,0,0,0-5.344-.6h-9.524v27.771h9.524a19.607,19.607,0,0,0,5.3-.646M958.582,992.6V968.778H965.2a22.142,22.142,0,0,1,4.647.474,10.054,10.054,0,0,1,3.389,1.416,10.947,10.947,0,0,1,3.62,4.218,12.981,12.981,0,0,1,1.271,5.82,13.322,13.322,0,0,1-1.271,5.831,11.307,11.307,0,0,1-3.62,4.214,10.52,10.52,0,0,1-3.389,1.428,23.011,23.011,0,0,1-4.647.415ZM996.1,967.857l-11.4,26.71h2.219l3.882-9.237h11.492l3.9,9.237h2.219l-11.418-26.712Zm-4.586,15.666,5.066-12.01,4.986,12.01Zm39.719,10.4a11.161,11.161,0,0,0,4.018-1.938,13.113,13.113,0,0,0,4.018-4.894,15.046,15.046,0,0,0,0-12.851,13.142,13.142,0,0,0-4.018-4.9,11.51,11.51,0,0,0-3.971-1.944,22.393,22.393,0,0,0-5.357-.6h-9.476v27.771h9.476a19.619,19.619,0,0,0,5.31-.646m-12.494-1.327V968.778h6.636a22.178,22.178,0,0,1,4.646.474,9.97,9.97,0,0,1,3.383,1.416,10.623,10.623,0,0,1,3.6,4.218,12.642,12.642,0,0,1,1.3,5.82,12.975,12.975,0,0,1-1.3,5.831,10.962,10.962,0,0,1-3.6,4.214,10.43,10.43,0,0,1-3.383,1.428,23.054,23.054,0,0,1-4.646.415Z" transform="translate(-735.667 -745.48)" fill="#fff"/><rect width="67.265" height="8.913" transform="translate(129.68 341.614)" fill="#fff"/></g><path d="M4.628-8.892v-7.54H8.97c3.614,0,4.524,1.846,4.524,3.666,0,1.976-.91,3.874-4.524,3.874ZM9.1-7.124c3.172,0,6.4-1.43,6.4-5.642S12.272-18.2,9.1-18.2H2.99c-.312,0-.416.052-.416.416V-.416c0,.312.078.416.416.416H4.212c.338,0,.416-.1.416-.416V-7.124ZM25.428-11.6c.312,0,.39-.078.468-.39l.156-1.17c.052-.26,0-.364-.364-.364a5.39,5.39,0,0,0-5.408,3.3l-.312-2.6c-.13-.312-.234-.416-.442-.416h-.65c-.286,0-.39.1-.39.416v12.4c0,.312.1.416.39.416h1.17c.286,0,.39-.1.39-.416v-6.4A4.649,4.649,0,0,1,25.428-11.6ZM27.56-6.6A6.858,6.858,0,0,0,34.4.286,6.858,6.858,0,0,0,41.236-6.6,6.88,6.88,0,0,0,34.4-13.52,6.88,6.88,0,0,0,27.56-6.6ZM34.4-1.456A5.01,5.01,0,0,1,29.51-6.6,5.01,5.01,0,0,1,34.4-11.752,5.014,5.014,0,0,1,39.312-6.6,5.014,5.014,0,0,1,34.4-1.456Zm20.15.728c0,3.12-1.04,5.408-4.394,5.408A11.419,11.419,0,0,1,45.76,3.8c-.286-.13-.364-.078-.442.234l-.26.988c-.078.286-.026.364.234.468a13.509,13.509,0,0,0,5.148.936c4.03,0,6.058-2.366,6.058-7.358V-12.818c0-.312-.1-.416-.39-.416h-.6c-.234,0-.338.1-.442.416L54.86-10.4a5.913,5.913,0,0,0-5.122-3.12c-3.64,0-6.006,3.146-6.006,6.916,0,3.8,2.34,6.89,6.006,6.89a5.274,5.274,0,0,0,4.81-3.042Zm-4.42-11.05c2.7,0,4.446,2.574,4.446,5.148,0,2.6-1.742,5.148-4.446,5.148-2.73,0-4.446-2.47-4.446-5.122C45.682-9.49,47.4-11.778,50.128-11.778Zm18.33.182c.312,0,.39-.078.468-.39l.156-1.17c.052-.26,0-.364-.364-.364a5.39,5.39,0,0,0-5.408,3.3L63-12.818c-.13-.312-.234-.416-.442-.416h-.65c-.286,0-.39.1-.39.416v12.4c0,.312.1.416.39.416h1.17c.286,0,.39-.1.39-.416v-6.4A4.649,4.649,0,0,1,68.458-11.6Zm4,.208a21.26,21.26,0,0,1,4-.416c2.73,0,3.692,1.2,3.692,4.472a11.465,11.465,0,0,0-4.212-.91c-3.2,0-5.33,1.378-5.33,4.212,0,2.782,2.132,4.316,4.628,4.316a6.414,6.414,0,0,0,5.226-2.47l.1,1.768c.078.312.182.416.39.416h.754c.286,0,.39-.1.39-.416V-7.28c0-4.29-1.2-6.24-5.564-6.24a24.573,24.573,0,0,0-4.472.468c-.312.1-.39.234-.312.52l.208.78C72.046-11.44,72.124-11.31,72.462-11.388Zm3.874,4.6a9.2,9.2,0,0,1,3.822.936v2.158a5.616,5.616,0,0,1-4.316,2.444c-2.106,0-3.276-1.17-3.276-2.782C72.566-5.8,73.866-6.786,76.336-6.786Zm20.358-3.536a4.765,4.765,0,0,0-4.394-3.2,4.627,4.627,0,0,0-4.134,3.12l-.208-2.418c-.13-.312-.234-.416-.442-.416h-.65c-.286,0-.39.1-.39.416v12.4c0,.312.1.416.39.416h1.17c.286,0,.39-.1.39-.416V-6.968c0-2.756,1.3-4.784,3.406-4.784,2.132,0,3.406,1.872,3.406,4.6V-.416c0,.312.13.416.39.416H96.8c.312,0,.39-.1.39-.416V-7.1c0-2.86,1.482-4.654,3.406-4.654,1.846,0,3.406,1.508,3.406,4.6V-.416c0,.312.13.416.39.416h1.17c.312,0,.39-.1.39-.416V-7.67c0-4.16-2.34-5.85-4.888-5.85A5,5,0,0,0,96.694-10.322Zm14.378-1.066a21.26,21.26,0,0,1,4-.416c2.73,0,3.692,1.2,3.692,4.472a11.465,11.465,0,0,0-4.212-.91c-3.2,0-5.33,1.378-5.33,4.212,0,2.782,2.132,4.316,4.628,4.316a6.414,6.414,0,0,0,5.226-2.47l.1,1.768c.078.312.182.416.39.416h.754c.286,0,.39-.1.39-.416V-7.28c0-4.29-1.2-6.24-5.564-6.24a24.573,24.573,0,0,0-4.472.468c-.312.1-.39.234-.312.52l.208.78C110.656-11.44,110.734-11.31,111.072-11.388Zm3.874,4.6a9.2,9.2,0,0,1,3.822.936v2.158a5.616,5.616,0,0,1-4.316,2.444c-2.106,0-3.276-1.17-3.276-2.782C111.176-5.8,112.476-6.786,114.946-6.786Zm26.26-3.692a5.274,5.274,0,0,0-4.81-3.042c-3.64,0-6.006,3.094-6.006,6.89,0,3.77,2.366,6.916,6.006,6.916a5.913,5.913,0,0,0,5.122-3.12l.208,2.418c.1.312.208.416.442.416h.6c.286,0,.39-.1.39-.416V-18.772c0-.312-.1-.416-.39-.416H141.6c-.286,0-.39.1-.39.416Zm-4.42,9.022c-2.73,0-4.446-2.288-4.446-5.174,0-2.678,1.716-5.122,4.446-5.122,2.7,0,4.446,2.548,4.446,5.148C141.232-4.03,139.49-1.456,136.786-1.456ZM158.548-2.7c-.208-.234-.312-.182-.6-.026a7.143,7.143,0,0,1-4.082,1.3,5.053,5.053,0,0,1-5.018-4.5h10.842c.338,0,.39-.1.39-.416,0-3.9-2.366-7.176-6.422-7.176A6.858,6.858,0,0,0,146.848-6.6,6.864,6.864,0,0,0,153.79.286a7.818,7.818,0,0,0,5.252-1.82c.182-.182.182-.338,0-.572ZM148.9-7.28a4.813,4.813,0,0,1,4.732-4.6,4.6,4.6,0,0,1,4.446,4.6ZM170.456-.416c0,.312.1.416.416.416h1.248c.312,0,.39-.1.39-.416V-17.784c0-.312-.078-.416-.39-.416h-1.248c-.312,0-.416.1-.416.416Zm8.788-12.4c-.13-.312-.234-.416-.442-.416h-.65c-.286,0-.39.1-.39.416v12.4c0,.312.1.416.39.416h1.17c.286,0,.39-.1.39-.416V-6.968c0-2.6,1.456-4.784,3.718-4.784,2.106,0,3.666,1.508,3.666,4.6V-.416c0,.312.1.416.39.416h1.17c.286,0,.39-.1.39-.416V-7.67c0-4.16-2.366-5.85-5.148-5.85a5.145,5.145,0,0,0-4.446,3.042ZM202.982-.728c0,3.12-1.04,5.408-4.394,5.408a11.419,11.419,0,0,1-4.394-.884c-.286-.13-.364-.078-.442.234l-.26.988c-.078.286-.026.364.234.468a13.509,13.509,0,0,0,5.148.936c4.03,0,6.058-2.366,6.058-7.358V-12.818c0-.312-.1-.416-.39-.416h-.6c-.234,0-.338.1-.442.416l-.208,2.418a5.913,5.913,0,0,0-5.122-3.12c-3.64,0-6.006,3.146-6.006,6.916,0,3.8,2.34,6.89,6.006,6.89a5.274,5.274,0,0,0,4.81-3.042Zm-4.42-11.05c2.7,0,4.446,2.574,4.446,5.148,0,2.6-1.742,5.148-4.446,5.148-2.73,0-4.446-2.47-4.446-5.122C194.116-9.49,195.832-11.778,198.562-11.778ZM220.324-2.7c-.208-.234-.312-.182-.6-.026a7.143,7.143,0,0,1-4.082,1.3,5.053,5.053,0,0,1-5.018-4.5h10.842c.338,0,.39-.1.39-.416,0-3.9-2.366-7.176-6.422-7.176A6.858,6.858,0,0,0,208.624-6.6a6.864,6.864,0,0,0,6.942,6.89,7.818,7.818,0,0,0,5.252-1.82c.182-.182.182-.338,0-.572ZM210.678-7.28a4.813,4.813,0,0,1,4.732-4.6,4.6,4.6,0,0,1,4.446,4.6Zm16.354-5.538c-.13-.312-.234-.416-.442-.416h-.65c-.286,0-.39.1-.39.416v12.4c0,.312.1.416.39.416h1.17c.286,0,.39-.1.39-.416V-6.968c0-2.6,1.456-4.784,3.718-4.784,2.106,0,3.666,1.508,3.666,4.6V-.416c0,.312.1.416.39.416h1.17c.286,0,.39-.1.39-.416V-7.67c0-4.16-2.366-5.85-5.148-5.85a5.145,5.145,0,0,0-4.446,3.042ZM241.8-.416c0,.312.078.416.39.416h1.144c.312,0,.416-.1.416-.416v-12.4c0-.312-.078-.416-.416-.416H242.19c-.312,0-.39.1-.39.416Zm-.416-17.16a1.343,1.343,0,0,0,1.352,1.352,1.365,1.365,0,0,0,1.378-1.352,1.365,1.365,0,0,0-1.378-1.352A1.343,1.343,0,0,0,241.384-17.576ZM259.74-2.7c-.208-.234-.312-.182-.6-.026a7.143,7.143,0,0,1-4.082,1.3,5.053,5.053,0,0,1-5.018-4.5h10.842c.338,0,.39-.1.39-.416,0-3.9-2.366-7.176-6.422-7.176A6.858,6.858,0,0,0,248.04-6.6a6.864,6.864,0,0,0,6.942,6.89,7.818,7.818,0,0,0,5.252-1.82c.182-.182.182-.338,0-.572ZM250.094-7.28a4.813,4.813,0,0,1,4.732-4.6,4.6,4.6,0,0,1,4.446,4.6ZM271.908-11.6c.312,0,.39-.078.468-.39l.156-1.17c.052-.26,0-.364-.364-.364a5.39,5.39,0,0,0-5.408,3.3l-.312-2.6c-.13-.312-.234-.416-.442-.416h-.65c-.286,0-.39.1-.39.416v12.4c0,.312.1.416.39.416h1.17c.286,0,.39-.1.39-.416v-6.4A4.649,4.649,0,0,1,271.908-11.6Zm4.03,11.18c0,.312.1.416.416.416h1.118c.312,0,.416-.1.416-.416v-12.4c0-.312-.078-.416-.416-.416h-1.118c-.312,0-.416.1-.416.416Zm4.134-17.056a.336.336,0,0,0,.078-.52l-.494-.78c-.156-.234-.338-.312-.52-.1l-3.25,3.432c-.286.286-.182.442.078.442H277a1.039,1.039,0,0,0,.676-.26Zm3.874,6.084a21.26,21.26,0,0,1,4-.416c2.73,0,3.692,1.2,3.692,4.472a11.465,11.465,0,0,0-4.212-.91c-3.2,0-5.33,1.378-5.33,4.212,0,2.782,2.132,4.316,4.628,4.316a6.414,6.414,0,0,0,5.226-2.47l.1,1.768c.078.312.182.416.39.416h.754c.286,0,.39-.1.39-.416V-7.28c0-4.29-1.2-6.24-5.564-6.24a24.573,24.573,0,0,0-4.472.468c-.312.1-.39.234-.312.52l.208.78C283.53-11.44,283.608-11.31,283.946-11.388Zm3.874,4.6a9.2,9.2,0,0,1,3.822.936v2.158a5.616,5.616,0,0,1-4.316,2.444c-2.106,0-3.276-1.17-3.276-2.782C284.05-5.8,285.35-6.786,287.82-6.786Zm26.26-3.692a5.274,5.274,0,0,0-4.81-3.042c-3.64,0-6.006,3.094-6.006,6.89,0,3.77,2.366,6.916,6.006,6.916a5.913,5.913,0,0,0,5.122-3.12L314.6-.416c.1.312.208.416.442.416h.6c.286,0,.39-.1.39-.416V-18.772c0-.312-.1-.416-.39-.416h-1.17c-.286,0-.39.1-.39.416Zm-4.42,9.022c-2.73,0-4.446-2.288-4.446-5.174,0-2.678,1.716-5.122,4.446-5.122,2.7,0,4.446,2.548,4.446,5.148C314.106-4.03,312.364-1.456,309.66-1.456ZM331.422-2.7c-.208-.234-.312-.182-.6-.026a7.143,7.143,0,0,1-4.082,1.3,5.053,5.053,0,0,1-5.018-4.5h10.842c.338,0,.39-.1.39-.416,0-3.9-2.366-7.176-6.422-7.176A6.858,6.858,0,0,0,319.722-6.6a6.864,6.864,0,0,0,6.942,6.89,7.818,7.818,0,0,0,5.252-1.82c.182-.182.182-.338,0-.572ZM321.776-7.28a4.813,4.813,0,0,1,4.732-4.6,4.6,4.6,0,0,1,4.446,4.6Zm27.4-9.386a9.2,9.2,0,0,1,5.2,1.716c.26.208.416.1.572-.182l.494-.806c.1-.26.156-.416-.13-.572a11.305,11.305,0,0,0-6.4-1.976c-5.044,0-6.552,3.432-6.552,5.434,0,3.458,3.3,4.316,6.136,4.706,3.406.468,5.356,1.17,5.356,3.328,0,2.7-2.5,3.484-4.888,3.484A10.508,10.508,0,0,1,343.2-3.276c-.312-.182-.416-.13-.6.156l-.494.832c-.156.286-.156.416.1.572a11.814,11.814,0,0,0,7.02,2c4.472,0,6.63-2.6,6.63-5.382,0-3.484-2.86-4.524-6.214-4.966-2.86-.364-5.278-.91-5.278-3.042C344.37-14.456,345.228-16.666,349.18-16.666ZM360.36-.416c0,.312.078.416.39.416h1.144c.312,0,.416-.1.416-.416v-12.4c0-.312-.078-.416-.416-.416H360.75c-.312,0-.39.1-.39.416Zm-.416-17.16a1.343,1.343,0,0,0,1.352,1.352,1.365,1.365,0,0,0,1.378-1.352,1.365,1.365,0,0,0-1.378-1.352A1.343,1.343,0,0,0,359.944-17.576ZM371.982-1.3a7.719,7.719,0,0,1-4.394-1.456c-.312-.234-.442-.1-.572.156l-.364.65c-.156.286-.156.416.078.572A10,10,0,0,0,372.086.286c3.354,0,5.33-1.716,5.33-4.108,0-2.522-2.5-3.354-5.07-3.718-2.366-.338-3.666-.6-3.666-2.028s1.066-2.366,3.25-2.366a6.887,6.887,0,0,1,4.082,1.248c.312.208.442.078.572-.182l.338-.624c.13-.234.182-.39-.13-.572a9.55,9.55,0,0,0-4.966-1.456c-3.068,0-4.992,1.586-4.992,4.056,0,2.73,2.47,3.328,5.044,3.666,2.366.338,3.666.936,3.666,2.08C375.544-2.392,374.5-1.3,371.982-1.3Zm16.666.962c.234-.13.26-.234.182-.494l-.156-.832c-.1-.364-.182-.39-.52-.208a3.3,3.3,0,0,1-1.794.39c-2.08,0-2.99-1.118-2.99-4.16v-5.98h4.706c.312,0,.39-.1.39-.416v-.78c0-.338-.1-.416-.39-.416H383.37v-2.678c0-.312-.078-.416-.39-.416h-1.144c-.312,0-.39.1-.39.416v2.678h-1.274c-.312,0-.416.078-.416.416v.78c0,.312.1.416.416.416h1.274v6.136c0,3.614,1.274,5.772,4.706,5.772A4.864,4.864,0,0,0,388.648-.338ZM402.9-2.7c-.208-.234-.312-.182-.6-.026a7.143,7.143,0,0,1-4.082,1.3,5.053,5.053,0,0,1-5.018-4.5H404.04c.338,0,.39-.1.39-.416,0-3.9-2.366-7.176-6.422-7.176A6.858,6.858,0,0,0,391.2-6.6a6.864,6.864,0,0,0,6.942,6.89,7.818,7.818,0,0,0,5.252-1.82c.182-.182.182-.338,0-.572ZM393.25-7.28a4.813,4.813,0,0,1,4.732-4.6,4.6,4.6,0,0,1,4.446,4.6Zm25.038-3.042a4.765,4.765,0,0,0-4.394-3.2,4.627,4.627,0,0,0-4.134,3.12l-.208-2.418c-.13-.312-.234-.416-.442-.416h-.65c-.286,0-.39.1-.39.416v12.4c0,.312.1.416.39.416h1.17c.286,0,.39-.1.39-.416V-6.968c0-2.756,1.3-4.784,3.406-4.784,2.132,0,3.406,1.872,3.406,4.6V-.416c0,.312.13.416.39.416h1.17c.312,0,.39-.1.39-.416V-7.1c0-2.86,1.482-4.654,3.406-4.654,1.846,0,3.406,1.508,3.406,4.6V-.416c0,.312.13.416.39.416h1.17c.312,0,.39-.1.39-.416V-7.67c0-4.16-2.34-5.85-4.888-5.85A5,5,0,0,0,418.288-10.322Zm14.378-1.066a21.26,21.26,0,0,1,4-.416c2.73,0,3.692,1.2,3.692,4.472a11.465,11.465,0,0,0-4.212-.91c-3.2,0-5.33,1.378-5.33,4.212,0,2.782,2.132,4.316,4.628,4.316a6.414,6.414,0,0,0,5.226-2.47l.1,1.768c.078.312.182.416.39.416h.754c.286,0,.39-.1.39-.416V-7.28c0-4.29-1.2-6.24-5.564-6.24a24.573,24.573,0,0,0-4.472.468c-.312.1-.39.234-.312.52l.208.78C432.25-11.44,432.328-11.31,432.666-11.388Zm3.874,4.6a9.2,9.2,0,0,1,3.822.936v2.158a5.616,5.616,0,0,1-4.316,2.444c-2.106,0-3.276-1.17-3.276-2.782C432.77-5.8,434.07-6.786,436.54-6.786ZM450.788-1.3a7.719,7.719,0,0,1-4.394-1.456c-.312-.234-.442-.1-.572.156l-.364.65c-.156.286-.156.416.078.572A10,10,0,0,0,450.892.286c3.354,0,5.33-1.716,5.33-4.108,0-2.522-2.5-3.354-5.07-3.718-2.366-.338-3.666-.6-3.666-2.028s1.066-2.366,3.25-2.366a6.887,6.887,0,0,1,4.082,1.248c.312.208.442.078.572-.182l.338-.624c.13-.234.182-.39-.13-.572a9.55,9.55,0,0,0-4.966-1.456c-3.068,0-4.992,1.586-4.992,4.056,0,2.73,2.47,3.328,5.044,3.666,2.366.338,3.666.936,3.666,2.08C454.35-2.392,453.31-1.3,450.788-1.3Z" transform="translate(-14.683 400.534)" fill="#fff"/></g></g></svg>