<svg xmlns="http://www.w3.org/2000/svg" width="458" height="407.534" viewBox="0 0 458 407.534">
  <g id="logo-ueb-vertical-a-dos-lineas-vigilada" transform="translate(-659.383 -2702.604)">
    <g id="Capa_2" data-name="Capa 2" transform="translate(685.383 2702.604)">
      <g id="Group_115" data-name="Group 115" transform="translate(0)">
        <g id="Group_114" data-name="Group 114" transform="translate(51.205)">
          <g id="Group_113" data-name="Group 113" transform="translate(82.705)">
            <path id="Path_869" data-name="Path 869" d="M918.213,901.5c-16.247-39.456-21.967-80.308-21.967-122.447a325.542,325.542,0,0,1,4.187-54.288h15.5c-3.747,17.045-4.911,34.518-4.911,51.925,0,36.57,4.539,75.458,15.118,110.694,10.584-35.236,15.123-74.124,15.123-110.694,0-17.407-1.164-34.88-4.9-51.925h15.5a326.316,326.316,0,0,1,4.187,54.288c0,42.139-5.716,82.99-21.971,122.447Z" transform="translate(-845.595 -698.464)" fill="#fff"/>
            <path id="Path_870" data-name="Path 870" d="M1002.042,778.637a3.447,3.447,0,0,1,4.64,5.1,3.447,3.447,0,0,1-4.64-5.1Z" transform="translate(-866.096 -708.839)" fill="#fff"/>
            <path id="Path_871" data-name="Path 871" d="M1002.042,791.926a3.446,3.446,0,1,1-.216,4.864A3.455,3.455,0,0,1,1002.042,791.926Z" transform="translate(-866.096 -711.441)" fill="#fff"/>
            <path id="Path_872" data-name="Path 872" d="M1011.107,802.3a3.441,3.441,0,1,1-.23,4.863A3.427,3.427,0,0,1,1011.107,802.3Z" transform="translate(-867.869 -713.471)" fill="#fff"/>
            <path id="Path_873" data-name="Path 873" d="M999.349,836.956a3.445,3.445,0,1,1-.224,4.864A3.447,3.447,0,0,1,999.349,836.956Z" transform="translate(-865.567 -720.259)" fill="#fff"/>
            <path id="Path_874" data-name="Path 874" d="M998.863,850.439a3.444,3.444,0,1,1-.474,4.849A3.437,3.437,0,0,1,998.863,850.439Z" transform="translate(-865.446 -722.921)" fill="#fff"/>
            <path id="Path_875" data-name="Path 875" d="M1007.516,861.227a3.443,3.443,0,1,1-.548,4.832A3.435,3.435,0,0,1,1007.516,861.227Z" transform="translate(-867.132 -725.041)" fill="#fff"/>
            <path id="Path_876" data-name="Path 876" d="M1008.415,828.675a3.445,3.445,0,1,1-.229,4.864A3.439,3.439,0,0,1,1008.415,828.675Z" transform="translate(-867.342 -718.637)" fill="#fff"/>
            <path id="Path_877" data-name="Path 877" d="M990.531,894.793a3.441,3.441,0,1,1-.8,4.8A3.439,3.439,0,0,1,990.531,894.793Z" transform="translate(-863.778 -731.636)" fill="#fff"/>
            <path id="Path_878" data-name="Path 878" d="M989.5,909.675a3.444,3.444,0,1,1-.94,4.775A3.446,3.446,0,0,1,989.5,909.675Z" transform="translate(-863.56 -734.562)" fill="#fff"/>
            <path id="Path_879" data-name="Path 879" d="M1000.622,887.56a3.444,3.444,0,1,1-.819,4.8A3.448,3.448,0,0,1,1000.622,887.56Z" transform="translate(-865.752 -730.221)" fill="#fff"/>
            <path id="Path_880" data-name="Path 880" d="M1021.575,758.312a3.444,3.444,0,1,1,1.6,4.6A3.434,3.434,0,0,1,1021.575,758.312Z" transform="translate(-870.072 -704.654)" fill="#fff"/>
            <path id="Path_881" data-name="Path 881" d="M1025.175,744.671a3.444,3.444,0,1,1,3.275,3.606A3.445,3.445,0,0,1,1025.175,744.671Z" transform="translate(-870.844 -701.721)" fill="#fff"/>
            <path id="Path_882" data-name="Path 882" d="M1024.64,729.241a3.442,3.442,0,1,1,4.025,2.741A3.441,3.441,0,0,1,1024.64,729.241Z" transform="translate(-870.728 -698.541)" fill="#fff"/>
            <path id="Path_883" data-name="Path 883" d="M1019.813,715.329a3.444,3.444,0,1,1,4.715,1.231A3.45,3.45,0,0,1,1019.813,715.329Z" transform="translate(-869.703 -695.6)" fill="#fff"/>
            <path id="Path_884" data-name="Path 884" d="M1012.74,768.736a3.44,3.44,0,1,1-.224,4.863A3.442,3.442,0,0,1,1012.74,768.736Z" transform="translate(-868.19 -706.898)" fill="#fff"/>
            <path id="Path_885" data-name="Path 885" d="M863.271,778.637a3.446,3.446,0,1,0,.227,4.863A3.451,3.451,0,0,0,863.271,778.637Z" transform="translate(-838.01 -708.839)" fill="#fff"/>
            <path id="Path_886" data-name="Path 886" d="M863.271,791.926a3.445,3.445,0,1,0,.227,4.864A3.443,3.443,0,0,0,863.271,791.926Z" transform="translate(-838.01 -711.441)" fill="#fff"/>
            <path id="Path_887" data-name="Path 887" d="M854.216,802.3a3.444,3.444,0,1,0,.224,4.863A3.438,3.438,0,0,0,854.216,802.3Z" transform="translate(-836.236 -713.471)" fill="#fff"/>
            <path id="Path_888" data-name="Path 888" d="M865.968,836.956a3.444,3.444,0,1,0,.224,4.864A3.447,3.447,0,0,0,865.968,836.956Z" transform="translate(-838.538 -720.259)" fill="#fff"/>
            <path id="Path_889" data-name="Path 889" d="M866.454,850.439a3.442,3.442,0,1,0,.474,4.849A3.437,3.437,0,0,0,866.454,850.439Z" transform="translate(-838.659 -722.921)" fill="#fff"/>
            <path id="Path_890" data-name="Path 890" d="M857.805,861.227a3.443,3.443,0,1,0,.548,4.832A3.44,3.44,0,0,0,857.805,861.227Z" transform="translate(-836.974 -725.041)" fill="#fff"/>
            <path id="Path_891" data-name="Path 891" d="M856.9,828.675a3.444,3.444,0,1,0,.229,4.864A3.44,3.44,0,0,0,856.9,828.675Z" transform="translate(-836.763 -718.637)" fill="#fff"/>
            <path id="Path_892" data-name="Path 892" d="M874.786,894.793a3.442,3.442,0,1,0,.8,4.8A3.443,3.443,0,0,0,874.786,894.793Z" transform="translate(-840.328 -731.636)" fill="#fff"/>
            <path id="Path_893" data-name="Path 893" d="M875.807,909.675a3.442,3.442,0,1,0,.95,4.775A3.437,3.437,0,0,0,875.807,909.675Z" transform="translate(-840.544 -734.562)" fill="#fff"/>
            <path id="Path_894" data-name="Path 894" d="M864.7,887.56a3.444,3.444,0,1,0,.812,4.8A3.444,3.444,0,0,0,864.7,887.56Z" transform="translate(-838.354 -730.221)" fill="#fff"/>
            <path id="Path_895" data-name="Path 895" d="M843.745,758.312a3.447,3.447,0,1,0-1.6,4.6A3.439,3.439,0,0,0,843.745,758.312Z" transform="translate(-834.031 -704.654)" fill="#fff"/>
            <path id="Path_896" data-name="Path 896" d="M840.141,744.671a3.442,3.442,0,1,0-3.274,3.606A3.445,3.445,0,0,0,840.141,744.671Z" transform="translate(-833.261 -701.721)" fill="#fff"/>
            <path id="Path_897" data-name="Path 897" d="M840.675,729.241a3.442,3.442,0,1,0-4.021,2.741A3.441,3.441,0,0,0,840.675,729.241Z" transform="translate(-833.376 -698.541)" fill="#fff"/>
            <path id="Path_898" data-name="Path 898" d="M845.5,715.329a3.444,3.444,0,1,0-4.712,1.231A3.447,3.447,0,0,0,845.5,715.329Z" transform="translate(-834.401 -695.6)" fill="#fff"/>
            <path id="Path_899" data-name="Path 899" d="M852.577,768.736a3.44,3.44,0,1,0,.224,4.863A3.438,3.438,0,0,0,852.577,768.736Z" transform="translate(-835.916 -706.898)" fill="#fff"/>
            <g id="Group_112" data-name="Group 112" transform="translate(6.615)">
              <path id="Path_900" data-name="Path 900" d="M892.984,854.762l-19.651-13.853a3.623,3.623,0,0,1-.568-5.11L885.9,820.42a7.3,7.3,0,0,0-.474-10.312l-16.46-14.986a3.64,3.64,0,0,1-.24-5.141l15.006-16.444a7.3,7.3,0,0,0-.477-10.315l-21.788-19.9c-2.969-2.721-2.9-7.13-.47-10.316l22.681-30.282c2.229-2.924,2.087-6.333-.4-8.592-1.245-1.133-3.687-2.455-8.161-1.972-21.392,2.3-35.749,21.061-33.381,42.746,1.18,10.892,5.069,14.8,7.2,16.749l16.411,14.982a3.637,3.637,0,0,1,.233,5.141l-15,16.441a7.3,7.3,0,0,0,.481,10.312l16.45,15a3.626,3.626,0,0,1,.234,5.134l-13.2,16.547a7.3,7.3,0,0,0,1.139,10.26l19.683,14.043a3.627,3.627,0,0,1,.622,5.106L867.51,877.3a7.3,7.3,0,1,0,11.865,8.5l14.844-20.789A7.294,7.294,0,0,0,892.984,854.762ZM865.3,701.613a2.929,2.929,0,1,1,.189,4.144A2.936,2.936,0,0,1,865.3,701.613Z" transform="translate(-841.487 -692.057)" fill="#fff"/>
              <path id="Path_901" data-name="Path 901" d="M978.652,692.16c-4.478-.483-6.92.839-8.164,1.972-2.483,2.259-2.625,5.668-.4,8.592l22.688,30.282c2.428,3.186,2.5,7.6-.474,10.316l-21.794,19.9a7.3,7.3,0,0,0-.474,10.315l15.01,16.444a3.638,3.638,0,0,1-.244,5.141l-16.457,14.986a7.294,7.294,0,0,0-.474,10.313L981.013,835.8a3.624,3.624,0,0,1-.575,5.11l-19.643,13.853a7.305,7.305,0,0,0-1.245,10.248L974.391,885.8a7.3,7.3,0,0,0,11.871-8.5l-8.482-12.677a3.63,3.63,0,0,1,.622-5.106l19.684-14.043a7.311,7.311,0,0,0,1.143-10.26l-13.211-16.547a3.629,3.629,0,0,1,.237-5.134l16.451-15a7.312,7.312,0,0,0,.48-10.312l-15-16.441a3.637,3.637,0,0,1,.231-5.141l16.41-14.982c2.13-1.949,6.02-5.858,7.2-16.749C1014.4,713.221,1000.041,694.463,978.652,692.16Zm9.626,13.6a2.929,2.929,0,1,1,.189-4.144A2.929,2.929,0,0,1,988.278,705.757Z" transform="translate(-864.304 -692.057)" fill="#fff"/>
            </g>
          </g>
          <path id="Path_902" data-name="Path 902" d="M739.289,1045.892h20.948v-8.141H739.289v-11.7h21.538v-8.029H730.414v48.063h31.115v-8.137H739.289Zm35.918-24.541h-8.912v44.736h31.322v-7.63h-22.41Zm63.181,19.031a10.092,10.092,0,0,0,4.941-9.328c0-4.075-1.38-7.414-4.153-9.7-2.774-2.317-6.555-3.368-11.331-3.368H813.184v48.1h17.178c4.938,0,8.989-1.2,12.064-3.652a12.141,12.141,0,0,0,4.62-9.984,12.3,12.3,0,0,0-3-8.268,14.374,14.374,0,0,0-5.655-3.8m-16.42-14.264h5.195c2.726,0,4.519.486,5.492,1.283a3.923,3.923,0,0,1,1.116,1.563,7.59,7.59,0,0,1,.375,2.5,5.232,5.232,0,0,1-2,4.62c-1.282.961-3.565,1.577-6.828,1.577h-3.352Zm14.07,30.319c-1.15.872-3.275,1.478-6.372,1.42h-7.7v-12.023h6.615c3.477,0,5.882.6,7.211,1.569a5.159,5.159,0,0,1,2,4.583c0,2.219-.585,3.544-1.755,4.451m80.973-16.556h0l-.954-.52a29.931,29.931,0,0,1-5.6-3.974,6.035,6.035,0,0,1-1.238-1.555,1.933,1.933,0,0,1-.379-1.066,3.008,3.008,0,0,1,1.42-2.6,6.949,6.949,0,0,1,4.166-1.147,12,12,0,0,1,4.532.869,23.15,23.15,0,0,1,5.087,3.061l1.8,1.34v-9.578l-.541-.325a26.337,26.337,0,0,0-5.283-2.209,20.435,20.435,0,0,0-5.323-.746,15.439,15.439,0,0,0-10.106,3.334,11.012,11.012,0,0,0-4.025,8.679,10.527,10.527,0,0,0,2.117,6.568,19.354,19.354,0,0,0,3.531,3.142c1.61,1.221,3.68,2.553,6.19,4.1,1.569.9,2.84,1.739,3.828,2.435a13.156,13.156,0,0,1,2,1.656,4.492,4.492,0,0,1,1.021,2.774,3.553,3.553,0,0,1-1.489,2.955,7.351,7.351,0,0,1-4.478,1.194,11.212,11.212,0,0,1-5.324-1.282,22.021,22.021,0,0,1-5.411-4.336l-1.935-2.1v11.1l.474.315a18.5,18.5,0,0,0,5.824,3.145,20.547,20.547,0,0,0,6.765,1.035,15.339,15.339,0,0,0,10.1-3.336,10.885,10.885,0,0,0,4.059-8.607,12.667,12.667,0,0,0-2.171-7.531c-1.481-2.131-4.336-4.306-8.651-6.793m55.94,18.809a21.181,21.181,0,0,0,5.005-13.988,24.085,24.085,0,0,0-1.772-9.135,23.453,23.453,0,0,0-5.27-7.566,23.171,23.171,0,0,0-7.711-5.039,25.028,25.028,0,0,0-9.247-1.756,24.448,24.448,0,0,0-9.145,1.756,24,24,0,0,0-7.786,5.039,23.119,23.119,0,0,0-5.154,7.481,21.466,21.466,0,0,0-1.874,8.79,22.778,22.778,0,0,0,4.965,14.522,23.136,23.136,0,0,0,12.838,8.165,58.887,58.887,0,0,0,11.134,6.371,25.647,25.647,0,0,0,9.9,2.273h.88a3.205,3.205,0,0,0,.724-.075l.359-.055,6.589-5.786-.507-1.39-.359-.873-.873.19a21.612,21.612,0,0,1-2.286.352,9.71,9.71,0,0,1-1.806.118,23.239,23.239,0,0,1-5.391-.707c-1.17-.329-2.5-.8-3.916-1.347a24.613,24.613,0,0,0,10.7-7.342m-4.891-9.237a14.818,14.818,0,0,1-3.287,4.894l-.054.044a15.3,15.3,0,0,1-4.938,3.414,15.493,15.493,0,0,1-5.825,1.148,14.947,14.947,0,0,1-5.83-1.187,15.94,15.94,0,0,1-4.958-3.375v-.044a14.126,14.126,0,0,1-3.254-4.894,14.538,14.538,0,0,1-1.164-5.834,14.888,14.888,0,0,1,1.164-5.905,14.389,14.389,0,0,1,3.234-4.874,15.988,15.988,0,0,1,5.039-3.358,15.149,15.149,0,0,1,11.594,0,14.281,14.281,0,0,1,4.91,3.318,15.061,15.061,0,0,1,3.369,5.046,14.293,14.293,0,0,1,1.15,5.773,14.892,14.892,0,0,1-1.15,5.834m44.123-.606a8.174,8.174,0,0,1-3,6.683,12.243,12.243,0,0,1-8.185,2.615,13.857,13.857,0,0,1-5.4-1.021,10.964,10.964,0,0,1-4.079-3.01,5.832,5.832,0,0,1-1.231-2.5,23.466,23.466,0,0,1-.433-5.505v-24.73H981.6v24.974a29.887,29.887,0,0,0,.744,7.759,12.837,12.837,0,0,0,2.53,4.8,18.518,18.518,0,0,0,6.987,5.361,22.649,22.649,0,0,0,9.145,1.809c5.628,0,10.363-1.569,13.968-4.708a15.36,15.36,0,0,0,5.439-12.351v-27.646h-8.226Zm22.424,9.528V1047.4h21.077v-7.664h-21.077v-10.535h21.733v-7.627H1025.69v44.414h31.352v-7.616Zm-143.978-30.71a24.042,24.042,0,0,0-7.755-4.934,26.259,26.259,0,0,0-9.307-1.706,25.468,25.468,0,0,0-9.146,1.706,23.218,23.218,0,0,0-7.805,4.934,22.343,22.343,0,0,0-5.276,7.323,21.6,21.6,0,0,0-1.84,8.631,22.24,22.24,0,0,0,1.8,8.878,22.467,22.467,0,0,0,5.32,7.488,23.9,23.9,0,0,0,7.759,4.9,26.2,26.2,0,0,0,18.446.041,24.756,24.756,0,0,0,7.857-4.939,23.19,23.19,0,0,0,5.225-7.3,21.591,21.591,0,0,0,1.8-8.705,22.215,22.215,0,0,0-1.757-8.859,22.484,22.484,0,0,0-5.313-7.457m-2.865,21.814a14.973,14.973,0,0,1-8.236,8.054,16.485,16.485,0,0,1-11.888,0,15.621,15.621,0,0,1-4.917-3.224,13.985,13.985,0,0,1-3.294-4.83,13.718,13.718,0,0,1-1.157-5.674,14.372,14.372,0,0,1,1.157-5.734,14.567,14.567,0,0,1,3.294-4.759,17.221,17.221,0,0,1,5.056-3.279,15.764,15.764,0,0,1,11.652,0,14.741,14.741,0,0,1,4.965,3.279,14.98,14.98,0,0,1,3.406,4.9,14.325,14.325,0,0,1,1.109,5.595,14.038,14.038,0,0,1-1.146,5.674" transform="translate(-730.414 -755.886)" fill="#fff"/>
          <path id="Path_903" data-name="Path 903" d="M770.077,997.029a12.338,12.338,0,0,0,9.45-3.742,14.4,14.4,0,0,0,3.5-10.085V964.848h-2.648v18.5a11.46,11.46,0,0,1-2.746,8.042,9.995,9.995,0,0,1-7.555,3.01,9.773,9.773,0,0,1-7.488-3.01,11.2,11.2,0,0,1-2.828-8.042v-18.5h-2.523V983.2c0,4.249,1.14,7.632,3.46,10.085a12.239,12.239,0,0,0,9.379,3.742m25.105-27.412,20.333,24.541h2.039v-27.74h-2.191v24.172l-20.09-24.172h-2.31v27.74h2.219Zm32.451,24.95h2.36V966.8h-2.36Zm22.322.463L861.61,966.8h-2.361L849.766,990.1,840.4,966.8h-2.466l11.695,28.234Zm33.466-2.357h-12.99V981.386H882.68v-1.779H870.431V968.6H883.1v-1.8H868.212v27.771h15.21ZM895.4,981.213h2.232a15.219,15.219,0,0,1,3.53.329,4.033,4.033,0,0,1,1.953,1.055,20.409,20.409,0,0,1,1.468,1.856c.6.833,1.386,1.936,2.218,3.295l4.39,6.819h2.49L906.1,982.884a8.329,8.329,0,0,0-1.048-1.342,9.982,9.982,0,0,0-1.394-1.012,7.683,7.683,0,0,0,3.93-2.553,6.592,6.592,0,0,0,1.3-4.215,6.086,6.086,0,0,0-2.314-5.164,10.806,10.806,0,0,0-6.695-1.8h-6.67v27.771H895.4Zm0-12.516h4.609a7.433,7.433,0,0,1,4.8,1.332,4.488,4.488,0,0,1,1.657,3.734,5.5,5.5,0,0,1-.723,2.977,4.807,4.807,0,0,1-2.273,1.873,8.457,8.457,0,0,1-2.027.571c-.86.079-2.286.129-4.343.129h-1.7Zm39.359,18.656a8.387,8.387,0,0,0-.44-2.633,7.492,7.492,0,0,0-1.353-2.208,14.661,14.661,0,0,0-5.087-3.005,5.807,5.807,0,0,1-.588-.288c-2.28-.964-3.741-1.79-4.4-2.577a4.163,4.163,0,0,1-1.021-2.954,4.908,4.908,0,0,1,1.57-3.754,5.819,5.819,0,0,1,4.051-1.477,8.934,8.934,0,0,1,3.065.552,14.377,14.377,0,0,1,3.287,1.758v-2.49a16.284,16.284,0,0,0-3.1-1.393,12.632,12.632,0,0,0-3.145-.467,7.994,7.994,0,0,0-5.73,2.09,6.873,6.873,0,0,0-2.219,5.256,6.281,6.281,0,0,0,1.441,4.316,14.8,14.8,0,0,0,5.4,3.307c2.55,1.079,4.167,2,4.87,2.783a4.5,4.5,0,0,1,1.042,3.109,5.258,5.258,0,0,1-1.569,4.055,5.911,5.911,0,0,1-4.242,1.488,8.84,8.84,0,0,1-3.341-.75,15.576,15.576,0,0,1-3.686-2.259v2.671a14.4,14.4,0,0,0,3.517,1.854,10.838,10.838,0,0,0,3.551.6,8.112,8.112,0,0,0,5.831-2.119,7.169,7.169,0,0,0,2.293-5.468M945.952,966.8h-2.34V994.57h2.34Zm25.1,27.125a11.856,11.856,0,0,0,4.031-1.938,13.435,13.435,0,0,0,4.018-4.894,15.24,15.24,0,0,0,0-12.851,13.465,13.465,0,0,0-4.018-4.9,12.232,12.232,0,0,0-3.991-1.944,22.149,22.149,0,0,0-5.344-.6h-9.524v27.771h9.524a19.608,19.608,0,0,0,5.3-.646m-12.466-1.327V968.778H965.2a22.138,22.138,0,0,1,4.647.474,10.053,10.053,0,0,1,3.389,1.416,10.946,10.946,0,0,1,3.62,4.218,12.981,12.981,0,0,1,1.271,5.82,13.324,13.324,0,0,1-1.271,5.831,11.307,11.307,0,0,1-3.62,4.214,10.522,10.522,0,0,1-3.389,1.428,23.011,23.011,0,0,1-4.647.415Zm37.521-24.739L984.7,994.567h2.219l3.882-9.237h11.492l3.9,9.237h2.219l-11.418-26.712Zm-4.586,15.666,5.066-12.01,4.986,12.01Zm39.719,10.4a11.163,11.163,0,0,0,4.018-1.938,13.113,13.113,0,0,0,4.018-4.894,15.047,15.047,0,0,0,0-12.851,13.142,13.142,0,0,0-4.018-4.9,11.509,11.509,0,0,0-3.971-1.944,22.394,22.394,0,0,0-5.357-.6h-9.476v27.771h9.476a19.621,19.621,0,0,0,5.31-.646m-12.494-1.327V968.778h6.636a22.177,22.177,0,0,1,4.646.474,9.968,9.968,0,0,1,3.383,1.416,10.623,10.623,0,0,1,3.6,4.218,12.643,12.643,0,0,1,1.3,5.82,12.974,12.974,0,0,1-1.3,5.831,10.962,10.962,0,0,1-3.6,4.214,10.429,10.429,0,0,1-3.383,1.428,23.048,23.048,0,0,1-4.646.415Z" transform="translate(-735.667 -745.48)" fill="#fff"/>
          <rect id="Rectangle_26" data-name="Rectangle 26" width="67.265" height="8.913" transform="translate(129.68 341.614)" fill="#fff"/>
        </g>
        <text id="Programa_de_Ingeniería_de_Sistemas" data-name="Programa de Ingeniería de Sistemas" transform="translate(203 400.534)" fill="#fff" font-size="26" font-family="AcherusGrotesque-Regular, Acherus Grotesque"><tspan x="-228.683" y="0">Programa de Ingeniería de Sistemas</tspan></text>
      </g>
    </g>
  </g>
</svg>
