<svg xmlns="http://www.w3.org/2000/svg" width="1114.757" height="512" viewBox="0 0 1114.757 512"><defs><style>.a,.b{fill:#fff;}.b{opacity:0.7;}</style></defs><g transform="translate(-131.122 -44)"><path class="a" d="M471.281,556a27.243,27.243,0,0,1-25.324-17.449L356.914,304.82a24.643,24.643,0,0,1-1.812-9.707,27.155,27.155,0,0,1,27.113-27.133A25.63,25.63,0,0,1,392.9,270.2l232.746,88.637a27.115,27.115,0,0,1-1.281,51.137l-95.871,31.4-31.422,95.938A27.1,27.1,0,0,1,471.281,556Zm-80.6-252.414L470.961,514.25l29.652-90.516a15.992,15.992,0,0,1,10.219-10.218l90.52-29.653Zm223.636,85.2h0ZM380.57,299.723a.815.815,0,0,0,.278.105Zm5.953-7.082.321.808C386.738,293.2,386.652,292.918,386.523,292.641Z"/><path class="b" d="M365.789,513.332c-129.386,0-234.667-105.277-234.667-234.664S236.4,44,365.789,44,600.453,149.281,600.453,278.668c0,4.52-.211,9.277-.445,13.781a16,16,0,0,1-31.957-1.578c.191-3.969.4-8.2.4-12.2C568.453,166.922,477.531,76,365.789,76S163.122,166.922,163.122,278.668s90.921,202.664,202.667,202.664c4.008,0,8.211-.191,12.2-.4,8.192-.239,16.34,6.312,16.789,15.144a16.013,16.013,0,0,1-15.168,16.813C375.09,513.121,370.332,513.332,365.789,513.332Z"/><path class="a" d="M336.988,403.254a16.006,16.006,0,0,1-4.1-.535,128.288,128.288,0,0,1,32.9-252.266c58.387,0,109.418,39.211,124.051,95.36a16,16,0,1,1-30.953,8.085c-10.965-42.07-49.258-71.445-93.1-71.445a96.284,96.284,0,0,0-24.684,189.332,16,16,0,0,1-4.117,31.469Z"/><path class="a" d="M729.146,215.5h37.881c6.684,0,8.594,1.91,8.594,8.594v21.965c0,6.684-1.91,8.594-8.594,8.594H729.146v37.88c0,6.685-1.91,8.594-8.593,8.594H698.588c-6.686,0-8.6-1.909-8.6-8.594v-37.88H652.113c-6.685,0-8.595-1.91-8.595-8.594V224.09c0-6.684,1.91-8.594,8.595-8.594h37.879V177.615c0-6.684,1.91-8.6,8.6-8.6h21.965c6.683,0,8.593,1.911,8.593,8.6Z"/><path class="a" d="M845.916,132.839a20.515,20.515,0,0,1,20.469,20.47,20.125,20.125,0,0,1-20.469,20.009,19.734,19.734,0,0,1-20.01-20.009A20.125,20.125,0,0,1,845.916,132.839Zm-17.25,61.639c0-4.83,1.379-6.21,6.209-6.21h22.769c4.831,0,6.211,1.38,6.211,6.21V299.126c0,4.83-1.38,6.21-6.211,6.21H834.875c-4.83,0-6.209-1.38-6.209-6.21Z"/><path class="a" d="M930.092,202.758c8.97-9.66,17.25-17.02,33.58-17.02,26.219,0,43.93,11.96,43.93,54.279v59.109c0,4.83-1.381,6.21-6.211,6.21h-22.77c-4.83,0-6.209-1.38-6.209-6.21V246.917c0-20.93-3.91-29.9-17.711-29.9-14.26,0-18.629,8.969-18.629,29.9v52.209c0,4.83-1.381,6.21-6.209,6.21H907.094c-4.83,0-6.211-1.38-6.211-6.21V194.478c0-4.83,1.381-6.21,6.211-6.21h11.039c3.679,0,4.83,1.84,7.359,6.21Z"/><path class="a" d="M1042.332,181.6c0-32.2,16.791-51.289,47.15-51.289,2.989,0,13.34,0,22.77,5.98,3.68,2.3,3.908,3.45,3.219,7.82l-2.76,16.1c-.92,6.21-2.07,6.44-7.82,3.681a27,27,0,0,0-11.5-2.3c-9.889,0-16.1,6.44-16.1,21.16v5.98H1106.5c4.83,0,6.209,1.38,6.209,6.21v15.18c0,4.83-1.379,6.21-6.209,6.21h-29.211v82.8c0,4.83-1.379,6.21-6.209,6.21h-22.539c-4.83,0-6.211-1.38-6.211-6.21v-82.8h-11.269c-4.831,0-6.21-1.38-6.21-6.21v-15.18c0-4.83,1.379-6.21,6.21-6.21h11.269Z"/><path class="a" d="M1184.7,185.738a61.449,61.449,0,0,1,61.18,61.179c0,33.58-27.6,60.949-61.18,60.949s-61.177-27.369-61.177-60.949A61.447,61.447,0,0,1,1184.7,185.738Zm26.221,61.179c0-17.479-11.961-29.9-26.221-29.9s-26.219,12.42-26.219,29.9,11.96,30.359,26.219,30.359S1210.92,264.4,1210.92,246.917Z"/></g></svg>