<svg xmlns="http://www.w3.org/2000/svg" xmlns:xlink="http://www.w3.org/1999/xlink" viewBox="0 0 1913 1024"><defs><path id="reuse-11" fill="#FFF" d="M690 860c0-3-2-6-5-7-3 0-6 2-6 5-1 3 1 6 4 6 3 1 6-1 7-4z"/><path id="reuse-10" fill="none" stroke="#FFF" stroke-miterlimit="10" stroke-width=".3" d="M313 591s53-11 69-42M313 591s23-9 41 6M313 591s5-48 34-64"/><path id="reuse-9" d="M381 549l1-1 1 1-1 1-1-1zM363 568h2v1h-1l-1-1zM340 581h2a1 1 0 01-2 1v-1zM320 588h2v1a1 1 0 11-2-1zM312 590a1 1 0 111 2 1 1 0 01-1-2z"/><path id="reuse-8" d="M306 553l1-2 1 1v2l-2-1zM314 564c0-1 0-2 1-1a1 1 0 110 2l-1-1zM315 576l2-1v2a1 1 0 11-2-1zM313 586a1 1 0 112 1 1 1 0 01-2-1zM312 590h2l-1 2h-1v-2z"/><path id="reuse-7" d="M353 595a2 2 0 112 4c-1 1-2 0-3-1l1-3zM338 589a2 2 0 114 2 2 2 0 11-4-2zM325 588c0-1 1-2 2-1a2 2 0 11-2 1zM315 589l2-1a2 2 0 11-2 1zM311 591l2-2 1 2-2 1-1-1z"/><path id="reuse-6" fill="#FFF" d="M1721 727a4 4 0 119 0 4 4 0 01-9 0z"/><path id="reuse-5" fill="#FFF" d="M318 861c-1 2 0 4 2 5a4 4 0 10-2-5z"/><path id="reuse-4" fill="#FFF" d="M1215 267a6 6 0 11-3 11 6 6 0 013-11z"/><path id="reuse-3" fill="#FFF" d="M1262 354a2 2 0 111 5 2 2 0 01-1-5z"/><path id="reuse-2" fill="#FFF" d="M1383 787a3 3 0 114-4 3 3 0 01-4 4z"/><path id="reuse-1" fill="#FFF" d="M527 117v3h-3v-3h3z"/><path id="reuse-0" fill="#FFF" d="M593 223a4 4 0 11-4 6 4 4 0 014-6z"/></defs><image width="445" height="373" opacity=".6" overflow="visible" transform="translate(312 101)" xlink:href="../images/svg/B03D388A8F58AE6.png"/><path fill="none" stroke="#FFF" stroke-miterlimit="10" stroke-width=".4" d="M439 108s-69-9-101 23"/><path fill="#C21368" d="M528 116a4 4 0 11-4 6 4 4 0 014-6z"/><path fill="#D14E8E" d="M560 155c-2-1-2-4-1-5a4 4 0 111 5z"/><path fill="#E189B4" d="M579 190a4 4 0 115-6 4 4 0 01-5 6z"/><path fill="#F0C4D9" d="M587 218a4 4 0 115-6 4 4 0 01-5 6z"/><use xlink:href="#reuse-0"/><path fill="none" stroke="#FFF" stroke-miterlimit="10" stroke-width=".9" d="M591 226s-3-68-65-107"/><path fill="none" stroke="#FFF" stroke-miterlimit="10" stroke-width=".4" d="M526 119s17-7 31 0c18 10 18 26 18 26"/><path fill="none" stroke="#FFF" stroke-miterlimit="10" stroke-width=".5" d="M591 227s-35 28-17 64M591 227s43 17 47 63"/><path fill="none" stroke="#FFF" stroke-miterlimit="10" stroke-width=".5" d="M607 192c-23 11-16 35-16 35s31 20 59-7"/><path fill="#C21368" d="M425 372l3-1v3l-2 1-1-3z"/><path fill="#D14E8E" d="M415 378l1 2h-2a1 1 0 011-2z"/><path fill="#E189B4" d="M404 378a1 1 0 01-1 3l-1-2 2-1z"/><path fill="#F0C4D9" d="M395 377a2 2 0 110 3 2 2 0 010-3z"/><path fill="#FFF" d="M392 375a2 2 0 110 4l-2-2 2-2z"/><path fill="none" stroke="#FFF" stroke-miterlimit="10" stroke-width=".3" d="M392 377s49 39 21 92M392 377s18 8 35-4M392 377s-37 43-85 26M392 377s-30-23-17-57"/><use xlink:href="#reuse-0"/><use xlink:href="#reuse-0"/><path fill="none" stroke="#FFF" stroke-miterlimit="10" stroke-width=".9" d="M591 226S434 198 421 28M295 268c117-97 296-42 296-42M591 226s-143 21-198 151"/><path fill="#C21368" d="M333 127c2-3 6-3 9-1a6 6 0 11-9 1z"/><path fill="#D14E8E" d="M365 110c3-1 6 0 7 2s0 5-3 6a5 5 0 11-4-8z"/><path fill="#E189B4" d="M400 104c2 0 4 1 4 3a4 4 0 11-4-3z"/><path fill="#F0C4D9" d="M428 105l3 2c0 2-1 3-3 3a3 3 0 110-5z"/><path fill="#FFF" d="M439 107a2 2 0 110 3 2 2 0 010-3z"/><path fill="none" stroke="#FFF" stroke-miterlimit="10" stroke-width=".4" d="M439 108s-31 1-48-25M439 108s-26 56-68 64M439 108s-24 27-9 49M526 119s6-13 1-28c-7-17-27-18-27-18"/><path fill="none" stroke="#FFF" stroke-miterlimit="10" stroke-width=".4" d="M526 119s-3-27 24-40c30-15 51 1 51 1M526 119s-7 24-22 43M453 73s-4 32 20 48c25 15 53-2 53-2"/><path fill="#C21368" d="M576 148c-1 1-4 0-4-1a4 4 0 114 1z"/><path fill="#CB357E" d="M576 144a3 3 0 11-4-5 3 3 0 114 5z"/><path fill="#D35693" d="M574 136a3 3 0 11-5-4 3 3 0 015 4z"/><path fill="#DC78A9" d="M567 125a3 3 0 11-6-2 3 3 0 016 2z"/><path fill="#E59ABE" d="M554 116a3 3 0 11-6 1 3 3 0 016-1z"/><path fill="#EEBCD4" d="M541 114a3 3 0 11-5 3 3 3 0 015-3z"/><path fill="#F6DDE9" d="M531 116v3a2 2 0 110-3z"/><path fill="#FFF" d="M527 117v3a2 2 0 110-3z"/><g><path fill="#C21368" d="M602 85a5 5 0 11-2-10 5 5 0 012 10z"/><path fill="#CB357E" d="M598 82a5 5 0 11-4-9 5 5 0 014 9z"/><path fill="#D35693" d="M586 76a4 4 0 11-5-6 4 4 0 015 6z"/><path fill="#DC78A9" d="M568 75a4 4 0 11-7-3 4 4 0 017 3z"/><path fill="#E59ABE" d="M545 84a3 3 0 11-6 0 3 3 0 016 0z"/><path fill="#EEBCD4" d="M532 98a3 3 0 11-5 2 3 3 0 015-2z"/><path fill="#F6DDE9" d="M528 111v4a3 3 0 110-4z"/><use xlink:href="#reuse-1"/></g><g><path fill="#C21368" d="M499 71a3 3 0 112 5 3 3 0 01-2-5z"/><path fill="#D14E8E" d="M509 73a3 3 0 111 5 3 3 0 01-1-5z"/><path fill="#E189B4" d="M526 85a2 2 0 11-3 4 2 2 0 013-4z"/><path fill="#F0C4D9" d="M531 108a2 2 0 11-5 1 2 2 0 015-1z"/><path fill="#FFF" d="M528 119c0 1-1 2-3 2-1 0-2-1-2-3a2 2 0 015 1z"/></g><g><path fill="#FFF" d="M526 116a2 2 0 11-1 5 2 2 0 011-5z"/><path fill="#F6DDE9" d="M520 120a2 2 0 11-1 4c-2-1-2-2-1-3 0-1 1-2 2-1z"/><path fill="#EEBCD4" d="M506 125a2 2 0 11-3 3v-3h3z"/><path fill="#E59ABE" d="M486 125a2 2 0 11-4 1l1-2c1-1 2 0 3 1z"/><path fill="#DC78A9" d="M466 113l-2 2c-1 0-2-1-1-2l2-2c1 0 2 1 1 2z"/><path fill="#D35693" d="M457 96l-3 1v-3h2l1 2z"/><path fill="#CB357E" d="M454 81h-3l1-3h2v3z"/><path fill="#C21368" d="M454 74h-2v-3l3 1-1 2z"/></g><g><path fill="#C21368" d="M506 161c1 1 0 3-1 3s-3 0-3-2a2 2 0 014-1z"/><path fill="#CB357E" d="M512 153a2 2 0 11-4 1 2 2 0 014-1z"/><path fill="#D35693" d="M517 144a2 2 0 11-4 2 2 2 0 014-2z"/><path fill="#DC78A9" d="M521 136a2 2 0 11-4 2 2 2 0 014-2z"/><path fill="#E59ABE" d="M524 128a2 2 0 11-4 3 2 2 0 014-3z"/><path fill="#EEBCD4" d="M526 123a2 2 0 01-4 2c-1-1 0-3 1-3 1-1 2-1 3 1z"/><path fill="#F6DDE9" d="M527 119c1 1 0 2-1 3a2 2 0 111-3z"/><use xlink:href="#reuse-1"/></g><g><path fill="#C21368" d="M425 22a8 8 0 11-9 12 8 8 0 019-12z"/><path fill="#C82876" d="M432 65a7 7 0 11-9 12 7 7 0 019-12z"/><path fill="#CD3E83" d="M445 102a7 7 0 11-9 11 7 7 0 019-11z"/><path fill="#D35391" d="M462 132a7 7 0 11-8 11 7 7 0 018-11z"/><path fill="#D8699F" d="M482 158a6 6 0 11-8 10 6 6 0 018-10z"/><path fill="#DE7EAD" d="M503 178a6 6 0 11-7 9 6 6 0 017-9z"/><path fill="#E394BA" d="M525 193a6 6 0 11-6 9 6 6 0 016-9z"/><path fill="#E9A9C8" d="M546 205a5 5 0 11-6 9 5 5 0 016-9z"/><path fill="#EEBFD6" d="M565 214a5 5 0 11-6 7 5 5 0 016-7z"/><path fill="#F4D4E4" d="M580 219a5 5 0 11-5 7 5 5 0 015-7z"/><path fill="#F9EAF1" d="M590 222a4 4 0 11-5 7 4 4 0 015-7z"/><use xlink:href="#reuse-0"/></g><g><use xlink:href="#reuse-0"/><path fill="#F9EAF1" d="M584 223a4 4 0 116 4 4 4 0 01-6-4z"/><path fill="#F4D4E4" d="M572 221a3 3 0 116 2 3 3 0 01-6-2z"/><path fill="#EEBFD6" d="M553 218a3 3 0 116 0 3 3 0 01-6 0z"/><path fill="#E9A9C8" d="M528 215a3 3 0 117-1 3 3 0 01-7 1z"/><path fill="#E394BA" d="M499 212a4 4 0 117-2 4 4 0 01-7 2z"/><path fill="#DE7EAD" d="M467 212c-1-2 0-4 2-5a4 4 0 11-2 5z"/><path fill="#D8699F" d="M432 215a4 4 0 117-5 4 4 0 01-7 5z"/><path fill="#D35391" d="M396 221a5 5 0 117-6 5 5 0 11-7 6z"/><path fill="#CD3E83" d="M360 233a5 5 0 117-8 5 5 0 11-7 8z"/><path fill="#C82876" d="M325 250a6 6 0 117-9 6 6 0 01-7 9z"/><path fill="#C21368" d="M299 263a6 6 0 11-8 10 6 6 0 018-10z"/></g><g><path fill="#C21368" d="M645 286a8 8 0 11-14 9 8 8 0 0114-9z"/><path fill="#D14E8E" d="M625 267a7 7 0 118-12 7 7 0 01-8 12z"/><path fill="#E189B4" d="M611 247a6 6 0 113-12 6 6 0 01-3 12z"/><path fill="#F0C4D9" d="M597 235a5 5 0 111-10 5 5 0 01-1 10z"/><path fill="#FFF" d="M591 231c2-1 4-3 4-5-1-2-3-4-5-3-2 0-4 2-3 4 0 2 2 4 4 4z"/></g><g><path fill="#C21368" d="M574 288a3 3 0 111 6 3 3 0 01-1-6z"/><path fill="#D14E8E" d="M568 269a3 3 0 112-6 3 3 0 01-2 6z"/><path fill="#E189B4" d="M573 248a3 3 0 115-5 3 3 0 01-5 5z"/><path fill="#F0C4D9" d="M582 234a4 4 0 117-4 4 4 0 01-7 4z"/><path fill="#FFF" d="M587 228a4 4 0 107-3 4 4 0 00-7 3z"/></g><g><path fill="#C21368" d="M652 222a3 3 0 11-4-5 3 3 0 014 5z"/><path fill="#D14E8E" d="M625 233a3 3 0 117-1 3 3 0 01-7 1z"/><path fill="#E189B4" d="M607 232a4 4 0 116 3 4 4 0 01-6-3z"/><path fill="#F0C4D9" d="M594 226a4 4 0 114 6 4 4 0 01-4-6z"/><path fill="#FFF" d="M590 223a4 4 0 101 8 4 4 0 00-1-8z"/><path fill="#F0C4D9" d="M593 224a3 3 0 11-6-3 3 3 0 016 3z"/><path fill="#E189B4" d="M592 216a3 3 0 11-4-5 3 3 0 014 5z"/><path fill="#D14E8E" d="M595 204l-3-2a2 2 0 113 2z"/><path fill="#C21368" d="M606 193v-2l3-1v3h-3z"/></g><g><path fill="#C21368" d="M415 465a5 5 0 11-4 9 5 5 0 014-9z"/><path fill="#D14E8E" d="M421 428a4 4 0 111 9 4 4 0 01-1-9z"/><path fill="#E189B4" d="M411 400a4 4 0 014 6 4 4 0 01-4-6z"/><path fill="#F0C4D9" d="M397 382a3 3 0 014 4 3 3 0 01-4-4z"/><path fill="#FFF" d="M390 376l4-1a2 2 0 11-3 4l-1-3z"/></g><g><path fill="#C21368" d="M307 394a9 9 0 110 17 9 9 0 010-17z"/><path fill="#D14E8E" d="M337 400a7 7 0 117 12 7 7 0 01-7-12z"/><path fill="#E189B4" d="M363 393a5 5 0 119 7 5 5 0 01-9-7z"/><path fill="#F0C4D9" d="M382 382a4 4 0 117 3 4 4 0 01-7-3z"/><path fill="#FFF" d="M390 376l3-1c1 1 2 2 1 3 0 1-1 2-3 1l-1-3z"/></g><g><path fill="#C21368" d="M374 324a5 5 0 113-8 5 5 0 01-3 8z"/><path fill="#D14E8E" d="M372 348a4 4 0 11-1-8 4 4 0 011 8z"/><path fill="#E189B4" d="M380 365a3 3 0 11-3-6 3 3 0 013 6z"/><path fill="#F0C4D9" d="M390 375a3 3 0 11-4-4 3 3 0 014 4z"/><path fill="#FFF" d="M394 378c-1 1-2 2-3 1l-1-3 3-1c1 1 2 2 1 3z"/></g><g><path fill="#C21368" d="M399 369a10 10 0 11-12 16 10 10 0 0112-16z"/><path fill="#CC3A81" d="M432 314a9 9 0 11-10 14 9 9 0 0110-14z"/><path fill="#D6629A" d="M474 274a8 8 0 11-10 12 8 8 0 0110-12z"/><path fill="#E189B4" d="M517 247a7 7 0 11-8 11 7 7 0 018-11z"/><path fill="#EBB0CD" d="M556 232a6 6 0 11-8 9 6 6 0 018-9z"/><path fill="#F5D8E6" d="M583 224a5 5 0 11-6 8 5 5 0 016-8z"/><use xlink:href="#reuse-0"/></g><g><path fill="#C21368" d="M392 80a3 3 0 01-1 6c-2 0-3-2-3-3 0-2 2-3 4-3z"/><path fill="#D14E8E" d="M405 95a3 3 0 011 5c-1 1-3 0-3-2l2-3z"/><path fill="#E189B4" d="M420 103a2 2 0 013 4c-2 1-3 1-4-1l1-3z"/><path fill="#F0C4D9" d="M433 106a2 2 0 112 3 2 2 0 01-2-3z"/><path fill="#FFF" d="M438 107a2 2 0 113 2 2 2 0 01-3-2z"/></g><g><path fill="#C21368" d="M427 156a3 3 0 116 1 3 3 0 01-6-1z"/><path fill="#D14E8E" d="M423 138a3 3 0 114 4 3 3 0 01-4-4z"/><path fill="#E189B4" d="M428 122a2 2 0 112 4 2 2 0 01-2-4z"/><path fill="#F0C4D9" d="M435 111a2 2 0 111 4 2 2 0 01-1-4z"/><path fill="#FFF" d="M439 107c1-1 2 0 2 1l-2 2-1-2 1-1z"/></g><g><path fill="#C21368" d="M375 173a5 5 0 11-9-3 5 5 0 019 3z"/><path fill="#D14E8E" d="M403 158a4 4 0 11-8 1 4 4 0 018-1z"/><path fill="#E189B4" d="M424 136a3 3 0 11-6 2 3 3 0 016-2z"/><path fill="#F0C4D9" d="M437 116a2 2 0 11-5 2 2 2 0 015-2z"/><path fill="#FFF" d="M441 107l-1 3-2-1v-2h3z"/></g><g><image width="365" height="286" opacity=".6" overflow="visible" transform="translate(1256 612)" xlink:href="../images/svg/B03D388A8F58AEA.png"/><path fill="none" stroke="#FFF" stroke-miterlimit="10" stroke-width=".3" d="M1487 893s52 15 80-5"/><path fill="#96C8AD" d="M1420 877a3 3 0 114-4 3 3 0 01-4 4z"/><path fill="#B0D6C2" d="M1401 843a3 3 0 11-5 4 3 3 0 015-4z"/><path fill="#CBE4D6" d="M1390 814a3 3 0 11-4 4 3 3 0 014-4z"/><path fill="#E5F1EB" d="M1387 792a3 3 0 11-4 4 3 3 0 014-4z"/><use xlink:href="#reuse-2"/><path fill="none" stroke="#FFF" stroke-miterlimit="10" stroke-width=".7" d="M1385 785s-6 53 37 90"/><path fill="none" stroke="#FFF" stroke-miterlimit="10" stroke-width=".3" d="M1422 875s-14 4-23-4c-13-10-11-22-11-22"/><path fill="none" stroke="#FFF" stroke-miterlimit="10" stroke-width=".4" d="M1386 785s29-17 20-47M1386 785s-31-18-29-54"/><path fill="none" stroke="#FFF" stroke-miterlimit="10" stroke-width=".4" d="M1369 810c19-6 17-25 17-25s-22-19-46-2"/><path fill="#96C8AD" d="M1527 692a1 1 0 112 2 1 1 0 01-2-2z"/><path fill="#B0D6C2" d="M1539 689v2a1 1 0 11-2-2h2z"/><path fill="#CBE4D6" d="M1547 690v1a1 1 0 110-1z"/><path fill="#E5F1EB" d="M1553 691l1 2-2 1a1 1 0 111-3z"/><path fill="#FFF" d="M1555 692c1 0 2 1 1 2a2 2 0 01-3-1l2-1z"/><path fill="none" stroke="#FFF" stroke-miterlimit="10" stroke-width=".2" d="M1555 694s-33-36-6-73M1555 694s-13-9-27-1M1555 694s33-28 68-10M1555 694s20 21 6 45"/><use xlink:href="#reuse-2"/><use xlink:href="#reuse-2"/><path fill="none" stroke="#FFF" stroke-miterlimit="10" stroke-width=".7" d="M1385 785s117 41 107 172M1616 788c-101 61-231-3-231-3M1385 785s112 1 169-91"/><path fill="#96C8AD" d="M1565 884c2-1 5 0 6 2a5 5 0 11-6-2z"/><path fill="#B0D6C2" d="M1542 894c2 0 4 1 4 3a4 4 0 11-4-3z"/><path fill="#CBE4D6" d="M1517 895a3 3 0 11-1 6 3 3 0 011-6z"/><path fill="#E5F1EB" d="M1496 893l2 3c-1 1-2 2-3 1-1 0-2-1-1-2l2-2z"/><path fill="#FFF" d="M1487 892c1 0 2 1 1 2l-1 1-1-2 1-1z"/><path fill="none" stroke="#FFF" stroke-miterlimit="10" stroke-width=".3" d="M1487 893s24 4 34 25M1487 893s27-39 60-40M1487 893s21-17 13-36M1422 875s-6 9-4 21c3 14 19 17 19 17"/><path fill="none" stroke="#FFF" stroke-miterlimit="10" stroke-width=".3" d="M1422 875s-1 21-23 28c-24 7-38-7-38-7M1422 875s9-17 22-30M1472 919s7-25-10-39c-17-15-40-5-40-5"/><path fill="#96C8AD" d="M1388 852a3 3 0 110-5 3 3 0 010 5z"/><path fill="#A5D0B9" d="M1389 854a3 3 0 11-2-5 3 3 0 012 5z"/><path fill="#B4D8C4" d="M1391 860a2 2 0 11-3-4 2 2 0 113 4z"/><path fill="#C3E0D0" d="M1396 868a2 2 0 11-4-3 2 2 0 114 3z"/><path fill="#D2E7DC" d="M1405 874a2 2 0 11-4-1 2 2 0 114 1z"/><path fill="#E1EFE8" d="M1414 875l-1 3a2 2 0 01-1-4l2 1z"/><path fill="#F0F7F3" d="M1421 875c1 1 0 2-1 2a2 2 0 11-1-3l2 1z"/><path fill="#FFF" d="M1424 874c1 1 0 2-1 3a2 2 0 111-3z"/><g><path fill="#96C8AD" d="M1360 899a4 4 0 111-7 4 4 0 01-1 7z"/><path fill="#A5D0B9" d="M1364 902a3 3 0 010-7 3 3 0 010 7z"/><path fill="#B4D8C4" d="M1374 906a3 3 0 11-2-6 3 3 0 012 6z"/><path fill="#C3E0D0" d="M1390 907a3 3 0 11-4-4 3 3 0 014 4z"/><path fill="#D2E7DC" d="M1408 901a3 3 0 11-5-2 3 3 0 015 2z"/><path fill="#E1EFE8" d="M1419 889a2 2 0 11-4 1 2 2 0 014-1z"/><path fill="#F0F7F3" d="M1423 879v3a2 2 0 11-2-4c1-1 2 0 2 1z"/><path fill="#FFF" d="M1424 874v3a2 2 0 11-3-3h3z"/></g><g><path fill="#96C8AD" d="M1437 911c1 0 2 0 2 2a2 2 0 11-4 0l2-2z"/><path fill="#B0D6C2" d="M1430 908a2 2 0 11-1 4 2 2 0 011-4z"/><path fill="#CBE4D6" d="M1421 898a2 2 0 11-3 3 2 2 0 013-3z"/><path fill="#E5F1EB" d="M1421 882l-2 2a2 2 0 112-2z"/><path fill="#FFF" d="M1424 876l-2 1a2 2 0 111-3l1 2z"/></g><g><path fill="#FFF" d="M1424 874v2l-2 1-1-3h3z"/><path fill="#F0F7F3" d="M1429 872a2 2 0 01-3 3v-3h3z"/><path fill="#E1EFE8" d="M1441 871v2a2 2 0 110-2z"/><path fill="#D2E7DC" d="M1457 875l-2 2a2 2 0 112-2z"/><path fill="#C3E0D0" d="M1470 887l-2 1a2 2 0 112-1z"/><path fill="#B4D8C4" d="M1474 903l-2-1a1 1 0 112 1z"/><path fill="#A5D0B9" d="M1474 915l-2-1a1 1 0 112 1z"/><path fill="#96C8AD" d="M1473 920l-2-1 1-1c1-1 1 0 2 1l-1 1z"/></g><g><path fill="#96C8AD" d="M1446 845l-2 2-2-2 2-2 2 2z"/><path fill="#A5D0B9" d="M1440 850l-1 2-2-1a2 2 0 113-1z"/><path fill="#B4D8C4" d="M1436 856l-2 2-2-1a2 2 0 114-1z"/><path fill="#C3E0D0" d="M1432 862l-2 2-2-1a2 2 0 114-1z"/><path fill="#D2E7DC" d="M1428 867c1 1 0 2-1 2l-2-1a2 2 0 113-1z"/><path fill="#E1EFE8" d="M1426 871l-1 2-2-1a2 2 0 113-1z"/><path fill="#F0F7F3" d="M1425 874l-2 2-2-1a2 2 0 114-1z"/><path fill="#FFF" d="M1424 875a2 2 0 11-3 1 2 2 0 013-1z"/></g><g><path fill="#96C8AD" d="M1488 961a6 6 0 118-9 6 6 0 01-8 9z"/><path fill="#A0CDB4" d="M1488 927a6 6 0 118-8 6 6 0 01-8 8z"/><path fill="#A9D2BC" d="M1482 898a5 5 0 118-8 5 5 0 01-8 8z"/><path fill="#B3D7C3" d="M1473 872a5 5 0 117-7 5 5 0 01-7 7z"/><path fill="#BCDCCB" d="M1461 851a5 5 0 117-7 5 5 0 01-7 7z"/><path fill="#C6E1D2" d="M1446 833a5 5 0 117-7 5 5 0 01-7 7z"/><path fill="#CFE6DA" d="M1431 818a4 4 0 117-6 4 4 0 01-7 6z"/><path fill="#D9EBE1" d="M1417 807a4 4 0 116-6 4 4 0 01-6 6z"/><path fill="#E2F0E9" d="M1404 798a4 4 0 115-5 4 4 0 01-5 5z"/><path fill="#ECF5F0" d="M1393 792a4 4 0 115-5 4 4 0 01-5 5z"/><path fill="#F5FAF8" d="M1386 789a3 3 0 114-5 3 3 0 01-4 5z"/><use xlink:href="#reuse-2"/></g><g><use xlink:href="#reuse-2"/><path fill="#F5FAF8" d="M1391 789a3 3 0 11-5-4 3 3 0 015 4z"/><path fill="#ECF5F0" d="M1400 792a3 3 0 11-5-3 3 3 0 015 3z"/><path fill="#E2F0E9" d="M1414 796a3 3 0 11-5-1 3 3 0 015 1z"/><path fill="#D9EBE1" d="M1432 802a3 3 0 11-5-1 3 3 0 015 1z"/><path fill="#CFE6DA" d="M1454 807a3 3 0 11-6 1 3 3 0 016-1z"/><path fill="#C6E1D2" d="M1478 811a3 3 0 11-5 2 3 3 0 015-2z"/><path fill="#BCDCCB" d="M1505 813a3 3 0 11-6 3 3 3 0 016-3z"/><path fill="#B3D7C3" d="M1533 812a4 4 0 11-6 4 4 4 0 016-4z"/><path fill="#A9D2BC" d="M1562 808a4 4 0 11-6 5 4 4 0 016-5z"/><path fill="#A0CDB4" d="M1591 799a4 4 0 11-6 6 4 4 0 016-6z"/><path fill="#96C8AD" d="M1612 792a5 5 0 117-7 5 5 0 01-7 7z"/></g><g><path fill="#96C8AD" d="M1363 729a6 6 0 11-12 3 6 6 0 0112-3z"/><path fill="#B0D6C2" d="M1356 758a6 6 0 119-7 6 6 0 01-9 7z"/><path fill="#CBE4D6" d="M1368 775a5 5 0 115-8 5 5 0 01-5 8z"/><path fill="#E5F1EB" d="M1379 785a4 4 0 113-7 4 4 0 01-3 7z"/><path fill="#FFF" d="M1385 788c2 1 3 0 4-2 0-2-1-3-3-4-1 0-3 1-3 3-1 1 0 3 2 3z"/></g><g><path fill="#96C8AD" d="M1406 736l2 2a2 2 0 11-2-2z"/><path fill="#B0D6C2" d="M1405 760a2 2 0 113-4 2 2 0 01-3 4z"/><path fill="#CBE4D6" d="M1397 774a3 3 0 115-3 3 3 0 01-5 3z"/><path fill="#E5F1EB" d="M1387 783a3 3 0 116-2 3 3 0 01-6 2z"/><path fill="#FFF" d="M1383 786c0 1 1 3 3 2 2 0 3-1 3-3a3 3 0 10-6 1z"/></g><g><path fill="#96C8AD" d="M1340 786a3 3 0 11-1-5 3 3 0 011 5z"/><path fill="#B0D6C2" d="M1355 776a3 3 0 115 1 3 3 0 01-5-1z"/><path fill="#CBE4D6" d="M1370 776a3 3 0 114 4 3 3 0 01-4-4z"/><path fill="#E5F1EB" d="M1381 780a3 3 0 112 5 3 3 0 01-2-5z"/><path fill="#FFF" d="M1386 782a3 3 0 10-1 6 3 3 0 001-6z"/><path fill="#E5F1EB" d="M1388 790a3 3 0 11-4-4 3 3 0 014 4z"/><path fill="#CBE4D6" d="M1385 798a2 2 0 11-1-5 2 2 0 011 5z"/><path fill="#B0D6C2" d="M1379 805a2 2 0 111-3 2 2 0 01-1 3z"/><path fill="#96C8AD" d="M1368 811a2 2 0 112-2 2 2 0 01-2 2z"/></g><g><path fill="#96C8AD" d="M1552 618a4 4 0 11-5 6 4 4 0 015-6z"/><path fill="#B0D6C2" d="M1539 645a3 3 0 11-1 6 3 3 0 011-6z"/><path fill="#CBE4D6" d="M1541 669a3 3 0 111 5 3 3 0 11-1-5z"/><path fill="#E5F1EB" d="M1549 686c1-1 2 0 3 1l-1 3a2 2 0 11-2-4z"/><path fill="#FFF" d="M1554 692l2 1v2a2 2 0 11-2-3z"/></g><g><path fill="#96C8AD" d="M1625 678a7 7 0 01-4 13 7 7 0 014-13z"/><path fill="#B0D6C2" d="M1597 673a5 5 0 112 10 5 5 0 01-2-10z"/><path fill="#CBE4D6" d="M1574 678a4 4 0 114 8 4 4 0 01-4-8z"/><path fill="#E5F1EB" d="M1558 688a3 3 0 115 4 3 3 0 01-5-4z"/><path fill="#FFF" d="M1553 693a2 2 0 113 2h-2l-1-2z"/></g><g><path fill="#96C8AD" d="M1559 742a3 3 0 114-5 3 3 0 01-4 5z"/><path fill="#B0D6C2" d="M1566 724a3 3 0 111-6 3 3 0 01-1 6z"/><path fill="#CBE4D6" d="M1564 709a3 3 0 11-1-5 3 3 0 011 5z"/><path fill="#E5F1EB" d="M1559 699a2 2 0 11-2-4 2 2 0 012 4z"/><path fill="#FFF" d="M1556 695h-3l1-3 2 1v2z"/></g><g><path fill="#96C8AD" d="M1548 699a8 8 0 1111-10 8 8 0 01-11 10z"/><path fill="#A8D1BB" d="M1516 738a7 7 0 1110-10 7 7 0 01-10 10z"/><path fill="#B9DAC8" d="M1480 763a6 6 0 119-9 6 6 0 01-9 9z"/><path fill="#CBE4D6" d="M1444 778a5 5 0 118-7 5 5 0 01-8 7z"/><path fill="#DCEDE4" d="M1413 785a5 5 0 117-6 5 5 0 01-7 6z"/><path fill="#EEF6F1" d="M1391 788a4 4 0 115-6 4 4 0 01-5 6z"/><use xlink:href="#reuse-2"/></g><g><path fill="#96C8AD" d="M1522 916c1 1 2 2 1 3a2 2 0 11-1-3z"/><path fill="#B0D6C2" d="M1512 903l2 2a2 2 0 11-2-2z"/><path fill="#CBE4D6" d="M1500 896l2 1a2 2 0 11-2-1z"/><path fill="#E5F1EB" d="M1490 893c1-1 2 0 2 1a2 2 0 01-2 1v-2z"/><path fill="#FFF" d="M1486 892l2 1v1h-2v-2z"/></g><g><path fill="#96C8AD" d="M1498 856c0-1 2-2 3-1a3 3 0 01-2 4c-2 0-2-2-1-3z"/><path fill="#B0D6C2" d="M1500 869a2 2 0 112 4 2 2 0 01-2-4z"/><path fill="#CBE4D6" d="M1496 880a2 2 0 111 4 2 2 0 01-1-4z"/><path fill="#E5F1EB" d="M1490 889a2 2 0 110 3 2 2 0 010-3z"/><path fill="#FFF" d="M1487 892l1 2-1 1a1 1 0 010-3z"/></g><g><path fill="#96C8AD" d="M1544 852c1-2 3-3 5-2a4 4 0 11-4 6c-1-1-2-3-1-4z"/><path fill="#B0D6C2" d="M1521 860c0-2 1-3 3-3a3 3 0 11-3 3z"/><path fill="#CBE4D6" d="M1502 874l2-3a2 2 0 11-2 3z"/><path fill="#E5F1EB" d="M1490 888a2 2 0 113-2v3l-3-1z"/><path fill="#FFF" d="M1486 894v-2l2 1v1h-2z"/></g></g><g><image width="413" height="305" opacity=".4" overflow="visible" transform="translate(970 130)" xlink:href="../images/svg/B03D388A8F58AED.png"/><path fill="none" stroke="#FFF" stroke-miterlimit="10" stroke-width=".5" d="M1263 356s13-14 30-12c22 2 28 17 28 17M1263 356s1-15-11-27c-13-14-33-5-33-5M1263 356s-14-24 7-49M1263 356s3 27-3 51M1173 342s10 34 40 38c30 5 50-24 50-24"/><path fill="#8CBF2A" d="M1325 362a4 4 0 11-7-2 4 4 0 017 2z"/><path fill="#9CC848" d="M1323 359a4 4 0 11-7-1 4 4 0 017 1z"/><path fill="#ADD167" d="M1317 351a3 3 0 11-7 1 3 3 0 017-1z"/><path fill="#BDDA85" d="M1304 344a3 3 0 11-5 3 3 3 0 015-3z"/><path fill="#CEE4A4" d="M1288 342a3 3 0 11-3 5 3 3 0 013-5z"/><path fill="#DEEDC2" d="M1275 345a3 3 0 11-2 6 3 3 0 012-6z"/><path fill="#EFF6E1" d="M1266 351a3 3 0 110 5 3 3 0 010-5z"/><use xlink:href="#reuse-3"/><path fill="#8CBF2A" d="M1274 304a5 5 0 11-8 6 5 5 0 018-6z"/><path fill="#9CC848" d="M1266 314a5 5 0 11-6 7 5 5 0 016-7z"/><path fill="#ADD167" d="M1262 324a4 4 0 11-5 7 4 4 0 015-7z"/><path fill="#BDDA85" d="M1260 333a4 4 0 11-3 8 4 4 0 013-8z"/><path fill="#CEE4A4" d="M1259 341a4 4 0 110 7 4 4 0 010-7z"/><path fill="#DEEDC2" d="M1260 348a3 3 0 110 6 3 3 0 010-6z"/><path fill="#EFF6E1" d="M1262 352a3 3 0 110 6 3 3 0 010-6z"/><use xlink:href="#reuse-3"/><path fill="#8CBF2A" d="M1216 323c0-2 2-3 3-2 2 0 3 2 2 4 0 1-2 2-4 1-1 0-2-2-1-3z"/><path fill="#A9CF5F" d="M1227 320a3 3 0 114 3 3 3 0 01-4-3z"/><path fill="#C6DF95" d="M1248 324a3 3 0 111 5 3 3 0 01-1-5z"/><path fill="#E2EFCA" d="M1263 343a3 3 0 11-3 5 3 3 0 013-5z"/><path fill="#FFF" d="M1264 355a2 2 0 11-3 3 2 2 0 013-3z"/><path fill="#FFF" d="M1261 354a2 2 0 113 4 2 2 0 01-3-4z"/><path fill="#E8F2E1" d="M1257 360a2 2 0 112 4 2 2 0 01-2-4z"/><path fill="#D1E4C4" d="M1245 371a2 2 0 110 4 2 2 0 010-4z"/><path fill="#BAD7A6" d="M1226 378a2 2 0 11-1 4 2 2 0 011-4z"/><path fill="#A2C989" d="M1203 375a2 2 0 11-3 3 2 2 0 013-3z"/><path fill="#8BBC6B" d="M1187 363a2 2 0 11-4 1 2 2 0 014-1z"/><path fill="#74AE4E" d="M1178 349l-2 2a2 2 0 112-2z"/><path fill="#5DA130" d="M1175 343l-2 1a2 2 0 112-1z"/><g><path fill="#8CBF2A" d="M1262 403c3 1 3 4 2 6a5 5 0 11-8-4c1-2 4-3 6-2z"/><path fill="#B2D471" d="M1265 379a4 4 0 11-3 8 4 4 0 013-8z"/><path fill="#D9EAB8" d="M1264 361a3 3 0 11-1 6 3 3 0 011-6z"/><path fill="#FFF" d="M1263 354c1 0 2 1 2 3 0 1-1 2-3 2a2 2 0 011-5z"/></g><path fill="none" stroke="#FFF" stroke-miterlimit="10" stroke-width=".9" d="M1214 273s26-37 21-96M1214 273s118-41 139-92M1214 273s70-11 102 25M1214 273s20 57 48 83M1214 273s1 66-32 120M1214 273s-82 16-129-32M1214 273s-48 4-86 50M1162 188c55 26 52 85 52 85"/><g><use xlink:href="#reuse-4"/><path fill="#E8F2D4" d="M1214 261a5 5 0 11-1 10 5 5 0 011-10z"/><path fill="#D1E5AA" d="M1211 246a5 5 0 110 9 5 5 0 010-9z"/><path fill="#BAD97F" d="M1203 225a5 5 0 112 9 5 5 0 01-2-9z"/><path fill="#A3CC55" d="M1187 203a4 4 0 113 8 4 4 0 01-3-8z"/><path fill="#8CBF2A" d="M1158 191a4 4 0 017-5 4 4 0 01-7 5z"/></g><g><path fill="#8CBF2A" d="M1128 324a2 2 0 111-3 2 2 0 01-1 3z"/><path fill="#B2D471" d="M1168 286a3 3 0 11-2 6 3 3 0 012-6z"/><path fill="#D9EAB8" d="M1201 271a4 4 0 11-2 9 4 4 0 012-9z"/><use xlink:href="#reuse-4"/></g><g><path fill="#8CBF2A" d="M1358 189a9 9 0 11-10-16 9 9 0 1110 16z"/><path fill="#9FCA4E" d="M1340 212a8 8 0 11-9-13 8 8 0 019 13z"/><path fill="#B2D471" d="M1312 233a7 7 0 11-10-11 7 7 0 0110 11z"/><path fill="#C6DF95" d="M1280 250a7 7 0 11-10-9 7 7 0 0110 9z"/><path fill="#D9EAB8" d="M1250 264a6 6 0 11-10-7 6 6 0 0110 7z"/><path fill="#ECF4DC" d="M1228 272a6 6 0 11-11-5 6 6 0 0111 5z"/><use xlink:href="#reuse-4"/></g><g><path fill="#8CBF2A" d="M1230 176a6 6 0 1111 3 6 6 0 01-11-3z"/><path fill="#A9CF5F" d="M1235 211a6 6 0 11-2 11 6 6 0 012-11z"/><path fill="#C6DF95" d="M1228 241a6 6 0 11-3 11 6 6 0 013-11z"/><path fill="#E2EFCA" d="M1219 260a6 6 0 11-3 11 6 6 0 013-11z"/><use xlink:href="#reuse-4"/></g><g><path fill="#8CBF2A" d="M1259 358a4 4 0 117-4 4 4 0 01-7 4z"/><path fill="#A9CF5F" d="M1242 328a4 4 0 112 8 4 4 0 01-2-8z"/><path fill="#C6DF95" d="M1227 300a4 4 0 111 9 4 4 0 01-1-9z"/><path fill="#E2EFCA" d="M1218 277a5 5 0 11-1 10 5 5 0 011-10z"/><use xlink:href="#reuse-4"/></g><g><path fill="#8CBF2A" d="M1088 231a10 10 0 11-5 20 10 10 0 015-20z"/><path fill="#B2D471" d="M1142 262a9 9 0 11-5 17 9 9 0 015-17z"/><path fill="#D9EAB8" d="M1193 268a7 7 0 11-4 14 7 7 0 014-14z"/><use xlink:href="#reuse-4"/></g><g><path fill="#8CBF2A" d="M1175 391a8 8 0 1114 4 8 8 0 01-14-4z"/><path fill="#A9CF5F" d="M1203 345a7 7 0 11-4 13 7 7 0 014-13z"/><path fill="#C6DF95" d="M1212 306a7 7 0 11-3 13 7 7 0 013-13z"/><path fill="#E2EFCA" d="M1215 278a6 6 0 11-3 12 6 6 0 013-12z"/><use xlink:href="#reuse-4"/></g><g><path fill="#8CBF2A" d="M1317 292a6 6 0 11-3 11 6 6 0 013-11z"/><path fill="#A3CC55" d="M1294 276a6 6 0 11-2 11 6 6 0 012-11z"/><path fill="#BAD97F" d="M1268 268a6 6 0 11-3 11 6 6 0 013-11z"/><path fill="#D1E5AA" d="M1242 266a6 6 0 11-3 11 6 6 0 013-11z"/><path fill="#E8F2D4" d="M1223 266a6 6 0 11-3 11 6 6 0 013-11z"/><use xlink:href="#reuse-4"/></g><g><path fill="#8CBF2A" d="M1019 334a1 1 0 111 2 1 1 0 01-1-2z"/><path fill="#A9CF5F" d="M1052 319a1 1 0 110 3 1 1 0 010-3z"/><path fill="#C6DF95" d="M1088 316a1 1 0 110 3 1 1 0 010-3z"/><path fill="#E2EFCA" d="M1117 319l1 2-2 1a2 2 0 111-3z"/><path fill="#FFF" d="M1129 321l1 2c0 1-1 2-2 1-1 0-2-1-1-2l2-1z"/></g><path fill="none" stroke="#FFF" stroke-miterlimit="10" stroke-width=".5" d="M1128 323s-71-17-109 12M1128 323s-33-3-48-32M1128 323s-33 55-79 59M1128 323s-28 25-15 50"/><g><path fill="#8CBF2A" d="M1052 378c2 1 3 4 1 6a5 5 0 11-1-6z"/><path fill="#A9CF5F" d="M1081 367a4 4 0 11-1 8 4 4 0 011-8z"/><path fill="#C6DF95" d="M1105 347a3 3 0 111 7 3 3 0 01-1-7z"/><path fill="#E2EFCA" d="M1122 329a3 3 0 111 5 3 3 0 01-1-5z"/><path fill="#FFF" d="M1128 321l2 1a2 2 0 01-3 1c-1-1 0-2 1-2z"/></g><g><path fill="#8CBF2A" d="M1082 288a3 3 0 11-3 6 3 3 0 013-6z"/><path fill="#A9CF5F" d="M1094 305a3 3 0 110 6 3 3 0 010-6z"/><path fill="#C6DF95" d="M1109 315a2 2 0 112 5 2 2 0 01-2-5z"/><path fill="#E2EFCA" d="M1122 320c1-1 2 0 3 1a2 2 0 11-3-1z"/><path fill="#FFF" d="M1127 321h3l-1 3h-2v-3z"/></g><g><path fill="#5DA130" d="M1114 371l1 2-2 2-2-3 3-1z"/><path fill="#86B964" d="M1111 353a2 2 0 11-2 3 2 2 0 112-3z"/><path fill="#AED098" d="M1118 337a2 2 0 11-4 2 2 2 0 114-2z"/><path fill="#D7E8CB" d="M1126 326a2 2 0 11-4 1l2-2 2 1z"/><path fill="#FFF" d="M1130 322a2 2 0 11-3 1 2 2 0 013-1z"/></g></g><g><image width="366" height="387" overflow="visible" transform="translate(1350 102)" xlink:href="../images/svg/B03D388A8F58AEE.png"/><path fill="none" stroke="#FFF" stroke-miterlimit="10" d="M1651 551s-89-64-77-129-3-119-3-119-100 125-60 200M1399 573a427 427 0 01172-270"/><path fill="none" stroke="#FFF" stroke-miterlimit="10" d="M1388 448c99-36 183-145 183-145s-68 47-176 77"/><path fill="#5B8ABF" d="M1739 340a3 3 0 112 6 3 3 0 01-2-6z"/><path fill="#6A95C5" d="M1736 345a3 3 0 11-1-6 3 3 0 011 6z"/><path fill="#799FCB" d="M1724 342a3 3 0 110-6 3 3 0 010 6z"/><path fill="#88AAD0" d="M1706 333a3 3 0 112-6 3 3 0 01-2 6z"/><path fill="#97B5D6" d="M1685 315a3 3 0 114-6 3 3 0 01-4 6z"/><path fill="#A6BFDC" d="M1666 290a3 3 0 114-6 3 3 0 01-4 6z"/><path fill="#B4CAE2" d="M1649 279a3 3 0 110-7 3 3 0 010 7z"/><path fill="#C3D4E8" d="M1629 278a3 3 0 11-3-6 3 3 0 013 6z"/><path fill="#D2DFEE" d="M1609 284a3 3 0 11-4-5 3 3 0 014 5z"/><path fill="#E1EAF3" d="M1591 293a3 3 0 11-5-4 3 3 0 015 4z"/><path fill="#F0F4F9" d="M1579 302a3 3 0 11-6-4 3 3 0 016 4z"/><path fill="#FFF" d="M1574 305a4 4 0 11-6-4 4 4 0 016 4z"/><path fill="none" stroke="#FFF" stroke-miterlimit="10" d="M1571 303s26 39 81 48c56 10 51 84 51 84M1571 303s71-59 102-9c32 50 67 49 67 49"/><path fill="none" stroke="#FFF" stroke-miterlimit="10" d="M1571 303s40-30 80-53c40-24 79-25 79-25M1571 303s23-36 62-66c40-31 30-70 30-70"/><path fill="none" stroke="#FFF" stroke-miterlimit="10" d="M1571 303s40-33 32-78c-9-44-37-62-37-62"/><path fill="none" stroke="#FFF" stroke-miterlimit="10" d="M1571 303s9-20-8-42c-17-23-44-19-44-19"/><path fill="none" stroke="#FFF" stroke-miterlimit="10" stroke-width=".5" d="M1651 551s4 15 21 23c19 9 36-7 36-7"/><path fill="none" stroke="#FFF" stroke-miterlimit="10" stroke-width=".5" d="M1651 551s23 20 11 52c-12 36-42 40-42 40M1651 551s-9 19-27 24c-23 6-35-6-35-6M1651 551s-14-26-18-53 22-37 22-37M1747 530s-23-30-56-23c-32 7-40 44-40 44M1741 342s77 22 119-7M1741 342s36 5 50 37M1741 342s40-59 90-60M1741 342s32-26 19-54M1519 242s28-35 2-67M1519 242s-47-8-61-53"/><path fill="none" stroke="#FFF" stroke-miterlimit="10" stroke-width=".5" d="M1510 280c21-15 9-38 9-38s-36-13-58 20"/><path fill="#5B8ABF" d="M1429 377h2l1 2-3 1v-3z"/><path fill="#84A7CF" d="M1418 382v2h-2v-2h2z"/><path fill="#ADC5DF" d="M1406 381l1 2-2 1-1-2 2-1z"/><path fill="#D6E2EF" d="M1398 379c1 0 2 1 1 2a2 2 0 11-1-2z"/><path fill="#FFF" d="M1395 377l2 2c0 1-1 2-3 2-1 0-2-1-2-3 1-1 2-2 3-1z"/><path fill="none" stroke="#FFF" stroke-miterlimit="10" stroke-width=".3" d="M1395 379s45 44 12 95M1395 379s17 10 35-1M1395 379s-43 39-90 17M1395 379s-29-26-12-60"/><path fill="none" stroke="#FFF" stroke-miterlimit="10" d="M1338 243s45 36 106 50c60 15 127 10 127 10"/><path fill="#5B8ABF" d="M1507 497a7 7 0 118 12 7 7 0 01-8-12z"/><path fill="#6893C4" d="M1501 468a7 7 0 113 13 7 7 0 01-3-13z"/><path fill="#749CC9" d="M1503 437a7 7 0 110 13 7 7 0 010-13z"/><path fill="#81A5CE" d="M1512 405a6 6 0 11-3 13 6 6 0 013-13z"/><path fill="#8DAED3" d="M1526 375a6 6 0 11-5 12 6 6 0 015-12z"/><path fill="#9AB7D8" d="M1541 348a6 6 0 11-6 10 6 6 0 016-10z"/><path fill="#A7C0DD" d="M1555 325a6 6 0 11-5 10 6 6 0 015-10z"/><path fill="#B3C9E1" d="M1567 309a5 5 0 11-6 8 5 5 0 016-8z"/><path fill="#C0D2E6" d="M1574 300a5 5 0 11-6 8 5 5 0 016-8z"/><path fill="#CDDBEB" d="M1573 311a5 5 0 11-2-10 5 5 0 012 10z"/><path fill="#D9E4F0" d="M1575 325a4 4 0 11-1-8 4 4 0 011 8z"/><path fill="#E6EDF5" d="M1578 351a4 4 0 110-8 4 4 0 010 8z"/><path fill="#F2F6FA" d="M1578 386a4 4 0 111-8 4 4 0 01-1 8z"/><path fill="#FFF" d="M1577 423a4 4 0 11-7-2 4 4 0 017 2z"/><path fill="#F3F7FB" d="M1570 437c0-1 1-3 3-3l2 3a3 3 0 01-5 0z"/><path fill="#E8EFF6" d="M1573 452l1-2 2 1c1 1 0 2-1 3l-2-2z"/><path fill="#DCE7F2" d="M1579 467v-1h1v1h-1z"/><path fill="#D0DFED" d="M1586 480h-1 1z"/><path fill="#C5D7E9" d="M1595 493a1 1 0 11-2 0 1 1 0 012 0z"/><path fill="#B9CFE4" d="M1605 505a2 2 0 11-4 1 2 2 0 014-1z"/><path fill="#ADC6E0" d="M1615 515a3 3 0 11-5 2 3 3 0 015-2z"/><path fill="#A1BEDB" d="M1625 524a4 4 0 11-6 4 4 4 0 016-4z"/><path fill="#96B6D7" d="M1635 532a5 5 0 11-8 5 5 5 0 018-5z"/><path fill="#8AAED2" d="M1643 538a6 6 0 11-9 7 6 6 0 019-7z"/><path fill="#7EA6CE" d="M1650 543a7 7 0 11-10 7 7 7 0 0110-7z"/><path fill="#739EC9" d="M1655 545a7 7 0 11-12 9 7 7 0 0112-9z"/><path fill="#6796C5" d="M1645 544a8 8 0 1111 13 8 8 0 01-11-13z"/><g><path fill="#5B8ABF" d="M1397 565a9 9 0 114 16 9 9 0 01-4-16z"/><path fill="#6692C3" d="M1404 532a8 8 0 112 16 8 8 0 01-2-16z"/><path fill="#719AC8" d="M1413 502a8 8 0 111 15 8 8 0 01-1-15z"/><path fill="#7CA1CC" d="M1425 473a8 8 0 110 15 8 8 0 010-15z"/><path fill="#87A9D0" d="M1439 447a7 7 0 11-2 14 7 7 0 012-14z"/><path fill="#92B1D4" d="M1454 422a7 7 0 11-2 14 7 7 0 012-14z"/><path fill="#9DB9D9" d="M1470 400a7 7 0 11-3 12 7 7 0 013-12z"/><path fill="#A8C1DD" d="M1486 379a6 6 0 11-3 12 6 6 0 013-12z"/><path fill="#B2C8E1" d="M1503 361a6 6 0 11-4 11 6 6 0 014-11z"/><path fill="#BDD0E5" d="M1519 345a6 6 0 11-5 10 6 6 0 015-10z"/><path fill="#C8D8EA" d="M1533 331a5 5 0 11-4 10 5 5 0 014-10z"/><path fill="#D3E0EE" d="M1546 320a5 5 0 11-4 9 5 5 0 014-9z"/><path fill="#DEE8F2" d="M1557 311a5 5 0 11-4 8 5 5 0 014-8z"/><path fill="#E9EFF6" d="M1566 305a4 4 0 11-4 7 4 4 0 014-7z"/><path fill="#F4F7FB" d="M1571 301a4 4 0 11-4 7 4 4 0 014-7z"/><path fill="#FFF" d="M1573 300a4 4 0 11-4 6 4 4 0 014-6z"/></g><g><path fill="#6796C5" d="M1512 238a8 8 0 1114 8 8 8 0 01-14-8z"/><path fill="#85ABD1" d="M1534 247a7 7 0 11-11-10 7 7 0 0111 10z"/><path fill="#A4C0DC" d="M1552 255a6 6 0 11-5-12 6 6 0 015 12z"/><path fill="#C2D5E8" d="M1568 276a5 5 0 112-10 5 5 0 01-2 10z"/><path fill="#E1EAF3" d="M1570 297a4 4 0 116-6 4 4 0 11-6 6z"/><path fill="#FFF" d="M1568 305c-1-2 0-4 1-5 2-1 4 0 5 2 1 1 1 3-1 4s-4 1-5-1z"/></g><g><path fill="#6796C5" d="M1563 162c1-1 3-2 4-1l1 3c-1 2-3 2-4 1l-1-3z"/><path fill="#75A0CA" d="M1567 167l-1-3a3 3 0 111 3z"/><path fill="#83A9D0" d="M1574 174v-4h4a3 3 0 01-4 4z"/><path fill="#90B3D5" d="M1583 185a3 3 0 115-3 3 3 0 01-5 3z"/><path fill="#9EBCDA" d="M1593 202a3 3 0 115-2 3 3 0 01-5 2z"/><path fill="#ACC6DF" d="M1600 225a3 3 0 115-1 3 3 0 01-5 1z"/><path fill="#BACFE5" d="M1600 246a3 3 0 117 0 3 3 0 01-7 0z"/><path fill="#C8D9EA" d="M1596 264a3 3 0 116 2 3 3 0 01-6-2z"/><path fill="#D6E2EF" d="M1588 279a3 3 0 115 4 3 3 0 01-5-4z"/><path fill="#E3ECF4" d="M1579 291a3 3 0 115 4 3 3 0 01-5-4z"/><path fill="#F1F5FA" d="M1572 298a3 3 0 114 5 3 3 0 01-4-5z"/><path fill="#FFF" d="M1568 306a4 4 0 116-5c1 2 1 4-1 5h-5z"/></g><g><path fill="#FFF" d="M1572 307l-4-2a4 4 0 116-3c1 2 0 4-2 5z"/><path fill="#F1F5FA" d="M1567 307a4 4 0 11-3-7 4 4 0 013 7z"/><path fill="#E3ECF4" d="M1551 308a4 4 0 11-2-8 4 4 0 012 8z"/><path fill="#D6E2EF" d="M1528 308a4 4 0 11-2-9 4 4 0 012 9z"/><path fill="#C8D9EA" d="M1499 307a5 5 0 11-2-10 5 5 0 012 10z"/><path fill="#BACFE5" d="M1468 303a5 5 0 11-1-10 5 5 0 011 10z"/><path fill="#ACC6DF" d="M1435 297a5 5 0 110-11 5 5 0 010 11z"/><path fill="#9EBCDA" d="M1403 286a6 6 0 111-11 6 6 0 01-1 11z"/><path fill="#90B3D5" d="M1375 274a6 6 0 113-12 6 6 0 01-3 12z"/><path fill="#83A9D0" d="M1354 262a6 6 0 114-12 6 6 0 01-4 12z"/><path fill="#75A0CA" d="M1341 253a7 7 0 114-12 7 7 0 01-4 12z"/><path fill="#6796C5" d="M1336 250a7 7 0 115-13 7 7 0 01-5 13z"/></g><g><path fill="#5B8ABF" d="M1707 432a5 5 0 11-8 7 5 5 0 018-7z"/><path fill="#6A95C5" d="M1699 433a5 5 0 117-7 5 5 0 01-7 7z"/><path fill="#799FCB" d="M1699 418a5 5 0 116-7 5 5 0 01-6 7z"/><path fill="#88AAD0" d="M1695 399a5 5 0 115-8 5 5 0 01-5 8z"/><path fill="#97B5D6" d="M1687 379a5 5 0 112-9 5 5 0 01-2 9z"/><path fill="#A6BFDC" d="M1673 363a4 4 0 11-2-9 4 4 0 012 9z"/><path fill="#B4CAE2" d="M1648 354a4 4 0 11-4-7 4 4 0 014 7z"/><path fill="#C3D4E8" d="M1620 345a4 4 0 11-3-8 4 4 0 013 8z"/><path fill="#D2DFEE" d="M1598 333a4 4 0 11-1-8 4 4 0 011 8z"/><path fill="#E1EAF3" d="M1583 320a4 4 0 110-7 4 4 0 010 7z"/><path fill="#F0F4F9" d="M1573 311a4 4 0 111-7 4 4 0 01-1 7z"/><path fill="#FFF" d="M1570 307a4 4 0 112-7 4 4 0 01-2 7z"/></g><g><path fill="#6796C5" d="M1659 163a6 6 0 119 8 6 6 0 01-9-8z"/><path fill="#7DA5CD" d="M1668 181a5 5 0 11-7-9 5 5 0 017 9z"/><path fill="#92B4D6" d="M1662 205a5 5 0 11-3-10 5 5 0 013 10z"/><path fill="#A8C3DE" d="M1641 234a5 5 0 011-10 5 5 0 01-1 10z"/><path fill="#BED2E6" d="M1611 260a4 4 0 012-9 4 4 0 01-2 9z"/><path fill="#D4E1EE" d="M1590 283c-3 0-4-2-4-4a4 4 0 114 4z"/><path fill="#E9F0F7" d="M1576 300c-2 0-4-1-4-3a4 4 0 114 3z"/><path fill="#FFF" d="M1571 307c-2 0-3-1-3-3a4 4 0 113 3z"/></g><g><path fill="#6796C5" d="M1730 224a2 2 0 01-1 3l-1-2 2-1z"/><path fill="#7DA5CD" d="M1719 228a2 2 0 111-3 2 2 0 01-1 3z"/><path fill="#92B4D6" d="M1694 234a2 2 0 111-5 2 2 0 01-1 5z"/><path fill="#A8C3DE" d="M1660 247a2 2 0 110-5 2 2 0 010 5z"/><path fill="#BED2E6" d="M1628 267a3 3 0 11-1-5 3 3 0 011 5z"/><path fill="#D4E1EE" d="M1600 286a3 3 0 11-2-6 3 3 0 012 6z"/><path fill="#E9F0F7" d="M1580 301c-2 0-4-1-4-3a3 3 0 114 3z"/><path fill="#FFF" d="M1572 307a4 4 0 11-2-7 4 4 0 012 7z"/></g><g><path fill="#FFF" d="M1648 550l3-2a3 3 0 11-3 2z"/><path fill="#E9F0F7" d="M1651 542c0-1 2-2 3-1a3 3 0 11-3 1z"/><path fill="#D4E1EE" d="M1660 525h3a2 2 0 11-3 0z"/><path fill="#BED2E6" d="M1678 509c1 0 3 0 3 2a2 2 0 11-3-2z"/><path fill="#A8C3DE" d="M1705 504c2 0 3 1 2 2a2 2 0 11-2-2z"/><path fill="#92B4D6" d="M1728 511c1 1 2 2 1 3a2 2 0 11-1-3z"/><path fill="#7DA5CD" d="M1743 523v3a2 2 0 110-3z"/><path fill="#6796C5" d="M1749 529l-1 3-3-1a2 2 0 114-2z"/></g><g><path fill="#6796C5" d="M1625 641a6 6 0 11-11 3 6 6 0 0111-3z"/><path fill="#7DA5CD" d="M1631 639a5 5 0 11-10 4 5 5 0 0110-4z"/><path fill="#92B4D6" d="M1643 631a5 5 0 11-7 6 5 5 0 017-6z"/><path fill="#A8C3DE" d="M1657 615a4 4 0 11-4 8 4 4 0 014-8z"/><path fill="#BED2E6" d="M1665 588a4 4 0 110 8 4 4 0 010-8z"/><path fill="#D4E1EE" d="M1661 567a3 3 0 113 6 3 3 0 01-3-6z"/><path fill="#E9F0F7" d="M1653 553c1-1 3-1 4 1s1 3 0 4a3 3 0 11-4-5z"/><path fill="#FFF" d="M1648 549h4c1 0 2 2 1 3a3 3 0 11-5-3z"/></g><g><path fill="#6796C5" d="M1658 460c0 1 0 3-2 3-1 1-2 0-3-1s0-3 1-4c1 0 3 0 4 2z"/><path fill="#7DA5CD" d="M1651 462v4a3 3 0 110-4z"/><path fill="#92B4D6" d="M1640 472l1 4a3 3 0 11-1-4z"/><path fill="#A8C3DE" d="M1633 491l2 2a3 3 0 11-2-2z"/><path fill="#BED2E6" d="M1636 512l3 2a3 3 0 11-3-2z"/><path fill="#D4E1EE" d="M1641 531c2-1 3 0 4 1a3 3 0 11-4-1z"/><path fill="#E9F0F7" d="M1647 544c1-1 3-1 3 1a3 3 0 11-3-1z"/><path fill="#FFF" d="M1649 549h4c1 1 0 3-1 4s-3 0-4-1l1-3z"/></g><g><path fill="#6796C5" d="M1593 567c1 2 0 5-2 5-2 1-5 1-6-2a4 4 0 118-3z"/><path fill="#7DA5CD" d="M1595 569c1 2 1 4-1 5a4 4 0 111-5z"/><path fill="#92B4D6" d="M1603 572c1 2 2 4 1 6a4 4 0 11-1-6z"/><path fill="#A8C3DE" d="M1616 574c2 0 3 2 2 4a3 3 0 11-2-4z"/><path fill="#BED2E6" d="M1631 569c1 0 3 1 3 3a3 3 0 11-3-3z"/><path fill="#D4E1EE" d="M1641 561a3 3 0 012 5 3 3 0 01-2-5z"/><path fill="#E9F0F7" d="M1647 553h4a3 3 0 11-4 0z"/><path fill="#FFF" d="M1649 549h3a3 3 0 11-3 0z"/></g><g><path fill="#6796C5" d="M1705 567c0-2 2-4 3-3 2 0 3 1 3 3a3 3 0 01-6 0z"/><path fill="#8DB0D4" d="M1696 572c0-2 2-2 4-2 1 1 2 2 1 4a3 3 0 01-5-2z"/><path fill="#B3CBE2" d="M1675 573c1 0 3 0 4 2s0 3-1 3a3 3 0 01-3-5z"/><path fill="#D9E5F1" d="M1656 558l3 3c-1 2-2 3-4 3a3 3 0 011-6z"/><path fill="#FFF" d="M1652 548c1 1 2 3 1 4a3 3 0 11-1-4z"/></g><g><path fill="#6796C5" d="M1793 376a3 3 0 11-3 6 3 3 0 013-6z"/><path fill="#8DB0D4" d="M1778 357a3 3 0 11-1 6 3 3 0 011-6z"/><path fill="#B3CBE2" d="M1760 346a3 3 0 111 5 3 3 0 01-1-5z"/><path fill="#D9E5F1" d="M1746 341a2 2 0 112 4 2 2 0 01-2-4z"/><path fill="#FFF" d="M1740 340l3 1-1 3-3-1 1-3z"/></g><g><path fill="#6796C5" d="M1758 287l3-1c1 1 2 2 1 3a2 2 0 11-4-2z"/><path fill="#8DB0D4" d="M1762 307h2c1 1 0 3-1 3a2 2 0 01-1-3z"/><path fill="#B3CBE2" d="M1755 324c1-1 2 0 2 1s0 2-2 3a2 2 0 010-4z"/><path fill="#D9E5F1" d="M1746 335l2 3-2 1a2 2 0 010-4z"/><path fill="#FFF" d="M1741 340l2 2-2 2a2 2 0 010-4z"/></g><g><path fill="#6796C5" d="M1857 328a7 7 0 117 13 7 7 0 01-7-13z"/><path fill="#8DB0D4" d="M1823 342a6 6 0 111 12 6 6 0 01-1-12z"/><path fill="#B3CBE2" d="M1785 345a5 5 0 11-1 9 5 5 0 011-9z"/><path fill="#D9E5F1" d="M1755 342a3 3 0 11-2 6 3 3 0 012-6z"/><path fill="#FFF" d="M1742 340a2 2 0 01-2 4l-1-3 3-1z"/></g><path fill="#6796C5" d="M1834 278a5 5 0 11-7 8 5 5 0 017-8zm-43 13a5 5 0 109 2 5 5 0 00-9-2zm-28 21a4 4 0 108 0 4 4 0 00-8 0zm-18 21a3 3 0 106-1 3 3 0 10-6 1zm-6 9l2 2 2-3-2-1-2 2z"/><g><path fill="#5B8ABF" d="M1463 182a8 8 0 11-10 14 8 8 0 0110-14z"/><path fill="#84A7CF" d="M1472 224a7 7 0 112-15 7 7 0 01-2 15z"/><path fill="#ADC5DF" d="M1495 239a6 6 0 11-2-13 6 6 0 012 13z"/><path fill="#D6E2EF" d="M1513 245a5 5 0 11-4-10 5 5 0 014 10z"/><path fill="#FFF" d="M1521 246a4 4 0 10-4-7 4 4 0 004 7z"/></g><g><path fill="#6796C5" d="M1520 172a3 3 0 113 5 3 3 0 01-3-5z"/><path fill="#8DB0D4" d="M1532 202a3 3 0 110-6 3 3 0 110 6z"/><path fill="#B3CBE2" d="M1529 224a3 3 0 112-7 3 3 0 01-2 7z"/><path fill="#D9E5F1" d="M1521 239a4 4 0 114-6 4 4 0 01-4 6z"/><path fill="#FFF" d="M1516 245c2 2 4 2 6 0a4 4 0 10-6 0z"/></g><g><path fill="#6796C5" d="M1459 259a3 3 0 110 5c-2-1-2-3 0-5z"/><path fill="#8DB0D4" d="M1483 244c0 2-1 4-3 4a3 3 0 113-4z"/><path fill="#B3CBE2" d="M1502 241a4 4 0 11-7-3 4 4 0 117 3z"/><path fill="#D9E5F1" d="M1516 243a4 4 0 11-6-5 4 4 0 016 5z"/><path fill="#FFF" d="M1520 246a4 4 0 10-2-8 4 4 0 002 8z"/><path fill="#D9E5F1" d="M1517 245a4 4 0 117 2 4 4 0 01-7-2z"/><path fill="#B3CBE2" d="M1520 253a3 3 0 014 5 3 3 0 01-4-5z"/><path fill="#8DB0D4" d="M1520 265a2 2 0 011 5 2 2 0 01-1-5z"/><path fill="#6796C5" d="M1511 279l1 3h-3c-1 0-2-2-1-3h3z"/></g><g><path fill="#6796C5" d="M1410 470a5 5 0 11-6 8 5 5 0 016-8z"/><path fill="#8DB0D4" d="M1419 434a4 4 0 110 8 4 4 0 010-8z"/><path fill="#B3CBE2" d="M1412 404a4 4 0 112 7 4 4 0 01-2-7z"/><path fill="#D9E5F1" d="M1400 384c1-1 3 0 4 1a3 3 0 11-4-1z"/><path fill="#FFF" d="M1393 377h3v3h-3v-3z"/></g><g><path fill="#5B8ABF" d="M1307 387a9 9 0 11-3 18 9 9 0 013-18z"/><path fill="#84A7CF" d="M1337 396a7 7 0 114 14 7 7 0 01-4-14z"/><path fill="#ADC5DF" d="M1364 391a6 6 0 117 9 6 6 0 01-7-9z"/><path fill="#D6E2EF" d="M1384 382a4 4 0 116 5 4 4 0 01-6-5z"/><path fill="#FFF" d="M1393 378a2 2 0 114 2 2 2 0 01-4-2z"/></g><g><path fill="#4058A4" d="M1380 322a5 5 0 117-6 5 5 0 01-7 6z"/><path fill="#7082BB" d="M1376 347a4 4 0 113-7 4 4 0 01-3 7z"/><path fill="#A0ACD2" d="M1383 366a3 3 0 11-1-7 3 3 0 011 7z"/><path fill="#CFD5E8" d="M1391 377a3 3 0 11-2-5 3 3 0 012 5z"/><path fill="#FFF" d="M1396 381l-3-1c-1-1 0-3 1-3a2 2 0 012 4z"/></g><g fill="#6796C5"><path d="M1401 372a10 10 0 01-13 15 10 10 0 0113-15zM1446 358a9 9 0 11-12 15 9 9 0 0112-15zM1485 343a9 9 0 11-10 15 9 9 0 0110-15zM1518 328a9 9 0 11-10 15 9 9 0 0110-15zM1543 315a8 8 0 11-8 14 8 8 0 018-14zM1562 305a8 8 0 11-8 13 8 8 0 018-13z"/><path d="M1572 298a7 7 0 11-6 14 7 7 0 016-14z"/><path d="M1570 311a7 7 0 112-14 7 7 0 01-2 14z"/><path d="M1565 317a6 6 0 111-13 6 6 0 01-1 13zM1553 330a6 6 0 112-12 6 6 0 01-2 12zM1535 348a6 6 0 112-11 6 6 0 01-2 11zM1512 370a5 5 0 113-10 5 5 0 01-3 10zM1485 393a5 5 0 113-9 5 5 0 01-3 9zM1454 416a4 4 0 114-8 4 4 0 01-4 8zM1421 435a4 4 0 114-6 4 4 0 01-4 6zM1390 451a4 4 0 11-5-5c1-2 4-2 5 0 1 1 2 3 0 5z"/></g></g><g><image width="440" height="186" opacity=".7" overflow="visible" transform="translate(121 765)" xlink:href="../images/svg/B03D388A8F58AEC.png"/><path fill="none" stroke="#FFF" stroke-miterlimit="10" stroke-width=".6" d="M321 863s118 36 228 20M321 863s99 36 159 90M259 771l62 92M143 776c111 67 178 87 178 87"/><use xlink:href="#reuse-5"/><path fill="#F7DDD7" d="M312 859a5 5 0 008 4 5 5 0 10-8-4z"/><path fill="#EFBBAF" d="M295 853a5 5 0 1010 4 5 5 0 00-10-4z"/><path fill="#E79987" d="M268 842a6 6 0 1011 5 6 6 0 00-11-5z"/><path fill="#DE775F" d="M232 825a7 7 0 1013 6 7 7 0 00-13-6z"/><path fill="#D65537" d="M188 802a8 8 0 1014 7 8 8 0 00-14-7z"/><path fill="#CE330F" d="M136 772a8 8 0 1015 7 8 8 0 00-15-7zM545 881a4 4 0 107 4 4 4 0 00-7-4z"/><path fill="#D44D2D" d="M504 885a4 4 0 107 3 4 4 0 00-7-3z"/><path fill="#DA664B" d="M463 885a4 4 0 108 3 4 4 0 00-8-3z"/><path fill="#E08069" d="M425 882a4 4 0 107 3 4 4 0 00-7-3z"/><path fill="#E79987" d="M390 877a4 4 0 108 3 4 4 0 00-8-3z"/><path fill="#EDB3A5" d="M361 872a4 4 0 107 3 4 4 0 00-7-3z"/><path fill="#F3CCC3" d="M338 866a4 4 0 107 4 4 4 0 00-7-4z"/><path fill="#F9E6E1" d="M323 863a4 4 0 107 3 4 4 0 00-7-3z"/><use xlink:href="#reuse-5"/><path fill="none" stroke="#FFF" stroke-miterlimit="10" stroke-width=".4" d="M259 771s-9-10-8-26c1-18 21-24 21-24"/><path fill="none" stroke="#FFF" stroke-miterlimit="10" stroke-width=".4" d="M259 771s-5-26-34-31c-32-6-47 15-47 15M259 771s-18-2-29 9c-14 14-10 29-10 29M259 771s14 21 32 35c19 14 37-1 37-1M315 708s13 29-6 51c-19 21-50 12-50 12"/><path fill="#FFF" d="M261 769h-3v3a2 2 0 003-3z"/><path fill="#F8E2DD" d="M268 770a3 3 0 10-4 4 3 3 0 004-4z"/><path fill="#F1C5BA" d="M284 769a4 4 0 10-4 6 4 4 0 004-6z"/><path fill="#EAA898" d="M301 762a4 4 0 10-1 8 4 4 0 001-8z"/><path fill="#E38A76" d="M314 744a5 5 0 103 10 5 5 0 00-3-10z"/><path fill="#DC6D54" d="M316 726a6 6 0 108 8 6 6 0 00-8-8z"/><path fill="#D55031" d="M312 711a6 6 0 1011 6 6 6 0 00-11-6z"/><path fill="#CE330F" d="M318 701a7 7 0 10-5 13 7 7 0 005-13zM182 757c2-2 1-5-1-6a5 5 0 101 6z"/><path fill="#D55031" d="M185 748a4 4 0 10-6 6 4 4 0 006-6z"/><path fill="#DC6D54" d="M196 742a4 4 0 10-7 4 4 4 0 007-4z"/><path fill="#E38A76" d="M214 738a4 4 0 10-7 1 4 4 0 007-1z"/><path fill="#EAA898" d="M238 743a3 3 0 10-7-2 3 3 0 007 2z"/><path fill="#F1C5BA" d="M252 755a3 3 0 10-4-4 3 3 0 004 4z"/><path fill="#F8E2DD" d="M259 768a3 3 0 10-3-5 3 3 0 003 5z"/><path fill="#FFF" d="M260 773a2 2 0 10-1-4 2 2 0 001 4z"/><g><path fill="#CE330F" d="M329 807c1 0 2-1 1-2a2 2 0 10-4 1c0 1 2 2 3 1z"/><path fill="#D55031" d="M323 806a2 2 0 100 4 2 2 0 000-4z"/><path fill="#DC6D54" d="M312 810a2 2 0 10-2 4 2 2 0 002-4z"/><path fill="#E38A76" d="M297 807a2 2 0 10-4 2 2 2 0 004-2z"/><path fill="#EAA898" d="M282 796a2 2 0 10-4 1 2 2 0 004-1z"/><path fill="#F1C5BA" d="M271 784a2 2 0 10-4 0 2 2 0 004 0z"/><path fill="#F8E2DD" d="M264 775a2 2 0 10-4-1 2 2 0 004 1z"/><path fill="#FFF" d="M262 771a2 2 0 10-5-1 2 2 0 005 1z"/></g><g><path fill="#CE330F" d="M222 806c-2-1-4 0-5 1-1 2-1 4 1 5a3 3 0 104-6z"/><path fill="#D55031" d="M221 804h-4c-1 1 0 3 1 4a3 3 0 103-4z"/><path fill="#DC6D54" d="M222 796h-3v3a2 2 0 003-3z"/><path fill="#E38A76" d="M226 785h-2v2h2v-2z"/><path fill="#EAA898" d="M236 775h-2v2h2v-2z"/><path fill="#F1C5BA" d="M247 771h-2l1 2 1-1v-1z"/><path fill="#F8E2DD" d="M256 769a2 2 0 10-1 3 2 2 0 001-3z"/><path fill="#FFF" d="M260 769a2 2 0 10-1 4 2 2 0 001-4z"/></g><g><path fill="#CE330F" d="M274 720c-1-1-2-2-3-1-2 1-2 2-2 3a3 3 0 005-2z"/><path fill="#DA664B" d="M265 724a2 2 0 10-4 3 2 2 0 004-3z"/><path fill="#E79987" d="M252 739a2 2 0 10-1 4 2 2 0 001-4z"/><path fill="#F3CCC3" d="M254 760c-2 0-2 2-2 3a2 2 0 004-1l-2-2z"/><path fill="#FFF" d="M262 770c-1-1-2-2-3-1-2 0-2 1-2 3l3 1 2-3z"/></g><g><use xlink:href="#reuse-5"/><path fill="#F3CCC3" d="M302 838a4 4 0 108 4 4 4 0 00-8-4z"/><path fill="#E79987" d="M285 815a5 5 0 1010 4 5 5 0 00-10-4z"/><path fill="#DA664B" d="M269 791a6 6 0 1011 5 6 6 0 00-11-5z"/><path fill="#CE330F" d="M253 768a7 7 0 1012 6 7 7 0 00-12-6z"/></g><path fill="none" stroke="#FFF" stroke-miterlimit="10" stroke-width=".4" d="M325 865s38 58 24 100M325 865s14 29 43 32M325 865s-38 48-26 89M325 865s-13 33-39 30"/><g><path fill="#CE330F" d="M371 898a3 3 0 10-5-1 3 3 0 005 1z"/><path fill="#DA664B" d="M351 892a3 3 0 10-4-3 3 3 0 004 3z"/><path fill="#E79987" d="M337 882a2 2 0 10-3-4 2 2 0 003 4z"/><path fill="#F3CCC3" d="M329 871a2 2 0 00-2-3l-1 3h3z"/><path fill="#FFF" d="M326 867a2 2 0 00-1-3l-1 2 2 1z"/></g><g><path fill="#CE330F" d="M286 896l2-1-1-2a2 2 0 00-1 3z"/><path fill="#DA664B" d="M305 891a2 2 0 10-3 1 2 2 0 003-1z"/><path fill="#E79987" d="M317 880a2 2 0 10-3 2 2 2 0 003-2z"/><path fill="#F3CCC3" d="M324 869h-2a2 2 0 102 0z"/><path fill="#FFF" d="M326 864c-1-1-2 0-2 1l1 2 2-1-1-2z"/></g><g><path fill="#CE330F" d="M354 961c-2-3-6-3-9-1-2 3-3 7 0 9a6 6 0 009-8z"/><path fill="#DA664B" d="M353 927a5 5 0 10-3 9 5 5 0 103-9z"/><path fill="#E79987" d="M343 896a4 4 0 100 7 4 4 0 000-7z"/><path fill="#F3CCC3" d="M330 872a3 3 0 102 6 3 3 0 00-2-6z"/><path fill="#FFF" d="M327 864h-3a2 2 0 003 3v-3z"/></g><g><path fill="#CE330F" d="M295 955a5 5 0 108-3 5 5 0 10-8 3z"/><path fill="#DA664B" d="M295 922c-1 2 1 4 3 4a4 4 0 10-3-4z"/><path fill="#E79987" d="M305 893c-1 1 0 3 2 4a3 3 0 10-2-4z"/><path fill="#F3CCC3" d="M318 872v3a2 2 0 003-3h-3z"/><path fill="#FFF" d="M327 864a2 2 0 00-3 2 2 2 0 003-2z"/></g><path fill="none" stroke="#FFF" stroke-miterlimit="10" stroke-width=".3" d="M480 953s14 1 21-8c10-11 6-21 6-21M480 953s8 7 8 19c0 13-14 18-14 18"/><path fill="none" stroke="#FFF" stroke-miterlimit="10" stroke-width=".3" d="M480 953s5 19 27 21c23 3 33-13 33-13M480 953s-10-14-25-23M443 1002s-11-21 2-37c13-17 35-12 35-12"/><g><path fill="#CE330F" d="M508 922c-1-1-3 0-3 1-1 2 0 3 1 4l4-2-2-3z"/><path fill="#D55031" d="M506 928a2 2 0 103-3 2 2 0 00-3 3z"/><path fill="#DC6D54" d="M506 934a2 2 0 103-3 2 2 0 00-3 3z"/><path fill="#E38A76" d="M502 941a2 2 0 104 0 2 2 0 00-4 0z"/><path fill="#EAA898" d="M496 948a2 2 0 103 1 2 2 0 10-3-1z"/><path fill="#F1C5BA" d="M488 951v2a2 2 0 100-2z"/><path fill="#F8E2DD" d="M482 951l-1 3a2 2 0 101-3z"/><path fill="#FFF" d="M480 951l-2 2 2 2c1 0 2-1 1-2l-1-2z"/></g><g><path fill="#CE330F" d="M543 962c1-2 0-4-2-5a3 3 0 102 5z"/><path fill="#D55031" d="M539 961a3 3 0 10-3 6 3 3 0 003-6z"/><path fill="#DC6D54" d="M532 967a3 3 0 10-4 5 3 3 0 004-5z"/><path fill="#E38A76" d="M520 973a3 3 0 10-5 2 3 3 0 005-2z"/><path fill="#EAA898" d="M502 973a2 2 0 10-5 0 2 2 0 005 0z"/><path fill="#F1C5BA" d="M490 966a2 2 0 00-4-1c-1 1 0 2 1 2 1 1 2 0 3-1z"/><path fill="#F8E2DD" d="M483 959a2 2 0 00-2-3v3h2z"/><path fill="#FFF" d="M481 955l1-2-3-1v2l2 1z"/></g><g><path fill="#CE330F" d="M474 988l-2 2 2 2 2-2-2-2z"/><path fill="#DA664B" d="M480 985a2 2 0 100 3 2 2 0 000-3z"/><path fill="#E79987" d="M487 973a2 2 0 101 3 2 2 0 00-1-3z"/><path fill="#F3CCC3" d="M483 958l1 3 2-1a2 2 0 10-3-2z"/><path fill="#FFF" d="M481 952a2 2 0 10-1 3 2 2 0 001-3z"/></g><g><path fill="#FFF" d="M481 952a2 2 0 101 2l-1-2z"/><path fill="#F8E2DD" d="M476 951l-2 1 1 2a2 2 0 101-3z"/><path fill="#F1C5BA" d="M465 952l-2 1c-1 1 0 2 1 2l2-1-1-2z"/><path fill="#EAA898" d="M451 958a1 1 0 100 2l1-1-1-1z"/><path fill="#E38A76" d="M440 971a1 1 0 102 2v-2h-2z"/><path fill="#DC6D54" d="M438 986a1 1 0 102 1l-1-2-1 1z"/><path fill="#D55031" d="M440 997l1 2 2-1-1-2-2 1z"/><path fill="#CE330F" d="M443 1001l-1 1 1 1 1-1-1-1z"/></g><g><path fill="#CE330F" d="M457 929l-2-1a2 2 0 102 1z"/><path fill="#D55031" d="M463 933l-2-1a2 2 0 102 1z"/><path fill="#DC6D54" d="M468 938l-2-1a2 2 0 102 1z"/><path fill="#E38A76" d="M473 943l-2-2a2 2 0 102 2z"/><path fill="#EAA898" d="M477 947c-1-1-1-2-2-1a2 2 0 102 1z"/><path fill="#F1C5BA" d="M479 950l-1-1a2 2 0 100 3c1 0 2-1 1-2z"/><path fill="#F8E2DD" d="M481 953l-2-2a2 2 0 101 3l1-1z"/><path fill="#FFF" d="M482 953l-2-1-1 2a2 2 0 103-1z"/></g><g><path fill="#CE330F" d="M476 951a5 5 0 109 5 5 5 0 00-9-5z"/><path fill="#DA664B" d="M426 914a5 5 0 109 4 5 5 0 00-9-4z"/><path fill="#E79987" d="M374 886a4 4 0 108 4 4 4 0 00-8-4z"/><path fill="#F3CCC3" d="M334 867a4 4 0 107 4 4 4 0 00-7-4z"/><use xlink:href="#reuse-5"/></g></g><g><image width="252" height="196" overflow="visible" transform="translate(1635 608)" xlink:href="../images/svg/B03D388A8F58AEB.png"/><path fill="none" stroke="#FFF" stroke-miterlimit="10" stroke-width=".8" d="M1676 821l50-94M1726 727s64-18 110 17M1726 727s16-67-21-133"/><path fill="none" stroke="#FFF" stroke-miterlimit="10" stroke-width=".4" d="M1725 726s-48-46-90-40M1725 726s-25-17-22-46M1725 726s-52 28-89 10"/><path fill="#680576" d="M1776 730a2 2 0 11-3 0l1-2 2 2z"/><path fill="#8E4498" d="M1761 737a2 2 0 11-3-1l2-1 1 2z"/><path fill="#B482BB" d="M1745 736a2 2 0 110-2v2z"/><path fill="#D9C1DD" d="M1733 732a2 2 0 111-2l-1 2z"/><path fill="#FFF" d="M1728 729a2 2 0 11-1-3 2 2 0 011 3z"/><path fill="none" stroke="#FFF" stroke-miterlimit="10" stroke-width=".4" d="M1727 728s2 66 35 93M1727 728s5 30-17 49M1727 728s57 17 70 56M1727 728s29 19 48 2M1725 726s-33 7-35 32M1726 727s22-36 76-55"/><use xlink:href="#reuse-6"/><path fill="#D8CEE3" d="M1711 745a4 4 0 119 1 4 4 0 01-9-1z"/><path fill="#B19DC8" d="M1701 764a4 4 0 119 1 4 4 0 01-9-1z"/><path fill="#8A6CAC" d="M1691 783a4 4 0 119 0 4 4 0 01-9 0z"/><path fill="#633B91" d="M1681 802a4 4 0 119 0 4 4 0 11-9 0z"/><path fill="#3C0A75" d="M1671 820c1-2 3-4 5-4a4 4 0 11-5 4zM1825 744a11 11 0 1123 1 11 11 0 01-23-1z"/><path fill="#7D5CA3" d="M1778 724a9 9 0 1118 1 9 9 0 01-18-1z"/><path fill="#BEADD1" d="M1737 723a7 7 0 1114 1 7 7 0 01-14-1z"/><use xlink:href="#reuse-6"/><g><path fill="#3C0A75" d="M1698 594a7 7 0 1113 0 7 7 0 01-13 0z"/><path fill="#633B91" d="M1715 633a6 6 0 1113 1 6 6 0 01-13-1z"/><path fill="#8A6CAC" d="M1723 669a6 6 0 1111 1 6 6 0 01-11-1z"/><path fill="#B19DC8" d="M1724 699a5 5 0 1110 1 5 5 0 01-10-1z"/><path fill="#D8CEE3" d="M1722 719a5 5 0 1110 1 5 5 0 01-10-1z"/><use xlink:href="#reuse-6"/></g><g><path fill="#680576" d="M1705 679a3 3 0 11-5 1 3 3 0 015-1z"/><path fill="#8E4498" d="M1707 698a3 3 0 11-4 3 3 3 0 014-3z"/><path fill="#B482BB" d="M1715 712a2 2 0 11-4 4 2 2 0 014-4z"/><path fill="#D9C1DD" d="M1722 722a2 2 0 11-2 3v-3h2z"/><path fill="#FFF" d="M1726 725v2l-2 1v-2l2-1z"/></g><g><path fill="#680576" d="M1690 757a2 2 0 110 3 2 2 0 010-3z"/><path fill="#8E4498" d="M1697 741a2 2 0 11-1 3 2 2 0 011-3z"/><path fill="#B482BB" d="M1709 732a2 2 0 01-2 2 2 2 0 012-2z"/><path fill="#D9C1DD" d="M1721 727a2 2 0 01-3 2 2 2 0 013-2z"/><path fill="#FFF" d="M1727 726l-1 2-2-1a2 2 0 013-1z"/></g><g><path fill="#770A49" d="M1635 685l1 1-2 1v-2h1z"/><path fill="#994777" d="M1668 689a1 1 0 11-2 1v-1h2z"/><path fill="#BB85A4" d="M1697 703a1 1 0 11-2 2 1 1 0 012-2z"/><path fill="#DDC2D2" d="M1718 719a1 1 0 11-2 1v-2l2 1z"/><path fill="#FFF" d="M1727 726l-2 2-2-1a2 2 0 114-1z"/></g><g><path fill="#770A49" d="M1634 732a4 4 0 115 7 4 4 0 01-5-7z"/><path fill="#994777" d="M1662 740a4 4 0 117 4 4 4 0 01-7-4z"/><path fill="#BB85A4" d="M1692 737a3 3 0 115 2 3 3 0 01-5-2z"/><path fill="#DDC2D2" d="M1714 730a2 2 0 115 1 2 2 0 01-5-1z"/><path fill="#FFF" d="M1723 726l2-1 2 1a2 2 0 11-4 0z"/></g><g><path fill="#3C0A75" d="M1711 780a3 3 0 01-1-6c2 0 3 1 3 2l-2 4z"/><path fill="#6D4798" d="M1724 763c-2 1-3 0-4-1a3 3 0 114-2v3z"/><path fill="#9E85BA" d="M1729 747h-3a2 2 0 113 0z"/><path fill="#CEC2DD" d="M1729 734h-2l-1-2 3-1v3z"/><path fill="#FFF" d="M1729 728c-1 1-1 2-2 1l-1-2 2-1 1 2z"/></g><g><path fill="#3C0A75" d="M1763 821h-1v-1h1v1z"/><path fill="#6D4798" d="M1743 796a1 1 0 01-1-2h2l-1 2z"/><path fill="#9E85BA" d="M1733 765a1 1 0 01-1-2 1 1 0 011 2z"/><path fill="#CEC2DD" d="M1729 740a1 1 0 11-1-3 1 1 0 011 3z"/><path fill="#FFF" d="M1728 729c-1 1-2 0-2-1l1-2a2 2 0 011 3z"/></g><g><path fill="#680576" d="M1796 788a4 4 0 111-8 4 4 0 01-1 8z"/><path fill="#8E4498" d="M1781 762a4 4 0 11-2-7 4 4 0 012 7z"/><path fill="#B482BB" d="M1759 744a3 3 0 11-3-5 3 3 0 113 5z"/><path fill="#D9C1DD" d="M1738 733a2 2 0 11-3-4 2 2 0 113 4z"/><path fill="#FFF" d="M1729 729h-3v-2h3v2z"/></g><g><path fill="#3C0A75" d="M1796 672a7 7 0 1113 0 7 7 0 01-13 0z"/><path fill="#7D5CA3" d="M1753 694a6 6 0 1111 1 6 6 0 01-11-1z"/><path fill="#BEADD1" d="M1729 717a5 5 0 119 0 5 5 0 01-9 0z"/><path fill="#FFF" d="M1722 727a4 4 0 117 0 4 4 0 01-7 0z"/></g></g><g><image width="264" height="262" overflow="visible" transform="translate(80 392)" xlink:href="../images/svg/B03D388A8F58AE5.png"/><path fill="#EBF633" d="M364 487a11 11 0 11-9-20 11 11 0 019 20z"/><path fill="#EDF743" d="M335 496a10 10 0 11-9-18 10 10 0 019 18z"/><path fill="#EEF752" d="M321 502a9 9 0 11-12-15 9 9 0 0112 15z"/><path fill="#F0F862" d="M304 511a9 9 0 11-11-13 9 9 0 0111 13z"/><path fill="#F1F972" d="M274 529a8 8 0 11-9-14 8 8 0 019 14z"/><path fill="#F3F981" d="M241 536a8 8 0 11-1-15 8 8 0 011 15z"/><path fill="#F4FA91" d="M208 530a7 7 0 113-13 7 7 0 01-3 13z"/><path fill="#F6FBA1" d="M178 518a6 6 0 114-12 6 6 0 01-4 12z"/><path fill="#F7FCB1" d="M153 503a6 6 0 115-10 6 6 0 01-5 10z"/><path fill="#F9FCC0" d="M137 492a5 5 0 115-8 5 5 0 01-5 8z"/><path fill="#FAFDD0" d="M134 480a4 4 0 113 9 4 4 0 01-3-9z"/><path fill="#FCFEE0" d="M148 478a4 4 0 112 7 4 4 0 11-2-7z"/><path fill="#FDFEEF" d="M177 475c2 0 3 2 3 3 0 2-1 3-3 3a3 3 0 110-6z"/><path fill="#FFF" d="M213 480a2 2 0 015 1 2 2 0 01-5-1z"/><path fill="#FDFEEF" d="M227 481c1 1 0 1-1 1-1 1-2 0-2-1l2-2 1 2z"/><path fill="#FCFEE0" d="M237 479l-1 1a1 1 0 11-1-2l2 1z"/><path fill="#FAFDD0" d="M246 475v1h-1v-1h1z"/><path fill="#F9FCC0" d="M254 471h0z"/><path fill="#F7FCB1" d="M262 465a1 1 0 112 0 1 1 0 01-2 0z"/><path fill="#F6FBA1" d="M270 459a1 1 0 112-1 1 1 0 01-2 1z"/><path fill="#F4FA91" d="M276 453a2 2 0 114-2 2 2 0 11-4 2z"/><path fill="#F3F981" d="M282 447a3 3 0 115-3 3 3 0 01-5 3z"/><path fill="#F1F972" d="M287 441a3 3 0 116-4 3 3 0 01-6 4z"/><path fill="#F0F862" d="M291 436a4 4 0 117-4 4 4 0 01-7 4z"/><path fill="#EEF752" d="M294 432a4 4 0 117-5 4 4 0 01-7 5z"/><path fill="#EDF743" d="M296 430a5 5 0 118-7 5 5 0 01-8 7z"/><path fill="#EBF633" d="M304 430a6 6 0 11-7-8 6 6 0 017 8zM205 706a7 7 0 115-12 7 7 0 01-5 12zM204 684a6 6 0 114-12 6 6 0 01-4 12zM201 658a6 6 0 113-11 6 6 0 01-3 11zM196 631a6 6 0 112-11 6 6 0 01-2 11zM188 600a5 5 0 111-10 5 5 0 01-1 10zM174 561a5 5 0 110-10 5 5 0 010 10zM160 530a5 5 0 11-1-10 5 5 0 011 10zM147 507a5 5 0 11-1-9 5 5 0 011 9zM139 493a4 4 0 11-2-9 4 4 0 012 9z"/><path fill="#EBF633" d="M134 481a4 4 0 114 7 4 4 0 01-4-7zM141 487a4 4 0 113 7 4 4 0 01-3-7zM156 500a4 4 0 113 6 4 4 0 01-3-6zM177 519a3 3 0 112 6 3 3 0 01-2-6zM199 543a3 3 0 112 6 3 3 0 01-2-6zM221 571a3 3 0 110 6 3 3 0 010-6z"/><path fill="none" d="M235 605a2 2 0 115 1 2 2 0 01-5-1z"/><path fill="#EBF633" d="M241 618a3 3 0 115 0 3 3 0 01-5 0zM249 631a3 3 0 116-1 3 3 0 01-6 1zM258 642a3 3 0 116-1 3 3 0 01-6 1zM269 653a3 3 0 116-2 3 3 0 01-6 2zM280 663a3 3 0 117-2 3 3 0 01-7 2zM292 672a4 4 0 117-3 4 4 0 01-7 3zM304 680a4 4 0 117-3 4 4 0 01-7 3zM316 688a4 4 0 117-4 4 4 0 01-7 4zM327 694a4 4 0 117-4 4 4 0 01-7 4zM337 700a4 4 0 118-5 4 4 0 01-8 5z"/><path fill="#EBF633" d="M346 704a5 5 0 118-4 5 5 0 01-8 4z"/><path fill="#EBF633" d="M354 708a5 5 0 118-5 5 5 0 01-8 5z"/><path fill="#EBF633" d="M360 711a5 5 0 118-6 5 5 0 01-8 6z"/><path fill="#EBF633" d="M363 712a5 5 0 119-5 5 5 0 01-9 5z"/><path fill="#EBF633" d="M372 714a5 5 0 11-6-8 5 5 0 016 8z"/><g><path fill="#EBF633" d="M456 605a9 9 0 11-9-16 9 9 0 019 16zM437 606a9 9 0 11-8-16 9 9 0 018 16zM416 606a8 8 0 11-7-15 8 8 0 017 15zM393 606a8 8 0 11-7-15 8 8 0 017 15zM367 605a8 8 0 11-6-14 8 8 0 016 14zM339 603a7 7 0 11-4-14 7 7 0 014 14zM307 599a7 7 0 11-3-13 7 7 0 013 13zM273 591a6 6 0 11-1-13 6 6 0 011 13zM242 578a6 6 0 110-11 6 6 0 010 11zM214 562a5 5 0 112-10 5 5 0 01-2 10zM191 545a5 5 0 112-9 5 5 0 01-2 9zM171 528a4 4 0 112-8 4 4 0 01-2 8zM155 512a4 4 0 113-7 4 4 0 01-3 7zM144 499a3 3 0 112-6 3 3 0 01-2 6zM137 490a3 3 0 112-5 3 3 0 01-2 5z"/><path fill="none" d="M134 487l-1-3c1-2 2-2 4-1l1 3-4 1z"/></g><path fill="none" stroke="#FFF" stroke-miterlimit="10" stroke-width=".7" d="M301 426s-41 61-86 54c-44-6-80 5-80 5s87 64 136 36c35-20 61-37 89-44"/><path fill="none" stroke="#FFF" stroke-miterlimit="10" stroke-width=".7" d="M135 485s73 100 186 110c57 5 101 4 130 2"/><path fill="none" stroke="#FFF" stroke-miterlimit="10" stroke-width=".7" d="M368 709s-104-37-131-104c-27-66-102-120-102-120a440 440 0 0072 214"/><g><path fill="#EBF633" d="M100 524a6 6 0 11-10-5 6 6 0 0110 5z"/><path fill="#EFF85C" d="M91 512a5 5 0 118 6 5 5 0 11-8-6z"/><path fill="#F3FA85" d="M97 497a4 4 0 114 7 4 4 0 01-4-7z"/><path fill="#F7FBAD" d="M114 483a4 4 0 11-1 7 4 4 0 011-7z"/><path fill="#FBFDD6" d="M131 481a3 3 0 11-4 5 3 3 0 014-5z"/><path fill="#FFF" d="M137 483a2 2 0 11-4 3 2 2 0 014-3z"/></g><g><path fill="#EBF633" d="M42 492a2 2 0 11-3-1 2 2 0 013 1z"/><path fill="#EDF746" d="M43 488a2 2 0 01-2 3 2 2 0 012-3z"/><path fill="#EFF858" d="M48 483v3a2 2 0 110-3z"/><path fill="#F0F86B" d="M56 476v3a2 2 0 11-3-3h3z"/><path fill="#F2F97D" d="M68 470l-1 2a2 2 0 11-2-3c1-1 2 0 3 1z"/><path fill="#F4FA90" d="M83 465c1 1 0 2-1 2a2 2 0 11-1-4l2 2z"/><path fill="#F6FBA2" d="M98 464a2 2 0 01-4 0 2 2 0 014 0z"/><path fill="#F8FCB5" d="M111 468a2 2 0 01-4-2 2 2 0 014 2z"/><path fill="#FAFDC7" d="M122 473c-1 1-2 2-3 1a2 2 0 112-4l1 3z"/><path fill="#FBFDDA" d="M130 479a2 2 0 01-4-2 2 2 0 014 2z"/><path fill="#FDFEEC" d="M135 484a2 2 0 01-3-3 2 2 0 013 3z"/><path fill="#FFF" d="M137 483v3h-3a2 2 0 113-3z"/></g><g><path fill="#EBF633" d="M159 372a2 2 0 11-2-4 2 2 0 012 4z"/><path fill="#EDF746" d="M157 371a2 2 0 111 4 2 2 0 01-1-4z"/><path fill="#EFF858" d="M156 379a2 2 0 110 4 2 2 0 010-4z"/><path fill="#F0F86B" d="M151 390a2 2 0 11-1 5 2 2 0 011-5z"/><path fill="#F2F97D" d="M140 404a2 2 0 11-2 4 2 2 0 012-4z"/><path fill="#F4FA90" d="M123 418a2 2 0 11-2 4 2 2 0 012-4z"/><path fill="#F6FBA2" d="M115 431a2 2 0 110 4 2 2 0 010-4z"/><path fill="#F8FCB5" d="M114 445a2 2 0 112 4 2 2 0 01-2-4z"/><path fill="#FAFDC7" d="M118 459a2 2 0 113 4 2 2 0 01-3-4z"/><path fill="#FBFDDA" d="M125 472a2 2 0 014 3 2 2 0 01-4-3z"/><path fill="#FDFEEC" d="M131 480a2 2 0 114 3 2 2 0 01-4-3z"/><path fill="#FFF" d="M133 484a2 2 0 014 2 2 2 0 01-4-2z"/></g><g><path fill="#FFF" d="M134 483c2-1 3 0 4 1 0 1 0 2-2 3l-3-1 1-3z"/><path fill="#FDFEEC" d="M135 486c1 0 3 0 3 2a3 3 0 11-5 2c0-2 0-3 2-4z"/><path fill="#FBFDDA" d="M135 496l4 2a3 3 0 11-4-2z"/><path fill="#FAFDC7" d="M136 512c1-1 3 0 4 2a3 3 0 11-6 2c-1-2 0-4 2-4z"/><path fill="#F8FCB5" d="M135 531c2-1 4 0 4 2a3 3 0 11-4-2z"/><path fill="#F6FBA2" d="M134 552c1-1 3 0 4 2a3 3 0 11-4-2z"/><path fill="#F4FA90" d="M130 573a4 4 0 111 8 4 4 0 01-1-8z"/><path fill="#F2F97D" d="M124 595a4 4 0 11-1 7 4 4 0 011-7z"/><path fill="#F0F86B" d="M116 613a4 4 0 11-1 8 4 4 0 011-8z"/><path fill="#EFF858" d="M109 627a4 4 0 11-2 8 4 4 0 012-8z"/><path fill="#EDF746" d="M104 636a5 5 0 11-3 8 5 5 0 013-8z"/><path fill="#EBF633" d="M102 639a5 5 0 11-3 9 5 5 0 013-9z"/></g><g><path fill="#EBF633" d="M219 395a3 3 0 115-4 3 3 0 11-5 4z"/><path fill="#EDF746" d="M220 391a3 3 0 11-5 5 3 3 0 015-5z"/><path fill="#EFF858" d="M209 392a3 3 0 11-3 5 3 3 0 013-5z"/><path fill="#F0F86B" d="M196 395a3 3 0 11-3 5 3 3 0 013-5z"/><path fill="#F2F97D" d="M182 401a3 3 0 11-2 6 3 3 0 012-6z"/><path fill="#F4FA90" d="M170 413a3 3 0 111 5 3 3 0 01-1-5z"/><path fill="#F6FBA2" d="M164 431a3 3 0 113 5 3 3 0 01-3-5z"/><path fill="#F8FCB5" d="M159 449a3 3 0 112 5 3 3 0 01-2-5z"/><path fill="#FAFDC7" d="M151 464a3 3 0 111 5 3 3 0 01-1-5z"/><path fill="#FBFDDA" d="M144 474a3 3 0 110 5 3 3 0 010-5z"/><path fill="#FDFEEC" d="M138 480l2 3a2 2 0 11-2-3z"/><path fill="#FFF" d="M136 482a2 2 0 11-1 5 2 2 0 011-5z"/></g><g><path fill="#EBF633" d="M44 428a4 4 0 11-6-5 4 4 0 016 5z"/><path fill="#EEF750" d="M45 422a4 4 0 115 5 4 4 0 01-5-5z"/><path fill="#F1F96D" d="M62 424c2-1 4 0 5 1a3 3 0 11-5-1z"/><path fill="#F4FA8A" d="M84 435a3 3 0 110 7 3 3 0 010-7z"/><path fill="#F6FBA8" d="M102 455c2 0 3 2 3 3a3 3 0 11-6 0c0-2 2-3 3-3z"/><path fill="#F9FCC5" d="M118 470a3 3 0 010 5 3 3 0 010-5z"/><path fill="#FCFEE2" d="M130 479a3 3 0 011 5 3 3 0 01-1-5z"/><path fill="#FFF" d="M135 482l3 2c0 2-1 3-2 3a2 2 0 01-1-5z"/></g><g><path fill="#EBF633" d="M79 380a1 1 0 111-2 1 1 0 01-1 2z"/><path fill="#EEF750" d="M80 385a1 1 0 110 2 1 1 0 010-2z"/><path fill="#F1F96D" d="M84 402a1 1 0 110 3 1 1 0 010-3z"/><path fill="#F4FA8A" d="M94 424a2 2 0 110 4 2 2 0 010-4z"/><path fill="#F6FBA8" d="M107 446a2 2 0 111 4 2 2 0 01-1-4z"/><path fill="#F9FCC5" d="M121 464a2 2 0 111 4 2 2 0 01-1-4z"/><path fill="#FCFEE2" d="M131 478a2 2 0 111 4 2 2 0 01-1-4z"/><path fill="#FFF" d="M135 482a2 2 0 011 5c-1 0-2 0-3-2 0-1 0-2 2-3z"/></g><path fill="none" stroke="#FFF" stroke-miterlimit="10" stroke-width=".7" d="M135 485s26-19 31-56c5-38 56-36 56-36M135 485s-41-46-8-69 31-46 31-46"/><path fill="none" stroke="#FFF" stroke-miterlimit="10" stroke-width=".7" d="M135 485s-21-26-38-53c-16-26-18-53-18-53M135 485s-24-15-46-41-48-18-48-18"/><path fill="none" stroke="#FFF" stroke-miterlimit="10" stroke-width=".7" d="M135 485s-23-27-53-20-41 27-41 27"/><path fill="none" stroke="#FFF" stroke-miterlimit="10" stroke-width=".7" d="M135 485s-13-6-28 6-12 30-12 30"/><g><path fill="#EBF633" d="M302 426c0 1-1 2-2 1a2 2 0 112-1z"/><path fill="#EAEA32" d="M297 425a2 2 0 11-3-2 2 2 0 013 2z"/><path fill="#E9DF30" d="M286 420a2 2 0 11-3-2l2-1 1 3z"/><path fill="#E8D32F" d="M274 409a2 2 0 11-1-3 2 2 0 011 3z"/><path fill="#E6C72E" d="M269 391a2 2 0 110-3 2 2 0 010 3z"/><path fill="#E5BB2D" d="M273 376a1 1 0 111-2 1 1 0 01-1 2z"/><path fill="#E4B02B" d="M280 366a1 1 0 112-2 1 1 0 01-2 2z"/><path fill="#E3A42A" d="M283 362l1-2h2a1 1 0 01-3 2z"/></g><g><path fill="#E3A42A" d="M360 445a4 4 0 117-2 4 4 0 01-7 2z"/><path fill="#E4B02B" d="M359 442a4 4 0 116-3 4 4 0 01-6 3z"/><path fill="#E5BB2D" d="M355 433a3 3 0 115-4 3 3 0 01-5 4z"/><path fill="#E6C72E" d="M345 424a3 3 0 112-6 3 3 0 01-2 6z"/><path fill="#E8D32F" d="M328 418a3 3 0 110-6 3 3 0 010 6z"/><path fill="#E9DF30" d="M314 419a2 2 0 11-2-4 2 2 0 012 4z"/><path fill="#EAEA32" d="M305 424h-3a2 2 0 113 0z"/><path fill="#EBF633" d="M302 427h-2c-1 0-2-1-1-2l2-1 1 3z"/></g><g><path fill="#E3A42A" d="M238 425l1-2h2v3l-3-1z"/><path fill="#E4B02B" d="M241 429v-2h2a2 2 0 11-2 2z"/><path fill="#E5BB2D" d="M248 437a2 2 0 112-3 2 2 0 01-2 3z"/><path fill="#E6C72E" d="M262 441a2 2 0 110-4 2 2 0 010 4z"/><path fill="#E8D32F" d="M277 437a2 2 0 11-1-3 2 2 0 011 3z"/><path fill="#E9DF30" d="M290 433a2 2 0 11-2-3 2 2 0 112 3z"/><path fill="#EAEA32" d="M298 429a2 2 0 11-2-3 2 2 0 112 3z"/><path fill="#EBF633" d="M302 427a2 2 0 11-3-3l3 1v2z"/></g><g><path fill="#E3A42A" d="M312 468c-1-1-1-3 1-4a3 3 0 11-1 4z"/><path fill="#E4B02B" d="M314 466v-3a3 3 0 110 3z"/><path fill="#E5BB2D" d="M317 461a2 2 0 113-4 2 2 0 01-3 4z"/><path fill="#E6C72E" d="M318 451a2 2 0 111-4 2 2 0 01-1 4z"/><path fill="#E8D32F" d="M316 440a2 2 0 11-1-4 2 2 0 011 4z"/><path fill="#E9DF30" d="M310 433a2 2 0 11-2-4 2 2 0 012 4z"/><path fill="#EAEA32" d="M305 428a2 2 0 11-3-2 2 2 0 013 2z"/><path fill="#EBF633" d="M302 427h-3a2 2 0 113 0z"/></g><g><path fill="#E3A42A" d="M312 386a2 2 0 11-4 0 2 2 0 014 0z"/><path fill="#E5B92C" d="M316 393a2 2 0 11-3-1 2 2 0 013 1z"/><path fill="#E7CD2F" d="M318 409a2 2 0 11-2-3 2 2 0 012 3z"/><path fill="#E9E231" d="M307 424a2 2 0 111-4 2 2 0 01-1 4z"/><path fill="#EBF633" d="M300 427c-1 0-2-1-1-2l2-1a2 2 0 11-1 3z"/></g><path fill="none" stroke="#FFF" stroke-miterlimit="10" stroke-width=".3" d="M301 426s10-4 15-15c5-13-6-25-6-25"/><path fill="none" stroke="#FFF" stroke-miterlimit="10" stroke-width=".3" d="M301 426s12-16 35-10c24 8 27 28 27 28M301 426s13 5 17 17c4 15-4 24-4 24M301 426s-17 9-36 13c-18 3-25-15-25-15M284 361s-20 16-14 38 31 27 31 27"/><g fill="#EBF633"><path d="M181 337a2 2 0 112-5l1 3c-1 2-2 2-3 2zM169 346a2 2 0 112-2l-2 2zM162 357a2 2 0 111-2c1 1 0 2-1 2zM159 367l-2-1 1-2a2 2 0 111 3zM158 370h-1v-2l2 1-1 1z"/></g><g fill="#EBF633"><path d="M122 358l-2 1v-2l2-1v2zM135 357l-2-1 1-2 2 1-1 2zM147 361l-2-1 1-1a1 1 0 111 2zM154 367l-1-1 2-1a1 1 0 11-1 2zM157 371l-1-2 2-1 1 2-2 1z"/></g><g fill="#EBF633"><path d="M150 289h-1l1-1h1l-1 1zM160 314l-1-1 1-1 1 1-1 1zM162 341l-1-2 1-1 1 2-1 1zM159 362a1 1 0 111-3 1 1 0 01-1 3zM157 371l-1-2 2-1 1 2-2 1z"/></g><g fill="#EBF633"><path d="M113 313a4 4 0 115-6 4 4 0 01-5 6zM122 336a3 3 0 111-5 3 3 0 01-1 5zM137 355c-1 0-2-1-2-3a2 2 0 112 3zM152 367l-3-2a2 2 0 114-1l-1 3zM158 371l-2-1 1-2 2 1-1 2z"/></g><path fill="none" stroke="#FFF" stroke-miterlimit="10" stroke-width=".3" d="M158 369s13-52-8-80M158 369s2-24 24-34M158 369s-41-25-43-59M158 369s-18-21-37-12"/><g fill="#EBF633"><path d="M58 569a6 6 0 116-10 6 6 0 01-6 10zM79 548a5 5 0 11-1 10 5 5 0 011-10zM88 534a4 4 0 112 9 4 4 0 01-2-9zM93 523a4 4 0 113 7c-2 0-4 0-5-2s0-4 2-5z"/><path d="M94 519c-1 1-2 3-1 4a3 3 0 105-3c-1-2-3-2-4-1z"/></g><g fill="#EBF633"><path d="M51 523l-3-1v-2h3v3zM65 511a2 2 0 111 5 2 2 0 01-1-5zM81 512a2 2 0 11-1 5 2 2 0 011-5zM92 517c2 0 2 2 1 3a3 3 0 11-1-3z"/><path d="M97 519a3 3 0 10-3 5 3 3 0 003-5z"/></g><g fill="#EBF633"><path d="M111 561a2 2 0 01-3-3h3v3zM96 548a2 2 0 114-1 2 2 0 01-4 1zM92 534a2 2 0 114 2 2 2 0 01-4-2zM92 524a3 3 0 114 3 3 3 0 01-4-3z"/><path d="M95 519c-2 0-3 1-2 3a3 3 0 102-3z"/><path d="M100 521a2 2 0 11-4-2 2 2 0 014 2zM106 520h-3a2 2 0 113 0zM113 522a2 2 0 11-1-4 2 2 0 011 4zM121 528l-1-2 2-1 1 2-2 1z"/></g><path fill="none" stroke="#FFF" stroke-miterlimit="10" stroke-width=".3" d="M95 521s-24-18-45 0M95 521s-4 32-34 43"/><path fill="none" stroke="#FFF" stroke-miterlimit="10" stroke-width=".3" d="M121 527c-11-14-26-6-26-6s-8 25 15 39"/><g fill="#EBF633"><path d="M369 671l-3 1-1-3 3-1 1 3zM372 686l-1-2 3-1a2 2 0 11-2 3zM372 699l-1-2 2-1a2 2 0 01-1 3zM370 708a2 2 0 111-3 2 2 0 01-1 3z"/><path d="M369 713a3 3 0 110-5 3 3 0 010 5z"/></g><g fill="#EBF633"><path d="M474 698a6 6 0 115-10 6 6 0 01-5 10zM435 685a5 5 0 110-9 5 5 0 010 9zM402 692a4 4 0 11-3-8 4 4 0 013 8zM379 705a3 3 0 11-4-5 3 3 0 014 5zM371 712a3 3 0 11-4-4 3 3 0 014 4z"/></g><g fill="#EBF633"><path d="M390 820a10 10 0 113-20 10 10 0 01-3 20zM401 780a8 8 0 11-6-16 8 8 0 016 16zM393 745a6 6 0 11-8-10 6 6 0 018 10zM379 721a4 4 0 11-7-5 4 4 0 017 5zM371 711c0 1-2 2-3 1-1 0-2-2-1-3 0-1 2-2 3-1 1 0 2 2 1 3z"/></g><g fill="#EBF633"><path d="M303 730a5 5 0 11-2-10 5 5 0 012 10zM332 734a5 5 0 11-5-7 5 5 0 015 7zM354 727a4 4 0 11-7-4 4 4 0 017 4zM367 716a3 3 0 11-6-2 3 3 0 016 2zM372 710a3 3 0 11-6 0 3 3 0 016 0z"/></g><path fill="none" stroke="#FFF" stroke-miterlimit="10" stroke-width=".3" d="M369 710s48-53 107-17M369 710s11-20-2-40M369 710s46 46 23 100M369 710s-28 33-67 15"/><path fill="none" stroke="#FFF" stroke-miterlimit="10" stroke-width=".7" d="M100 643s23-31 32-72c8-41 3-86 3-86"/><g fill="#EBF633"><use xlink:href="#reuse-7"/></g><g fill="#EBF633"><use xlink:href="#reuse-8"/></g><g fill="#EBF633"><use xlink:href="#reuse-9"/></g><g fill="#EBF633"><path d="M347 523c2 0 4 1 4 3a4 4 0 11-4-3zM328 541c1-1 3 0 4 1a3 3 0 11-4-1zM317 563a2 2 0 114 3 2 2 0 01-4-3zM312 582l3-1a2 2 0 01-2 4l-1-3zM311 590l2-1 1 2-2 1-1-2z"/></g><use stroke-miterlimit="10" stroke-width=".3" xlink:href="#reuse-10"/><g fill="#EBF633"><use xlink:href="#reuse-7"/></g><g fill="#EBF633"><use xlink:href="#reuse-8"/></g><g fill="#EBF633"><use xlink:href="#reuse-9"/></g><g fill="#EBF633"><path d="M344 527a4 4 0 117 0 4 4 0 01-7 0zM327 545a3 3 0 115-3 3 3 0 01-5 3zM317 567v-4a2 2 0 110 4zM313 584l-1-2a2 2 0 013 2h-2zM312 592l-1-2h2l1 1-2 1z"/></g><use stroke-miterlimit="10" stroke-width=".3" xlink:href="#reuse-10"/></g><g><image width="276" height="220" overflow="visible" transform="translate(535 739)" xlink:href="../images/svg/B03D388A8F58AE7.png"/><path fill="none" stroke="#FFF" stroke-miterlimit="10" stroke-width="1.1" d="M722 992l-38-133M684 859s-77-41-145-9M684 859s-2-57 31-118"/><path fill="none" stroke="#FFF" stroke-miterlimit="10" stroke-width=".6" d="M685 858s73-45 126-26M685 858s36-15 42-53M685 858s58 50 110 37"/><g fill="#FFF"><path d="M620 851l3-1c1-1 0-2-1-3s-2 0-3 1 0 2 1 3zM639 860c-1 0-2 0-2 2 0 1 0 2 2 2l2-2-2-2zM658 862c-1 0-2 1-1 3l2 1 2-2-3-2zM674 860c-1 0-2 1-1 2a2 2 0 104-1c-1-1-2-2-3-1zM681 857l-2 3 3 2c1-1 2-2 1-3l-2-2z"/></g><path fill="none" stroke="#FFF" stroke-miterlimit="10" stroke-width=".6" d="M682 859s-20 85-71 109M682 859s-15 37 8 67M682 859s-77 7-104 53M682 859s-41 17-61-10M685 858s40 18 35 51M684 859s-18-52-82-91"/><use xlink:href="#reuse-11"/><path fill="#C2DCDD" d="M697 886a6 6 0 10-11-1 6 6 0 0011 1z" opacity=".9"/><path fill="#87BCBE" d="M705 913a6 6 0 10-11-2 6 6 0 0011 2z" opacity=".8"/><path fill="#4F9DA1" d="M712 940a6 6 0 10-11-2 6 6 0 0011 2z" opacity=".8"/><path fill="#067F86" d="M719 966a6 6 0 10-10-2 6 6 0 0010 2z" opacity=".7"/><path fill="#00636D" d="M727 993a6 6 0 10-11-2 6 6 0 0011 2z" opacity=".6"/><path fill="#00636D" d="M553 853a15 15 0 10-29-5 15 15 0 0029 5z"/><path fill="#3C9398" d="M618 840a12 12 0 10-23-4 12 12 0 0023 4z"/><path fill="#9AC7C8" d="M670 851a9 9 0 10-17-3 9 9 0 0017 3z"/><use xlink:href="#reuse-11"/><path fill="#00636D" d="M724 742c1-5-2-9-7-10s-9 3-10 7a9 9 0 1017 3z" opacity=".6"/><path fill="#067F86" d="M708 778a8 8 0 10-17-3 8 8 0 0017 3z" opacity=".7"/><path fill="#4F9DA1" d="M697 810a8 8 0 10-14-3 8 8 0 0014 3z" opacity=".8"/><path fill="#87BCBE" d="M692 836a7 7 0 10-13-2 7 7 0 0013 2z" opacity=".8"/><path fill="#C2DCDD" d="M690 853a6 6 0 10-12-2 6 6 0 0012 2z" opacity=".9"/><use xlink:href="#reuse-11"/><g><path fill="#00636D" d="M723 804c-1 1 0 4 2 5s4 0 5-2a4 4 0 00-7-3z"/><path fill="#21878D" d="M716 827a3 3 0 104 5 3 3 0 00-4-5z"/><path fill="#6AACAF" d="M703 843a3 3 0 101 6 3 3 0 00-1-6z"/><path fill="#B2D4D5" d="M691 853l-3 2a2 2 0 005 1c0-2-1-3-2-3z"/><path fill="#FFF" d="M687 859l-1-2c-1-1-2 0-3 1l1 2c1 1 2 0 3-1z"/></g><g><path fill="#00636D" d="M721 907a2 2 0 00-2 4 2 2 0 102-4z"/><path fill="#21878D" d="M717 889a2 2 0 100-4 2 2 0 000 4z"/><path fill="#6AACAF" d="M705 873a2 2 0 10-1-4 2 2 0 001 4z"/><path fill="#B2D4D5" d="M692 864a2 2 0 10-1-4 2 2 0 001 4z"/><path fill="#FFF" d="M686 860l1-2c0-1-1-2-3-2l-1 3c0 1 1 2 3 1z"/></g><g><path fill="#00636D" d="M811 833l1-1v-2l-2 1 1 2z"/><path fill="#21878D" d="M771 828l-2-2-1 2 1 1 2-1z"/><path fill="#6AACAF" d="M730 837l-3-1v3a2 2 0 103-2z"/><path fill="#B2D4D5" d="M699 850h-3v3h2l1-3z"/><path fill="#FFF" d="M686 857h-2l-1 3h3v-3z"/></g><g><path fill="#00636D" d="M794 900c3 1 6-1 7-4a6 6 0 10-7 4z" opacity=".6"/><path fill="#21878D" d="M753 898c2 2 5 2 7 0a5 5 0 10-7 0z" opacity=".7"/><path fill="#6AACAF" d="M717 884c2 1 4 2 6 1a4 4 0 10-4-7c-2 1-3 4-2 6z" opacity=".8"/><path fill="#B2D4D5" d="M692 867a3 3 0 006-2 3 3 0 10-6 2z" opacity=".9"/><path fill="#FFF" d="M685 856c-1 0-2 1-2 3 0 1 1 2 2 1l2-2-2-2z"/></g><g><path fill="#00636D" d="M693 928a4 4 0 10-7-3 4 4 0 007 3z"/><path fill="#21878D" d="M681 906a3 3 0 10-4-6 3 3 0 004 6z"/><path fill="#6AACAF" d="M678 884a3 3 0 00-1-5 3 3 0 001 5z"/><path fill="#B2D4D5" d="M679 868a2 2 0 001-5c-2 0-3 1-3 2 0 2 1 3 2 3z"/><path fill="#FFF" d="M680 859c-1 1 0 2 1 2 1 1 2 0 2-1a2 2 0 10-3-1z"/></g><g><path fill="#00636D" d="M612 966l-2 1 1 2 2-1-1-2z"/><path fill="#21878D" d="M642 941l2 1 1-2-2-1-1 2z"/><path fill="#6AACAF" d="M664 905l2 1 1-2-2-1c-1 0-2 1-1 2z"/><path fill="#B2D4D5" d="M676 874h3v-2l-3-1v3z"/><path fill="#FFF" d="M680 861h3v-3h-3v3z"/></g><g><path fill="#00636D" d="M577 917a6 6 0 102-11c-3-1-6 1-7 4 0 4 2 7 5 7z"/><path fill="#21878D" d="M603 888a5 5 0 106-8 5 5 0 00-6 8z"/><path fill="#6AACAF" d="M637 871a4 4 0 106-5 4 4 0 00-6 5z"/><path fill="#B2D4D5" d="M666 863a3 3 0 106-3 3 3 0 00-6 3z"/><path fill="#FFF" d="M680 860a2 2 0 003-1 2 2 0 00-3 1z"/></g><g><path fill="#00636D" d="M610 769a9 9 0 10-17-3 9 9 0 0017 3z"/><path fill="#3C9398" d="M659 810a7 7 0 10-15-2 7 7 0 0015 2z"/><path fill="#9AC7C8" d="M683 845a6 6 0 10-12-2 6 6 0 0012 2z"/><path fill="#FFF" d="M689 860c0-3-2-5-4-6a5 5 0 104 6z"/></g></g></svg>