<?xml version="1.0" encoding="utf-8"?>
<!-- Generator: Adobe Illustrator 16.0.4, SVG Export Plug-In . SVG Version: 6.00 Build 0)  -->
<!DOCTYPE svg PUBLIC "-//W3C//DTD SVG 1.1//EN" "http://www.w3.org/Graphics/SVG/1.1/DTD/svg11.dtd">
<svg version="1.1" id="Capa_1" xmlns="http://www.w3.org/2000/svg" xmlns:xlink="http://www.w3.org/1999/xlink" x="0px" y="0px"
	 width="212px" height="576px" viewBox="705.726 29.645 212 576" enable-background="new 705.726 29.645 212 576"
	 xml:space="preserve">
<g>
	<g>
		<path fill="#FFFFFF" d="M812.741,267.224c-28.182,0-51.242-11.295-66.691-32.664c-14.047-19.433-21.474-46.316-21.474-77.746
			s7.427-58.314,21.474-77.748c15.449-21.369,38.51-32.664,66.691-32.664c28.185,0,51.247,11.295,66.694,32.664
			c14.05,19.433,21.477,46.317,21.477,77.748c0,31.43-7.427,58.313-21.477,77.746C863.986,255.929,840.923,267.224,812.741,267.224z
			 M812.741,49.022c-63.073,0-85.545,55.682-85.545,107.792c0,52.109,22.472,107.79,85.545,107.79
			c63.077,0,85.551-55.681,85.551-107.79C898.292,104.704,875.818,49.022,812.741,49.022z M812.741,224.848
			c-25.601,0-38.581-22.89-38.581-68.034c0-45.141,12.98-68.029,38.581-68.029c25.599,0,38.579,22.889,38.579,68.029
			C851.32,201.958,838.34,224.848,812.741,224.848z M812.741,91.404c-23.863,0-35.961,22.007-35.961,65.41
			c0,43.406,12.098,65.415,35.961,65.415c23.861,0,35.959-22.009,35.959-65.415C848.7,113.412,836.603,91.404,812.741,91.404z"/>
	</g>
	<g>
		<path fill="#FFFFFF" d="M807.178,561.204c-26.693,0-49.236-9.955-70.943-31.331c-5.446-5.438-3.231-8.565,0.831-13.216
			l16.55-18.064c2.696-2.882,4.894-4.162,7.138-4.162c2.011,0,3.973,1.026,6.176,3.229c12.937,12.295,22.725,18.55,40.249,18.55
			c15.482,0,33.255-2.925,33.255-25.741c0-22.813-17.772-25.739-33.255-25.739h-56.5c-4.105,0-6.6-0.765-8.086-2.481
			c-1.374-1.585-1.796-3.85-1.325-7.128l12.922-101.571c0.972-7.176,2.325-9.26,9.414-9.26h103.687c7.045,0,9.425,2.378,9.425,9.425
			v25.25c0,7.047-2.38,9.425-9.425,9.425h-72.788l-4.165,31.346h21.052c53.867,0,80.051,22.55,80.051,68.938
			C891.438,533.411,859.151,561.204,807.178,561.204z M760.753,497.05c-1.456,0-3.065,1.024-5.214,3.322l-16.519,18.032
			c-4.114,4.706-4.605,5.952-0.941,9.608c21.18,20.856,43.137,30.572,69.099,30.572c39.469,0,81.642-18.366,81.642-69.912
			c0-45.246-24.605-66.318-77.432-66.318h-24.039l4.855-36.586h75.085c5.598,0,6.805-1.208,6.805-6.805v-25.25
			c0-5.596-1.207-6.805-6.805-6.805H763.603c-5.508,0-5.989,0.877-6.818,6.98l-12.921,101.581c-0.354,2.459-0.12,4.107,0.706,5.062
			c0.934,1.077,2.875,1.579,6.108,1.579h56.5c24.475,0,35.874,9.011,35.874,28.358c0,19.349-11.399,28.361-35.874,28.361
			c-18.308,0-28.911-6.781-42.079-19.294C763.397,497.832,762.024,497.05,760.753,497.05z"/>
	</g>
</g>
</svg>
