<?xml version="1.0" encoding="utf-8"?>
<!-- Generator: Adobe Illustrator 16.0.4, SVG Export Plug-In . SVG Version: 6.00 Build 0)  -->
<!DOCTYPE svg PUBLIC "-//W3C//DTD SVG 1.1//EN" "http://www.w3.org/Graphics/SVG/1.1/DTD/svg11.dtd">
<svg version="1.1" id="Capa_1" xmlns="http://www.w3.org/2000/svg" xmlns:xlink="http://www.w3.org/1999/xlink" x="0px" y="0px"
	 width="1044px" height="1064px" viewBox="-148.5 60.322 1044 1064" enable-background="new -148.5 60.322 1044 1064"
	 xml:space="preserve">
<g>
	<g opacity="0.6">
		
			<image overflow="visible" width="805" height="863" xlink:href="A31825C956215B6B.png"  transform="matrix(1 0 0 1 -102.5 110.9932)">
		</image>
	</g>
	<g>
		<path fill="none" stroke="#FFFFFF" stroke-width="0.9842" stroke-miterlimit="10" d="M667.569,839.586
			c0,0,143.802-55.444,174.007-150.339"/>
		<g>
			<path fill="#F4156D" d="M486.208,918.063c-4.646-0.743-7.817-5.117-7.087-9.771c0.743-4.645,5.116-7.825,9.757-7.095
				c4.667,0.752,7.839,5.116,7.096,9.77C495.234,915.622,490.869,918.802,486.208,918.063z"/>
			<path fill="#F75092" d="M383.587,875.062c4.663,0.75,7.835,5.117,7.096,9.768c-0.738,4.652-5.105,7.832-9.765,7.095
				c-4.647-0.744-7.819-5.116-7.088-9.768C374.57,877.511,378.942,874.33,383.587,875.062z"/>
			<path fill="#FA8AB6" d="M309.026,827.266c4.66,0.746,7.832,5.115,7.095,9.765s-5.106,7.829-9.764,7.093
				c-4.649-0.744-7.821-5.114-7.089-9.764C300.006,829.711,304.379,826.53,309.026,827.266z"/>
			<path fill="#FCC5DB" d="M264.672,781.334c4.657,0.744,7.829,5.115,7.095,9.763c-0.735,4.647-5.106,7.827-9.762,7.093
				c-4.651-0.746-7.823-5.113-7.09-9.762C255.648,783.777,260.021,780.597,264.672,781.334z"/>
			<path fill="#FFFFFF" d="M247.339,777.646c-4.654-0.747-7.825-5.112-7.091-9.757c0.73-4.654,5.104-7.834,9.757-7.096
				c4.653,0.743,7.825,5.117,7.095,9.762C256.366,775.199,251.993,778.38,247.339,777.646z"/>
		</g>
		<path fill="none" stroke="#FFFFFF" stroke-width="1.9684" stroke-miterlimit="10" d="M248.672,769.222
			c0,0,77.769,130.456,238.876,140.413"/>
		<path fill="none" stroke="#FFFFFF" stroke-width="0.9842" stroke-miterlimit="10" d="M488.993,909.975
			c0,0-26.528,31.789-62.187,31.178c-45.134-0.769-61.366-30.936-61.366-30.936"/>
		<path fill="none" stroke="#FFFFFF" stroke-width="1.1124" stroke-miterlimit="10" d="M249.169,767.981
			c0,0,37.045-91.386-35.479-142.6"/>
		<path fill="none" stroke="#FFFFFF" stroke-width="1.1124" stroke-miterlimit="10" d="M249.169,767.981
			c0,0-103.134,11.431-159.266-74.503"/>
		<path fill="none" stroke="#FFFFFF" stroke-width="1.1124" stroke-miterlimit="10" d="M253.178,853.211
			c34.456-45.508-4.008-85.229-4.008-85.229s-82.087-6.577-108.764,75.323"/>
		<g>
			<path fill="#F4156D" d="M410.694,313.621c-1.181-1.854-0.647-4.315,1.211-5.519c1.858-1.185,4.325-0.64,5.517,1.224
				c1.192,1.861,0.649,4.325-1.208,5.505C414.354,316.005,411.896,315.481,410.694,313.621z"/>
			<path fill="#F75092" d="M430.119,284.285c1.526-0.913,3.504-0.414,4.423,1.122c0.919,1.536,0.425,3.513-1.104,4.422
				c-1.525,0.909-3.507,0.426-4.432-1.111C428.092,287.196,428.58,285.212,430.119,284.285z"/>
			<path fill="#FA8AB6" d="M450.468,271.398c1.3-1.14,3.28-1.01,4.42,0.297c1.146,1.312,1.016,3.286-0.284,4.425
				c-1.301,1.139-3.28,1.018-4.432-0.291C449.029,274.53,449.156,272.548,450.468,271.398z"/>
			<path fill="#FCC5DB" d="M466.767,265.981c1.243-1.666,3.606-2.017,5.268-0.767c1.677,1.252,2.014,3.61,0.773,5.275
				c-1.247,1.672-3.603,2.018-5.277,0.771C465.856,270.014,465.519,267.654,466.767,265.981z"/>
			<path fill="#FFFFFF" d="M472.768,264.764c1.301-2.341,4.268-3.17,6.594-1.856c2.346,1.322,3.172,4.277,1.857,6.604
				c-1.312,2.348-4.27,3.174-6.604,1.858C472.267,270.059,471.445,267.094,472.768,264.764z"/>
		</g>
		<path fill="none" stroke="#FFFFFF" stroke-width="0.6648" stroke-miterlimit="10" d="M476.989,267.14
			c0,0-135.513-24.37-137.993-157.361"/>
		<path fill="none" stroke="#FFFFFF" stroke-width="0.6648" stroke-miterlimit="10" d="M476.989,267.14
			c0,0-44.251,2.879-62.925,44.345"/>
		<path fill="none" stroke="#FFFFFF" stroke-width="0.6648" stroke-miterlimit="10" d="M476.989,267.14
			c0,0,28.474-122.576,139.87-139.598"/>
		<path fill="none" stroke="#FFFFFF" stroke-width="0.6392" stroke-miterlimit="10" d="M476.981,267.14
			c0,0,82.622,12.462,92.943,93.279"/>
		<path fill="#FFFFFF" d="M247.339,777.646c-4.654-0.747-7.825-5.112-7.091-9.757c0.73-4.654,5.104-7.834,9.757-7.096
			c4.653,0.743,7.825,5.117,7.095,9.762C256.366,775.199,251.993,778.38,247.339,777.646z"/>
		<path fill="#FFFFFF" d="M247.339,777.646c-4.654-0.747-7.825-5.112-7.091-9.757c0.73-4.654,5.104-7.834,9.757-7.096
			c4.653,0.743,7.825,5.117,7.095,9.762C256.366,775.199,251.993,778.38,247.339,777.646z"/>
		<path fill="none" stroke="#FFFFFF" stroke-width="1.9684" stroke-miterlimit="10" d="M248.672,769.222
			c0,0,335.179-109.011,539.363,206.323"/>
		<path fill="none" stroke="#FFFFFF" stroke-width="1.9684" stroke-miterlimit="10" d="M780.413,377.235
			C655.269,689.151,248.672,769.222,248.672,769.222"/>
		<path fill="none" stroke="#FFFFFF" stroke-width="1.9684" stroke-miterlimit="10" d="M248.672,769.222
			c0,0,255.589-190.326,226.517-500.375"/>
		<g>
			<path fill="#F4156D" d="M829.044,692.816c-1.902-6.876,2.132-14.018,9.001-15.973c6.906-1.91,14.039,2.119,15.954,9.01
				c1.922,6.889-2.105,14.024-8.982,15.939C838.117,703.731,830.967,699.689,829.044,692.816z"/>
			<path fill="#F75092" d="M791.145,750.889c1.078-5.76,6.637-9.592,12.409-8.531c5.79,1.062,9.6,6.627,8.524,12.406
				c-1.067,5.78-6.619,9.592-12.387,8.52C793.899,762.225,790.082,756.66,791.145,750.889z"/>
			<path fill="#FA8AB6" d="M735.599,796.654c1.862-4.189,6.788-6.098,10.993-4.244c4.218,1.86,6.117,6.781,4.253,10.99
				c-1.86,4.213-6.782,6.109-10.981,4.246C735.644,805.793,733.742,800.865,735.599,796.654z"/>
			<path fill="#FCC5DB" d="M685.342,826.314c1.719-2.829,5.423-3.735,8.266-2.018c2.851,1.729,3.767,5.421,2.041,8.268
				c-1.723,2.852-5.426,3.747-8.269,2.027C684.531,832.869,683.619,829.169,685.342,826.314z"/>
			<path fill="#FFFFFF" d="M664.547,837.398c1.189-1.652,3.509-2.029,5.166-0.827c1.672,1.197,2.063,3.507,0.864,5.176
				c-1.197,1.673-3.524,2.044-5.184,0.843C663.724,841.398,663.344,839.08,664.547,837.398z"/>
		</g>
		<path fill="none" stroke="#FFFFFF" stroke-width="0.9842" stroke-miterlimit="10" d="M667.569,839.586
			c0,0,61.116-34.474,120.186-1.902"/>
		<path fill="none" stroke="#FFFFFF" stroke-width="0.9842" stroke-miterlimit="10" d="M667.569,839.586
			c0,0-7.401-136.228,67.234-195.577"/>
		<path fill="none" stroke="#FFFFFF" stroke-width="0.9842" stroke-miterlimit="10" d="M667.569,839.586
			c0,0,18.775-76.258-33.31-104.438"/>
		<path fill="none" stroke="#FFFFFF" stroke-width="0.9842" stroke-miterlimit="10" d="M488.993,909.975
			c0,0-0.255,31.339,26.902,54.993c29.878,26.023,70.864,5.342,70.864,5.342"/>
		<path fill="none" stroke="#FFFFFF" stroke-width="0.9842" stroke-miterlimit="10" d="M488.993,909.975
			c0,0,32.065,49.054-6.561,103.724c-41.737,59.049-99.249,49.47-99.249,49.47"/>
		<path fill="none" stroke="#FFFFFF" stroke-width="0.9842" stroke-miterlimit="10" d="M488.993,909.975
			c0,0-11.626-54.174-3.855-106.522"/>
		<path fill="none" stroke="#FFFFFF" stroke-width="0.9842" stroke-miterlimit="10" d="M677.984,923.447
			c0,0-25.709-68.207-90.022-72.355c-64.317-4.131-98.969,58.883-98.969,58.883"/>
		<g>
			<path fill="#F4156D" d="M373.25,911.26c-0.596,4.32-4.545,7.354-8.864,6.77c-4.294-0.581-7.329-4.542-6.756-8.856
				c0.584-4.301,4.541-7.341,8.862-6.76C370.797,902.993,373.81,906.957,373.25,911.26z"/>
			<path fill="#F63682" d="M377.162,915.703c0.28,4.125-2.832,7.69-6.954,7.965c-4.102,0.273-7.67-2.832-7.954-6.947
				c-0.271-4.108,2.829-7.68,6.953-7.959C373.318,908.485,376.884,911.598,377.162,915.703z"/>
			<path fill="#F75897" d="M390.313,926.167c1.373,3.659-0.478,7.73-4.136,9.1c-3.641,1.361-7.714-0.483-9.087-4.131
				c-1.362-3.648,0.477-7.723,4.132-9.094C384.873,920.677,388.946,922.524,390.313,926.167z"/>
			<path fill="#F979AC" d="M414.135,934.742c2.464,2.733,2.239,6.942-0.495,9.401c-2.726,2.449-6.932,2.231-9.393-0.493
				c-2.45-2.732-2.24-6.938,0.494-9.398C407.472,931.799,411.68,932.017,414.135,934.742z"/>
			<path fill="#FA9BC0" d="M443.939,933.879c3.174,1.362,4.635,5.038,3.271,8.209c-1.362,3.16-5.033,4.624-8.199,3.271
				c-3.164-1.368-4.635-5.034-3.273-8.205C437.103,933.989,440.774,932.521,443.939,933.879z"/>
			<path fill="#FCBCD5" d="M466.646,923.31c3.22,0.22,5.644,3.011,5.421,6.228c-0.224,3.21-3.008,5.637-6.217,5.422
				c-3.217-0.228-5.646-3.007-5.426-6.223C460.65,925.523,463.432,923.092,466.646,923.31z"/>
			<path fill="#FDDEEA" d="M482.198,910.866c2.975-0.387,5.691,1.719,6.076,4.692c0.382,2.97-1.715,5.694-4.681,6.077
				c-2.976,0.385-5.697-1.714-6.083-4.685C477.132,913.979,479.225,911.254,482.198,910.866z"/>
			<path fill="#FFFFFF" d="M487.746,905.091c2.691-0.667,5.413,0.947,6.098,3.632c0.682,2.687-0.943,5.413-3.619,6.101
				c-2.693,0.678-5.421-0.94-6.106-3.622C483.441,908.514,485.062,905.798,487.746,905.091z"/>
		</g>
		<g>
			<path fill="#F4156D" d="M393.329,1066.967c-2.104,5.592-8.354,8.424-13.945,6.322c-5.603-2.11-8.416-8.361-6.327-13.961
				c2.111-5.592,8.353-8.428,13.948-6.305C392.605,1055.125,395.425,1061.375,393.329,1066.967z"/>
			<path fill="#F63682" d="M404.794,1065.376c-0.92,5.441-6.083,9.109-11.523,8.191c-5.451-0.926-9.104-6.093-8.195-11.537
				c0.925-5.439,6.081-9.11,11.526-8.174C402.051,1054.771,405.708,1059.938,404.794,1065.376z"/>
			<path fill="#F75897" d="M433,1057.505c0.614,5.024-2.963,9.597-7.985,10.212c-5.034,0.61-9.595-2.975-10.218-7.997
				c-0.611-5.021,2.963-9.597,7.993-10.198C427.818,1048.9,432.385,1052.487,433,1057.505z"/>
			<path fill="#F979AC" d="M467.905,1033.735c2.258,4.014,0.832,9.097-3.18,11.353c-4.024,2.256-9.099,0.821-11.359-3.19
				c-2.254-4.008-0.827-9.085,3.189-11.341C460.574,1028.3,465.653,1029.728,467.905,1033.735z"/>
			<path fill="#FA9BC0" d="M497.635,988.493c3.396,2.381,4.218,7.061,1.838,10.456c-2.392,3.398-7.068,4.21-10.465,1.83
				c-3.389-2.375-4.207-7.052-1.826-10.448C489.567,986.932,494.246,986.114,497.635,988.493z"/>
			<path fill="#FCBCD5" d="M502.312,945.412c3.653,0.526,6.183,3.909,5.656,7.561c-0.536,3.658-3.92,6.181-7.57,5.65
				c-3.644-0.521-6.169-3.905-5.644-7.557C495.282,947.409,498.669,944.881,502.312,945.412z"/>
			<path fill="#FDDEEA" d="M493.624,915.848c3.181-0.593,6.228,1.497,6.819,4.676c0.584,3.187-1.512,6.222-4.688,6.813
				c-3.166,0.59-6.211-1.5-6.805-4.675C488.355,919.48,490.453,916.43,493.624,915.848z"/>
			<path fill="#FFFFFF" d="M487.109,905.331c2.575-1.043,5.493,0.191,6.535,2.765c1.034,2.582-0.203,5.496-2.778,6.528
				c-2.555,1.044-5.483-0.195-6.52-2.764C483.293,909.287,484.543,906.359,487.109,905.331z"/>
		</g>
		<g>
			<path fill="#F4156D" d="M580.927,969.224c0.62-3.198,3.713-5.3,6.929-4.687c3.189,0.622,5.287,3.7,4.689,6.927
				c-0.625,3.203-3.71,5.291-6.929,4.671C582.417,975.531,580.312,972.435,580.927,969.224z"/>
			<path fill="#F75092" d="M560.817,974.255c1.453-2.778,4.886-3.87,7.674-2.419c2.782,1.448,3.872,4.879,2.423,7.676
				c-1.447,2.79-4.875,3.861-7.676,2.408C560.457,980.481,559.37,977.049,560.817,974.255z"/>
			<path fill="#FA8AB6" d="M521.407,965.344c2.804-1.095,5.98,0.292,7.077,3.102c1.1,2.814-0.292,5.979-3.103,7.084
				c-2.814,1.097-5.97-0.292-7.078-3.112C517.207,969.616,518.589,966.443,521.407,965.344z"/>
			<path fill="#FCC5DB" d="M494.962,926.849c2.743,0.894,4.254,3.857,3.358,6.602c-0.9,2.767-3.863,4.264-6.61,3.367
				c-2.756-0.896-4.249-3.851-3.357-6.617C489.247,927.459,492.2,925.948,494.962,926.849z"/>
			<path fill="#FFFFFF" d="M492.096,906.027c2.168,1.71,2.552,4.859,0.858,7.035c-1.73,2.197-4.886,2.572-7.051,0.864
				c-2.188-1.71-2.561-4.858-0.855-7.057C486.755,904.701,489.899,904.318,492.096,906.027z"/>
		</g>
		<g>
			<path fill="#FFFFFF" d="M485.795,906.122c2.151-1.753,5.304-1.451,7.07,0.7c1.738,2.145,1.429,5.307-0.715,7.062
				c-2.148,1.757-5.301,1.446-7.045-0.71C483.342,911.042,483.64,907.87,485.795,906.122z"/>
			<path fill="#FDDEEA" d="M494.903,893.368c2.316-1.366,5.303-0.623,6.675,1.696c1.363,2.303,0.604,5.294-1.706,6.664
				c-2.315,1.37-5.28,0.611-6.65-1.698C491.854,897.722,492.586,894.731,494.903,893.368z"/>
			<path fill="#FCBCD5" d="M520.848,867.904c2.508-0.702,5.119,0.735,5.828,3.243c0.706,2.492-0.744,5.106-3.245,5.814
				c-2.508,0.707-5.098-0.735-5.807-3.235C516.915,871.228,518.344,868.605,520.848,867.904z"/>
			<path fill="#FA9BC0" d="M563.284,848.492c2.482,0.43,4.165,2.773,3.744,5.256c-0.418,2.469-2.771,4.154-5.249,3.732
				c-2.484-0.428-4.15-2.763-3.731-5.237C558.468,849.764,560.807,848.066,563.284,848.492z"/>
			<path fill="#F979AC" d="M616.456,853.255c1.789,1.65,1.928,4.435,0.289,6.229c-1.631,1.786-4.423,1.928-6.214,0.286
				c-1.793-1.648-1.928-4.417-0.294-6.205C611.876,851.771,614.668,851.614,616.456,853.255z"/>
			<path fill="#F75897" d="M654.47,879.832c0.87,2.182-0.179,4.661-2.349,5.543c-2.164,0.87-4.653-0.166-5.525-2.34
				c-0.87-2.185,0.163-4.657,2.329-5.525C651.1,876.628,653.603,877.659,654.47,879.832z"/>
			<path fill="#F63682" d="M675.511,909.342c0.274,2.247-1.315,4.301-3.551,4.589c-2.23,0.281-4.299-1.294-4.575-3.534
				c-0.271-2.25,1.296-4.302,3.524-4.58C673.153,905.531,675.237,907.106,675.511,909.342z"/>
			<path fill="#F4156D" d="M681.969,923.511c-0.068,2.177-1.871,3.905-4.036,3.86c-2.162-0.049-3.909-1.842-3.851-4.012
				c0.064-2.182,1.848-3.911,4.004-3.86C680.265,919.551,682.02,921.346,681.969,923.511z"/>
		</g>
		<g>
			<path fill="#F4156D" d="M486.737,798.696c2.639,0.892,4.067,3.767,3.183,6.407c-0.92,2.637-3.792,4.055-6.418,3.154
				c-2.647-0.889-4.063-3.755-3.15-6.397C481.249,799.211,484.103,797.797,486.737,798.696z"/>
			<path fill="#F63682" d="M484.063,820.951c2.704,0.645,4.401,3.375,3.748,6.079c-0.654,2.712-3.394,4.376-6.093,3.729
				c-2.712-0.649-4.377-3.361-3.721-6.074C478.654,821.969,481.356,820.296,484.063,820.951z"/>
			<path fill="#F75897" d="M483.314,842.506c2.738,0.451,4.618,3.05,4.161,5.792c-0.458,2.748-3.067,4.602-5.805,4.148
				c-2.747-0.455-4.599-3.04-4.141-5.787C477.99,843.904,480.565,842.047,483.314,842.506z"/>
			<path fill="#F979AC" d="M483.926,862.355c2.754,0.298,4.77,2.781,4.47,5.544c-0.301,2.765-2.797,4.763-5.555,4.464
				c-2.765-0.301-4.757-2.775-4.455-5.538C478.688,864.051,481.154,862.052,483.926,862.355z"/>
			<path fill="#FA9BC0" d="M485.338,879.507c2.759,0.173,4.876,2.561,4.706,5.33c-0.177,2.773-2.573,4.882-5.341,4.707
				c-2.771-0.175-4.871-2.556-4.696-5.325C480.182,881.438,482.555,879.33,485.338,879.507z"/>
			<path fill="#FCBCD5" d="M486.995,892.977c2.759,0.07,4.958,2.374,4.889,5.146c-0.066,2.774-2.384,4.97-5.154,4.896
				c-2.772-0.072-4.957-2.372-4.887-5.14C481.913,895.097,484.205,892.902,486.995,892.977z"/>
			<path fill="#FDDEEA" d="M488.346,901.78c2.754-0.014,5.019,2.219,5.033,4.987c0.024,2.772-2.222,5.036-4.993,5.05
				c-2.769,0.013-5.021-2.218-5.037-4.981C483.333,904.054,485.555,901.791,488.346,901.78z"/>
			<path fill="#FFFFFF" d="M488.842,904.936c2.747-0.084,5.065,2.085,5.15,4.852c0.102,2.766-2.085,5.097-4.854,5.172
				c-2.764,0.093-5.076-2.085-5.16-4.843C483.883,907.34,486.05,905.021,488.842,904.936z"/>
		</g>
		<g>
			<path fill="#F4156D" d="M785.359,992.396c-9.298-1.465-15.658-10.198-14.177-19.519c1.474-9.298,10.207-15.642,19.519-14.177
				c9.308,1.474,15.65,10.22,14.178,19.519C803.405,987.529,794.667,993.881,785.359,992.396z"/>
			<path fill="#F52A7A" d="M726.902,915.744c-8.876-1.399-14.946-9.735-13.532-18.631c1.405-8.876,9.742-14.932,18.631-13.532
				c8.885,1.406,14.939,9.755,13.533,18.631C744.128,911.098,735.786,917.161,726.902,915.744z"/>
			<path fill="#F64088" d="M664.046,857.737c-8.454-1.334-14.234-9.273-12.889-17.744c1.338-8.453,9.279-14.221,17.743-12.889
				c8.462,1.341,14.229,9.292,12.891,17.744C680.451,853.311,672.507,859.085,664.046,857.737z"/>
			<path fill="#F75595" d="M598.896,815.962c-8.032-1.269-13.522-8.811-12.245-16.855c1.271-8.031,8.815-13.512,16.856-12.245
				c8.039,1.274,13.517,8.827,12.246,16.857C614.482,811.756,606.934,817.242,598.896,815.962z"/>
			<path fill="#F86AA2" d="M533.556,788.018c-7.609-1.205-12.811-8.35-11.601-15.969c1.204-7.609,8.352-12.803,15.969-11.602
				c7.616,1.207,12.806,8.363,11.604,15.971C548.322,784.031,541.171,789.229,533.556,788.018z"/>
			<path fill="#F97FAF" d="M470.124,771.496c-7.187-1.139-12.098-7.886-10.955-15.082c1.135-7.186,7.887-12.092,15.081-10.957
				c7.192,1.142,12.094,7.9,10.958,15.084C484.071,767.729,477.316,772.641,470.124,771.496z"/>
			<path fill="#FA95BD" d="M410.706,763.996c-6.766-1.073-11.387-7.425-10.312-14.194c1.068-6.765,7.424-11.383,14.194-10.313
				c6.769,1.074,11.382,7.436,10.314,14.196C423.831,760.449,417.475,765.071,410.706,763.996z"/>
			<path fill="#FBAACA" d="M357.4,763.111c-6.343-1.008-10.674-6.961-9.668-13.307c1.001-6.342,6.96-10.672,13.307-9.67
				c6.346,1.009,10.671,6.972,9.671,13.31C369.706,759.786,363.745,764.118,357.4,763.111z"/>
			<path fill="#FCBFD7" d="M312.309,766.439c-5.921-0.943-9.962-6.5-9.023-12.42c0.933-5.92,6.495-9.963,12.419-9.025
				c5.923,0.941,9.96,6.508,9.027,12.422C323.795,763.333,318.231,767.378,312.309,766.439z"/>
			<path fill="#FDD4E4" d="M277.534,771.574c-5.498-0.879-9.249-6.038-8.379-11.533c0.866-5.497,6.032-9.252,11.532-8.382
				c5.5,0.876,9.248,6.044,8.383,11.535C288.201,768.688,283.033,772.443,277.534,771.574z"/>
			<path fill="#FEEAF2" d="M255.176,776.111c-5.076-0.812-8.538-5.574-7.735-10.645c0.798-5.075,5.568-8.543,10.645-7.738
				c5.077,0.809,8.537,5.58,7.739,10.648C265.022,773.445,260.253,776.914,255.176,776.111z"/>
			<path fill="#FFFFFF" d="M247.339,777.646c-4.654-0.747-7.825-5.112-7.091-9.757c0.73-4.654,5.104-7.834,9.757-7.096
				c4.653,0.743,7.825,5.117,7.095,9.762C256.366,775.199,251.993,778.38,247.339,777.646z"/>
		</g>
		<g>
			<path fill="#FFFFFF" d="M247.339,777.646c-4.654-0.747-7.825-5.112-7.091-9.757c0.73-4.654,5.104-7.834,9.757-7.096
				c4.653,0.743,7.825,5.117,7.095,9.762C256.366,775.199,251.993,778.38,247.339,777.646z"/>
			<path fill="#FEEAF2" d="M266.094,767.092c0.02,4.332-3.486,7.869-7.826,7.888c-4.34,0.009-7.868-3.49-7.889-7.823
				c-0.023-4.338,3.483-7.875,7.823-7.891C262.541,759.254,266.071,762.76,266.094,767.092z"/>
			<path fill="#FDD4E4" d="M292.149,758.972c0.774,4.019-1.865,7.912-5.891,8.685c-4.025,0.766-7.911-1.869-8.686-5.888
				c-0.777-4.024,1.862-7.917,5.889-8.688C287.487,752.314,291.374,754.953,292.149,758.972z"/>
			<path fill="#FCBFD7" d="M332.163,745.512c1.528,3.707-0.244,7.957-3.957,9.482c-3.71,1.521-7.953-0.247-9.481-3.953
				c-1.531-3.709,0.241-7.959,3.953-9.484C326.39,740.036,330.634,741.807,332.163,745.512z"/>
			<path fill="#FBAACA" d="M383.034,726.03c2.282,3.393,1.377,7.999-2.021,10.278c-3.396,2.277-7.997,1.375-10.279-2.018
				c-2.285-3.396-1.38-8.002,2.02-10.283C376.15,721.734,380.752,722.637,383.034,726.03z"/>
			<path fill="#FA95BD" d="M441.66,699.841c3.035,3.08,2.998,8.043-0.088,11.076c-3.08,3.033-8.039,2.996-11.076-0.084
				c-3.039-3.081-3-8.044,0.084-11.078C433.664,696.727,438.625,696.761,441.66,699.841z"/>
			<path fill="#F97FAF" d="M504.939,666.261c3.791,2.767,4.619,8.087,1.849,11.874c-2.767,3.789-8.082,4.617-11.873,1.85
				c-3.793-2.766-4.622-8.086-1.851-11.875C495.835,664.327,501.151,663.494,504.939,666.261z"/>
			<path fill="#F86AA2" d="M569.77,624.605c4.546,2.453,6.241,8.131,3.784,12.67c-2.452,4.546-8.126,6.238-12.671,3.785
				c-4.547-2.451-6.241-8.129-3.785-12.672C559.555,623.852,565.229,622.15,569.77,624.605z"/>
			<path fill="#F75595" d="M633.051,574.19c5.3,2.141,7.862,8.174,5.719,13.467c-2.137,5.302-8.168,7.86-13.468,5.72
				c-5.301-2.137-7.862-8.17-5.72-13.468C621.726,574.617,627.757,572.049,633.051,574.19z"/>
			<path fill="#F64088" d="M691.682,514.331c6.054,1.828,9.482,8.218,7.653,14.265c-1.822,6.058-8.211,9.482-14.265,7.654
				c-6.055-1.823-9.483-8.212-7.654-14.266C679.245,515.939,685.634,512.503,691.682,514.331z"/>
			<path fill="#F52A7A" d="M742.558,444.343c6.809,1.515,11.104,8.261,9.589,15.062c-1.508,6.814-8.254,11.104-15.062,9.589
				c-6.809-1.508-11.104-8.255-9.589-15.062C729.011,447.132,735.758,442.828,742.558,444.343z"/>
			<path fill="#F4156D" d="M778.248,390.917c-7.562-1.193-12.726-8.297-11.523-15.859c1.201-7.553,8.305-12.725,15.858-11.523
				c7.562,1.202,12.726,8.305,11.523,15.859C792.913,386.964,785.81,392.119,778.248,390.917z"/>
		</g>
		<g>
			<path fill="#F4156D" d="M90.367,675.126c10.124,0.255,18.138,8.658,17.882,18.804c-0.232,10.125-8.651,18.145-18.773,17.905
				c-10.145-0.239-18.15-8.666-17.908-18.797C71.786,682.896,80.21,674.887,90.367,675.126z"/>
			<path fill="#F75092" d="M144.828,756.071c-8.119,3.51-17.539-0.239-21.044-8.351c-3.53-8.109,0.215-17.53,8.344-21.047
				c8.112-3.494,17.529,0.231,21.029,8.359C156.672,743.134,152.935,752.562,144.828,756.071z"/>
			<path fill="#FA8AB6" d="M199.724,773.119c-5.613,5.04-14.254,4.57-19.292-1.039c-5.058-5.599-4.592-14.238,1.027-19.287
				c5.613-5.031,14.243-4.58,19.282,1.043C205.789,759.43,205.329,768.072,199.724,773.119z"/>
			<path fill="#FCC5DB" d="M241.334,775.078c-3.676,5.045-10.756,6.16-15.804,2.486c-5.061-3.66-6.179-10.738-2.5-15.793
				c3.679-5.043,10.737-6.162,15.796-2.488C243.874,762.949,245.005,770.018,241.334,775.078z"/>
			<path fill="#FFFFFF" d="M257.073,772.227c2.339-4.373,0.694-9.812-3.668-12.133c-4.359-2.352-9.785-0.7-12.133,3.654
				c-2.346,4.357-0.705,9.795,3.66,12.123C249.286,778.215,254.728,776.576,257.073,772.227z"/>
		</g>
		<g>
			<path fill="#F4156D" d="M208.028,623.059c1.327-3.134,4.908-4.599,8.027-3.293c3.114,1.301,4.575,4.887,3.265,8.002
				c-1.297,3.135-4.881,4.583-7.998,3.285C208.206,629.76,206.735,626.175,208.028,623.059z"/>
			<path fill="#F75092" d="M253.805,674.834c-3.069,2.211-7.325,1.494-9.526-1.566c-2.197-3.059-1.495-7.33,1.564-9.528
				c3.087-2.199,7.349-1.493,9.546,1.575C257.586,668.379,256.877,672.637,253.805,674.834z"/>
			<path fill="#FA8AB6" d="M260.214,723.27c-4.077,0.884-8.077-1.71-8.958-5.778c-0.873-4.067,1.716-8.087,5.783-8.96
				c4.086-0.873,8.093,1.716,8.967,5.789C266.882,718.396,264.296,722.393,260.214,723.27z"/>
			<path fill="#FCC5DB" d="M253.612,761.16c-4.559-0.117-8.149-3.904-8.035-8.459c0.127-4.551,3.918-8.16,8.469-8.034
				c4.564,0.123,8.16,3.909,8.036,8.466C261.961,757.696,258.186,761.277,253.612,761.16z"/>
			<path fill="#FFFFFF" d="M247.688,776.83c4.906,0.818,9.505-2.459,10.331-7.352c0.827-4.883-2.467-9.5-7.351-10.32
				c-4.876-0.833-9.502,2.475-10.336,7.35C239.517,771.391,242.807,776.006,247.688,776.83z"/>
		</g>
		<g>
			<path fill="#F4156D" d="M147.635,842.487c0.44,3.989-2.421,7.583-6.411,8.035c-4.001,0.446-7.6-2.415-8.04-6.422
				c-0.439-3.989,2.423-7.579,6.408-8.015C143.581,835.624,147.184,838.502,147.635,842.487z"/>
			<path fill="#F75092" d="M164.874,803.441c-3.574-2.096-4.776-6.678-2.676-10.252c2.098-3.565,6.671-4.75,10.236-2.662
				c3.566,2.088,4.77,6.673,2.682,10.238C173.021,804.332,168.442,805.527,164.874,803.441z"/>
			<path fill="#FA8AB6" d="M197.863,778.627c-2.041-3.834-0.598-8.59,3.237-10.631c3.834-2.039,8.585-0.586,10.62,3.243
				c2.046,3.821,0.595,8.585-3.231,10.622C204.656,783.902,199.904,782.449,197.863,778.627z"/>
			<path fill="#FCC5DB" d="M227.619,769.102c-0.476-4.592,2.852-8.701,7.441-9.178c4.597-0.479,8.698,2.861,9.174,7.447
				c0.482,4.584-2.852,8.696-7.441,9.172C232.2,777.021,228.099,773.683,227.619,769.102z"/>
			<path fill="#FFFFFF" d="M241.414,763.489c-2.475,4.276-1.025,9.766,3.264,12.245c4.282,2.486,9.768,1.023,12.245-3.256
				c2.478-4.28,1.027-9.771-3.265-12.254C249.38,757.744,243.898,759.21,241.414,763.489z"/>
			<path fill="#FCC5DB" d="M261.582,771.541c1.858,3.836,0.244,8.445-3.587,10.301c-3.832,1.854-8.447,0.248-10.294-3.588
				c-1.858-3.836-0.241-8.445,3.585-10.298C255.121,766.106,259.734,767.709,261.582,771.541z"/>
			<path fill="#FA8AB6" d="M270.589,793.039c0.272,3.584-2.416,6.708-6.003,6.982c-3.587,0.275-6.721-2.413-6.983-5.998
				c-0.275-3.589,2.42-6.713,6.001-6.988C267.189,786.768,270.323,789.453,270.589,793.039z"/>
			<path fill="#F75092" d="M271.794,823.348c-1.461,2.594-4.75,3.512-7.354,2.051c-2.605-1.462-3.526-4.757-2.06-7.352
				c1.469-2.6,4.76-3.518,7.359-2.061C272.336,817.451,273.265,820.75,271.794,823.348z"/>
			<path fill="#F4156D" d="M254.605,857.426c-2.317,0.781-4.833-0.458-5.631-2.785c-0.799-2.328,0.441-4.863,2.771-5.639
				c2.326-0.791,4.85,0.459,5.646,2.777C258.179,854.104,256.939,856.641,254.605,857.426z"/>
		</g>
		<g>
			<path fill="#F4156D" d="M333.341,100.767c4.985-3.125,11.532-1.635,14.661,3.359c3.121,4.963,1.62,11.539-3.354,14.658
				c-4.972,3.125-11.541,1.61-14.657-3.36C326.865,110.438,328.369,103.883,333.341,100.767z"/>
			<path fill="#F75092" d="M353.421,186.287c2.315-4.525,7.839-6.314,12.364-3.996c4.518,2.299,6.312,7.848,4.005,12.366
				c-2.307,4.517-7.855,6.3-12.368,3.989C352.899,196.331,351.108,190.801,353.421,186.287z"/>
			<path fill="#FA8AB6" d="M401.188,237.974c0.19-4.278,3.808-7.572,8.08-7.385c4.271,0.187,7.586,3.81,7.402,8.081
				c-0.19,4.267-3.825,7.576-8.095,7.38C404.304,245.857,400.989,242.246,401.188,237.974z"/>
			<path fill="#FCC5DB" d="M449.619,262.561c-0.735-3.403,1.441-6.739,4.829-7.474c3.403-0.738,6.76,1.431,7.502,4.827
				c0.729,3.393-1.452,6.75-4.854,7.475C453.702,268.117,450.343,265.966,449.619,262.561z"/>
			<path fill="#FFFFFF" d="M472.452,268.848c-0.957-2.505,0.319-5.312,2.807-6.25c2.504-0.977,5.318,0.301,6.286,2.797
				c0.947,2.497-0.328,5.311-2.838,6.258C476.215,272.601,473.397,271.362,472.452,268.848z"/>
		</g>
		<g>
			<path fill="#F4156D" d="M600.684,117.077c5.77-8.93,17.701-11.514,26.648-5.724c8.934,5.801,11.483,17.729,5.715,26.668
				c-5.802,8.935-17.727,11.503-26.679,5.724C597.435,137.946,594.874,126.01,600.684,117.077z"/>
			<path fill="#F75092" d="M532.398,155.307c0.667-8.62,8.195-15.082,16.832-14.411c8.633,0.688,15.074,8.226,14.415,16.849
				c-0.69,8.635-8.221,15.086-16.857,14.42C538.157,171.482,531.707,163.942,532.398,155.307z"/>
			<path fill="#FA8AB6" d="M493.54,206.972c-1.803-6.412,1.927-13.074,8.343-14.883c6.424-1.791,13.093,1.942,14.893,8.35
				c1.805,6.423-1.942,13.087-8.362,14.895C501.996,217.134,495.336,213.393,493.54,206.972z"/>
			<path fill="#FCC5DB" d="M475.702,251.654c-2.181-4.134-0.606-9.254,3.524-11.434c4.136-2.182,9.266-0.604,11.444,3.521
				c2.186,4.139,0.593,9.26-3.542,11.444C482.999,257.371,477.885,255.786,475.702,251.654z"/>
			<path fill="#FFFFFF" d="M473.031,269.925c-1.548-2.196-1.023-5.214,1.152-6.771c2.197-1.542,5.221-1.031,6.778,1.142
				c1.544,2.202,1.021,5.229-1.169,6.777C477.612,272.63,474.588,272.105,473.031,269.925z"/>
		</g>
		<g>
			<path fill="#F4156D" d="M575.693,368.543c-4.469,3.182-10.717,2.131-13.908-2.364c-3.186-4.491-2.129-10.722,2.356-13.904
				c4.492-3.189,10.728-2.133,13.909,2.365C581.25,359.137,580.189,365.353,575.693,368.543z"/>
			<path fill="#F75092" d="M558.847,313.853c-2.072,4.313-7.284,6.14-11.608,4.053s-6.139-7.286-4.057-11.605
				c2.086-4.325,7.291-6.144,11.612-4.051C559.126,304.334,560.938,309.525,558.847,313.853z"/>
			<path fill="#FA8AB6" d="M526.968,282.21c-0.121,4.084-3.548,7.312-7.637,7.186c-4.093-0.123-7.308-3.546-7.187-7.635
				c0.126-4.091,3.551-7.314,7.644-7.184C523.882,274.699,527.098,278.114,526.968,282.21z"/>
			<path fill="#FCC5DB" d="M496.016,268.377c0.781,3.293-1.262,6.609-4.552,7.384c-3.297,0.785-6.6-1.259-7.386-4.553
				c-0.779-3.295,1.264-6.607,4.562-7.385C491.932,263.041,495.24,265.076,496.016,268.377z"/>
			<path fill="#FFFFFF" d="M481.473,265.284c1.025,2.482-0.157,5.327-2.626,6.341c-2.478,1.031-5.312-0.154-6.344-2.629
				c-1.021-2.475,0.159-5.32,2.639-6.343C477.609,261.63,480.454,262.801,481.473,265.284z"/>
		</g>
		<g>
			<path fill="#F4156D" d="M471.763,290.514c-11.961-1.907-20.117-13.137-18.219-25.092c1.885-11.963,13.124-20.128,25.08-18.232
				c11.966,1.904,20.118,13.137,18.232,25.091C494.95,284.247,483.729,292.398,471.763,290.514z"/>
			<path fill="#F63C85" d="M465.42,433.024c-10.743-1.713-18.069-11.8-16.364-22.536c1.692-10.745,11.787-18.079,22.526-16.375
				c10.747,1.71,18.069,11.8,16.376,22.536C486.247,427.394,476.166,434.717,465.42,433.024z"/>
			<path fill="#F8639E" d="M426.648,553.624c-9.525-1.52-16.02-10.462-14.51-19.98c1.5-9.526,10.45-16.029,19.973-14.519
				c9.528,1.517,16.021,10.463,14.52,19.981C445.115,548.631,436.177,555.125,426.648,553.624z"/>
			<path fill="#FA8AB6" d="M370.448,650.348c-8.308-1.327-13.971-9.125-12.655-17.424c1.308-8.309,9.114-13.981,17.418-12.664
				c8.309,1.324,13.971,9.127,12.664,17.427C386.555,645.991,378.757,651.657,370.448,650.348z"/>
			<path fill="#FBB1CE" d="M311.825,721.233c-7.09-1.134-11.923-7.788-10.801-14.868c1.116-7.09,7.777-11.932,14.865-10.807
				c7.091,1.129,11.923,7.789,10.808,14.871C325.571,717.514,318.916,722.352,311.825,721.233z"/>
			<path fill="#FDD8E7" d="M265.785,764.32c-5.872-0.94-9.874-6.449-8.945-12.312c0.923-5.871,6.44-9.883,12.311-8.951
				c5.872,0.936,9.874,6.453,8.951,12.316C277.172,761.238,271.658,765.246,265.785,764.32z"/>
			<path fill="#FFFFFF" d="M247.339,777.646c-4.654-0.747-7.825-5.112-7.091-9.757c0.73-4.654,5.104-7.834,9.757-7.096
				c4.653,0.743,7.825,5.117,7.095,9.762C256.366,775.199,251.993,778.38,247.339,777.646z"/>
		</g>
		<g>
			<path fill="#F4156D" d="M782.999,833.176c2.479-2.624,6.618-2.736,9.257-0.254c2.634,2.498,2.728,6.637,0.238,9.264
				c-2.475,2.625-6.621,2.74-9.242,0.254C780.617,839.955,780.504,835.814,782.999,833.176z"/>
			<path fill="#F75092" d="M738.577,822.238c1.096-3.028,4.446-4.581,7.482-3.482c3.04,1.109,4.578,4.461,3.478,7.49
				c-1.101,3.027-4.453,4.586-7.47,3.486C739.028,828.627,737.465,825.277,738.577,822.238z"/>
			<path fill="#FA8AB6" d="M700.394,826.14c0.157-2.825,2.57-4.98,5.4-4.828c2.841,0.158,4.985,2.581,4.831,5.406
				c-0.154,2.829-2.581,4.989-5.389,4.836C702.397,831.396,700.236,828.979,700.394,826.14z"/>
			<path fill="#FCC5DB" d="M673.664,835.313c-0.328-2.416,1.359-4.63,3.776-4.961c2.43-0.331,4.64,1.365,4.971,3.778
				c0.333,2.424-1.375,4.648-3.765,4.975C676.215,839.438,673.993,837.74,673.664,835.313z"/>
			<path fill="#FFFFFF" d="M663.986,840.554c-0.55-1.974,0.646-3.995,2.622-4.521c1.99-0.533,4.019,0.643,4.535,2.617
				c0.545,1.987-0.665,4.013-2.605,4.541C666.538,843.715,664.489,842.545,663.986,840.554z"/>
		</g>
		<g>
			<path fill="#F4156D" d="M629.441,740.354c-2.91-2.652-3.104-7.179-0.458-10.086c2.673-2.916,7.188-3.133,10.075-0.469
				c2.938,2.656,3.155,7.176,0.48,10.086C636.892,742.798,632.369,743.021,629.441,740.354z"/>
			<path fill="#F75092" d="M655.3,764.676c-0.76-3.381,1.385-6.742,4.759-7.501c3.4-0.755,6.746,1.372,7.5,4.747
				c0.761,3.4-1.351,6.756-4.745,7.512C659.433,770.188,656.062,768.074,655.3,764.676z"/>
			<path fill="#FA8AB6" d="M665.083,797.015c0.483-2.952,3.287-4.95,6.235-4.465c2.967,0.495,4.958,3.278,4.471,6.228
				c-0.49,2.966-3.27,4.976-6.23,4.479C666.608,802.772,664.591,799.979,665.083,797.015z"/>
			<path fill="#FCC5DB" d="M665.411,825.57c0.905-2.35,3.552-3.52,5.902-2.616c2.363,0.914,3.528,3.548,2.623,5.898
				c-0.909,2.362-3.546,3.542-5.902,2.628C665.685,830.577,664.503,827.928,665.411,825.57z"/>
			<path fill="#FFFFFF" d="M664.27,837.848c0.947-1.812,3.197-2.504,5.008-1.55c1.822,0.962,2.519,3.2,1.558,5.01
				c-0.95,1.821-3.199,2.517-5.014,1.558C664.014,841.912,663.307,839.656,664.27,837.848z"/>
		</g>
		<g>
			<path fill="#F4156D" d="M724.674,646.135c-1.172-5.57,2.422-11.035,8.006-12.205c5.604-1.164,11.073,2.432,12.228,8.01
				c1.154,5.605-2.421,11.045-8.013,12.221C731.29,655.332,725.822,651.732,724.674,646.135z"/>
			<path fill="#F75092" d="M685.989,705.004c-2.973-3.748-2.331-9.201,1.423-12.18c3.77-2.982,9.227-2.338,12.192,1.416
				c2.977,3.771,2.339,9.206-1.419,12.19C694.418,709.418,688.959,708.773,685.989,705.004z"/>
			<path fill="#FA8AB6" d="M668.962,769.674c-3.096-2.332-3.713-6.73-1.382-9.83c2.338-3.109,6.74-3.721,9.833-1.393
				c3.104,2.338,3.722,6.73,1.39,9.837C676.467,771.396,672.062,772.013,668.962,769.674z"/>
			<path fill="#FCC5DB" d="M664.991,822.086c-2.599-1.429-3.546-4.691-2.121-7.29c1.426-2.609,4.689-3.552,7.284-2.133
				c2.603,1.423,3.557,4.687,2.131,7.292C670.858,822.561,667.594,823.515,664.991,822.086z"/>
			<path fill="#FFFFFF" d="M666.076,842.992c-1.877-0.841-2.732-3.023-1.906-4.9c0.82-1.885,3.009-2.73,4.884-1.915
				c1.879,0.815,2.743,3.015,1.918,4.896C670.147,842.953,667.961,843.807,666.076,842.992z"/>
		</g>
	</g>
</g>
</svg>
