<?xml version="1.0" encoding="utf-8"?>
<!-- Generator: Adobe Illustrator 16.0.4, SVG Export Plug-In . SVG Version: 6.00 Build 0)  -->
<!DOCTYPE svg PUBLIC "-//W3C//DTD SVG 1.1//EN" "http://www.w3.org/Graphics/SVG/1.1/DTD/svg11.dtd">
<svg version="1.1" id="Capa_1" xmlns="http://www.w3.org/2000/svg" xmlns:xlink="http://www.w3.org/1999/xlink" x="0px" y="0px"
	 width="1044px" height="1064px" viewBox="-148.5 60.322 1044 1064" enable-background="new -148.5 60.322 1044 1064"
	 xml:space="preserve">
<g>
	<g>
		
			<image overflow="visible" width="763" height="510" xlink:href="D6A42DFAC3BEBDC.png"  transform="matrix(1 0 0 1 105.5 273.3223)">
		</image>
	</g>
	<g>
		<path fill="none" stroke="#FFFFFF" stroke-width="2.0052" stroke-miterlimit="10" d="M137.456,893.828
			c0,0,41.578-209.311,167.643-240.551c126.068-31.221,209.88-100.142,209.88-100.142s-302.936-78.166-404.575,52.95"/>
		<path fill="none" stroke="#FFFFFF" stroke-width="2.0052" stroke-miterlimit="10" d="M-104.2,462.803
			c314.303-97.801,619.179,90.333,619.179,90.333"/>
		<path fill="none" stroke="#FFFFFF" stroke-width="2.0052" stroke-miterlimit="10" d="M108.871,342.23
			c145.756,148.446,406.107,210.905,406.107,210.905s-137.258-84.17-277.992-253.125"/>
		<g>
			<path fill="#4491C2" d="M586.902,888.997c-1.271,3.157-4.872,4.664-8.029,3.379c-3.152-1.29-4.648-4.888-3.354-8.024
				c1.272-3.16,4.865-4.69,8.014-3.394C586.686,882.241,588.193,885.85,586.902,888.997z"/>
			<path fill="#559BC8" d="M572.932,875.099c1.841-2.908,5.679-3.794,8.581-1.944c2.907,1.839,3.755,5.691,1.917,8.601
				c-1.836,2.906-5.678,3.77-8.59,1.928C571.936,881.837,571.096,877.997,572.932,875.099z"/>
			<path fill="#66A5CD" d="M569.632,850.274c2.45-2.465,6.434-2.498,8.893-0.039c2.467,2.449,2.462,6.437,0.014,8.904
				c-2.448,2.466-6.426,2.479-8.897,0.026C567.178,856.71,567.185,852.736,569.632,850.274z"/>
			<path fill="#77AFD3" d="M573.09,811.588c3.011-1.81,6.921-0.852,8.725,2.164c1.81,3.011,0.819,6.917-2.191,8.729
				c-3.008,1.811-6.908,0.838-8.723-2.176C569.096,817.289,570.083,813.395,573.09,811.588z"/>
			<path fill="#88B9D8" d="M590.607,760.777c3.396-1.021,6.987,0.903,7.998,4.307c1.02,3.399-0.926,6.975-4.328,7.996
				c-3.396,1.019-6.972-0.91-7.994-4.312C585.271,765.363,587.209,761.791,590.607,760.777z"/>
			<path fill="#99C3DE" d="M620.296,706.375c3.397-1.135,7.083,0.695,8.213,4.1c1.137,3.4-0.715,7.072-4.12,8.211
				c-3.396,1.135-7.067-0.699-8.208-4.103C615.054,711.178,616.896,707.508,620.296,706.375z"/>
			<path fill="#AACDE3" d="M622.338,665.492c2.274-2.812,6.408-3.258,9.223-0.978c2.818,2.275,3.241,6.409,0.962,9.231
				c-2.271,2.813-6.395,3.25-9.217,0.975C620.493,672.437,620.062,668.312,622.338,665.492z"/>
			<path fill="#BBD7E9" d="M604.8,629.687c0.939-3.528,4.566-5.644,8.104-4.705c3.536,0.936,5.633,4.572,4.694,8.116
				c-0.934,3.528-4.555,5.633-8.096,4.7C605.968,636.853,603.866,633.228,604.8,629.687z"/>
			<path fill="#CCE1EE" d="M576.053,599.104c0.068-3.685,3.126-6.632,6.821-6.563c3.693,0.066,6.632,3.13,6.558,6.832
				c-0.061,3.687-3.113,6.621-6.811,6.558C578.926,605.853,575.984,602.804,576.053,599.104z"/>
			<path fill="#DDEBF4" d="M544.446,575.357c-0.451-3.692,2.194-7.07,5.899-7.523c3.702-0.455,7.073,2.193,7.521,5.906
				c0.458,3.694-2.18,7.059-5.886,7.518C548.275,581.701,544.899,579.068,544.446,575.357z"/>
			<path fill="#EEF5F9" d="M518.855,560.125c-0.782-3.673,1.58-7.306,5.267-8.093c3.683-0.788,7.309,1.574,8.091,5.271
				c0.79,3.674-1.562,7.302-5.248,8.086C523.279,566.173,519.644,563.82,518.855,560.125z"/>
			<path fill="#FFFFFF" d="M508.322,554.957c-0.997-3.657,1.154-7.458,4.821-8.477c3.664-1.018,7.462,1.144,8.474,4.823
				c1.018,3.654-1.134,7.445-4.8,8.466C513.148,560.775,509.355,558.63,508.322,554.957z"/>
		</g>
		<path fill="none" stroke="#FFFFFF" stroke-width="2.0052" stroke-miterlimit="10" d="M514.979,553.136
			c0,0-47.81,77.288-20.484,183.659c27.347,106.391-109.306,157.322-109.306,157.322"/>
		<path fill="none" stroke="#FFFFFF" stroke-width="2.0052" stroke-miterlimit="10" d="M514.979,553.136
			c0,0,162.281,78.177,98.894,175.22c-63.39,97.039-32.687,158.326-32.687,158.326"/>
		<path fill="none" stroke="#FFFFFF" stroke-width="2.0052" stroke-miterlimit="10" d="M514.979,553.136
			c0,0,86.169,46.614,160.041,99.3c73.862,52.666,106.609,121.375,106.609,121.375"/>
		<path fill="none" stroke="#FFFFFF" stroke-width="2.0052" stroke-miterlimit="10" d="M514.979,553.136
			c0,0,82.997,12.357,169.283,57.612c86.26,45.24,148.497-2.771,148.497-2.771"/>
		<path fill="none" stroke="#FFFFFF" stroke-width="2.0052" stroke-miterlimit="10" d="M514.979,553.136
			c0,0,92.311,45.177,164.93-6.352c72.604-51.55,81.258-116.387,81.258-116.387"/>
		<path fill="none" stroke="#FFFFFF" stroke-width="2.0052" stroke-miterlimit="10" d="M514.979,553.136
			c0,0,42.911-0.519,69.645-48.983c26.73-48.479-2.469-93.367-2.469-93.367"/>
		<path fill="none" stroke="#FFFFFF" stroke-width="1.0026" stroke-miterlimit="10" d="M137.456,893.828
			c0,0-24.468,20.518-24.866,57.193c-0.424,40.369,42.689,58.49,42.689,58.49"/>
		<path fill="none" stroke="#FFFFFF" stroke-width="1.0026" stroke-miterlimit="10" d="M137.456,893.828
			c0,0-16.854,57.285-84.753,63.467c-73.373,6.674-103.939-44.264-103.939-44.264"/>
		<path fill="none" stroke="#FFFFFF" stroke-width="1.0026" stroke-miterlimit="10" d="M137.456,893.828
			c0,0-42.179,0.445-65.27-27.611c-29.225-35.5-16.574-68.023-16.574-68.023"/>
		<path fill="none" stroke="#FFFFFF" stroke-width="1.0026" stroke-miterlimit="10" d="M137.456,893.828
			c0,0,34.319-44.795,80.051-73.373c45.725-28.557,84.2,9.596,84.2,9.596"/>
		<path fill="none" stroke="#FFFFFF" stroke-width="1.0026" stroke-miterlimit="10" d="M251.891,1049.277
			c0,0,35.891-65.014-3.392-117.619c-39.284-52.602-111.043-37.83-111.043-37.83"/>
		<path fill="none" stroke="#FFFFFF" stroke-width="1.0026" stroke-miterlimit="10" d="M582.921,887.268
			c0,0,21.738,155.496,108.919,207.416"/>
		<path fill="none" stroke="#FFFFFF" stroke-width="1.0026" stroke-miterlimit="10" d="M582.921,887.268
			c0,0,20.068,68.604-25.897,119.688"/>
		<path fill="none" stroke="#FFFFFF" stroke-width="1.0026" stroke-miterlimit="10" d="M582.921,887.268
			c0,0,136.868,24.162,178.487,111.943"/>
		<path fill="none" stroke="#FFFFFF" stroke-width="1.0026" stroke-miterlimit="10" d="M582.921,887.268
			c0,0,71.322,36.264,111.316-8.889"/>
		<path fill="none" stroke="#FFFFFF" stroke-width="1.0026" stroke-miterlimit="10" d="M582.154,410.786
			c0,0,86.285,21.374,122.701-49.876"/>
		<path fill="none" stroke="#FFFFFF" stroke-width="1.0026" stroke-miterlimit="10" d="M582.154,410.786
			c0,0-23.379-90.56,46.123-151.639"/>
		<path fill="none" stroke="#FFFFFF" stroke-width="1.0026" stroke-miterlimit="10" d="M506.625,425.237
			c45.009,24.938,75.529-14.452,75.529-14.452s-4.613-74.089-81.1-87.427"/>
		<g>
			<path fill="#4491C2" d="M271.848,360.731c0.468,1.959-0.742,3.874-2.669,4.327c-1.952,0.435-3.881-0.763-4.322-2.695
				c-0.442-1.929,0.751-3.871,2.684-4.305C269.468,357.603,271.405,358.795,271.848,360.731z"/>
			<path fill="#73ADD1" d="M249.958,344.935c-1.583,0.315-3.121-0.712-3.433-2.281c-0.312-1.565,0.705-3.106,2.272-3.423
				c1.575-0.318,3.112,0.685,3.429,2.263C252.546,343.094,251.535,344.622,249.958,344.935z"/>
			<path fill="#A2C8E1" d="M241.792,324.243c-1.457,0.575-3.107-0.144-3.684-1.586c-0.574-1.439,0.137-3.098,1.583-3.676
				c1.454-0.581,3.108,0.114,3.682,1.577C243.948,322.023,243.249,323.668,241.792,324.243z"/>
			<path fill="#D0E4F0" d="M240.362,308.277c-1.569,1.037-3.682,0.608-4.726-0.944c-1.042-1.545-0.615-3.671,0.946-4.716
				c1.561-1.045,3.679-0.637,4.721,0.943C242.335,305.124,241.928,307.235,240.362,308.277z"/>
			<path fill="#FFFFFF" d="M241.471,302.175c-1.829,1.585-4.59,1.385-6.182-0.424c-1.588-1.8-1.39-4.571,0.432-6.167
				c1.821-1.583,4.583-1.414,6.172,0.429C243.465,297.826,243.296,300.592,241.471,302.175z"/>
		</g>
		<path fill="none" stroke="#FFFFFF" stroke-width="0.5992" stroke-miterlimit="10" d="M238.621,298.881
			c0,0-42.422,116.624-160.937,98.441"/>
		<path fill="none" stroke="#FFFFFF" stroke-width="0.5992" stroke-miterlimit="10" d="M238.621,298.881
			c0,0-4.213,39.742,29.745,62.69"/>
		<path fill="none" stroke="#FFFFFF" stroke-width="0.5992" stroke-miterlimit="10" d="M238.621,298.881
			c0,0-104.515-44.086-102.542-145.64"/>
		<path fill="none" stroke="#FFFFFF" stroke-width="0.5761" stroke-miterlimit="10" d="M238.621,298.881
			c0,0,23.735-71.471,97.093-68.26"/>
		<path fill="none" stroke="#FFFFFF" stroke-width="2.0052" stroke-miterlimit="10" d="M434.721,89.306
			c0,0-27.417,109.098-4.498,228.466c22.934,119.37,84.756,235.364,84.756,235.364"/>
		<g>
			<path fill="#4491C2" d="M124.5,607.941c-1.055,7.717-8.186,13.09-15.894,12.039c-7.706-1.039-13.121-8.18-12.051-15.882
				c1.06-7.721,8.174-13.11,15.899-12.038C120.16,593.117,125.561,600.222,124.5,607.941z"/>
			<path fill="#5299C7" d="M166.363,574.327c-3.683,6.514-11.958,8.78-18.464,5.101c-6.51-3.662-8.808-11.959-5.118-18.455
				c3.688-6.518,11.955-8.801,18.47-5.1C167.756,559.552,170.052,567.813,166.363,574.327z"/>
			<path fill="#61A2CB" d="M219.798,553.391c-5.081,5.067-13.313,5.03-18.374-0.052c-5.069-5.06-5.053-13.32,0.031-18.369
				c5.09-5.069,13.316-5.047,18.381,0.051C224.897,540.1,224.887,548.325,219.798,553.391z"/>
			<path fill="#6FAAD0" d="M280.607,542.97c-5.668,3.884-13.414,2.415-17.289-3.256c-3.891-5.646-2.435-13.421,3.233-17.287
				c5.678-3.886,13.421-2.428,17.298,3.254C287.73,531.348,286.283,539.089,280.607,542.97z"/>
			<path fill="#7EB3D5" d="M343.747,540.875c-5.842,2.995-12.998,0.664-15.997-5.177c-2.993-5.829-0.688-13.018,5.152-15.998
				c5.853-2.997,13.018-0.68,16.009,5.176C351.904,530.716,349.596,537.88,343.747,540.875z"/>
			<path fill="#8CBBD9" d="M403.979,544.561c-5.812,2.33-12.402-0.513-14.735-6.326c-2.328-5.798,0.491-12.423,6.3-14.738
				c5.822-2.332,12.425,0.5,14.749,6.324C412.622,535.631,409.797,542.231,403.979,544.561z"/>
			<path fill="#9AC4DE" d="M456.07,551.288c-5.673,1.818-11.736-1.326-13.557-7.004c-1.815-5.66,1.306-11.756,6.976-13.561
				c5.687-1.818,11.763,1.317,13.574,7.001C464.882,543.399,461.752,549.471,456.07,551.288z"/>
			<path fill="#A9CCE3" d="M494.833,558.227c-5.477,1.411-11.051-1.9-12.464-7.383c-1.407-5.463,1.883-11.069,7.354-12.468
				c5.49-1.411,11.077,1.896,12.482,7.38C503.618,551.234,500.316,556.818,494.833,558.227z"/>
			<path fill="#B7D5E8" d="M515.103,562.505c-5.243,1.079-10.36-2.312-11.439-7.564c-1.075-5.23,2.294-10.379,7.532-11.447
				c5.259-1.078,10.39,2.31,11.463,7.561C523.737,556.303,520.354,561.428,515.103,562.505z"/>
			<path fill="#C5DDEC" d="M502.871,552.463c2.381-4.455,7.928-6.125,12.395-3.737c4.443,2.377,6.15,7.925,3.764,12.373
				c-2.391,4.469-7.948,6.148-12.406,3.761C502.16,562.477,500.483,556.926,502.871,552.463z"/>
			<path fill="#D4E6F1" d="M479.213,569.294c2.599-3.979,7.936-5.088,11.926-2.478c3.966,2.594,5.11,7.934,2.508,11.906
				c-2.611,3.992-7.96,5.107-11.941,2.502C477.718,578.622,476.606,573.28,479.213,569.294z"/>
			<path fill="#E2EEF6" d="M435.997,595.107c2.823-3.445,7.908-3.946,11.366-1.107c3.432,2.817,3.966,7.908,1.14,11.348
				c-2.838,3.459-7.938,3.961-11.385,1.133C433.662,603.652,433.167,598.56,435.997,595.107z"/>
			<path fill="#F1F7FA" d="M375.823,623.366c3.041-2.837,7.809-2.672,10.658,0.389c2.824,3.033,2.689,7.809-0.353,10.641
				c-3.057,2.851-7.84,2.683-10.68-0.362C372.601,630.987,372.776,626.211,375.823,623.366z"/>
			<path fill="#FFFFFF" d="M299.309,657.292c-2.147-3.231-1.251-7.586,1.98-9.727c3.223-2.135,7.598-1.274,9.713,1.992
				c2.15,3.194,1.271,7.571-1.953,9.702C305.809,661.405,301.445,660.518,299.309,657.292z"/>
			<path fill="#F2F8FB" d="M281.012,659.666c2.149,1.907,2.383,5.217,0.469,7.377c-1.927,2.177-5.25,2.378-7.415,0.463
				c-2.176-1.915-2.369-5.234-0.45-7.406C275.529,657.939,278.834,657.734,281.012,659.666z"/>
			<path fill="#E4F0F7" d="M254.306,675.881c1.719,0.831,2.474,2.906,1.639,4.634c-0.842,1.746-2.935,2.471-4.668,1.641
				c-1.74-0.833-2.465-2.925-1.629-4.665C250.482,675.766,252.559,675.036,254.306,675.881z"/>
			<path fill="#D7E9F3" d="M230.879,696.854c0.992,0.043,1.782,0.872,1.739,1.865c-0.044,1.011-0.897,1.782-1.894,1.747
				c-1.004-0.036-1.779-0.891-1.739-1.895C229.028,697.583,229.873,696.812,230.879,696.854z"/>
			<path fill="#C9E1EE" d="M210.563,721.288c0.104-0.519,0.579-0.833,1.067-0.734c0.492,0.101,0.805,0.587,0.71,1.077
				c-0.097,0.508-0.577,0.802-1.072,0.707C210.783,722.246,210.471,721.751,210.563,721.288z"/>
			<path fill="#BCDAEA" d="M193.169,747.957c-0.908-0.84-0.946-2.221-0.125-3.108c0.817-0.881,2.203-0.937,3.089-0.112
				c0.895,0.832,0.93,2.195,0.113,3.084C195.426,748.712,194.036,748.758,193.169,747.957z"/>
			<path fill="#AED3E6" d="M178.449,775.723c-1.926-1.008-2.651-3.361-1.653-5.269c0.994-1.899,3.349-2.644,5.255-1.642
				c1.916,1.007,2.629,3.343,1.638,5.25C182.695,775.976,180.333,776.709,178.449,775.723z"/>
			<path fill="#A1CBE2" d="M166.227,803.488c-2.955-1.069-4.461-4.311-3.403-7.249c1.064-2.93,4.302-4.462,7.241-3.393
				c2.948,1.071,4.439,4.297,3.383,7.233C172.388,803.025,169.143,804.544,166.227,803.488z"/>
			<path fill="#93C4DE" d="M156.332,830.174c-3.984-1.054-6.342-5.116-5.301-9.085c1.05-3.961,5.11-6.344,9.078-5.29
				c3.982,1.057,6.319,5.106,5.279,9.072C164.347,828.848,160.278,831.217,156.332,830.174z"/>
			<path fill="#86BDDA" d="M148.61,854.71c-5.008-0.977-8.262-5.809-7.296-10.802c0.975-4.988,5.805-8.266,10.8-7.288
				c5.01,0.981,8.234,5.803,7.271,10.794C158.42,852.417,153.584,855.681,148.61,854.71z"/>
			<path fill="#78B5D5" d="M142.916,876.038c-6.024-0.867-10.205-6.414-9.361-12.426c0.855-6.009,6.414-10.213,12.429-9.354
				c6.033,0.86,10.177,6.412,9.335,12.422C154.475,872.701,148.911,876.879,142.916,876.038z"/>
			<path fill="#6BAED1" d="M139.117,893.096c-7.037-0.712-12.165-6.953-11.474-13.975c0.7-7.022,6.954-12.175,13.98-11.471
				c7.048,0.707,12.133,6.953,11.446,13.977C152.383,888.661,146.125,893.787,139.117,893.096z"/>
			<path fill="#5DA6CD" d="M137.084,904.828c-8.042-0.53-14.132-7.439-13.624-15.466c0.52-8.027,7.441-14.145,15.475-13.621
				c8.055,0.526,14.096,7.442,13.592,15.47C152.022,899.251,145.097,905.34,137.084,904.828z"/>
			<path fill="#509FC9" d="M153.572,894.384c-0.283,9.039-7.874,16.103-16.886,15.788c-9.039-0.326-16.105-7.881-15.797-16.904
				c0.319-9.029,7.885-16.103,16.918-15.799C146.863,877.812,153.894,885.358,153.572,894.384z"/>
		</g>
		<g>
			<path fill="#4491C2" d="M-89.172,470.152c-4.061,8.315-14.079,11.742-22.382,7.692c-8.331-4.063-11.762-14.075-7.727-22.405
				c4.083-8.3,14.096-11.726,22.415-7.678C-88.564,451.814-85.113,461.837-89.172,470.152z"/>
			<path fill="#5098C6" d="M-27.932,455.469c-4.725,7.531-14.645,9.786-22.165,5.072c-7.547-4.728-9.831-14.656-5.105-22.19
				c4.722-7.528,14.659-9.77,22.194-5.057C-25.487,438.01-23.21,447.936-27.932,455.469z"/>
			<path fill="#5DA0CA" d="M32.516,447.256c-5.218,6.743-14.899,7.963-21.634,2.757c-6.759-5.222-8.006-14.915-2.788-21.662
				c5.214-6.742,14.913-7.949,21.661-2.742C36.492,430.821,37.731,440.508,32.516,447.256z"/>
			<path fill="#69A7CE" d="M91.711,444.696c-5.553,5.983-14.888,6.319-20.865,0.777c-5.999-5.557-6.36-14.908-0.805-20.896
				c5.549-5.982,14.901-6.305,20.889-0.762C96.911,429.362,97.262,438.705,91.711,444.696z"/>
			<path fill="#76AED2" d="M149.165,446.981c-5.75,5.271-14.667,4.871-19.932-0.866c-5.286-5.755-4.911-14.69,0.841-19.965
				c5.746-5.269,14.678-4.858,19.953,0.882C155.299,432.776,154.914,441.701,149.165,446.981z"/>
			<path fill="#82B6D6" d="M204.373,453.311c-5.829,4.616-14.283,3.622-18.894-2.196c-4.631-5.836-3.661-14.308,2.172-18.929
				c5.825-4.615,14.294-3.611,18.915,2.21C211.185,440.223,210.203,448.682,204.373,453.311z"/>
			<path fill="#8FBDDA" d="M256.817,462.88c-5.815,4.025-13.779,2.564-17.8-3.241c-4.04-5.822-2.601-13.806,3.219-17.836
				c5.812-4.023,13.79-2.553,17.818,3.253C264.084,450.873,262.635,458.841,256.817,462.88z"/>
			<path fill="#9BC4DE" d="M305.971,474.881c-5.727,3.496-13.189,1.679-16.683-4.037c-3.51-5.733-1.716-13.219,4.017-16.719
				c5.723-3.495,13.201-1.67,16.699,4.048C313.508,463.903,311.702,471.369,305.971,474.881z"/>
			<path fill="#A8CCE3" d="M351.305,488.5c-5.578,3.026-12.541,0.95-15.564-4.618c-3.04-5.585-0.985-12.572,4.6-15.602
				c5.574-3.025,12.552-0.942,15.579,4.626C358.956,478.492,356.888,485.456,351.305,488.5z"/>
			<path fill="#B4D3E7" d="M392.283,502.917c-5.383,2.611-11.852,0.357-14.461-5.017c-2.625-5.39-0.39-11.883,5-14.499
				c5.378-2.609,11.863-0.35,14.475,5.024C399.919,493.818,397.673,500.287,392.283,502.917z"/>
			<path fill="#C1DAEB" d="M428.371,517.309c-5.15,2.244-11.137-0.118-13.38-5.261c-2.258-5.159,0.086-11.17,5.245-13.419
				c5.146-2.243,11.149,0.123,13.394,5.266C435.888,509.06,433.532,515.043,428.371,517.309z"/>
			<path fill="#CDE2EF" d="M459.035,530.846c-4.89,1.923-10.406-0.49-12.327-5.374c-1.937-4.898,0.459-10.44,5.358-12.367
				c4.887-1.921,10.42,0.494,12.342,5.376C466.345,523.39,463.939,528.9,459.035,530.846z"/>
			<path fill="#DAE9F3" d="M483.742,542.698c-4.609,1.639-9.668-0.774-11.307-5.376c-1.653-4.616,0.742-9.702,5.362-11.345
				c4.604-1.638,9.682,0.776,11.318,5.375C490.771,535.981,488.364,541.034,483.742,542.698z"/>
			<path fill="#E6F0F7" d="M501.954,552.028c-4.308,1.399-8.926-0.982-10.316-5.285c-1.403-4.317,0.952-8.961,5.271-10.355
				c4.306-1.389,8.941,0.982,10.33,5.282C508.646,546.004,506.281,550.62,501.954,552.028z"/>
			<path fill="#F3F8FB" d="M513.141,558.004c-3.992,1.182-8.182-1.123-9.354-5.114c-1.186-4.003,1.094-8.22,5.102-9.395
				c3.991-1.171,8.2,1.123,9.368,5.11C519.445,552.629,517.159,556.815,513.141,558.004z"/>
			<path fill="#FFFFFF" d="M516.771,559.785c-3.673,0.981-7.442-1.207-8.423-4.875c-0.995-3.68,1.184-7.461,4.863-8.463
				c3.673-0.961,7.461,1.205,8.437,4.868C522.647,555.019,520.465,558.776,516.771,559.785z"/>
		</g>
		<g>
			<path fill="#509FC9" d="M597.152,405.132c3.115,8.257-1.047,17.492-9.319,20.62c-8.276,3.13-17.526-1.048-20.642-9.302
				c-3.138-8.291,1.025-17.534,9.32-20.666C584.779,392.677,594.027,396.833,597.152,405.132z"/>
			<path fill="#73B2D4" d="M576.099,429.823c-0.954-7.798,4.571-14.872,12.37-15.823c7.773-0.934,14.855,4.59,15.797,12.391
				c0.949,7.761-4.582,14.835-12.357,15.786C584.125,443.127,577.042,437.583,576.099,429.823z"/>
			<path fill="#96C5DF" d="M583.627,466.889c2.203-6.485,9.211-9.945,15.693-7.745c6.46,2.207,9.928,9.222,7.715,15.702
				c-2.184,6.452-9.207,9.913-15.668,7.72C584.897,480.369,581.433,473.336,583.627,466.889z"/>
			<path fill="#B9D9E9" d="M564.619,515.368c4.715-3.449,11.291-2.434,14.742,2.272c3.431,4.706,2.409,11.288-2.301,14.736
				c-4.683,3.428-11.276,2.414-14.71-2.276C558.909,525.398,559.934,518.793,564.619,515.368z"/>
			<path fill="#DCECF4" d="M532.325,540.691c4.802-0.556,9.11,2.852,9.677,7.643c0.55,4.789-2.872,9.099-7.664,9.662
				c-4.766,0.56-9.095-2.862-9.653-7.631C524.128,545.579,527.56,541.244,532.325,540.691z"/>
			<path fill="#FFFFFF" d="M516.375,546.393c3.746,0.777,6.128,4.396,5.368,8.134c-0.776,3.738-4.417,6.133-8.151,5.352
				c-3.718-0.74-6.117-4.404-5.354-8.117C509.008,548.029,512.661,545.625,516.375,546.393z"/>
		</g>
		<g>
			<path fill="#509FC9" d="M765.945,428.8c0.859,2.633-0.558,5.476-3.172,6.343c-2.643,0.868-5.49-0.562-6.341-3.203
				c-0.882-2.621,0.55-5.448,3.17-6.314C762.234,424.754,765.079,426.169,765.945,428.8z"/>
			<path fill="#60A8CE" d="M758.628,432.395c2.802-0.594,5.563,1.185,6.153,3.988c0.585,2.802-1.194,5.561-3.981,6.154
				c-2.814,0.593-5.561-1.202-6.153-4.01C754.057,435.729,755.833,432.989,758.628,432.395z"/>
			<path fill="#70B0D3" d="M753.191,450.9c2.948-0.214,5.523,1.994,5.734,4.948c0.207,2.948-2,5.519-4.937,5.736
				c-2.963,0.213-5.523-2.008-5.735-4.964C748.043,453.673,750.245,451.116,753.191,450.9z"/>
			<path fill="#80B9D8" d="M740.697,477.525c3.034,0.282,5.28,2.968,4.993,6.011c-0.288,3.035-2.969,5.275-5.996,4.999
				c-3.052-0.285-5.282-2.979-4.996-6.024C734.983,479.476,737.658,477.245,740.697,477.525z"/>
			<path fill="#90C2DD" d="M718.516,508.673c3.013,0.884,4.755,4.044,3.863,7.069c-0.889,3.013-4.04,4.75-7.051,3.872
				c-3.032-0.889-4.76-4.053-3.869-7.079C712.346,509.521,715.495,507.789,718.516,508.673z"/>
			<path fill="#A0CBE2" d="M683.943,540.729c2.843,1.537,3.917,5.096,2.368,7.95c-1.541,2.845-5.088,3.915-7.933,2.384
				c-2.863-1.546-3.924-5.104-2.377-7.96C677.543,540.257,681.089,539.188,683.943,540.729z"/>
			<path fill="#AFD3E6" d="M647.797,560.721c2.277,2.421,2.173,6.245-0.266,8.532c-2.423,2.279-6.233,2.177-8.517-0.241
				c-2.298-2.436-2.185-6.254,0.252-8.544C641.693,558.187,645.505,558.29,647.797,560.721z"/>
			<path fill="#BFDCEB" d="M611.058,568.358c1.619,3.007,0.501,6.777-2.53,8.403c-3.01,1.623-6.766,0.512-8.395-2.498
				c-1.638-3.029-0.515-6.792,2.515-8.421C605.664,564.219,609.425,565.331,611.058,568.358z"/>
			<path fill="#CFE5F0" d="M576.779,567.444c1.049,3.347-0.814,6.933-4.189,7.984c-3.352,1.053-6.923-0.798-7.98-4.152
				c-1.064-3.374,0.799-6.953,4.172-8.008C572.139,562.218,575.719,564.071,576.779,567.444z"/>
			<path fill="#DFEEF5" d="M548.315,561.915c0.6,3.548-1.794,6.938-5.375,7.537c-3.555,0.606-6.93-1.772-7.539-5.333
				c-0.615-3.58,1.776-6.962,5.354-7.567C544.319,555.95,547.704,558.333,548.315,561.915z"/>
			<path fill="#EFF6FA" d="M528.946,555.806c0.254,3.682-2.533,6.9-6.251,7.15c-3.689,0.262-6.894-2.506-7.157-6.205
				c-0.269-3.717,2.516-6.93,6.229-7.187C525.467,549.31,528.685,552.085,528.946,555.806z"/>
			<path fill="#FFFFFF" d="M515.019,546.243c3.803,0.009,6.887,3.097,6.874,6.925c-0.017,3.782-3.109,6.863-6.932,6.839
				c-3.792-0.008-6.858-3.08-6.851-6.882C508.114,549.304,511.201,546.218,515.019,546.243z"/>
		</g>
		<g>
			<path fill="#FFFFFF" d="M508.582,550.671c1.363-3.583,5.353-5.335,8.915-3.97c3.556,1.371,5.312,5.37,3.93,8.917
				c-1.356,3.561-5.35,5.312-8.899,3.945C508.962,558.195,507.224,554.213,508.582,550.671z"/>
			<path fill="#EFF6FA" d="M502.972,540.294c1.591-3.86,5.989-5.659,9.83-4.069c3.836,1.599,5.626,6,4.031,9.834
				c-1.595,3.834-5.986,5.636-9.815,4.043C503.173,548.509,501.388,544.118,502.972,540.294z"/>
			<path fill="#DFEEF5" d="M489.337,512.292c1.858-4.117,6.683-5.911,10.781-4.054c4.094,1.865,5.881,6.692,4.02,10.786
				c-1.86,4.091-6.682,5.889-10.77,4.03C489.266,521.193,487.486,516.377,489.337,512.292z"/>
			<path fill="#CFE5F0" d="M470.892,470.211c2.183-4.342,7.452-6.059,11.775-3.879c4.32,2.19,6.031,7.461,3.845,11.784
				c-2.182,4.316-7.45,6.036-11.765,3.853C470.421,479.783,468.717,474.523,470.892,470.211z"/>
			<path fill="#BFDCEB" d="M450.868,417.581c2.587-4.513,8.321-6.046,12.816-3.465c4.493,2.593,6.029,8.333,3.433,12.827
				c-2.575,4.492-8.32,6.024-12.808,3.439C449.812,427.793,448.291,422.068,450.868,417.581z"/>
			<path fill="#AFD3E6" d="M432.532,357.916c3.103-4.595,9.322-5.779,13.9-2.685c4.576,3.108,5.765,9.331,2.655,13.911
				c-3.09,4.573-9.32,5.758-13.892,2.66C430.615,368.698,429.441,362.489,432.532,357.916z"/>
			<path fill="#A0CBE2" d="M419.09,293.265c3.812-4.487,10.516-5.016,14.988-1.217c4.469,3.814,5.001,10.522,1.186,14.999
				c-3.794,4.467-10.513,4.995-14.978,1.191C415.812,304.427,415.293,297.734,419.09,293.265z"/>
			<path fill="#90C2DD" d="M413.735,226.837c4.583-4.219,11.696-3.911,15.903,0.658c4.203,4.585,3.897,11.701-0.689,15.915
				c-4.563,4.199-11.691,3.889-15.892-0.686C408.852,238.144,409.167,231.044,413.735,226.837z"/>
			<path fill="#80B9D8" d="M415.22,167.99c5.234-3.972,12.679-2.939,16.64,2.279c3.958,5.238,2.93,12.683-2.311,16.654
				c-5.213,3.954-12.673,2.918-16.629-2.307C408.96,179.386,409.999,171.955,415.22,167.99z"/>
			<path fill="#70B0D3" d="M420.315,120.731c5.805-3.757,13.537-2.093,17.286,3.693c3.744,5.807,2.085,13.54-3.725,17.3
				c-5.78,3.741-13.53,2.073-17.273-3.722C412.857,132.204,414.525,124.484,420.315,120.731z"/>
			<path fill="#60A8CE" d="M425.82,89.082c6.315-3.574,14.316-1.35,17.886,4.945c3.562,6.317,1.344,14.319-4.978,17.901
				c-6.29,3.56-14.311,1.331-17.874-4.975C417.291,100.644,419.519,92.656,425.82,89.082z"/>
			<path fill="#509FC9" d="M428.535,77.083c6.785-3.419,15.046-0.692,18.462,6.073c3.409,6.789,0.688,15.049-6.106,18.481
				c-6.759,3.406-15.04,0.671-18.45-6.104C419.03,88.752,421.76,80.506,428.535,77.083z"/>
		</g>
		<g>
			<path fill="#4491C2" d="M384.813,904.004c-5.491-0.25-9.69-4.873-9.434-10.354c0.266-5.504,4.9-9.706,10.387-9.462
				c5.46,0.254,9.69,4.916,9.44,10.389C394.925,900.047,390.284,904.273,384.813,904.004z"/>
			<path fill="#559BC8" d="M395.656,879.885c5.312-0.167,9.777,4.033,9.932,9.357c0.155,5.325-4.04,9.761-9.362,9.922
				c-5.343,0.162-9.761-3.998-9.926-9.328C386.142,884.479,390.318,880.059,395.656,879.885z"/>
			<path fill="#66A5CD" d="M420.444,866.408c5.11-0.749,9.881,2.813,10.619,7.933c0.739,5.124-2.819,9.866-7.938,10.61
				c-5.14,0.749-9.864-2.783-10.613-7.906C411.768,871.894,415.312,867.165,420.444,866.408z"/>
			<path fill="#77AFD3" d="M450.62,843.808c4.755-1.594,9.922,0.993,11.505,5.755c1.587,4.771-0.998,9.908-5.761,11.498
				c-4.782,1.596-9.902-0.971-11.497-5.733C443.271,850.534,445.848,845.41,450.62,843.808z"/>
			<path fill="#88B9D8" d="M476.726,812.414c3.984-2.791,9.499-1.803,12.278,2.189c2.788,4.002,1.795,9.487-2.195,12.274
				c-4.011,2.8-9.479,1.817-12.27-2.172C471.734,820.687,472.727,815.213,476.726,812.414z"/>
			<path fill="#99C3DE" d="M489.947,772.845c2.379-4.069,7.633-5.423,11.693-3.032c4.074,2.397,5.415,7.626,3.027,11.691
				c-2.398,4.088-7.616,5.429-11.683,3.047C488.89,782.146,487.555,776.924,489.947,772.845z"/>
			<path fill="#AACDE3" d="M483.429,722.315c0.896-4.474,5.279-7.363,9.746-6.453c4.485,0.913,7.354,5.275,6.449,9.747
				c-0.91,4.496-5.267,7.364-9.736,6.465C485.383,731.162,482.521,726.8,483.429,722.315z"/>
			<path fill="#BBD7E9" d="M478.761,664.691c1.765-4.046,6.498-5.873,10.529-4.099c4.053,1.784,5.866,6.491,4.095,10.53
				c-1.782,4.062-6.491,5.875-10.525,4.111C478.789,673.449,476.982,668.74,478.761,664.691z"/>
			<path fill="#CCE1EE" d="M484.517,616.413c2.384-3.534,7.197-4.435,10.713-2.046c3.539,2.404,4.435,7.188,2.046,10.713
				c-2.404,3.547-7.197,4.44-10.717,2.062C483.004,624.734,482.117,619.944,484.517,616.413z"/>
			<path fill="#DDEBF4" d="M495.32,579.488c2.783-3.028,7.495-3.205,10.507-0.427c3.034,2.8,3.206,7.487,0.428,10.507
				c-2.799,3.042-7.502,3.208-10.518,0.44C492.688,587.207,492.534,582.519,495.32,579.488z"/>
			<path fill="#EEF5F9" d="M505.886,555.86c3.007-2.582,7.528-2.214,10.094,0.782c2.587,3.022,2.219,7.521-0.779,10.095
				c-3.021,2.593-7.542,2.215-10.11-0.771C502.488,562.941,502.879,558.441,505.886,555.86z"/>
			<path fill="#FFFFFF" d="M510.981,547.473c3.104-2.212,7.396-1.437,9.592,1.654c2.197,3.134,1.465,7.42-1.651,9.594
				c-3.111,2.233-7.423,1.439-9.613-1.646C507.089,553.945,507.864,549.663,510.981,547.473z"/>
		</g>
		<g>
			<path fill="#509FC9" d="M843.89,606.042c1.075,6.128-3.046,11.949-9.165,13.059c-6.157,1.036-11.988-3.082-13.05-9.195
				c-1.073-6.144,3.04-11.988,9.174-13.062C836.985,595.789,842.828,599.888,843.89,606.042z"/>
			<path fill="#69ADD1" d="M805.639,616.949c0.279-5.883,5.274-10.422,11.15-10.145c5.874,0.293,10.412,5.274,10.121,11.165
				c-0.274,5.869-5.274,10.422-11.142,10.145C809.882,627.837,805.356,622.805,805.639,616.949z"/>
			<path fill="#82BAD8" d="M761.954,625.735c2.122-5.119,7.99-7.55,13.107-5.429c5.11,2.128,7.54,7.984,5.406,13.107
				c-2.113,5.111-7.993,7.552-13.101,5.437C762.244,636.728,759.836,630.833,761.954,625.735z"/>
			<path fill="#9BC8E0" d="M698.02,612.731c3.901-3.431,9.843-3.053,13.271,0.85c3.424,3.903,3.048,9.831-0.865,13.261
				c-3.891,3.428-9.849,3.052-13.271-0.839C693.723,622.101,694.128,616.146,698.02,612.731z"/>
			<path fill="#B4D6E8" d="M628.232,580.834c3.701-3.131,9.238-2.676,12.369,1.03c3.129,3.701,2.674,9.222-1.037,12.354
				c-3.691,3.13-9.246,2.678-12.372-1.016C624.061,589.503,624.539,583.954,628.232,580.834z"/>
			<path fill="#CDE4F0" d="M568.054,561.204c3.125-3.24,8.28-3.343,11.522-0.212c3.242,3.123,3.34,8.263,0.208,11.506
				c-3.116,3.239-8.29,3.346-11.525,0.228C565.02,569.606,564.933,564.436,568.054,561.204z"/>
			<path fill="#E6F1F7" d="M525.453,551.382c2.65-3.198,7.388-3.656,10.59-0.995c3.205,2.646,3.651,7.368,0.996,10.571
				c-2.643,3.198-7.399,3.659-10.594,1.014C523.248,559.326,522.803,554.576,525.453,551.382z"/>
			<path fill="#FFFFFF" d="M509.44,549.059c2.256-3.066,6.565-3.738,9.638-1.468c3.076,2.25,3.733,6.543,1.473,9.615
				c-2.25,3.067-6.576,3.737-9.643,1.49C507.85,556.44,507.18,552.124,509.44,549.059z"/>
		</g>
		<g>
			<path fill="#509FC9" d="M782.989,776.522c-1.485,0.77-3.349,0.182-4.101-1.288c-0.807-1.52-0.227-3.368,1.266-4.135
				c1.517-0.784,3.387-0.193,4.146,1.293C785.092,773.896,784.492,775.724,782.989,776.522z"/>
			<path fill="#69ADD1" d="M770.027,753.727c1.679-1.105,3.927-0.64,5.015,1.01c1.101,1.669,0.64,3.897-1.026,5.004
				c-1.649,1.096-3.896,0.621-4.977-1.015C767.927,757.043,768.374,754.812,770.027,753.727z"/>
			<path fill="#82BAD8" d="M739.593,712.298c1.729-1.534,4.36-1.376,5.878,0.329c1.529,1.719,1.373,4.341-0.341,5.871
				c-1.706,1.525-4.34,1.358-5.851-0.34C737.741,716.428,737.889,713.811,739.593,712.298z"/>
			<path fill="#9BC8E0" d="M687.351,661.852c1.57-2.088,4.52-2.504,6.591-0.95c2.08,1.562,2.497,4.511,0.942,6.588
				c-1.556,2.079-4.514,2.49-6.576,0.935C686.217,666.856,685.801,663.915,687.351,661.852z"/>
			<path fill="#B4D6E8" d="M625.322,619.068c1.504-2.496,4.724-3.296,7.208-1.807c2.488,1.492,3.293,4.726,1.805,7.207
				c-1.493,2.489-4.725,3.284-7.204,1.79C624.638,624.758,623.839,621.542,625.322,619.068z"/>
			<path fill="#CDE4F0" d="M568.393,583.914c1.554-2.815,5.073-3.837,7.877-2.289c2.81,1.538,3.826,5.078,2.293,7.875
				c-1.555,2.812-5.078,3.823-7.885,2.273C567.872,590.22,566.859,586.706,568.393,583.914z"/>
			<path fill="#E6F1F7" d="M525.84,559.378c1.621-3.122,5.439-4.333,8.555-2.715c3.112,1.605,4.326,5.454,2.724,8.552
				c-1.624,3.122-5.45,4.323-8.57,2.702C525.441,566.292,524.239,562.476,525.84,559.378z"/>
			<path fill="#FFFFFF" d="M508.817,550.074c1.7-3.419,5.819-4.809,9.238-3.111c3.409,1.683,4.807,5.842,3.126,9.234
				c-1.707,3.426-5.835,4.803-9.264,3.1C508.519,557.592,507.142,553.471,508.817,550.074z"/>
		</g>
		<g>
			<path fill="#FFFFFF" d="M141.859,891.214c1.399,2.429,0.588,5.567-1.847,7.014c-2.456,1.405-5.583,0.568-6.999-1.876
				c-1.405-2.446-0.582-5.548,1.847-6.972C137.325,887.976,140.425,888.777,141.859,891.214z"/>
			<path fill="#E6F1F7" d="M157.271,890.273c1,2.53-0.236,5.441-2.783,6.452c-2.554,1.014-5.433-0.262-6.435-2.81
				c-0.995-2.548,0.24-5.414,2.78-6.413C153.392,886.497,156.263,887.729,157.271,890.273z"/>
			<path fill="#CDE4F0" d="M193.256,894.139c0.31,2.619-1.572,5.032-4.2,5.348c-2.646,0.316-5.021-1.588-5.328-4.219
				c-0.303-2.633,1.564-5.008,4.191-5.315C190.563,889.643,192.945,891.511,193.256,894.139z"/>
			<path fill="#B4D6E8" d="M234.653,914.677c-0.825,2.418-3.465,3.74-5.886,2.927c-2.449-0.824-3.728-3.47-2.903-5.896
				c0.828-2.427,3.447-3.724,5.869-2.902C234.172,909.633,235.47,912.255,234.653,914.677z"/>
			<path fill="#9BC8E0" d="M263.979,958.553c-1.936,1.536-4.771,1.224-6.308-0.699c-1.562-1.953-1.217-4.767,0.722-6.305
				c1.941-1.541,4.743-1.219,6.286,0.711C266.224,954.209,265.908,957.018,263.979,958.553z"/>
			<path fill="#82BAD8" d="M267.293,1004.444c-2.329,0.531-4.661-0.928-5.196-3.235c-0.546-2.356,0.925-4.655,3.253-5.186
				c2.333-0.535,4.637,0.916,5.173,3.24C271.061,1001.602,269.609,1003.917,267.293,1004.444z"/>
			<path fill="#69ADD1" d="M257.954,1039.396c-2.305-0.075-4.109-2.01-4.046-4.285c0.072-2.336,2.002-4.111,4.299-4.035
				c2.306,0.072,4.099,1.991,4.026,4.288C262.165,1037.677,260.238,1039.478,257.954,1039.396z"/>
			<path fill="#509FC9" d="M251.191,1053.235c-2.186-0.398-3.625-2.5-3.24-4.649c0.398-2.22,2.487-3.63,4.662-3.229
				c2.186,0.394,3.62,2.478,3.221,4.654C255.447,1052.202,253.349,1053.642,251.191,1053.235z"/>
		</g>
		<g>
			<path fill="#509FC9" d="M-56.737,922.535c-5.279-3.02-7.112-9.758-4.081-15.036c3.032-5.28,9.763-7.136,15.043-4.1
				c5.288,3.021,7.109,9.746,4.105,15.034C-44.692,923.713-51.447,925.554-56.737,922.535z"/>
			<path fill="#69ADD1" d="M-47.176,932.103c-5.321-1.809-8.169-7.589-6.352-12.91c1.815-5.32,7.588-8.188,12.911-6.368
				c5.325,1.809,8.165,7.579,6.373,12.901C-36.053,931.044-41.852,933.905-47.176,932.103z"/>
			<path fill="#82BAD8" d="M-21.168,950.911c-5.154-0.199-9.166-4.533-8.961-9.688c0.204-5.15,4.527-9.179,9.683-8.972
				c5.154,0.199,9.16,4.525,8.975,9.67C-11.669,947.072-16.02,951.104-21.168,950.911z"/>
			<path fill="#9BC8E0" d="M22.53,964.311c-4.408,1.619-9.277-0.633-10.894-5.041c-1.614-4.4,0.625-9.284,5.033-10.897
				c4.406-1.616,9.271,0.63,10.899,5.02C29.186,957.792,26.924,962.689,22.53,964.311z"/>
			<path fill="#B4D6E8" d="M80.166,958.471c-2.954,3.034-7.779,3.101-10.811,0.15c-3.023-2.943-3.106-7.778-0.156-10.808
				c2.951-3.025,7.774-3.101,10.802-0.17C83.03,950.587,83.102,955.445,80.166,958.471z"/>
			<path fill="#CDE4F0" d="M119.533,933.22c-1.131,3.6-4.93,5.585-8.524,4.459c-3.581-1.121-5.586-4.926-4.459-8.516
				c1.133-3.586,4.926-5.583,8.505-4.47C118.642,925.814,120.648,929.645,119.533,933.22z"/>
			<path fill="#E6F1F7" d="M138.193,905.756c0.072,3.31-2.516,6.02-5.818,6.098c-3.284,0.077-6.014-2.513-6.09-5.809
				c-0.063-3.294,2.516-6.018,5.794-6.101C135.373,899.867,138.114,902.479,138.193,905.756z"/>
			<path fill="#FFFFFF" d="M142.463,892.657c0.626,2.779-1.085,5.492-3.853,6.125c-2.747,0.626-5.483-1.086-6.111-3.847
				c-0.611-2.762,1.086-5.492,3.83-6.119C139.087,888.188,141.84,889.919,142.463,892.657z"/>
		</g>
		<g>
			<path fill="#509FC9" d="M300.395,835.043c-2.738-0.713-4.386-3.51-3.668-6.273c0.712-2.735,3.515-4.404,6.283-3.664
				c2.747,0.711,4.398,3.531,3.664,6.254C305.958,834.119,303.158,835.766,300.395,835.043z"/>
			<path fill="#69ADD1" d="M291.09,827.183c-2.826-0.135-5.009-2.535-4.875-5.384c0.133-2.82,2.533-5.015,5.391-4.87
				c2.827,0.143,5.008,2.546,4.864,5.363C296.323,825.138,293.937,827.322,291.09,827.183z"/>
			<path fill="#82BAD8" d="M265.812,815.748c-2.665,0.955-5.595-0.434-6.556-3.115c-0.953-2.652,0.429-5.595,3.123-6.55
				c2.661-0.944,5.59,0.439,6.535,3.102C269.865,811.866,268.491,814.794,265.812,815.748z"/>
			<path fill="#9BC8E0" d="M229.907,818.916c-1.614,2.326-4.803,2.895-7.142,1.271c-2.314-1.602-2.895-4.797-1.261-7.137
				c1.613-2.309,4.796-2.885,7.113-1.268C230.95,813.411,231.531,816.588,229.907,818.916z"/>
			<path fill="#B4D6E8" d="M194.974,842.028c-0.986,2.654-3.936,3.99-6.599,2.999c-2.637-0.977-3.995-3.928-2.987-6.594
				c0.983-2.633,3.924-3.978,6.571-2.986C194.621,836.443,195.97,839.377,194.974,842.028z"/>
			<path fill="#CDE4F0" d="M167.512,866.854c-0.703,2.743-3.488,4.383-6.24,3.681c-2.723-0.688-4.381-3.478-3.665-6.232
				c0.697-2.714,3.471-4.364,6.211-3.661C166.569,861.347,168.213,864.116,167.512,866.854z"/>
			<path fill="#E6F1F7" d="M149.188,886.563c-0.504,2.788-3.164,4.619-5.956,4.117c-2.761-0.488-4.612-3.15-4.098-5.945
				c0.5-2.751,3.142-4.596,5.927-4.094C147.854,881.146,149.689,883.788,149.188,886.563z"/>
			<path fill="#FFFFFF" d="M142.536,894.469c-0.353,2.812-2.922,4.772-5.733,4.415c-2.778-0.344-4.759-2.906-4.393-5.721
				c0.359-2.766,2.896-4.764,5.704-4.387C140.929,889.114,142.9,891.678,142.536,894.469z"/>
		</g>
		<g>
			<path fill="#509FC9" d="M53.337,805.871c-4.227-1.279-6.636-5.734-5.363-9.98c1.296-4.248,5.746-6.643,10.011-5.361
				c4.223,1.267,6.644,5.737,5.343,9.987C62.064,804.756,57.578,807.161,53.337,805.871z"/>
			<path fill="#69ADD1" d="M53.11,813.044c-4.17-0.39-7.251-4.077-6.871-8.262c0.398-4.192,4.082-7.26,8.285-6.876
				c4.163,0.378,7.241,4.071,6.853,8.268C60.99,810.354,57.295,813.437,53.11,813.044z"/>
			<path fill="#82BAD8" d="M54.828,831.587c-3.884,0.778-7.674-1.728-8.465-5.619c-0.777-3.904,1.726-7.685,5.636-8.477
				c3.871-0.788,7.661,1.722,8.449,5.626C61.232,827.009,58.725,830.802,54.828,831.587z"/>
			<path fill="#9BC8E0" d="M65.741,856.958c-3.14,2.021-7.329,1.125-9.36-2.016c-2.028-3.155-1.133-7.336,2.022-9.375
				c3.123-2.023,7.312-1.128,9.347,2.025C69.781,850.736,68.887,854.926,65.741,856.958z"/>
			<path fill="#B4D6E8" d="M88.439,879.986c-1.884,2.956-5.811,3.835-8.774,1.955c-2.969-1.893-3.848-5.81-1.96-8.785
				c1.867-2.951,5.789-3.831,8.763-1.944C89.436,873.097,90.319,877.015,88.439,879.986z"/>
			<path fill="#CDE4F0" d="M113.355,890.205c-0.741,3.193-3.944,5.18-7.138,4.437c-3.204-0.749-5.192-3.936-4.446-7.142
				c0.733-3.18,3.919-5.168,7.126-4.423C112.102,883.82,114.098,887.003,113.355,890.205z"/>
			<path fill="#E6F1F7" d="M134.075,893.428c-0.092,3.049-2.659,5.443-5.706,5.347c-3.059-0.098-5.454-2.646-5.357-5.702
				c0.088-3.033,2.633-5.426,5.693-5.333C131.765,887.833,134.168,890.37,134.075,893.428z"/>
			<path fill="#FFFFFF" d="M142.543,893.362c0.245,2.813-1.842,5.296-4.649,5.544c-2.819,0.252-5.304-1.822-5.553-4.638
				c-0.256-2.794,1.812-5.288,4.633-5.527C139.796,888.47,142.274,890.546,142.543,893.362z"/>
		</g>
		<g>
			<path fill="#509FC9" d="M159.458,1005.205c2.381,2.301,2.445,6.107,0.126,8.501c-2.31,2.375-6.11,2.448-8.497,0.116
				c-2.406-2.3-2.458-6.111-0.143-8.504C153.258,1002.947,157.079,1002.891,159.458,1005.205z"/>
			<path fill="#7CB7D7" d="M141.444,994.831c1.563,2.778,0.574,6.308-2.224,7.875c-2.783,1.556-6.296,0.57-7.87-2.223
				c-1.574-2.791-0.58-6.318,2.211-7.886C136.344,991.043,139.881,992.044,141.444,994.831z"/>
			<path fill="#A8CFE4" d="M118.753,961.621c-0.629,3-3.579,4.928-6.593,4.289c-2.996-0.634-4.92-3.572-4.291-6.581
				c0.623-3.019,3.587-4.938,6.593-4.307C117.459,955.652,119.38,958.615,118.753,961.621z"/>
			<path fill="#D3E7F2" d="M126.723,915.84c-2.298,1.836-5.658,1.463-7.497-0.852c-1.832-2.296-1.459-5.645,0.833-7.489
				c2.307-1.853,5.678-1.462,7.512,0.838C129.408,910.628,129.018,913.992,126.723,915.84z"/>
			<path fill="#FFFFFF" d="M139.134,898.721c-2.672,0.896-5.573-0.546-6.462-3.233c-0.894-2.666,0.545-5.553,3.204-6.465
				c2.687-0.903,5.593,0.562,6.484,3.229C143.264,894.914,141.805,897.808,139.134,898.721z"/>
		</g>
		<g>
			<path fill="#509FC9" d="M559.294,1013.303c-3.448,1.293-7.288-0.496-8.574-3.936c-1.281-3.463,0.476-7.297,3.939-8.572
				c3.445-1.254,7.303,0.471,8.571,3.938C564.533,1008.206,562.743,1012.026,559.294,1013.303z"/>
			<path fill="#7CB7D7" d="M584.546,971.068c-2.366,2.272-6.141,2.17-8.41-0.189c-2.274-2.38-2.192-6.144,0.192-8.409
				c2.375-2.251,6.14-2.19,8.41,0.185C587.021,965.042,586.912,968.804,584.546,971.068z"/>
			<path fill="#A8CFE4" d="M591.75,930.579c-1.417,2.507-4.613,3.384-7.122,1.979c-2.519-1.422-3.405-4.612-1.973-7.12
				c1.421-2.504,4.609-3.408,7.116-1.989C592.296,924.87,593.159,928.076,591.75,930.579z"/>
			<path fill="#D3E7F2" d="M589.613,900.257c-0.788,2.349-3.354,3.614-5.706,2.835c-2.363-0.791-3.627-3.349-2.828-5.703
				c0.798-2.354,3.347-3.635,5.693-2.851C589.135,895.333,590.399,897.915,589.613,900.257z"/>
			<path fill="#FFFFFF" d="M586.647,888.047c-0.425,2.031-2.419,3.359-4.459,2.957c-2.051-0.409-3.38-2.413-2.95-4.454
				c0.404-2.051,2.409-3.376,4.438-2.978C585.721,883.99,587.042,886.018,586.647,888.047z"/>
		</g>
		<g>
			<path fill="#509FC9" d="M697.955,876.895c0.812,2.064-0.205,4.406-2.262,5.205c-2.074,0.818-4.412-0.18-5.208-2.27
				c-0.811-2.061,0.206-4.382,2.28-5.186C694.812,873.83,697.141,874.834,697.955,876.895z"/>
			<path fill="#7CB7D7" d="M663.809,899.733c-0.512,2.128-2.652,3.434-4.771,2.921c-2.13-0.516-3.441-2.637-2.917-4.771
				c0.521-2.123,2.644-3.414,4.77-2.901C663.006,895.492,664.316,897.611,663.809,899.733z"/>
			<path fill="#A8CFE4" d="M626.745,902.018c-1.256,1.754-3.689,2.155-5.439,0.903c-1.751-1.254-2.162-3.677-0.898-5.428
				c1.261-1.749,3.679-2.147,5.427-0.897C627.582,897.847,627.993,900.268,626.745,902.018z"/>
			<path fill="#D3E7F2" d="M597.286,895.047c-1.563,1.441-3.986,1.341-5.427-0.221c-1.436-1.555-1.346-3.973,0.219-5.406
				c1.568-1.438,3.982-1.338,5.414,0.214C598.933,891.194,598.841,893.611,597.286,895.047z"/>
			<path fill="#FFFFFF" d="M585.137,890.328c-1.699,1.229-4.062,0.857-5.284-0.846c-1.23-1.675-0.861-4.052,0.839-5.256
				c1.69-1.242,4.06-0.854,5.271,0.828C587.2,886.748,586.823,889.105,585.137,890.328z"/>
		</g>
		<g>
			<path fill="#509FC9" d="M706.011,1097.328c-1.475,7.79-9.001,12.934-16.811,11.469c-7.808-1.471-12.937-8.98-11.491-16.783
				c1.479-7.809,9-12.951,16.794-11.485C702.336,1082.01,707.451,1089.504,706.011,1097.328z"/>
			<path fill="#7CB7D7" d="M647.465,1047.376c-3.861,5.192-11.232,6.258-16.427,2.384c-5.195-3.872-6.265-11.214-2.41-16.415
				c3.876-5.193,11.235-6.269,16.421-2.398C650.265,1034.84,651.337,1042.171,647.465,1047.376z"/>
			<path fill="#A8CFE4" d="M610.527,978.472c-3.845,3.218-9.584,2.709-12.798-1.143c-3.222-3.841-2.714-9.563,1.12-12.793
				c3.844-3.22,9.582-2.712,12.796,1.134C614.882,969.538,614.368,975.241,610.527,978.472z"/>
			<path fill="#D3E7F2" d="M591.146,917.803c-2.994,1.918-6.973,1.035-8.884-1.959c-1.909-2.99-1.046-6.96,1.941-8.884
				c2.984-1.915,6.973-1.039,8.882,1.956C595.015,911.932,594.136,915.887,591.146,917.803z"/>
			<path fill="#FFFFFF" d="M584.703,890.613c-1.848,0.992-4.15,0.294-5.117-1.556c-0.991-1.831-0.297-4.124,1.544-5.116
				c1.829-0.989,4.135-0.291,5.112,1.559C587.243,887.363,586.543,889.637,584.703,890.613z"/>
		</g>
		<g>
			<path fill="#509FC9" d="M762.468,1009.624c-5.763,0.621-10.959-3.609-11.548-9.389c-0.594-5.777,3.613-10.947,9.392-11.527
				c5.788-0.631,10.971,3.584,11.553,9.383C772.468,1003.862,768.256,1009.063,762.468,1009.624z"/>
			<path fill="#7CB7D7" d="M720.693,952.111c-4.113,2.616-9.588,1.411-12.207-2.703c-2.617-4.112-1.393-9.563,2.716-12.19
				c4.12-2.635,9.587-1.435,12.206,2.698C726.031,944.021,724.811,949.491,720.693,952.111z"/>
			<path fill="#A8CFE4" d="M661.794,915.165c-2.688,2.897-7.218,3.071-10.113,0.391c-2.892-2.682-3.053-7.204-0.374-10.103
				c2.687-2.908,7.212-3.087,10.109-0.394C664.311,907.734,664.477,912.271,661.794,915.165z"/>
			<path fill="#D3E7F2" d="M609.456,895.508c-1.72,2.496-5.126,3.115-7.61,1.409c-2.481-1.709-3.101-5.116-1.392-7.604
				c1.715-2.495,5.119-3.122,7.606-1.407C610.539,889.609,611.165,893.028,609.456,895.508z"/>
			<path fill="#FFFFFF" d="M586.213,889.122c-1.024,1.844-3.345,2.461-5.161,1.443c-1.812-1.023-2.452-3.34-1.424-5.156
				c1.026-1.826,3.337-2.463,5.154-1.439C586.591,884.989,587.246,887.321,586.213,889.122z"/>
		</g>
		<g>
			<path fill="#4491C2" d="M632.528,275.119c-8.828,2.352-17.88-2.914-20.243-11.725c-2.352-8.83,2.896-17.897,11.728-20.264
				c8.828-2.345,17.905,2.927,20.251,11.744C646.611,263.702,641.372,272.758,632.528,275.119z"/>
			<path fill="#73ADD1" d="M582.533,297.479c6.138-5.078,15.249-4.222,20.329,1.908c5.083,6.132,4.24,15.22-1.898,20.313
				c-6.134,5.085-15.225,4.223-20.313-1.894C575.562,311.67,576.407,302.578,582.533,297.479z"/>
			<path fill="#A2C8E1" d="M568.681,351.377c3.578-5.782,11.187-7.56,16.966-3.982c5.777,3.579,7.568,11.162,3.986,16.941
				c-3.58,5.78-11.169,7.555-16.945,3.988C566.899,364.745,565.104,357.157,568.681,351.377z"/>
			<path fill="#D0E4F0" d="M569.989,392.236c1.901-5.303,7.753-8.056,13.057-6.157c5.296,1.9,8.059,7.736,6.155,13.025
				c-1.902,5.298-7.741,8.051-13.037,6.156C570.855,403.361,568.091,397.531,569.989,392.236z"/>
			<path fill="#FFFFFF" d="M574.248,409.117c-0.906,4.359,1.873,8.632,6.25,9.551c4.362,0.923,8.648-1.868,9.575-6.232
				c0.93-4.346-1.869-8.634-6.231-9.557C579.469,401.956,575.188,404.751,574.248,409.117z"/>
		</g>
		<g>
			<path fill="#509FC9" d="M710.39,361.515c-0.347,3.037-3.062,5.204-6.104,4.865c-3.022-0.342-5.19-3.064-4.865-6.093
				c0.343-3.02,3.058-5.209,6.117-4.835C708.542,355.759,710.726,358.497,710.39,361.515z"/>
			<path fill="#7CB7D7" d="M665.505,394.958c2.091-2.671,5.944-3.136,8.643-1.02c2.657,2.085,3.144,5.948,1.049,8.612
				c-2.1,2.686-5.961,3.15-8.648,1.048C663.879,401.5,663.407,397.637,665.505,394.958z"/>
			<path fill="#A8CFE4" d="M626.636,406.59c3.298-1.777,7.408-0.564,9.204,2.758c1.775,3.284,0.557,7.406-2.735,9.188
				c-3.307,1.79-7.424,0.569-9.219-2.739C622.109,412.499,623.334,408.382,626.636,406.59z"/>
			<path fill="#D3E7F2" d="M594.317,405.828c3.968-1.04,8.038,1.31,9.082,5.297c1.046,3.954-1.328,8.021-5.287,9.067
				c-3.977,1.051-8.043-1.309-9.098-5.287C587.979,410.941,590.343,406.876,594.317,405.828z"/>
			<path fill="#FFFFFF" d="M581.213,402.769c-4.437,0.519-7.596,4.534-7.086,8.955c0.531,4.434,4.554,7.623,8.984,7.063
				c4.42-0.49,7.585-4.533,7.07-8.95C589.657,405.399,585.639,402.255,581.213,402.769z"/>
		</g>
		<g>
			<path fill="#509FC9" d="M507.604,322.791c0.305,3.615-2.381,6.777-5.99,7.073c-3.598,0.309-6.754-2.374-7.063-5.989
				c-0.29-3.601,2.385-6.762,5.993-7.058C504.153,316.527,507.293,319.171,507.604,322.791z"/>
			<path fill="#7CB7D7" d="M542.443,348.35c-3.154-1.968-4.112-6.134-2.135-9.299c1.974-3.16,6.141-4.11,9.295-2.129
				c3.16,1.987,4.119,6.116,2.144,9.283C549.771,349.376,545.605,350.325,542.443,348.35z"/>
			<path fill="#A8CFE4" d="M563.979,375.211c-1.732-3.495-0.296-7.74,3.2-9.487c3.508-1.737,7.749-0.304,9.479,3.199
				c1.735,3.513,0.32,7.742-3.182,9.478C569.966,380.152,565.725,378.71,563.979,375.211z"/>
			<path fill="#D3E7F2" d="M572.766,399.559c-0.313-4.138,2.812-7.75,6.95-8.069c4.155-0.312,7.761,2.799,8.061,6.942
				c0.307,4.159-2.787,7.757-6.929,8.067C576.688,406.812,573.079,403.703,572.766,399.559z"/>
			<path fill="#FFFFFF" d="M575.319,406.529c-2.328,3.797-1.178,8.777,2.633,11.12c3.776,2.361,8.744,1.177,11.102-2.626
				c2.358-3.781,1.195-8.759-2.61-11.107C582.657,401.581,577.676,402.748,575.319,406.529z"/>
			<path fill="#D3E7F2" d="M583.057,413.711c1.574,3.512,0.003,7.618-3.505,9.174c-3.516,1.572-7.608,0.008-9.175-3.493
				c-1.57-3.51-0.004-7.618,3.495-9.186C577.374,408.637,581.488,410.219,583.057,413.711z"/>
			<path fill="#A8CFE4" d="M567.15,427.087c0.149,3.248-2.352,5.991-5.593,6.132c-3.25,0.151-5.98-2.344-6.133-5.584
				s2.351-5.979,5.586-6.135C564.252,421.353,566.996,423.857,567.15,427.087z"/>
			<path fill="#7CB7D7" d="M541.597,436.008c-1.396,2.309-4.381,3.054-6.687,1.659c-2.315-1.39-3.047-4.37-1.661-6.681
				c1.381-2.303,4.373-3.044,6.677-1.656C542.237,430.718,542.978,433.706,541.597,436.008z"/>
			<path fill="#509FC9" d="M507.812,429.072c-2.129,0.647-4.366-0.53-5.018-2.654c-0.66-2.123,0.529-4.363,2.654-5.014
				c2.1-0.665,4.352,0.534,4.999,2.658C511.112,426.182,509.927,428.418,507.812,429.072z"/>
		</g>
		<g>
			<path fill="#509FC9" d="M79.792,406.713c-5.176,1.147-10.313-2.116-11.459-7.303c-1.133-5.156,2.124-10.287,7.286-11.41
				c5.163-1.169,10.302,2.114,11.443,7.283C88.218,400.429,84.947,405.547,79.792,406.713z"/>
			<path fill="#7CB7D7" d="M158.54,395.648c-3.335,3.14-8.591,2.999-11.731-0.346c-3.128-3.329-2.966-8.563,0.354-11.696
				c3.324-3.137,8.575-2.981,11.711,0.343C162.004,387.267,161.849,392.51,158.54,395.648z"/>
			<path fill="#A8CFE4" d="M209.077,357.566c-1.461,3.574-5.537,5.311-9.107,3.838c-3.57-1.459-5.273-5.53-3.826-9.092
				c1.449-3.564,5.533-5.281,9.096-3.83C208.803,349.935,210.521,354.01,209.077,357.566z"/>
			<path fill="#D3E7F2" d="M235.778,317.576c-0.415,3.114-3.255,5.318-6.364,4.9c-3.118-0.42-5.3-3.263-4.894-6.362
				c0.396-3.099,3.263-5.293,6.361-4.886C233.988,311.636,236.185,314.489,235.778,317.576z"/>
			<path fill="#FFFFFF" d="M242.998,298.809c0.043,2.421-1.855,4.447-4.265,4.471c-2.434,0.055-4.419-1.866-4.479-4.273
				c-0.057-2.401,1.871-4.419,4.272-4.457C240.945,294.491,242.956,296.419,242.998,298.809z"/>
		</g>
		<g>
			<path fill="#4491C2" d="M146.638,167.034c-7.61,5.84-18.528,4.401-24.38-3.197c-5.817-7.638-4.382-18.532,3.217-24.384
				c7.624-5.841,18.539-4.394,24.374,3.216C155.688,150.283,154.256,161.181,146.638,167.034z"/>
			<path fill="#73ADD1" d="M164.164,224.602c-3.177,7.117-11.542,10.337-18.664,7.154c-7.123-3.183-10.311-11.542-7.148-18.67
				c3.186-7.129,11.549-10.322,18.666-7.142C164.14,209.128,167.342,217.47,164.164,224.602z"/>
			<path fill="#A2C8E1" d="M197.472,264.891c-0.412,5.982-5.6,10.519-11.595,10.117c-5.987-0.416-10.512-5.602-10.12-11.595
				c0.412-5.998,5.611-10.523,11.597-10.109C193.349,253.719,197.878,258.895,197.472,264.891z"/>
			<path fill="#D0E4F0" d="M229.899,289.323c0.592,4.155-2.29,8.033-6.463,8.637c-4.157,0.607-8.036-2.282-8.645-6.452
				c-0.61-4.172,2.298-8.04,6.462-8.635C225.426,282.278,229.296,285.154,229.899,289.323z"/>
			<path fill="#FFFFFF" d="M242.872,297.706c0.637,2.314-0.707,4.738-3.043,5.387c-2.307,0.667-4.729-0.692-5.396-3.02
				c-0.652-2.332,0.713-4.745,3.037-5.389C239.804,294.042,242.223,295.382,242.872,297.706z"/>
		</g>
		<g>
			<path fill="#305AA6" d="M335.627,221.609c4.963-0.042,9.037,3.95,9.084,8.899c0.049,4.957-3.944,9.014-8.883,9.08
				c-4.977,0.049-9.034-3.919-9.089-8.887C326.688,225.73,330.664,221.681,335.627,221.609z"/>
			<path fill="#6483BC" d="M284.245,232.875c3.763-2.133,8.556-0.793,10.679,2.965c2.126,3.765,0.791,8.54-2.954,10.671
				c-3.777,2.131-8.548,0.815-10.679-2.957C279.157,239.78,280.48,235.01,284.245,232.875z"/>
			<path fill="#98ADD3" d="M252.961,259.368c2.195-2.961,6.385-3.586,9.345-1.396c2.964,2.198,3.583,6.375,1.403,9.337
				c-2.202,2.969-6.378,3.604-9.345,1.4C251.389,266.509,250.773,262.342,252.961,259.368z"/>
			<path fill="#CBD6E9" d="M237.837,285.676c1.114-2.838,4.323-4.238,7.162-3.125c2.844,1.119,4.24,4.316,3.133,7.156
				c-1.12,2.843-4.322,4.256-7.166,3.129C238.111,291.715,236.726,288.522,237.837,285.676z"/>
			<path fill="#FFFFFF" d="M234.355,297.96c0.509-2.355,2.837-3.851,5.199-3.341c2.367,0.518,3.86,2.833,3.351,5.195
				c-0.518,2.36-2.842,3.875-5.208,3.344C235.321,302.642,233.84,300.326,234.355,297.96z"/>
		</g>
		<g>
			<path fill="#509FC9" d="M255.281,305.763c-3.17,10.066-13.942,15.691-24.008,12.522c-10.09-3.192-15.708-13.95-12.52-24.028
				c3.168-10.074,13.913-15.702,24-12.505C252.842,284.926,258.466,295.666,255.281,305.763z"/>
			<path fill="#509FC9" d="M316.803,374.04c-2.417,9.81-12.365,15.837-22.174,13.42c-9.833-2.438-15.852-12.374-13.419-22.194
				c2.417-9.817,12.338-15.844,22.169-13.403C313.208,354.283,319.233,364.201,316.803,374.04z"/>
			<path fill="#509FC9" d="M375.121,431.315c-1.78,9.486-10.946,15.767-20.432,13.985c-9.51-1.8-15.781-10.954-13.987-20.452
				c1.781-9.496,10.922-15.772,20.429-13.97C370.636,412.66,376.913,421.798,375.121,431.315z"/>
			<path fill="#509FC9" d="M427.646,477.597c-1.249,9.118-9.68,15.527-18.796,14.276c-9.141-1.267-15.54-9.688-14.278-18.815
				c1.25-9.125,9.657-15.528,18.794-14.261C422.498,460.047,428.905,468.453,427.646,477.597z"/>
			<path fill="#509FC9" d="M471.778,512.879c-0.811,8.714-8.555,15.15-17.269,14.337c-8.736-0.827-15.163-8.564-14.342-17.287
				c0.814-8.723,8.536-15.151,17.27-14.324C466.164,496.417,472.599,504.139,471.778,512.879z"/>
			<path fill="#509FC9" d="M504.916,537.153c-0.453,8.29-7.559,14.667-15.849,14.211c-8.311-0.469-14.68-7.569-14.216-15.866
				c0.457-8.298,7.544-14.666,15.851-14.2C499,521.752,505.379,528.839,504.916,537.153z"/>
			<path fill="#509FC9" d="M524.449,550.411c-0.166,7.85-6.679,14.1-14.53,13.931c-7.87-0.182-14.112-6.692-13.937-14.548
				c0.172-7.858,6.669-14.098,14.534-13.92C518.373,536.042,524.625,542.538,524.449,550.411z"/>
			<path fill="#509FC9" d="M501.415,557.005c-2.242-7.054,1.667-14.609,8.724-16.848c7.077-2.231,14.625,1.677,16.858,8.739
				c2.238,7.065-1.66,14.605-8.731,16.84C511.207,567.976,503.652,564.083,501.415,557.005z"/>
			<path fill="#509FC9" d="M485.959,552.09c-1.884-6.692,2.02-13.659,8.713-15.54c6.713-1.875,13.675,2.03,15.551,8.726
				c1.88,6.704-2.014,13.656-8.72,15.535C494.81,562.693,487.84,558.804,485.959,552.09z"/>
			<path fill="#509FC9" d="M452.665,541.349c-1.517-6.323,2.387-12.688,8.713-14.199c6.343-1.505,12.702,2.4,14.21,8.726
				c1.51,6.335-2.386,12.686-8.721,14.195C460.545,551.582,454.174,547.692,452.665,541.349z"/>
			<path fill="#509FC9" d="M405.525,524.522c-1.131-5.946,2.777-11.689,8.727-12.814c5.963-1.119,11.701,2.792,12.824,8.739
				c1.122,5.959-2.779,11.687-8.734,12.812C412.399,534.385,406.647,530.487,405.525,524.522z"/>
			<path fill="#509FC9" d="M348.538,501.354c-0.726-5.556,3.192-10.65,8.751-11.37c5.573-0.712,10.662,3.211,11.38,8.766
				c0.715,5.569-3.197,10.647-8.76,11.369C354.359,510.837,349.253,506.927,348.538,501.354z"/>
			<path fill="#509FC9" d="M285.704,471.584c-0.297-5.146,3.636-9.555,8.785-9.844c5.159-0.281,9.564,3.657,9.853,8.799
				c0.284,5.159-3.644,9.552-8.794,9.844C290.411,480.671,285.988,476.745,285.704,471.584z"/>
			<path fill="#509FC9" d="M221.035,434.952c0.164-4.703,4.108-8.375,8.814-8.204c4.714,0.18,8.383,4.13,8.213,8.827
				c-0.179,4.716-4.118,8.373-8.824,8.206C224.548,443.609,220.857,439.667,221.035,434.952z"/>
			<path fill="#509FC9" d="M158.559,391.205c0.656-4.208,4.594-7.075,8.804-6.411c4.215,0.674,7.078,4.619,6.417,8.818
				c-0.674,4.218-4.607,7.069-8.814,6.411C160.773,399.361,157.886,395.421,158.559,391.205z"/>
			<path fill="#509FC9" d="M106.731,348.801c-3.606-1.178-5.601-5.066-4.409-8.697c1.173-3.626,5.055-5.6,8.682-4.416
				c3.629,1.192,5.598,5.081,4.421,8.696C114.23,348.018,110.354,349.976,106.731,348.801z"/>
		</g>
	</g>
</g>
</svg>
