<?xml version="1.0" encoding="utf-8"?>
<!-- Generator: Adobe Illustrator 16.0.4, SVG Export Plug-In . SVG Version: 6.00 Build 0)  -->
<!DOCTYPE svg PUBLIC "-//W3C//DTD SVG 1.1//EN" "http://www.w3.org/Graphics/SVG/1.1/DTD/svg11.dtd">
<svg version="1.1" id="Capa_1" xmlns="http://www.w3.org/2000/svg" xmlns:xlink="http://www.w3.org/1999/xlink" x="0px" y="0px"
	 width="212px" height="576px" viewBox="705.726 29.645 212 576" enable-background="new 705.726 29.645 212 576"
	 xml:space="preserve">
<g>
	<g>
		<path fill="#FFFFFF" d="M811.473,264.021c-27.774,0-50.506-11.132-65.731-32.192c-13.848-19.151-21.165-45.646-21.165-76.617
			c0-30.972,7.317-57.466,21.165-76.617c15.226-21.061,37.957-32.192,65.731-32.192c27.776,0,50.507,11.132,65.733,32.192
			c13.849,19.151,21.167,45.645,21.167,76.617c0,30.972-7.318,57.466-21.167,76.617
			C861.979,252.889,839.249,264.021,811.473,264.021z M811.473,48.994c-62.157,0-84.304,54.869-84.304,106.218
			c0,51.348,22.146,106.217,84.304,106.217c62.159,0,84.308-54.869,84.308-106.217C895.78,103.863,873.632,48.994,811.473,48.994z
			 M811.473,222.264c-25.236,0-38.028-22.559-38.028-67.052c0-44.491,12.792-67.05,38.028-67.05
			c25.231,0,38.025,22.559,38.025,67.05C849.498,199.705,836.704,222.264,811.473,222.264z M811.473,90.753
			c-23.515,0-35.438,21.688-35.438,64.458c0,42.773,11.923,64.46,35.438,64.46c23.511,0,35.433-21.687,35.433-64.46
			C846.905,112.441,834.983,90.753,811.473,90.753z"/>
	</g>
	<g>
		<path fill="#FFFFFF" d="M781.253,549.9h-33.171c-4.49,0-7.635-1.158-9.09-3.349c-1.142-1.719-1.178-3.887-0.104-6.443
			l81.678-153.404h-76.636c-6.584-0.621-9.284-2.049-9.284-9.295v-28.144c0-6.946,2.344-9.29,9.284-9.29h145.74
			c5.054,0,7.513,2.266,7.513,6.926v1.473c0,2.489-0.474,4.212-3.13,8.933l-98.618,183.915
			C791.859,547.396,787.756,549.9,781.253,549.9z M822.726,384.112h2.16l-83.658,157.106c-0.666,1.6-0.709,2.947-0.076,3.897
			c0.925,1.393,3.453,2.192,6.931,2.192h33.171c5.584,0,8.816-1.991,11.92-7.348l98.611-183.9c2.678-4.761,2.807-5.965,2.807-7.685
			v-1.473c0-2.745-0.805-4.334-4.92-4.334h-145.74c-5.506,0-6.693,1.19-6.693,6.698v28.144c0,5.209,0.955,6.15,6.817,6.709
			L822.726,384.112z"/>
	</g>
</g>
</svg>
