<?xml version="1.0" encoding="utf-8"?>
<!-- Generator: Adobe Illustrator 16.0.4, SVG Export Plug-In . SVG Version: 6.00 Build 0)  -->
<!DOCTYPE svg PUBLIC "-//W3C//DTD SVG 1.1//EN" "http://www.w3.org/Graphics/SVG/1.1/DTD/svg11.dtd">
<svg version="1.1" id="Capa_1" xmlns="http://www.w3.org/2000/svg" xmlns:xlink="http://www.w3.org/1999/xlink" x="0px" y="0px"
	 width="1162px" height="1064px" viewBox="-202.5 60.322 1162 1064" enable-background="new -202.5 60.322 1162 1064"
	 xml:space="preserve">
<g>
	<g>
		
			<image overflow="visible" width="817" height="614" xlink:href="69AFABF7EBB3E430.png"  transform="matrix(1 0 0 1 -11.5 227.3223)">
		</image>
	</g>
	<g>
		
			<line fill="none" stroke="#FFFFFF" stroke-width="4.0505" stroke-miterlimit="10" x1="575.942" y1="1060.25" x2="438.522" y2="572.421"/>
		<path fill="none" stroke="#FFFFFF" stroke-width="4.0505" stroke-miterlimit="10" d="M438.522,572.421
			c0,0-283.187-150.644-533.906-31.456"/>
		<path fill="none" stroke="#FFFFFF" stroke-width="4.0505" stroke-miterlimit="10" d="M438.522,572.421
			c0,0-6.813-209.248,114.763-432.083"/>
		<path fill="none" stroke="#FFFFFF" stroke-width="2.0253" stroke-miterlimit="10" d="M441.791,570.591
			c0,0,269.683-166.911,462.866-98.458"/>
		<path fill="none" stroke="#FFFFFF" stroke-width="2.0253" stroke-miterlimit="10" d="M441.791,570.591
			c0,0,132.513-57.373,152.53-194.736"/>
		<path fill="none" stroke="#FFFFFF" stroke-width="2.0253" stroke-miterlimit="10" d="M441.791,570.591
			c0,0,214.21,181.472,404.299,132.86"/>
		<g>
			<path fill="#FFFFFF" d="M202.641,542.596c3.856,2.293,8.828,1.03,11.135-2.785c2.301-3.847,1.049-8.818-2.786-11.111
				c-3.829-2.295-8.831-1.039-11.104,2.795C197.564,535.329,198.814,540.304,202.641,542.596z"/>
			<path fill="#FFFFFF" d="M272.315,575.37c-4.295-0.21-7.951,3.128-8.159,7.417c-0.209,4.307,3.099,7.966,7.388,8.172
				c4.31,0.197,7.969-3.126,8.183-7.416C279.942,579.231,276.613,575.581,272.315,575.37z"/>
			<path fill="#FFFFFF" d="M343.384,584.384c-4.111,0.869-6.736,4.926-5.868,9.033c0.87,4.116,4.911,6.751,9.014,5.881
				c4.115-0.88,6.751-4.923,5.887-9.028C351.548,586.144,347.499,583.522,343.384,584.384z"/>
			<path fill="#FFFFFF" d="M402.376,574.82c-4.011,1.159-6.321,5.366-5.155,9.373c1.15,4.009,5.357,6.321,9.357,5.162
				c4.008-1.166,6.33-5.357,5.174-9.359C410.59,575.973,406.392,573.671,402.376,574.82z"/>
			<path fill="#FFFFFF" d="M427.053,566.937c-4.068,1.119-6.457,5.332-5.333,9.399c1.106,4.058,5.329,6.449,9.385,5.332
				c4.061-1.118,6.462-5.316,5.354-9.375C435.328,568.216,431.129,565.833,427.053,566.937z"/>
		</g>
		<path fill="none" stroke="#FFFFFF" stroke-width="2.0253" stroke-miterlimit="10" d="M429.068,574.292
			c0,0-72.667,308.707-257.686,396.91"/>
		<path fill="none" stroke="#FFFFFF" stroke-width="2.0253" stroke-miterlimit="10" d="M429.068,574.292
			c0,0-53.143,134.269,29.838,245.552"/>
		<path fill="none" stroke="#FFFFFF" stroke-width="2.0253" stroke-miterlimit="10" d="M429.068,574.292
			c0,0-279.814,23.139-379.84,191.939"/>
		<path fill="none" stroke="#FFFFFF" stroke-width="2.0253" stroke-miterlimit="10" d="M429.068,574.292
			c0,0-150.209,59.693-222.25-38.598"/>
		<path fill="none" stroke="#FFFFFF" stroke-width="2.0253" stroke-miterlimit="10" d="M441.791,570.591
			c0,0,148.415,63.992,129.863,184.441"/>
		<path fill="none" stroke="#FFFFFF" stroke-width="2.0253" stroke-miterlimit="10" d="M438.531,572.421
			c0,0-66.747-191.515-302.886-334.148"/>
		<g>
			<path fill="#FFFFFF" d="M458.51,575.698c1.804-11.045-5.667-21.453-16.71-23.265c-11.045-1.812-21.453,5.666-23.256,16.712
				c-1.812,11.043,5.668,21.46,16.701,23.263C446.29,594.212,456.698,586.744,458.51,575.698z"/>
			<path opacity="0.92" fill="#C2DCDD" d="M485.994,673.264c1.804-11.045-5.669-21.453-16.712-23.265
				c-11.044-1.812-21.454,5.67-23.256,16.714c-1.812,11.042,5.669,21.457,16.704,23.262
				C473.774,691.779,484.183,684.309,485.994,673.264z"/>
			<path opacity="0.84" fill="#87BCBE" d="M513.479,770.83c1.803-11.045-5.671-21.454-16.715-23.266
				c-11.041-1.812-21.453,5.674-23.256,16.716c-1.812,11.04,5.672,21.454,16.709,23.261
				C501.258,789.348,511.666,781.874,513.479,770.83z"/>
			<path opacity="0.76" fill="#4F9DA1" d="M540.963,868.396c1.803-11.045-5.674-21.454-16.717-23.265
				c-11.039-1.812-21.454,5.677-23.256,16.717c-1.812,11.038,5.674,21.45,16.712,23.258
				C528.742,886.914,539.15,879.439,540.963,868.396z"/>
			<path opacity="0.68" fill="#067F86" d="M568.446,965.961c1.804-11.045-5.675-21.455-16.718-23.265
				c-11.037-1.812-21.455,5.682-23.256,16.718c-1.812,11.038,5.676,21.447,16.716,23.258
				C556.227,984.482,566.634,977.004,568.446,965.961z"/>
			<path opacity="0.6" fill="#00636D" d="M595.931,1063.527c1.803-11.045-5.677-21.456-16.72-23.266
				c-11.036-1.812-21.455,5.686-23.256,16.72c-1.812,11.036,5.677,21.444,16.719,23.256
				C583.71,1082.05,594.118,1074.569,595.931,1063.527z"/>
		</g>
		<g>
			<path fill="#00636D" d="M-41.412,549.802c4.875-29.808-15.333-57.919-45.144-62.808c-29.797-4.875-57.919,15.333-62.797,45.143
				c-4.875,29.797,15.324,57.901,45.132,62.797C-74.41,599.812-46.299,579.61-41.412,549.802z"/>
			<path fill="#3C9398" d="M197.109,503.132c3.851-23.554-12.111-45.764-35.666-49.627c-23.546-3.854-45.764,12.111-49.616,35.666
				c-3.855,23.546,12.105,45.754,35.655,49.62C171.037,542.644,193.247,526.686,197.109,503.132z"/>
			<path fill="#9AC7C8" d="M387.131,542.911c2.827-17.299-8.889-33.608-26.188-36.446c-17.296-2.833-33.609,8.888-36.437,26.189
				c-2.834,17.295,8.887,33.607,26.178,36.441C367.985,571.924,384.294,560.21,387.131,542.911z"/>
			<path fill="#FFFFFF" d="M458.51,575.698c1.804-11.045-5.667-21.453-16.71-23.265c-11.045-1.812-21.453,5.666-23.256,16.712
				c-1.812,11.043,5.668,21.46,16.701,23.263C446.29,594.212,456.698,586.744,458.51,575.698z"/>
		</g>
		<g>
			<path opacity="0.6" fill="#00636D" d="M586.101,144.047c2.901-17.676-9.068-34.339-26.745-37.229
				c-17.664-2.89-34.337,9.078-37.229,26.754c-2.882,17.674,9.089,34.328,26.753,37.229
				C566.548,173.682,583.22,161.712,586.101,144.047z"/>
			<path opacity="0.68" fill="#067F86" d="M524.666,274.534c2.682-16.35-8.388-31.762-24.738-34.436
				c-16.34-2.675-31.76,8.395-34.434,24.746c-2.668,16.348,8.404,31.754,24.742,34.436
				C506.58,301.945,521.999,290.875,524.666,274.534z"/>
			<path opacity="0.76" fill="#4F9DA1" d="M487.721,392.404c2.462-15.024-7.708-29.185-22.731-31.644
				c-15.017-2.458-29.184,7.713-31.64,22.737c-2.453,15.022,7.721,29.181,22.732,31.643
				C471.101,417.59,485.268,407.42,487.721,392.404z"/>
			<path opacity="0.84" fill="#87BCBE" d="M468.734,488.191c2.243-13.697-7.027-26.607-20.724-28.85
				c-13.693-2.244-26.607,7.03-28.846,20.729c-2.24,13.696,7.037,26.607,20.723,28.85
				C453.582,511.154,466.495,501.885,468.734,488.191z"/>
			<path opacity="0.92" fill="#C2DCDD" d="M461.175,552.442c2.022-12.371-6.348-24.03-18.718-26.058
				c-12.368-2.027-24.029,6.348-26.05,18.721c-2.026,12.369,6.352,24.033,18.712,26.056
				C447.488,573.18,459.149,564.812,461.175,552.442z"/>
			<path fill="#FFFFFF" d="M458.51,575.698c1.804-11.045-5.667-21.453-16.71-23.265c-11.045-1.812-21.453,5.666-23.256,16.712
				c-1.812,11.043,5.668,21.46,16.701,23.263C446.29,594.212,456.698,586.744,458.51,575.698z"/>
		</g>
		<g>
			<path fill="#00636D" d="M582.5,369.348c-3.588,6.537-1.219,14.724,5.277,18.291c6.526,3.606,14.717,1.245,18.321-5.261
				c3.595-6.514,1.214-14.728-5.281-18.311C594.293,360.482,586.104,362.852,582.5,369.348z"/>
			<path fill="#21878D" d="M555.474,454.363c-5.458,3.626-6.931,10.988-3.318,16.411c3.625,5.457,10.972,6.943,16.424,3.332
				c5.445-3.618,6.926-10.984,3.314-16.419C568.271,452.241,560.913,450.749,555.474,454.363z"/>
			<path fill="#6AACAF" d="M508.519,514.636c-5.582,1.123-9.195,6.564-8.078,12.119c1.126,5.576,6.549,9.192,12.126,8.077
				c5.568-1.119,9.183-6.552,8.064-12.117C519.515,517.14,514.085,513.516,508.519,514.636z"/>
			<path fill="#B2D4D5" d="M463.864,550.668c-4.866-0.578-9.292,2.91-9.875,7.762c-0.57,4.861,2.899,9.28,7.767,9.859
				c4.857,0.578,9.272-2.894,9.85-7.754C472.195,555.672,468.724,551.245,463.864,550.668z"/>
			<path fill="#FFFFFF" d="M448.77,573.665c1.717-3.855-0.039-8.367-3.894-10.07c-3.864-1.686-8.389,0.07-10.092,3.924
				c-1.685,3.854,0.067,8.367,3.933,10.062C442.57,579.275,447.075,577.53,448.77,573.665z"/>
		</g>
		<g>
			<path fill="#00636D" d="M575.843,748.088c-3.865-2.326-8.817-1.055-11.131,2.782c-2.291,3.843-1.041,8.817,2.796,11.119
				c3.835,2.295,8.839,1.043,11.112-2.793C580.925,755.351,579.689,750.371,575.843,748.088z"/>
			<path fill="#21878D" d="M558.824,683.189c4.301,0.205,7.969-3.129,8.166-7.42c0.205-4.312-3.11-7.973-7.409-8.166
				c-4.335-0.209-7.974,3.112-8.184,7.415C551.188,679.321,554.516,682.975,558.824,683.189z"/>
			<path fill="#6AACAF" d="M515.255,625.086c4.114-0.876,6.743-4.928,5.873-9.037c-0.882-4.12-4.924-6.752-9.03-5.869
				c-4.138,0.883-6.757,4.919-5.889,9.03C507.08,623.326,511.125,625.951,515.255,625.086z"/>
			<path fill="#B2D4D5" d="M466.774,589.718c4.014-1.162,6.325-5.366,5.161-9.379c-1.166-4.015-5.371-6.317-9.371-5.149
				c-4.024,1.177-6.333,5.363-5.177,9.366C458.547,588.57,462.742,590.884,466.774,589.718z"/>
			<path fill="#FFFFFF" d="M443.791,577.933c4.068-1.13,6.446-5.322,5.34-9.404c-1.138-4.063-5.339-6.441-9.395-5.32
				c-4.071,1.135-6.459,5.328-5.357,9.384C435.503,576.661,439.695,579.052,443.791,577.933z"/>
		</g>
		<g>
			<path fill="#00636D" d="M902.904,476.85c2.629,0.983,5.521-0.365,6.514-2.979c0.964-2.63-0.373-5.54-2.987-6.516
				c-2.603-0.973-5.532,0.358-6.496,2.998C898.951,472.955,900.291,475.868,902.904,476.85z"/>
			<path fill="#21878D" d="M756.438,457.65c-0.536-3.096-3.492-5.16-6.572-4.625c-3.072,0.536-5.147,3.476-4.608,6.571
				c0.538,3.08,3.467,5.148,6.554,4.621C754.911,463.676,756.971,460.741,756.438,457.65z"/>
			<path fill="#6AACAF" d="M606.435,492.856c-1.562-3.127-5.372-4.383-8.479-2.826c-3.101,1.562-4.378,5.359-2.814,8.476
				c1.562,3.116,5.351,4.389,8.469,2.83C606.74,499.769,607.994,495.981,606.435,492.856z"/>
			<path fill="#B2D4D5" d="M492.544,541.416c-2.302-3.097-6.686-3.731-9.759-1.437c-3.069,2.303-3.731,6.68-1.431,9.755
				c2.3,3.094,6.669,3.745,9.758,1.443C494.21,548.868,494.846,544.512,492.544,541.416z"/>
			<path fill="#FFFFFF" d="M447.346,565.339c-2.913-3.066-7.759-3.201-10.805-0.306c-3.043,2.908-3.2,7.757-0.306,10.802
				c2.91,3.075,7.738,3.209,10.812,0.315C450.109,573.222,450.244,568.422,447.346,565.339z"/>
		</g>
		<g>
			<path opacity="0.6" fill="#00636D" d="M842.082,724.344c11.533,2.219,22.695-5.337,24.912-16.867
				c2.215-11.523-5.341-22.686-16.867-24.918c-11.546-2.198-22.714,5.345-24.914,16.863
				C822.99,710.967,830.552,722.129,842.082,724.344z"/>
			<path opacity="0.7" fill="#21878D" d="M691.417,716.9c7.566,6.242,18.773,5.175,25.016-2.39
				c6.242-7.56,5.172-18.765-2.387-25.021c-7.583-6.234-18.788-5.174-25.015,2.388C682.773,699.448,683.853,710.661,691.417,716.9z"
				/>
			<path opacity="0.8" fill="#6AACAF" d="M560.641,662.974c4.275,6.633,13.126,8.559,19.762,4.288
				c6.64-4.267,8.56-13.115,4.294-19.767c-4.288-6.633-13.134-8.559-19.76-4.286C558.28,647.478,556.37,656.342,560.641,662.974z"/>
			<path opacity="0.9" fill="#B2D4D5" d="M467.979,601.81c2.022,5.66,8.249,8.628,13.914,6.613
				c5.674-2.009,8.632-8.234,6.622-13.917c-2.028-5.664-8.253-8.625-13.913-6.608C468.916,589.902,465.965,596.15,467.979,601.81z"
				/>
			<path fill="#FFFFFF" d="M441.117,562.954c-4.224,0.367-7.307,4.106-6.922,8.299c0.394,4.194,4.106,7.295,8.306,6.912
				c4.212-0.375,7.301-4.087,6.921-8.307C449.029,565.658,445.317,562.57,441.117,562.954z"/>
		</g>
		<g>
			<path fill="#00636D" d="M470.69,826.343c3.606-6.536,1.224-14.716-5.289-18.313c-6.519-3.582-14.708-1.22-18.314,5.287
				c-3.597,6.529-1.213,14.705,5.293,18.308C458.914,835.207,467.096,832.855,470.69,826.343z"/>
			<path fill="#21878D" d="M425.774,744.387c5.466-3.633,6.937-10.97,3.317-16.424c-3.622-5.441-10.962-6.929-16.421-3.316
				c-5.451,3.623-6.923,10.963-3.311,16.417C412.993,746.511,420.327,747.998,425.774,744.387z"/>
			<path fill="#6AACAF" d="M414.886,665.413c5.593-1.126,9.195-6.536,8.075-12.121c-1.118-5.568-6.528-9.183-12.115-8.066
				c-5.571,1.114-9.181,6.53-8.065,12.111C403.904,662.914,409.318,666.521,414.886,665.413z"/>
			<path fill="#B2D4D5" d="M421.011,605.787c4.879,0.587,9.286-2.874,9.864-7.754c0.584-4.858-2.869-9.271-7.75-9.85
				c-4.852-0.591-9.27,2.87-9.852,7.743C412.691,600.791,416.157,605.204,421.011,605.787z"/>
			<path fill="#FFFFFF" d="M422.106,571.182c-1.707,3.857,0.048,8.349,3.892,10.062c3.874,1.695,8.374-0.028,10.071-3.91
				c1.706-3.854-0.025-8.356-3.908-10.051C428.322,565.573,423.804,567.308,422.106,571.182z"/>
		</g>
		<g>
			<path fill="#00636D" d="M173.121,966.471c-2.64-0.979-5.532,0.356-6.525,2.995c-0.972,2.602,0.385,5.514,2.978,6.493
				c2.623,0.977,5.542-0.362,6.517-2.986C177.062,970.35,175.714,967.442,173.121,966.471z"/>
			<path fill="#21878D" d="M284.093,872.97c0.534,3.074,3.484,5.136,6.558,4.608c3.084-0.535,5.159-3.478,4.624-6.572
				c-0.542-3.086-3.487-5.152-6.56-4.619C285.617,866.934,283.563,869.863,284.093,872.97z"/>
			<path fill="#6AACAF" d="M363.962,742.518c1.558,3.107,5.354,4.367,8.466,2.809c3.11-1.553,4.388-5.355,2.825-8.48
				c-1.56-3.115-5.369-4.386-8.479-2.82C363.656,735.596,362.404,739.385,363.962,742.518z"/>
			<path fill="#B2D4D5" d="M409.25,628.085c2.299,3.078,6.661,3.722,9.748,1.415c3.074-2.285,3.736-6.664,1.432-9.761
				c-2.294-3.083-6.684-3.735-9.767-1.425C407.583,620.622,406.952,624.988,409.25,628.085z"/>
			<path fill="#FFFFFF" d="M423.545,579.554c2.904,3.057,7.729,3.201,10.796,0.281c3.047-2.88,3.192-7.72,0.3-10.806
				c-2.908-3.045-7.75-3.201-10.822-0.289C420.781,571.659,420.646,576.487,423.545,579.554z"/>
		</g>
		<g>
			<path fill="#00636D" d="M44.374,786.944c11.432,2.692,22.879-4.409,25.558-15.851c2.688-11.441-4.426-22.883-15.864-25.567
				c-11.437-2.661-22.869,4.434-25.545,15.863C25.84,772.82,32.943,784.259,44.374,786.944z"/>
			<path fill="#21878D" d="M139.338,678.749c7.567,6.319,18.833,5.291,25.153-2.295c6.319-7.57,5.278-18.843-2.304-25.161
				c-7.582-6.304-18.835-5.264-25.144,2.301C130.73,661.169,131.765,672.432,139.338,678.749z"/>
			<path fill="#6AACAF" d="M264.873,615.36c4.624,6.494,13.655,7.998,20.164,3.352c6.494-4.619,7.988-13.666,3.345-20.167
				c-4.638-6.494-13.666-7.973-20.15-3.355C261.733,599.828,260.239,608.86,264.873,615.36z"/>
			<path fill="#B2D4D5" d="M373.928,585.61c2.782,5.414,9.448,7.54,14.889,4.737c5.409-2.771,7.53-9.461,4.728-14.888
				c-2.789-5.423-9.464-7.516-14.867-4.747C373.251,573.511,371.135,580.183,373.928,585.61z"/>
			<path fill="#FFFFFF" d="M421.949,577.184c1.58,3.894,6.043,5.762,9.974,4.164c3.883-1.563,5.753-6.055,4.15-9.969
				c-1.579-3.91-6.062-5.74-9.942-4.18C422.219,568.799,420.357,573.271,421.949,577.184z"/>
		</g>
		<g>
			<path fill="#00636D" d="M166.775,243.36c2.814-17.174-8.846-33.394-26.029-36.208c-17.174-2.804-33.385,8.837-36.21,26.011
				c-2.813,17.192,8.828,33.412,26.022,36.216C147.742,272.196,163.953,260.552,166.775,243.36z"/>
			<path fill="#3C9398" d="M345.545,392.62c2.39-14.583-7.51-28.355-22.101-30.745c-14.585-2.381-28.347,7.504-30.745,22.092
				c-2.39,14.597,7.501,28.365,22.093,30.749C329.383,417.107,343.149,407.218,345.545,392.62z"/>
			<path fill="#9AC7C8" d="M434.207,521.042c1.967-11.994-6.175-23.319-18.173-25.283c-11.996-1.958-23.311,6.17-25.28,18.172
				c-1.966,12.001,6.175,23.318,18.164,25.282C420.917,541.179,432.237,533.045,434.207,521.042z"/>
			<path fill="#FFFFFF" d="M455.553,575.214c1.542-9.404-4.84-18.281-14.246-19.821c-9.406-1.535-18.272,4.837-19.814,14.252
				c-1.542,9.406,4.849,18.272,14.234,19.814C445.133,591.002,454.009,584.623,455.553,575.214z"/>
		</g>
	</g>
</g>
</svg>
