<?xml version="1.0" encoding="utf-8"?>
<!-- Generator: Adobe Illustrator 16.0.4, SVG Export Plug-In . SVG Version: 6.00 Build 0)  -->
<!DOCTYPE svg PUBLIC "-//W3C//DTD SVG 1.1//EN" "http://www.w3.org/Graphics/SVG/1.1/DTD/svg11.dtd">
<svg version="1.1" id="Capa_1" xmlns="http://www.w3.org/2000/svg" xmlns:xlink="http://www.w3.org/1999/xlink" x="0px" y="0px"
	 width="1162px" height="1064px" viewBox="0 0 1162 1064" enable-background="new 0 0 1162 1064" xml:space="preserve">
<g>
	<g>
		<image overflow="visible" width="867" height="651" xlink:href="69AFABF7EBB3E433.png"  transform="matrix(1 0 0 1 166.5 144.5)">
		</image>
	</g>
	<g>
		
			<line fill="none" stroke="#FFFFFF" stroke-width="4.3257" stroke-miterlimit="10" x1="791.766" y1="1031.963" x2="645.01" y2="510.993"/>
		<path fill="none" stroke="#FFFFFF" stroke-width="4.3257" stroke-miterlimit="10" d="M645.01,510.993
			c0,0-302.425-160.878-570.178-33.593"/>
		<path fill="none" stroke="#FFFFFF" stroke-width="4.3257" stroke-miterlimit="10" d="M645.01,510.993
			c0,0-7.276-223.463,122.56-461.438"/>
		<path fill="none" stroke="#FFFFFF" stroke-width="2.1629" stroke-miterlimit="10" d="M648.5,509.039
			c0,0,288.005-178.25,494.312-105.146"/>
		<path fill="none" stroke="#FFFFFF" stroke-width="2.1629" stroke-miterlimit="10" d="M648.5,509.039
			c0,0,141.516-61.27,162.893-207.966"/>
		<path fill="none" stroke="#FFFFFF" stroke-width="2.1629" stroke-miterlimit="10" d="M648.5,509.039
			c0,0,228.764,193.8,431.766,141.885"/>
		<g>
			<path fill="#FFFFFF" d="M393.102,479.14c4.119,2.449,9.429,1.1,11.893-2.974c2.456-4.108,1.12-9.418-2.977-11.868
				c-4.088-2.45-9.43-1.108-11.857,2.986C387.682,471.38,389.016,476.693,393.102,479.14z"/>
			<path fill="#FFFFFF" d="M467.51,514.142c-4.586-0.224-8.489,3.341-8.712,7.92c-0.223,4.6,3.309,8.507,7.89,8.728
				c4.603,0.21,8.511-3.34,8.739-7.92C475.657,518.266,472.1,514.366,467.51,514.142z"/>
			<path fill="#FFFFFF" d="M543.407,523.769c-4.39,0.926-7.193,5.259-6.266,9.645c0.929,4.396,5.244,7.21,9.626,6.281
				c4.395-0.94,7.209-5.259,6.287-9.642C552.126,525.646,547.802,522.847,543.407,523.769z"/>
			<path fill="#FFFFFF" d="M606.407,513.555c-4.282,1.237-6.75,5.73-5.505,10.009c1.229,4.281,5.722,6.751,9.994,5.514
				c4.279-1.246,6.75-5.721,5.523-9.997C615.172,514.787,610.696,512.327,606.407,513.555z"/>
			<path fill="#FFFFFF" d="M632.761,505.136c-4.345,1.194-6.896,5.692-5.696,10.037c1.183,4.334,5.691,6.888,10.022,5.695
				c4.338-1.194,6.901-5.679,5.717-10.013C641.599,506.501,637.113,503.957,632.761,505.136z"/>
		</g>
		<path fill="none" stroke="#FFFFFF" stroke-width="2.1629" stroke-miterlimit="10" d="M634.914,512.99
			c0,0-77.604,329.68-275.192,423.874"/>
		<path fill="none" stroke="#FFFFFF" stroke-width="2.1629" stroke-miterlimit="10" d="M634.914,512.99
			c0,0-56.753,143.391,31.864,262.233"/>
		<path fill="none" stroke="#FFFFFF" stroke-width="2.1629" stroke-miterlimit="10" d="M634.914,512.99
			c0,0-298.824,24.711-405.646,204.979"/>
		<path fill="none" stroke="#FFFFFF" stroke-width="2.1629" stroke-miterlimit="10" d="M634.914,512.99
			c0,0-160.414,63.748-237.35-41.22"/>
		<path fill="none" stroke="#FFFFFF" stroke-width="2.1629" stroke-miterlimit="10" d="M648.5,509.039
			c0,0,158.499,68.339,138.687,196.971"/>
		<path fill="none" stroke="#FFFFFF" stroke-width="2.1629" stroke-miterlimit="10" d="M645.02,510.993
			c0,0-71.282-204.526-323.463-356.849"/>
		<g>
			<path fill="#FFFFFF" d="M666.355,514.493c1.926-11.795-6.053-22.911-17.846-24.846c-11.795-1.935-22.91,6.05-24.836,17.848
				c-1.935,11.793,6.053,22.918,17.836,24.843C653.306,534.264,664.421,526.288,666.355,514.493z"/>
			<path opacity="0.92" fill="#E7F5EF" d="M695.706,618.687c1.926-11.796-6.055-22.911-17.847-24.846
				c-11.793-1.936-22.911,6.055-24.836,17.85c-1.936,11.792,6.054,22.915,17.84,24.842
				C682.656,638.46,693.772,630.481,695.706,618.687z"/>
			<path opacity="0.84" fill="#CFECDF" d="M725.058,722.881c1.926-11.796-6.057-22.912-17.849-24.846
				c-11.792-1.936-22.912,6.059-24.837,17.852c-1.935,11.789,6.057,22.91,17.844,24.84
				C712.008,742.655,723.123,734.676,725.058,722.881z"/>
			<path opacity="0.76" fill="#B6E2CF" d="M754.409,827.075c1.925-11.796-6.06-22.913-17.852-24.847
				c-11.789-1.935-22.911,6.064-24.836,17.854c-1.935,11.788,6.058,22.907,17.848,24.839
				C741.359,846.852,752.475,838.869,754.409,827.075z"/>
			<path opacity="0.68" fill="#9ED9BF" d="M783.76,931.269c1.926-11.796-6.061-22.912-17.853-24.846
				c-11.788-1.936-22.912,6.068-24.837,17.854c-1.934,11.786,6.061,22.904,17.852,24.837
				C770.71,951.047,781.825,943.062,783.76,931.269z"/>
			<path opacity="0.6" fill="#86CFAF" d="M813.111,1035.463c1.926-11.796-6.062-22.913-17.855-24.846
				c-11.785-1.936-22.912,6.072-24.836,17.855c-1.935,11.785,6.062,22.9,17.855,24.836
				C800.062,1055.243,811.177,1047.256,813.111,1035.463z"/>
		</g>
		<g>
			<path fill="#86CFAF" d="M132.47,486.837c5.207-31.833-16.375-61.854-48.21-67.075c-31.821-5.207-61.854,16.375-67.063,48.21
				c-5.207,31.821,16.365,61.835,48.198,67.063C97.23,540.244,127.251,518.67,132.47,486.837z"/>
			<path fill="#AEDFCA" d="M387.196,436.998c4.113-25.154-12.934-48.874-38.089-52.999c-25.146-4.116-48.873,12.934-52.987,38.09
				c-4.116,25.145,12.927,48.862,38.078,52.989C359.353,479.192,383.072,462.151,387.196,436.998z"/>
			<path fill="#D7EFE4" d="M590.127,479.479c3.02-18.475-9.493-35.893-27.967-38.923c-18.471-3.025-35.892,9.492-38.912,27.969
				c-3.025,18.469,9.49,35.89,27.957,38.917C569.681,510.461,587.098,497.953,590.127,479.479z"/>
			<path fill="#FFFFFF" d="M666.355,514.493c1.926-11.795-6.053-22.911-17.846-24.846c-11.795-1.935-22.91,6.05-24.836,17.848
				c-1.935,11.793,6.053,22.918,17.836,24.843C653.306,534.264,664.421,526.288,666.355,514.493z"/>
		</g>
		<g>
			<path opacity="0.6" fill="#86CFAF" d="M802.614,53.517c3.099-18.877-9.685-36.672-28.562-39.759
				c-18.865-3.086-36.67,9.694-39.759,28.571c-3.077,18.875,9.706,36.66,28.571,39.759
				C781.732,85.165,799.537,72.381,802.614,53.517z"/>
			<path opacity="0.68" fill="#9ED9BF" d="M737.006,192.869c2.864-17.461-8.958-33.92-26.419-36.776
				c-17.45-2.856-33.918,8.965-36.773,26.427c-2.849,17.458,8.976,33.911,26.424,36.775
				C717.69,222.142,734.157,210.319,737.006,192.869z"/>
			<path opacity="0.76" fill="#B6E2CF" d="M697.55,318.745c2.63-16.045-8.231-31.168-24.274-33.793
				c-16.037-2.626-31.166,8.236-33.79,24.282c-2.62,16.042,8.245,31.163,24.277,33.793
				C679.801,345.642,694.93,334.782,697.55,318.745z"/>
			<path opacity="0.84" fill="#CFECDF" d="M677.274,421.041c2.395-14.628-7.506-28.416-22.133-30.812
				c-14.623-2.396-28.414,7.508-30.805,22.138c-2.392,14.625,7.514,28.415,22.13,30.81
				C661.092,445.562,674.882,435.664,677.274,421.041z"/>
			<path opacity="0.92" fill="#E7F5EF" d="M669.201,489.657c2.16-13.212-6.779-25.663-19.989-27.829
				c-13.209-2.166-25.662,6.779-27.82,19.993c-2.163,13.209,6.783,25.667,19.983,27.826
				C654.585,511.804,667.038,502.866,669.201,489.657z"/>
			<path fill="#FFFFFF" d="M666.355,514.493c1.926-11.795-6.053-22.911-17.846-24.846c-11.795-1.935-22.91,6.05-24.836,17.848
				c-1.935,11.793,6.053,22.918,17.836,24.843C653.306,534.264,664.421,526.288,666.355,514.493z"/>
		</g>
		<g>
			<path fill="#86CFAF" d="M798.771,294.129c-3.832,6.979-1.301,15.723,5.637,19.533c6.969,3.854,15.716,1.332,19.564-5.617
				c3.839-6.957,1.298-15.726-5.637-19.554C811.363,284.66,802.619,287.193,798.771,294.129z"/>
			<path fill="#A4DBC3" d="M769.908,384.918c-5.829,3.872-7.402,11.734-3.545,17.526c3.871,5.828,11.716,7.416,17.539,3.557
				c5.816-3.864,7.396-11.727,3.543-17.532C783.572,382.652,775.716,381.061,769.908,384.918z"/>
			<path fill="#C3E7D7" d="M719.763,449.284c-5.96,1.197-9.82,7.01-8.628,12.942c1.202,5.956,6.993,9.817,12.948,8.626
				c5.947-1.195,9.807-6.996,8.614-12.938C731.504,451.959,725.707,448.09,719.763,449.284z"/>
			<path fill="#E1F3EB" d="M672.074,487.763c-5.197-0.618-9.927,3.108-10.548,8.288c-0.607,5.191,3.099,9.91,8.295,10.53
				c5.187,0.617,9.901-3.09,10.519-8.28C680.971,493.107,677.262,488.38,672.074,487.763z"/>
			<path fill="#FFFFFF" d="M655.951,512.323c1.834-4.119-0.041-8.935-4.155-10.755c-4.128-1.8-8.962,0.075-10.781,4.19
				c-1.795,4.115,0.075,8.935,4.202,10.746C649.33,518.312,654.143,516.449,655.951,512.323z"/>
		</g>
		<g>
			<path fill="#86CFAF" d="M791.666,698.59c-4.126-2.481-9.418-1.126-11.884,2.972c-2.45,4.104-1.118,9.417,2.98,11.876
				c4.096,2.451,9.441,1.115,11.87-2.982C797.094,706.346,795.771,701.029,791.666,698.59z"/>
			<path fill="#A4DBC3" d="M773.488,629.287c4.594,0.218,8.512-3.342,8.723-7.926c0.218-4.605-3.325-8.515-7.916-8.722
				c-4.625-0.224-8.504,3.324-8.735,7.919C765.344,625.155,768.886,629.058,773.488,629.287z"/>
			<path fill="#C3E7D7" d="M726.957,567.237c4.396-0.938,7.202-5.264,6.273-9.653c-0.941-4.402-5.262-7.208-9.646-6.268
				c-4.417,0.942-7.206,5.251-6.286,9.643C718.235,565.355,722.546,568.162,726.957,567.237z"/>
			<path fill="#E1F3EB" d="M675.184,529.464c4.287-1.242,6.754-5.729,5.511-10.015c-1.245-4.291-5.736-6.745-10.007-5.5
				c-4.297,1.257-6.764,5.727-5.528,10.001C666.397,528.239,670.878,530.712,675.184,529.464z"/>
			<path fill="#FFFFFF" d="M650.639,516.879c4.343-1.209,6.883-5.683,5.7-10.043c-1.212-4.343-5.702-6.878-10.032-5.681
				c-4.347,1.211-6.897,5.687-5.722,10.021C641.787,515.523,646.264,518.075,650.639,516.879z"/>
		</g>
		<g>
			<path fill="#86CFAF" d="M1140.939,408.923c2.809,1.05,5.896-0.39,6.958-3.18c1.028-2.81-0.4-5.917-3.19-6.958
				c-2.781-1.039-5.909,0.382-6.94,3.201C1136.719,404.765,1138.151,407.875,1140.939,408.923z"/>
			<path fill="#A4DBC3" d="M984.523,388.425c-0.572-3.307-3.73-5.51-7.018-4.939c-3.282,0.573-5.5,3.712-4.923,7.018
				c0.574,3.29,3.704,5.497,7,4.934C982.893,394.861,985.094,391.726,984.523,388.425z"/>
			<path fill="#C3E7D7" d="M824.329,426.024c-1.669-3.339-5.739-4.681-9.055-3.018c-3.313,1.669-4.677,5.721-3.006,9.05
				c1.669,3.329,5.714,4.686,9.044,3.021C824.653,433.406,825.996,429.359,824.329,426.024z"/>
			<path fill="#E1F3EB" d="M702.699,477.883c-2.458-3.307-7.143-3.983-10.421-1.534c-3.278,2.46-3.979,7.126-1.526,10.416
				c2.463,3.301,7.121,3.999,10.42,1.54C704.478,485.841,705.156,481.187,702.699,477.883z"/>
			<path fill="#FFFFFF" d="M654.432,503.432c-3.111-3.273-8.288-3.418-11.538-0.327c-3.25,3.106-3.422,8.282-0.324,11.533
				c3.105,3.286,8.263,3.429,11.545,0.334C657.383,511.85,657.526,506.72,654.432,503.432z"/>
		</g>
		<g>
			<path opacity="0.6" fill="#86CFAF" d="M1075.994,673.229c12.315,2.372,24.233-5.693,26.601-18.009
				c2.368-12.305-5.702-24.226-18.011-26.611c-12.33-2.345-24.257,5.711-26.608,18.008
				C1055.604,658.943,1063.678,670.869,1075.994,673.229z"/>
			<path opacity="0.7" fill="#A4DBC3" d="M915.086,665.285c8.08,6.666,20.045,5.529,26.712-2.55
				c6.668-8.071,5.525-20.039-2.545-26.722c-8.1-6.655-20.066-5.523-26.716,2.549C905.855,646.647,907.005,658.625,915.086,665.285z
				"/>
			<path opacity="0.8" fill="#C3E7D7" d="M775.422,607.695c4.566,7.085,14.016,9.143,21.104,4.582
				c7.091-4.556,9.155-14.015,4.587-21.111c-4.565-7.091-14.028-9.137-21.103-4.576
				C772.901,591.147,770.859,600.616,775.422,607.695z"/>
			<path opacity="0.9" fill="#E1F3EB" d="M676.468,542.376c2.158,6.044,8.808,9.216,14.857,7.065
				c6.058-2.146,9.23-8.799,7.072-14.865c-2.153-6.051-8.814-9.208-14.858-7.055C677.466,529.661,674.313,536.335,676.468,542.376z"
				/>
			<path fill="#FFFFFF" d="M647.78,500.883c-4.51,0.39-7.803,4.385-7.392,8.86c0.421,4.476,4.385,7.793,8.87,7.384
				c4.497-0.402,7.796-4.365,7.392-8.875C656.229,503.77,652.266,500.471,647.78,500.883z"/>
		</g>
		<g>
			<path fill="#86CFAF" d="M679.363,782.16c3.851-6.977,1.305-15.714-5.648-19.555c-6.961-3.828-15.706-1.306-19.558,5.643
				c-3.841,6.973-1.298,15.704,5.652,19.552C666.786,791.628,675.521,789.119,679.363,782.16z"/>
			<path fill="#A4DBC3" d="M631.4,694.636c5.835-3.876,7.407-11.713,3.543-17.537c-3.866-5.812-11.704-7.402-17.534-3.544
				c-5.821,3.868-7.396,11.706-3.538,17.531C617.749,696.904,625.58,698.493,631.4,694.636z"/>
			<path fill="#C3E7D7" d="M619.781,610.296c5.971-1.2,9.818-6.977,8.624-12.941c-1.192-5.947-6.972-9.81-12.936-8.617
				c-5.951,1.189-9.806,6.973-8.616,12.934C608.053,607.627,613.833,611.479,619.781,610.296z"/>
			<path fill="#E1F3EB" d="M626.331,546.62c5.211,0.617,9.914-3.067,10.535-8.279c0.625-5.187-3.063-9.902-8.274-10.52
				c-5.183-0.63-9.9,3.063-10.523,8.269C617.446,541.285,621.148,545.987,626.331,546.62z"/>
			<path fill="#FFFFFF" d="M627.507,509.662c-1.823,4.12,0.05,8.917,4.155,10.746c4.137,1.812,8.939-0.028,10.755-4.175
				c1.823-4.114-0.026-8.926-4.172-10.733C634.145,503.673,629.32,505.525,627.507,509.662z"/>
		</g>
		<g>
			<path fill="#86CFAF" d="M361.566,931.812c-2.822-1.042-5.911,0.38-6.971,3.2c-1.038,2.776,0.408,5.886,3.183,6.933
				c2.797,1.042,5.917-0.388,6.957-3.193C365.771,935.956,364.335,932.85,361.566,931.812z"/>
			<path fill="#A4DBC3" d="M480.076,831.965c0.568,3.28,3.717,5.482,7.004,4.917c3.292-0.568,5.508-3.713,4.937-7.021
				c-0.58-3.292-3.723-5.506-7.003-4.931C481.705,825.511,479.508,828.644,480.076,831.965z"/>
			<path fill="#C3E7D7" d="M565.378,692.646c1.661,3.318,5.715,4.664,9.04,2.997c3.319-1.655,4.686-5.718,3.016-9.057
				c-1.665-3.325-5.733-4.683-9.051-3.011C565.052,685.254,563.711,689.301,565.378,692.646z"/>
			<path fill="#E1F3EB" d="M613.748,570.438c2.451,3.29,7.112,3.976,10.408,1.511c3.282-2.437,3.99-7.118,1.531-10.423
				c-2.451-3.295-7.14-3.991-10.43-1.523C611.97,562.469,611.292,567.132,613.748,570.438z"/>
			<path fill="#FFFFFF" d="M629.017,518.61c3.098,3.267,8.255,3.418,11.527,0.301c3.255-3.073,3.409-8.245,0.323-11.54
				c-3.107-3.255-8.278-3.419-11.557-0.31C626.069,510.178,625.919,515.336,629.017,518.61z"/>
		</g>
		<g>
			<path fill="#86CFAF" d="M224.085,740.094c12.211,2.875,24.437-4.709,27.297-16.927c2.87-12.219-4.726-24.438-16.94-27.303
				c-12.218-2.844-24.425,4.733-27.282,16.939C204.296,725.013,211.883,737.227,224.085,740.094z"/>
			<path fill="#A4DBC3" d="M325.499,624.553c8.083,6.75,20.116,5.652,26.864-2.45c6.749-8.083,5.638-20.122-2.459-26.868
				c-8.1-6.734-20.116-5.624-26.853,2.456C316.308,605.783,317.415,617.809,325.499,624.553z"/>
			<path fill="#C3E7D7" d="M459.563,556.854c4.94,6.938,14.584,8.542,21.536,3.582c6.934-4.935,8.53-14.595,3.571-21.537
				c-4.954-6.938-14.593-8.517-21.521-3.585C456.211,540.271,454.616,549.915,459.563,556.854z"/>
			<path fill="#E1F3EB" d="M576.027,525.079c2.973,5.784,10.091,8.051,15.902,5.06c5.776-2.959,8.04-10.102,5.047-15.899
				c-2.978-5.792-10.104-8.027-15.877-5.07C575.305,512.16,573.045,519.285,576.027,525.079z"/>
			<path fill="#FFFFFF" d="M627.312,516.079c1.688,4.159,6.454,6.153,10.651,4.447c4.146-1.669,6.143-6.467,4.432-10.646
				c-1.686-4.176-6.47-6.13-10.618-4.464C627.599,507.125,625.611,511.902,627.312,516.079z"/>
		</g>
		<g>
			<path fill="#86CFAF" d="M354.801,159.576c3.004-18.341-9.447-35.663-27.797-38.667c-18.341-2.995-35.653,9.438-38.67,27.778
				c-3.005,18.36,9.428,35.682,27.79,38.677C334.475,190.371,351.787,177.937,354.801,159.576z"/>
			<path fill="#AEDFCA" d="M545.724,318.973c2.552-15.576-8.021-30.284-23.603-32.834c-15.576-2.543-30.274,8.014-32.833,23.592
				c-2.552,15.588,8.011,30.292,23.593,32.838C528.464,345.123,543.165,334.562,545.724,318.973z"/>
			<path fill="#D7EFE4" d="M640.404,456.122c2.1-12.81-6.594-24.903-19.408-27.001c-12.811-2.092-24.894,6.589-26.997,19.406
				c-2.099,12.817,6.595,24.903,19.397,27C626.211,477.626,638.3,468.94,640.404,456.122z"/>
			<path fill="#FFFFFF" d="M663.197,513.976c1.646-10.043-5.168-19.524-15.214-21.168c-10.045-1.639-19.514,5.166-21.16,15.221
				c-1.646,10.045,5.178,19.514,15.201,21.161C652.07,530.836,661.548,524.024,663.197,513.976z"/>
		</g>
	</g>
</g>
</svg>
