<?xml version="1.0" encoding="utf-8"?>
<!-- Generator: Adobe Illustrator 16.0.4, SVG Export Plug-In . SVG Version: 6.00 Build 0)  -->
<!DOCTYPE svg PUBLIC "-//W3C//DTD SVG 1.1//EN" "http://www.w3.org/Graphics/SVG/1.1/DTD/svg11.dtd">
<svg version="1.1" id="Capa_1" xmlns="http://www.w3.org/2000/svg" xmlns:xlink="http://www.w3.org/1999/xlink" x="0px" y="0px"
	 width="212px" height="576px" viewBox="705.726 29.645 212 576" enable-background="new 705.726 29.645 212 576"
	 xml:space="preserve">
<g>
	<g>
		<path fill="#FFFFFF" d="M813.097,268.115c-28.295,0-51.45-11.34-66.959-32.796c-14.106-19.511-21.562-46.504-21.562-78.06
			c0-31.557,7.455-58.549,21.562-78.061c15.509-21.457,38.664-32.797,66.959-32.797c28.296,0,51.449,11.34,66.961,32.797
			c14.107,19.512,21.562,46.504,21.562,78.061c0,31.556-7.455,58.548-21.562,78.06C864.546,256.775,841.393,268.115,813.097,268.115
			z M813.097,49.042c-63.32,0-85.88,55.902-85.88,108.217c0,52.313,22.56,108.214,85.88,108.214s85.883-55.901,85.883-108.214
			C898.979,104.945,876.417,49.042,813.097,49.042z M813.097,225.572c-25.705,0-38.738-22.983-38.738-68.312
			c0-45.325,13.033-68.307,38.738-68.307c25.708,0,38.741,22.982,38.741,68.307C851.838,202.589,838.805,225.572,813.097,225.572z
			 M813.097,91.593c-23.953,0-36.098,22.094-36.098,65.667c0,43.576,12.145,65.672,36.098,65.672
			c23.954,0,36.101-22.096,36.101-65.672C849.197,113.687,837.051,91.593,813.097,91.593z"/>
	</g>
	<g>
		<path fill="#FFFFFF" d="M864.084,559.348h-29.875c-7.067,0-9.454-2.389-9.454-9.466V512.27h-89.508
			c-7.078,0-9.467-2.389-9.467-9.467v-22.625c0-6.53,0.627-8.333,4.792-13.778l88.708-117.978c1.104-1.459,2.664-2.946,5.886-2.946
			h38.918c7.08,0,9.468,2.389,9.468,9.467V472.21h19.802c7.08,0,9.47,2.389,9.47,9.47v21.123c0,7.078-2.39,9.467-9.47,9.467h-19.802
			v37.612C873.552,556.959,871.164,559.348,864.084,559.348z M825.166,348.118c-2.164,0-3.021,0.896-3.779,1.895l-88.711,117.982
			c-3.818,4.992-4.255,6.244-4.255,12.183v22.625c0,5.614,1.212,6.826,6.826,6.826h92.148v40.253c0,5.614,1.211,6.826,6.813,6.826
			h29.875c5.614,0,6.827-1.212,6.827-6.826v-40.253h22.442c5.618,0,6.829-1.212,6.829-6.826V481.68c0-5.617-1.211-6.829-6.829-6.829
			h-22.442V354.944c0-5.614-1.213-6.826-6.827-6.826H825.166z M827.396,474.851h-54.071l54.071-71.003V474.851z M778.651,472.21
			h46.104v-60.536L778.651,472.21z"/>
	</g>
</g>
</svg>
